<svg width="207" height="213" viewBox="0 0 207 213" fill="none" xmlns="http://www.w3.org/2000/svg">
<path d="M49.0021 14.2695L32.6748 1.4857C31.6269 0.665168 30.1122 0.849541 29.2916 1.8975L2.19553 36.5042C1.37501 37.5522 1.55938 39.0669 2.60734 39.8874L18.9346 52.6712C19.9826 53.4917 21.4973 53.3074 22.3178 52.2594L49.4139 17.6527C50.2345 16.6048 50.0501 15.09 49.0021 14.2695Z" fill="#F5F5F5"/>
<path d="M19.4899 48.0329C19.4622 48.0606 16.8117 46.03 13.5691 43.4905C10.3266 40.9511 7.71775 38.8649 7.74088 38.8325C7.764 38.8002 10.4145 40.8354 13.6617 43.3749C16.9088 45.9143 19.513 48.0005 19.4899 48.0329Z" fill="#E0E0E0"/>
<path d="M44.0476 15.3113C44.0198 15.3437 41.3694 13.3084 38.1268 10.769C34.8843 8.2295 32.2708 6.14336 32.2986 6.11098C32.3263 6.0786 34.9722 8.11386 38.2193 10.6533C41.4665 13.1928 44.0707 15.2789 44.0476 15.3113Z" fill="#E0E0E0"/>
<path d="M13.2829 43.0743C13.2505 43.0465 18.8613 35.8306 25.809 26.9587C32.7567 18.0868 38.4184 10.9078 38.4508 10.931C38.4832 10.9541 32.8769 18.17 25.9246 27.0466C18.9723 35.9231 13.3152 43.0974 13.2829 43.0743Z" fill="#E0E0E0"/>
<path d="M28.7832 13.1419L30.2588 11.1621L32.109 12.5498C32.239 12.6465 32.3485 12.7679 32.4314 12.907C32.5144 13.0462 32.569 13.2003 32.5922 13.3606C32.6154 13.5209 32.6067 13.6842 32.5667 13.8411C32.5266 13.9981 32.456 14.1456 32.3588 14.2751C32.1634 14.5373 31.8721 14.7112 31.5487 14.7589C31.2253 14.8066 30.8961 14.7241 30.6334 14.5296L28.7832 13.1419Z" fill="#EBEBEB"/>
<path d="M30.5916 11.4121L29.1161 13.3872L27.2658 11.9995C26.9998 11.8068 26.8211 11.5163 26.7691 11.192C26.717 10.8676 26.7959 10.5358 26.9883 10.2696C27.085 10.1396 27.2064 10.03 27.3455 9.94713C27.4847 9.86421 27.6388 9.80958 27.7991 9.78638C27.9594 9.76317 28.1227 9.77184 28.2796 9.81189C28.4366 9.85194 28.5841 9.92259 28.7136 10.0198L30.5916 11.4121Z" fill="#E0E0E0"/>
<path d="M38.3398 20.4413L39.8154 18.4615L41.6657 19.8492C41.9281 20.0454 42.1022 20.3375 42.1498 20.6617C42.1975 20.9859 42.1149 21.3158 41.9201 21.5792C41.7232 21.8409 41.4307 22.0141 41.1066 22.0609C40.7825 22.1077 40.453 22.0243 40.1901 21.829L38.3398 20.4413Z" fill="#EBEBEB"/>
<path d="M40.1483 18.7067L38.6728 20.6864L36.8225 19.2987C36.6926 19.202 36.583 19.0806 36.5001 18.9415C36.4172 18.8024 36.3626 18.6482 36.3394 18.4879C36.3161 18.3276 36.3248 18.1643 36.3649 18.0074C36.4049 17.8504 36.4756 17.703 36.5727 17.5734C36.6694 17.4434 36.7908 17.3339 36.93 17.251C37.0691 17.168 37.2233 17.1134 37.3836 17.0902C37.5439 17.067 37.7072 17.0757 37.8641 17.1157C38.021 17.1558 38.1685 17.2264 38.2981 17.3236L40.1483 18.7067Z" fill="#E0E0E0"/>
<path d="M24.6436 18.6002L26.1191 16.6205L27.9694 18.0082C28.2318 18.2044 28.4059 18.4965 28.4535 18.8207C28.5012 19.1448 28.4186 19.4747 28.2238 19.7381C28.0269 19.9998 27.7344 20.173 27.4103 20.2198C27.0862 20.2666 26.7567 20.1832 26.4938 19.9879L24.6436 18.6002Z" fill="#EBEBEB"/>
<path d="M26.4469 16.8656L24.976 18.8454L23.1258 17.4577C22.9958 17.361 22.8862 17.2396 22.8033 17.1004C22.7204 16.9613 22.6658 16.8072 22.6426 16.6469C22.6194 16.4866 22.628 16.3233 22.6681 16.1663C22.7081 16.0094 22.7788 15.8619 22.876 15.7323C22.9727 15.6024 23.0941 15.4928 23.2332 15.4099C23.3723 15.327 23.5265 15.2724 23.6868 15.2491C23.8471 15.2259 24.0104 15.2346 24.1673 15.2747C24.3243 15.3147 24.4717 15.3854 24.6013 15.4825L26.4469 16.8656Z" fill="#E0E0E0"/>
<path d="M34.417 26.0568L35.8926 24.0817L37.7428 25.4693C38.0049 25.6647 38.1789 25.956 38.2266 26.2794C38.2743 26.6029 38.1918 26.932 37.9972 27.1947C37.9004 27.3251 37.7789 27.4352 37.6395 27.5186C37.5001 27.602 37.3457 27.6571 37.185 27.6808C37.0243 27.7044 36.8605 27.6961 36.703 27.6563C36.5456 27.6166 36.3975 27.5462 36.2672 27.4491L34.417 26.0568Z" fill="#EBEBEB"/>
<path d="M36.2394 24.3267L34.7685 26.3064L32.9182 24.9188C32.7883 24.8221 32.6787 24.7007 32.5958 24.5615C32.5129 24.4224 32.4583 24.2683 32.4351 24.108C32.4119 23.9477 32.4205 23.7844 32.4606 23.6274C32.5006 23.4705 32.5713 23.323 32.6684 23.1934C32.8638 22.9313 33.1551 22.7573 33.4785 22.7096C33.802 22.6619 34.1311 22.7444 34.3938 22.939L36.2394 24.3267Z" fill="#E0E0E0"/>
<path d="M20.5132 24.0539L21.9888 22.0741L23.839 23.4618C23.9689 23.5585 24.0785 23.6799 24.1614 23.819C24.2443 23.9581 24.299 24.1123 24.3222 24.2726C24.3454 24.4329 24.3367 24.5962 24.2967 24.7531C24.2566 24.9101 24.186 25.0576 24.0888 25.1871C23.8934 25.4493 23.6021 25.6232 23.2787 25.6709C22.9553 25.7186 22.6261 25.6361 22.3634 25.4415L20.5132 24.0539Z" fill="#EBEBEB"/>
<path d="M22.3076 22.3331L20.832 24.3128L18.9818 22.9251C18.8515 22.8288 18.7415 22.7076 18.6581 22.5687C18.5748 22.4297 18.5197 22.2756 18.4961 22.1153C18.4724 21.955 18.4807 21.7916 18.5204 21.6345C18.5601 21.4774 18.6304 21.3296 18.7273 21.1998C18.9224 20.9416 19.211 20.7704 19.5311 20.7228C19.8511 20.6752 20.1771 20.7551 20.4388 20.9454L22.3076 22.3331Z" fill="#E0E0E0"/>
<path d="M30.4946 31.6768L31.9656 29.697L33.8158 31.0847C33.9458 31.1814 34.0553 31.3028 34.1382 31.4419C34.2212 31.5811 34.2758 31.7352 34.299 31.8955C34.3222 32.0558 34.3135 32.2191 34.2735 32.3761C34.2334 32.533 34.1628 32.6805 34.0656 32.8101C33.8702 33.0722 33.5789 33.2462 33.2555 33.2938C32.9321 33.3415 32.6029 33.259 32.3402 33.0645L30.4946 31.6768Z" fill="#EBEBEB"/>
<path d="M32.2984 29.9469L30.8228 31.9267L28.9726 30.539C28.841 30.4433 28.7297 30.3225 28.645 30.1836C28.5603 30.0447 28.5039 29.8905 28.4789 29.7298C28.454 29.569 28.4611 29.4049 28.4998 29.2469C28.5384 29.0889 28.6079 28.9401 28.7043 28.809C28.9005 28.5466 29.1926 28.3725 29.5168 28.3248C29.8409 28.2772 30.1708 28.3598 30.4342 28.5546L32.2984 29.9469Z" fill="#E0E0E0"/>
<path d="M15.8042 29.6601L17.2751 27.6803L19.1254 29.068C19.2553 29.1647 19.3649 29.2861 19.4478 29.4252C19.5307 29.5643 19.5854 29.7185 19.6086 29.8788C19.6318 30.0391 19.6231 30.2024 19.583 30.3593C19.543 30.5163 19.4724 30.6638 19.3752 30.7933C19.2785 30.9233 19.1571 31.0328 19.0179 31.1158C18.8788 31.1987 18.7247 31.2533 18.5644 31.2765C18.4041 31.2997 18.2408 31.291 18.0838 31.251C17.9269 31.2109 17.7794 31.1403 17.6498 31.0431L15.8042 29.6601Z" fill="#EBEBEB"/>
<path d="M17.6083 27.9255L16.1327 29.9053L14.2825 28.5176C14.0215 28.32 13.8492 28.0272 13.8033 27.7031C13.7574 27.379 13.8415 27.0499 14.0373 26.7876C14.2342 26.5259 14.5266 26.3527 14.8508 26.3059C15.1749 26.2591 15.5044 26.3425 15.7673 26.5378L17.6083 27.9255Z" fill="#E0E0E0"/>
<path d="M25.8784 37.1673L27.354 35.1875L29.2042 36.5752C29.3345 36.6715 29.4445 36.7927 29.5279 36.9316C29.6112 37.0706 29.6663 37.2247 29.6899 37.385C29.7136 37.5453 29.7053 37.7087 29.6656 37.8658C29.6259 38.0229 29.5556 38.1707 29.4586 38.3005C29.3619 38.4305 29.2405 38.54 29.1014 38.623C28.9623 38.7059 28.8081 38.7605 28.6478 38.7837C28.4875 38.8069 28.3242 38.7982 28.1673 38.7582C28.0104 38.7181 27.8629 38.6475 27.7333 38.5503L25.8784 37.1673Z" fill="#EBEBEB"/>
<path d="M27.6864 35.4373L26.2109 37.4125L24.3606 36.0248C24.0989 35.8279 23.9257 35.5355 23.8789 35.2113C23.8321 34.8872 23.9155 34.5577 24.1108 34.2948C24.2075 34.1649 24.3289 34.0553 24.4681 33.9724C24.6072 33.8895 24.7613 33.8349 24.9216 33.8116C25.0819 33.7884 25.2452 33.7971 25.4022 33.8372C25.5591 33.8772 25.7066 33.9479 25.8362 34.045L27.6864 35.4373Z" fill="#E0E0E0"/>
<path d="M11.6499 35.974L13.1116 33.9943L14.9618 35.3819C15.2235 35.5788 15.3967 35.8713 15.4435 36.1954C15.4903 36.5196 15.4069 36.849 15.2116 37.1119C15.1149 37.2419 14.9935 37.3514 14.8544 37.4343C14.7153 37.5173 14.5611 37.5719 14.4008 37.5951C14.2405 37.6183 14.0772 37.6096 13.9203 37.5696C13.7633 37.5295 13.6158 37.4589 13.4863 37.3617L11.6499 35.974Z" fill="#EBEBEB"/>
<path d="M13.4584 34.2394L11.9828 36.2099L10.1326 34.8222C9.87104 34.6276 9.69705 34.3375 9.64853 34.0152C9.60001 33.6929 9.68088 33.3644 9.87352 33.1015C9.97021 32.9715 10.0916 32.8619 10.2307 32.779C10.3699 32.6961 10.524 32.6415 10.6843 32.6183C10.8446 32.5951 11.0079 32.6037 11.1649 32.6438C11.3218 32.6839 11.4693 32.7545 11.5989 32.8517L13.4584 34.2394Z" fill="#E0E0E0"/>
<path d="M21.2393 43.116L22.7148 41.1362L24.5651 42.5239C24.6954 42.6203 24.8053 42.7414 24.8887 42.8804C24.972 43.0193 25.0271 43.1734 25.0508 43.3337C25.0744 43.494 25.0661 43.6575 25.0264 43.8146C24.9868 43.9717 24.9164 44.1194 24.8195 44.2493C24.7228 44.3792 24.6014 44.4888 24.4622 44.5717C24.3231 44.6546 24.169 44.7092 24.0087 44.7324C23.8484 44.7556 23.6851 44.747 23.5281 44.7069C23.3712 44.6669 23.2237 44.5962 23.0941 44.499L21.2393 43.116Z" fill="#EBEBEB"/>
<path d="M23.0473 41.3813L21.5717 43.3611L19.7215 41.9734C19.4597 41.7765 19.2866 41.4841 19.2398 41.1599C19.193 40.8358 19.2763 40.5063 19.4717 40.2434C19.5684 40.1135 19.6898 40.0039 19.8289 39.921C19.968 39.8381 20.1222 39.7835 20.2825 39.7603C20.4428 39.737 20.6061 39.7457 20.763 39.7858C20.92 39.8258 21.0674 39.8965 21.197 39.9936L23.0473 41.3813Z" fill="#E0E0E0"/>
<path d="M205.287 130.322L175.572 140.448C175.272 140.55 174.955 140.591 174.639 140.571C174.324 140.55 174.015 140.467 173.731 140.327C173.447 140.187 173.193 139.993 172.985 139.755C172.776 139.517 172.616 139.24 172.515 138.94L151.787 78.0946C151.685 77.7949 151.642 77.4778 151.662 77.1616C151.682 76.8454 151.764 76.5362 151.904 76.2518C152.043 75.9674 152.238 75.7133 152.476 75.5041C152.714 75.2948 152.991 75.1346 153.291 75.0325L183.005 64.9117C183.61 64.7058 184.272 64.7485 184.845 65.0304C185.419 65.3123 185.857 65.8103 186.063 66.415L206.79 127.265C206.893 127.564 206.935 127.881 206.915 128.197C206.895 128.513 206.813 128.822 206.673 129.106C206.534 129.39 206.339 129.643 206.101 129.852C205.864 130.061 205.587 130.221 205.287 130.322Z" fill="#EBEBEB"/>
<path d="M166.876 83.4558C167.046 83.952 167.064 84.4873 166.93 84.994C166.795 85.5008 166.513 85.9562 166.12 86.3027C165.726 86.6491 165.239 86.8711 164.719 86.9405C164.199 87.0099 163.671 86.9235 163.2 86.6924C162.729 86.4613 162.338 86.0958 162.075 85.6421C161.812 85.1884 161.69 84.667 161.723 84.1437C161.757 83.6205 161.945 83.1189 162.263 82.7025C162.582 82.2861 163.017 81.9736 163.513 81.8045C164.178 81.5779 164.906 81.6246 165.537 81.9342C166.167 82.2438 166.649 82.7911 166.876 83.4558Z" fill="#FAFAFA"/>
<path d="M181.446 78.4925C181.615 78.9879 181.633 79.5221 181.498 80.0277C181.363 80.5333 181.081 80.9875 180.688 81.3329C180.295 81.6784 179.809 81.8995 179.29 81.9684C178.771 82.0373 178.244 81.9508 177.774 81.7199C177.305 81.489 176.914 81.124 176.652 80.6712C176.39 80.2183 176.268 79.6979 176.301 79.1757C176.335 78.6535 176.523 78.153 176.841 77.7374C177.159 77.3219 177.593 77.01 178.088 76.8412C178.417 76.7291 178.765 76.6829 179.112 76.7052C179.458 76.7275 179.797 76.8179 180.109 76.9712C180.421 77.1246 180.7 77.3379 180.929 77.5989C181.159 77.8599 181.334 78.1636 181.446 78.4925Z" fill="#FAFAFA"/>
<path d="M171.488 97.0043C171.657 97.4996 171.675 98.0338 171.54 98.5394C171.405 99.045 171.123 99.4992 170.73 99.8447C170.337 100.19 169.85 100.411 169.331 100.48C168.813 100.549 168.285 100.463 167.816 100.232C167.346 100.001 166.956 99.6357 166.693 99.1829C166.431 98.73 166.309 98.2096 166.343 97.6874C166.376 97.1652 166.564 96.6647 166.882 96.2492C167.2 95.8337 167.634 95.5218 168.13 95.3529C168.459 95.2402 168.806 95.1935 169.153 95.2155C169.5 95.2375 169.84 95.3278 170.152 95.4813C170.464 95.6347 170.742 95.8482 170.972 96.1096C171.201 96.3709 171.376 96.675 171.488 97.0043Z" fill="#FAFAFA"/>
<path d="M186.063 92.0409C186.232 92.5362 186.25 93.0704 186.115 93.576C185.98 94.0816 185.698 94.5358 185.305 94.8813C184.912 95.2267 184.425 95.4478 183.907 95.5167C183.388 95.5856 182.86 95.4991 182.391 95.2682C181.921 95.0373 181.531 94.6723 181.269 94.2195C181.006 93.7666 180.884 93.2462 180.918 92.724C180.952 92.2018 181.139 91.7013 181.457 91.2858C181.775 90.8702 182.21 90.5584 182.705 90.3895C183.034 90.2774 183.382 90.2312 183.728 90.2535C184.075 90.2758 184.414 90.3662 184.726 90.5196C185.038 90.6729 185.316 90.8862 185.546 91.1472C185.775 91.4083 185.951 91.7119 186.063 92.0409Z" fill="#FAFAFA"/>
<path d="M176.104 110.557C176.273 111.053 176.291 111.587 176.156 112.092C176.021 112.598 175.739 113.052 175.346 113.398C174.953 113.743 174.466 113.964 173.948 114.033C173.429 114.102 172.902 114.015 172.432 113.785C171.962 113.554 171.572 113.189 171.31 112.736C171.047 112.283 170.925 111.763 170.959 111.24C170.993 110.718 171.18 110.218 171.498 109.802C171.816 109.387 172.251 109.075 172.746 108.906C173.075 108.794 173.423 108.748 173.769 108.77C174.116 108.792 174.455 108.883 174.767 109.036C175.079 109.189 175.357 109.403 175.587 109.664C175.816 109.925 175.992 110.228 176.104 110.557Z" fill="#FAFAFA"/>
<path d="M190.68 105.594C190.848 106.089 190.866 106.624 190.732 107.129C190.597 107.635 190.315 108.089 189.922 108.434C189.529 108.78 189.042 109.001 188.523 109.07C188.005 109.139 187.477 109.052 187.008 108.821C186.538 108.59 186.147 108.225 185.885 107.773C185.623 107.32 185.501 106.799 185.535 106.277C185.568 105.755 185.756 105.254 186.074 104.839C186.392 104.423 186.826 104.111 187.322 103.943C187.65 103.831 187.998 103.784 188.345 103.807C188.692 103.829 189.031 103.919 189.343 104.073C189.655 104.226 189.933 104.439 190.163 104.7C190.392 104.961 190.568 105.265 190.68 105.594Z" fill="#FAFAFA"/>
<path d="M180.72 124.096C180.889 124.592 180.907 125.126 180.772 125.631C180.637 126.137 180.355 126.591 179.962 126.937C179.569 127.282 179.083 127.503 178.564 127.572C178.045 127.641 177.518 127.555 177.048 127.324C176.579 127.093 176.188 126.728 175.926 126.275C175.664 125.822 175.542 125.302 175.575 124.779C175.609 124.257 175.797 123.757 176.115 123.341C176.433 122.926 176.867 122.614 177.362 122.445C177.691 122.333 178.039 122.287 178.386 122.309C178.732 122.331 179.071 122.422 179.383 122.575C179.695 122.728 179.974 122.942 180.203 123.203C180.432 123.464 180.608 123.767 180.72 124.096Z" fill="#FAFAFA"/>
<path d="M195.295 119.142C195.464 119.638 195.482 120.172 195.347 120.678C195.212 121.183 194.931 121.637 194.538 121.983C194.144 122.328 193.658 122.549 193.139 122.618C192.62 122.687 192.093 122.601 191.623 122.37C191.154 122.139 190.763 121.774 190.501 121.321C190.239 120.868 190.117 120.348 190.15 119.826C190.184 119.303 190.372 118.803 190.69 118.387C191.008 117.972 191.442 117.66 191.937 117.491C192.266 117.379 192.614 117.333 192.961 117.355C193.308 117.377 193.647 117.468 193.958 117.621C194.27 117.774 194.549 117.988 194.778 118.249C195.008 118.51 195.183 118.813 195.295 119.142Z" fill="#FAFAFA"/>
<path d="M165.456 82.0359C165.174 82.8187 164.827 83.5768 164.42 84.3024C164.077 85.0612 163.668 85.7886 163.199 86.4765C163.481 85.6936 163.827 84.9355 164.235 84.2099C164.577 83.4507 164.986 82.7232 165.456 82.0359Z" fill="#E0E0E0"/>
<path d="M179.726 77.054C179.446 77.8384 179.101 78.5981 178.695 79.3251C178.348 80.0822 177.94 80.8093 177.474 81.4992C177.755 80.7151 178.1 79.9555 178.505 79.228C178.853 78.4716 179.261 77.7446 179.726 77.054Z" fill="#E0E0E0"/>
<path d="M170.206 95.5841C169.963 96.402 169.654 97.1987 169.281 97.9663C168.977 98.7672 168.606 99.541 168.171 100.279C168.416 99.4618 168.725 98.6652 169.096 97.8969C169.401 97.0965 169.773 96.3229 170.206 95.5841Z" fill="#E0E0E0"/>
<path d="M184.602 90.5885C184.408 91.3809 184.145 92.1548 183.815 92.9013C183.551 93.6756 183.221 94.4261 182.83 95.1447C183.025 94.3525 183.288 93.5787 183.616 92.8319C183.883 92.0585 184.213 91.3082 184.602 90.5885Z" fill="#E0E0E0"/>
<path d="M174.388 109.077C173.902 110.557 173.282 111.991 172.538 113.36C173.025 111.88 173.644 110.446 174.388 109.077Z" fill="#E0E0E0"/>
<path d="M189.315 104.34C188.703 105.8 187.964 107.203 187.104 108.531C187.375 107.788 187.714 107.071 188.117 106.39C188.457 105.674 188.858 104.988 189.315 104.34Z" fill="#E0E0E0"/>
<path d="M179.397 122.82C179.095 123.591 178.728 124.335 178.301 125.045C177.935 125.787 177.506 126.498 177.02 127.168C177.687 125.654 178.483 124.199 179.397 122.82Z" fill="#E0E0E0"/>
<path d="M193.941 117.417C193.699 118.286 193.389 119.135 193.015 119.956C192.708 120.803 192.333 121.625 191.896 122.413C192.138 121.543 192.447 120.694 192.821 119.873C193.128 119.026 193.502 118.204 193.941 117.417Z" fill="#E0E0E0"/>
<path d="M199.255 126.409C199.255 126.465 194.81 128.033 189.287 129.915C183.764 131.798 179.263 133.278 179.245 133.223C179.226 133.167 183.69 131.599 189.217 129.717C194.745 127.834 199.237 126.345 199.255 126.409Z" fill="#E0E0E0"/>
<path d="M179.448 71.9242C179.448 71.9751 175.003 73.5478 169.476 75.4304C163.948 77.3131 159.457 78.7933 159.438 78.7378C159.42 78.6822 163.883 77.1142 169.411 75.2315C174.938 73.3489 179.43 71.8687 179.448 71.9242Z" fill="#E0E0E0"/>
<path d="M169.73 78.0484C169.704 78.0553 169.677 78.0553 169.651 78.0484H169.624L169.827 77.9836C169.827 78.016 169.827 78.0623 169.753 78.0808C169.679 78.0993 169.642 78.0808 169.628 78.0484L169.832 77.9836C169.832 77.9836 169.832 78.0068 169.832 78.0114C169.819 78.0248 169.803 78.0351 169.785 78.0415C169.767 78.0479 169.749 78.0503 169.73 78.0484Z" fill="#E0E0E0"/>
<path d="M188.57 129.92C188.515 129.92 184.296 117.699 179.143 102.583C173.991 87.4662 169.864 75.1898 169.92 75.1713C169.975 75.1528 174.194 87.3921 179.342 102.513C184.491 117.634 188.626 129.901 188.57 129.92Z" fill="#E0E0E0"/>
<path d="M78.457 209.706L80.0436 185.882L126.608 188.983C127.377 189.034 128.094 189.388 128.601 189.968C129.109 190.548 129.365 191.305 129.314 192.074L128.113 210.102C128.062 210.87 127.707 211.587 127.128 212.095C126.548 212.602 125.79 212.858 125.022 212.807L78.457 209.706Z" fill="#F5F5F5"/>
<path d="M93.0259 195.635L92.0288 210.608L113.435 212.033L114.432 197.061L93.0259 195.635Z" fill="#E0E0E0"/>
<path d="M75.709 184.5L73.9312 211.195C73.8956 211.73 74.3006 212.193 74.8359 212.229L81.1682 212.65C81.7035 212.686 82.1664 212.281 82.202 211.746L83.9798 185.05C84.0154 184.515 83.6104 184.052 83.0751 184.017L76.7428 183.595C76.2075 183.559 75.7447 183.964 75.709 184.5Z" fill="#EBEBEB"/>
<path d="M82.2925 210.438C80.9031 210.474 79.5128 210.425 78.1295 210.29C76.7472 210.239 75.3694 210.105 74.0034 209.887C75.3928 209.851 76.7831 209.901 78.1665 210.035C79.5487 210.086 80.9266 210.22 82.2925 210.438Z" fill="#E0E0E0"/>
<path d="M82.4452 208.125C81.0634 208.163 79.6807 208.114 78.3052 207.977C76.923 207.927 75.5451 207.792 74.1792 207.575C75.5609 207.542 76.9433 207.591 78.3191 207.723C79.7014 207.773 81.0792 207.907 82.4452 208.125Z" fill="#E0E0E0"/>
<path d="M82.6021 205.817C81.2127 205.853 79.8224 205.804 78.439 205.669C77.0568 205.619 75.6789 205.484 74.313 205.267C75.7024 205.23 77.0927 205.28 78.476 205.415C79.8582 205.465 81.2361 205.6 82.6021 205.817Z" fill="#E0E0E0"/>
<path d="M82.7549 203.504C81.3655 203.54 79.9752 203.491 78.5919 203.356C77.2096 203.306 75.8317 203.171 74.4658 202.954C75.8552 202.92 77.2454 202.97 78.6289 203.102C80.0111 203.152 81.389 203.287 82.7549 203.504Z" fill="#E0E0E0"/>
<path d="M82.9073 201.196C81.5256 201.231 80.143 201.182 78.7674 201.048C77.3836 200.998 76.0042 200.863 74.6367 200.646C76.0261 200.609 77.4164 200.659 78.7998 200.794C80.1758 200.845 81.5475 200.979 82.9073 201.196Z" fill="#E0E0E0"/>
<path d="M83.065 198.883C81.6756 198.919 80.2852 198.87 78.9019 198.735C77.5197 198.685 76.1418 198.55 74.7759 198.333C76.1653 198.299 77.5554 198.349 78.9389 198.481C80.3211 198.531 81.699 198.666 83.065 198.883Z" fill="#E0E0E0"/>
<path d="M83.2178 196.575C81.8284 196.611 80.4381 196.562 79.0548 196.427C77.6725 196.377 76.2946 196.242 74.9287 196.025C76.3181 195.988 77.7084 196.038 79.0918 196.173C80.474 196.223 81.8518 196.358 83.2178 196.575Z" fill="#E0E0E0"/>
<path d="M83.3701 194.262C81.9807 194.298 80.5904 194.249 79.2071 194.114C77.8249 194.063 76.447 193.929 75.0811 193.712C76.4704 193.678 77.8606 193.728 79.2441 193.86C80.6263 193.91 82.0042 194.044 83.3701 194.262Z" fill="#E0E0E0"/>
<path d="M83.5223 191.954C82.1406 191.99 80.758 191.94 79.3824 191.806C78.0002 191.756 76.6223 191.621 75.2563 191.404C76.6458 191.367 78.0361 191.417 79.4194 191.552C80.7939 191.603 82.164 191.737 83.5223 191.954Z" fill="#E0E0E0"/>
<path d="M83.6797 189.641C82.2903 189.677 80.9 189.628 79.5167 189.493C78.1344 189.443 76.7565 189.308 75.3906 189.091C76.78 189.057 78.1702 189.107 79.5537 189.239C80.9359 189.289 82.3138 189.424 83.6797 189.641Z" fill="#E0E0E0"/>
<path d="M83.833 187.333C82.4436 187.369 81.0533 187.32 79.67 187.185C78.2877 187.135 76.9099 187 75.5439 186.782C76.9333 186.746 78.3237 186.796 79.707 186.93C81.0892 186.981 82.4671 187.115 83.833 187.333Z" fill="#E0E0E0"/>
<path d="M83.9854 185.02C82.6037 185.056 81.2212 185.006 79.8455 184.872C78.4618 184.822 77.0823 184.687 75.7148 184.47C77.1042 184.434 78.4946 184.483 79.8779 184.618C81.2539 184.669 82.6256 184.803 83.9854 185.02Z" fill="#E0E0E0"/>
<path d="M123.546 208.134L122.202 208.045C121.835 208.02 121.493 207.851 121.25 207.574C121.008 207.297 120.886 206.935 120.91 206.568L121.214 201.999L125.368 202.276L125.064 206.845C125.052 207.03 125.002 207.211 124.919 207.377C124.835 207.543 124.719 207.691 124.578 207.811C124.436 207.931 124.272 208.022 124.094 208.077C123.917 208.133 123.73 208.152 123.546 208.134Z" fill="#EBEBEB"/>
<path d="M122.513 197.727L123.9 197.824C124.268 197.85 124.611 198.021 124.853 198.299C125.095 198.578 125.217 198.941 125.191 199.309L124.87 203.888L120.707 203.597L121.028 199.017C121.054 198.649 121.225 198.307 121.503 198.065C121.781 197.823 122.145 197.701 122.513 197.727Z" fill="#E0E0E0"/>
<path d="M113.806 193.483L113.456 194.789C113.36 195.146 113.126 195.45 112.806 195.635C112.486 195.82 112.106 195.87 111.749 195.774L107.307 194.583L108.389 190.545L112.831 191.736C113.011 191.784 113.18 191.868 113.327 191.983C113.474 192.097 113.597 192.24 113.688 192.403C113.779 192.566 113.836 192.746 113.856 192.931C113.876 193.117 113.859 193.304 113.806 193.483Z" fill="#EBEBEB"/>
<path d="M103.558 191.679L103.906 190.379C104.002 190.023 104.234 189.72 104.553 189.536C104.872 189.352 105.25 189.302 105.606 189.397L110.029 190.582L108.953 194.603L104.529 193.419C104.35 193.371 104.182 193.287 104.035 193.173C103.888 193.059 103.766 192.916 103.676 192.754C103.585 192.592 103.528 192.413 103.508 192.228C103.488 192.044 103.505 191.857 103.558 191.679Z" fill="#E0E0E0"/>
<path d="M126.803 191.353L127.166 192.645C127.266 192.999 127.221 193.377 127.041 193.697C126.861 194.017 126.562 194.253 126.209 194.352L121.813 195.589L120.689 191.592L125.085 190.356C125.263 190.306 125.45 190.292 125.633 190.315C125.817 190.338 125.995 190.398 126.155 190.491C126.315 190.584 126.455 190.708 126.566 190.856C126.678 191.005 126.758 191.173 126.803 191.353Z" fill="#EBEBEB"/>
<path d="M114.206 195.586L113.843 194.294C113.743 193.941 113.788 193.562 113.968 193.242C114.147 192.922 114.447 192.686 114.8 192.587L119.214 191.346L120.338 195.342L115.942 196.579C115.763 196.632 115.575 196.648 115.389 196.626C115.203 196.605 115.024 196.546 114.862 196.453C114.7 196.36 114.558 196.236 114.445 196.087C114.333 195.938 114.251 195.767 114.206 195.586Z" fill="#E0E0E0"/>
<path d="M116.129 207.903L114.882 207.394C114.542 207.255 114.27 206.987 114.127 206.647C113.985 206.308 113.983 205.926 114.122 205.585L115.851 201.345L119.706 202.917L117.976 207.158C117.837 207.498 117.569 207.77 117.229 207.913C116.89 208.055 116.508 208.057 116.167 207.918L116.129 207.903Z" fill="#EBEBEB"/>
<path d="M119.133 196.966L120.38 197.475C120.72 197.614 120.992 197.882 121.135 198.222C121.277 198.561 121.279 198.943 121.14 199.284L119.411 203.524L115.556 201.952L117.286 197.711C117.356 197.539 117.46 197.383 117.591 197.252C117.723 197.121 117.88 197.017 118.052 196.948C118.224 196.878 118.409 196.844 118.594 196.847C118.78 196.851 118.963 196.891 119.133 196.966Z" fill="#E0E0E0"/>
<path d="M180.669 26.0337L183.796 30.0117C183.853 30.0864 183.879 30.1804 183.868 30.2737C183.856 30.367 183.809 30.4522 183.736 30.5112L179.717 33.6335C179.418 33.8665 179.076 34.0382 178.711 34.139C178.346 34.2397 177.964 34.2675 177.588 34.2206C177.212 34.1738 176.849 34.0533 176.52 33.8661C176.191 33.6788 175.902 33.4285 175.669 33.1293C175.436 32.8302 175.264 32.4881 175.163 32.1226C175.063 31.757 175.035 31.3752 175.082 30.9989C175.128 30.6226 175.249 30.2592 175.436 29.9295C175.624 29.5998 175.874 29.3102 176.173 29.0773L180.193 25.955C180.268 25.9069 180.358 25.8884 180.446 25.9029C180.534 25.9174 180.614 25.964 180.669 26.0337Z" fill="#EBEBEB"/>
<path d="M183.011 30.6036L179.902 26.6117C179.874 26.5746 179.853 26.5323 179.84 26.4871C179.828 26.442 179.825 26.3949 179.831 26.3485C179.837 26.3021 179.852 26.2573 179.875 26.2168C179.899 26.1762 179.93 26.1407 179.967 26.1121L183.982 22.9898C184.281 22.7569 184.622 22.5851 184.988 22.4844C185.353 22.3836 185.734 22.3559 186.11 22.4027C186.486 22.4495 186.849 22.57 187.178 22.7573C187.508 22.9445 187.797 23.1949 188.029 23.494C188.262 23.7931 188.434 24.1352 188.535 24.5008C188.636 24.8664 188.664 25.2482 188.617 25.6245C188.57 26.0008 188.45 26.3642 188.262 26.6939C188.075 27.0236 187.824 27.3132 187.525 27.546L183.51 30.6591C183.436 30.7178 183.343 30.7449 183.249 30.7345C183.155 30.7241 183.07 30.677 183.011 30.6036Z" fill="#E0E0E0"/>
<path d="M2.62066 120.747L7.3804 122.477C7.46983 122.511 7.54243 122.578 7.5823 122.665C7.62218 122.751 7.62609 122.85 7.59318 122.94L5.85396 127.718C5.7248 128.075 5.52658 128.403 5.27064 128.683C5.0147 128.963 4.70606 129.19 4.36237 129.35C4.01868 129.511 3.64668 129.602 3.26766 129.619C2.88863 129.636 2.51002 129.578 2.15347 129.448C1.43377 129.186 0.847386 128.65 0.52304 127.956C0.198693 127.262 0.162892 126.468 0.423494 125.748L2.16272 120.969C2.17779 120.925 2.20168 120.883 2.23298 120.847C2.26428 120.812 2.30238 120.783 2.34503 120.762C2.38768 120.742 2.43402 120.73 2.48135 120.727C2.52868 120.725 2.57604 120.731 2.62066 120.747Z" fill="#EBEBEB"/>
<path d="M7.04749 123.389L2.29237 121.659C2.24733 121.643 2.20588 121.619 2.17056 121.587C2.13523 121.555 2.10675 121.516 2.08686 121.473C2.06696 121.43 2.05606 121.383 2.05481 121.335C2.05356 121.288 2.06199 121.24 2.07959 121.196L3.81882 116.413C3.94792 116.056 4.14617 115.729 4.4022 115.449C4.65823 115.169 4.967 114.942 5.3108 114.782C5.6546 114.622 6.02666 114.531 6.40565 114.515C6.78464 114.499 7.16309 114.557 7.51931 114.688C7.876 114.817 8.20369 115.015 8.48359 115.271C8.76349 115.527 8.99008 115.836 9.15038 116.18C9.31068 116.524 9.40152 116.896 9.4177 117.275C9.43388 117.654 9.37507 118.032 9.24466 118.388L7.50543 123.171C7.47302 123.26 7.40678 123.333 7.32107 123.374C7.23537 123.414 7.13708 123.42 7.04749 123.389Z" fill="#E0E0E0"/>
<path d="M202.299 212.418C202.299 212.487 157.967 212.538 103.311 212.538C48.6546 212.538 4.32275 212.487 4.32275 212.418C4.32275 212.348 48.6453 212.297 103.334 212.297C158.022 212.297 202.299 212.353 202.299 212.418Z" fill="#263238"/>
<path d="M164.503 8.07227H53.0395C50.4593 8.07227 48.3677 10.1639 48.3677 12.7441V162.961C48.3677 165.541 50.4593 167.633 53.0395 167.633H164.503C167.083 167.633 169.175 165.541 169.175 162.961V12.7441C169.175 10.1639 167.083 8.07227 164.503 8.07227Z" fill="#00424E"/>
<path d="M161.08 15.6121H56.4531V156.67H161.08V15.6121Z" fill="white"/>
<path d="M161.084 156.67C161.084 155.708 161.038 99.132 160.973 15.589L161.084 15.6954H56.4665L56.5868 15.5751C56.5868 68.1821 56.5868 116.927 56.5868 156.656L56.485 156.554L161.116 156.656L56.485 156.753H56.3879V156.656C56.3879 116.95 56.3879 68.2052 56.3647 15.5751V15.4548H56.4989H161.116H161.223V15.5658C161.13 99.1182 161.084 155.708 161.084 156.67Z" fill="#263238"/>
<path d="M78.4799 39.2859L76.0422 35.6178H73.3455V39.2859H70.4175V26.1214H75.8942C76.8997 26.0975 77.8981 26.2966 78.8176 26.7043C79.6 27.053 80.2627 27.6241 80.7233 28.3463C81.1856 29.1111 81.4184 29.9925 81.394 30.8858C81.4223 31.7837 81.1858 32.67 80.7141 33.4345C80.2492 34.1529 79.581 34.7165 78.7945 35.0535L81.6346 39.2859H78.4799ZM77.7398 29.1975C77.1643 28.7638 76.4511 28.5534 75.7323 28.6054H73.3455V33.194H75.7323C76.453 33.2437 77.167 33.0282 77.7398 32.588C78.182 32.1345 78.4295 31.5262 78.4295 30.8927C78.4295 30.2593 78.182 29.651 77.7398 29.1975Z" fill="#0094B8"/>
<path d="M84.8869 48.3843L81.9913 44.0733L79.1465 48.4028H75.9595L80.4001 42.0611L76.1815 35.9322H79.3362L82.1115 39.975L84.8083 35.9137H87.8056L83.6426 41.927L88.1156 48.3751L84.8869 48.3843Z" fill="#0094B8"/>
<path d="M124.75 29.2668H106.793V33.7121H124.75V29.2668Z" fill="#E0E0E0"/>
<path d="M151.084 32.0746C151.084 32.144 146.171 32.1949 140.112 32.1949C134.052 32.1949 129.145 32.144 129.145 32.0746C129.145 32.0052 134.052 31.9543 140.112 31.9543C146.171 31.9543 151.084 32.0099 151.084 32.0746Z" fill="#263238"/>
<path d="M150.672 37.408C150.672 37.4727 140.847 37.5282 128.733 37.5282C116.618 37.5282 106.793 37.4727 106.793 37.408C106.793 37.3432 116.614 37.2831 128.733 37.2831C140.852 37.2831 150.672 37.3386 150.672 37.408Z" fill="#263238"/>
<path d="M150.672 42.6302C150.672 42.6949 140.847 42.7504 128.733 42.7504C116.618 42.7504 106.793 42.6949 106.793 42.6302C106.793 42.5654 116.614 42.5099 128.733 42.5099C140.852 42.5099 150.672 42.5608 150.672 42.6302Z" fill="#263238"/>
<path d="M157.518 56.5626C157.518 56.6274 135.69 56.6829 108.773 56.6829C81.8568 56.6829 60.0239 56.6274 60.0239 56.5626C60.0239 56.4979 81.8429 56.4377 108.773 56.4377C135.703 56.4377 157.518 56.484 157.518 56.5626Z" fill="#263238"/>
<path d="M157.518 135.411C157.518 135.475 135.69 135.531 108.773 135.531C81.8568 135.531 60.0239 135.475 60.0239 135.411C60.0239 135.346 81.8429 135.29 108.773 135.29C135.703 135.29 157.518 135.341 157.518 135.411Z" fill="#263238"/>
<path d="M98.1345 64.5323H68.0542V70.1756H98.1345V64.5323Z" fill="#E0E0E0"/>
<path d="M81.0753 143.459H68.0542V149.102H81.0753V143.459Z" fill="#E0E0E0"/>
<path d="M124.796 143.459H111.775V149.102H124.796V143.459Z" fill="#E0E0E0"/>
<path d="M102.899 147.368C102.899 147.437 98.8327 147.488 93.8186 147.488C88.8044 147.488 84.7339 147.437 84.7339 147.368C84.7339 147.298 88.7998 147.248 93.8186 147.248C98.8374 147.248 102.899 147.303 102.899 147.368Z" fill="#263238"/>
<path d="M149.654 147.368C149.654 147.437 145.589 147.488 140.574 147.488C135.56 147.488 131.49 147.437 131.49 147.368C131.49 147.298 135.556 147.248 140.574 147.248C145.593 147.248 149.654 147.303 149.654 147.368Z" fill="#263238"/>
<path d="M148.577 78.6729C148.577 78.7376 130.754 78.7931 108.796 78.7931C86.8386 78.7931 69.0161 78.7376 69.0161 78.6729C69.0161 78.6081 86.8293 78.5526 108.796 78.5526C130.763 78.5526 148.577 78.6035 148.577 78.6729Z" fill="#263238"/>
<path d="M150.122 85.1117C150.122 85.1811 131.957 85.232 109.556 85.232C87.1538 85.232 68.9844 85.1811 68.9844 85.1117C68.9844 85.0423 87.1445 84.9915 109.556 84.9915C131.967 84.9915 150.122 85.047 150.122 85.1117Z" fill="#263238"/>
<path d="M108.315 91.5552C108.315 91.62 99.3002 91.6755 88.1848 91.6755C77.0695 91.6755 68.0542 91.62 68.0542 91.5552C68.0542 91.4904 77.0649 91.4349 88.1848 91.4349C99.3048 91.4349 108.315 91.4858 108.315 91.5552Z" fill="#263238"/>
<path d="M149.525 114.915C149.525 114.915 149.437 114.952 149.256 115.007L148.47 115.248C147.454 115.55 146.421 115.791 145.375 115.969C144.621 116.102 143.857 116.175 143.09 116.187C142.174 116.205 141.259 116.091 140.375 115.849C139.357 115.558 138.418 115.037 137.632 114.327C136.746 113.517 136.163 112.429 135.981 111.242C135.886 110.601 135.964 109.946 136.208 109.345C136.48 108.721 136.927 108.188 137.493 107.81C137.786 107.607 138.117 107.464 138.465 107.39C138.814 107.316 139.174 107.313 139.524 107.379C139.879 107.467 140.212 107.624 140.505 107.842C140.79 108.081 141.029 108.371 141.208 108.698C141.548 109.374 141.718 110.124 141.703 110.881C141.706 111.656 141.565 112.424 141.286 113.148C140.683 114.644 139.687 115.951 138.405 116.931C137.061 117.976 135.465 118.646 133.779 118.874C132.915 118.997 132.036 118.986 131.175 118.842C130.737 118.771 130.306 118.668 129.884 118.532C129.463 118.377 129.052 118.194 128.654 117.986C127.86 117.543 127.153 116.96 126.568 116.265C125.962 115.556 125.539 114.71 125.333 113.8C125.107 112.865 125.223 111.88 125.661 111.024C126.096 110.158 126.816 109.468 127.701 109.072C128.149 108.87 128.64 108.784 129.13 108.823C129.616 108.871 130.08 109.046 130.476 109.331C131.229 109.928 131.747 110.769 131.943 111.709C132.155 112.609 132.206 113.539 132.091 114.457C132 115.355 131.8 116.239 131.494 117.089C130.927 118.765 129.924 120.261 128.589 121.423C127.292 122.536 125.669 123.199 123.964 123.315C122.388 123.475 120.807 123.069 119.503 122.17C118.2 121.271 117.259 119.937 116.849 118.407C116.431 117.041 116.486 115.574 117.007 114.244C117.251 113.609 117.672 113.057 118.219 112.653C118.492 112.453 118.809 112.321 119.144 112.269C119.473 112.22 119.808 112.284 120.097 112.449C120.361 112.621 120.581 112.852 120.742 113.123C120.902 113.394 120.998 113.698 121.022 114.013C121.099 114.587 121.075 115.171 120.952 115.738C120.77 116.772 120.459 117.778 120.027 118.735C119.653 119.566 119.188 120.353 118.639 121.08C118.181 121.697 117.664 122.267 117.095 122.783C116.318 123.507 115.443 124.118 114.495 124.596C114.252 124.726 114.002 124.841 113.746 124.943L113.482 125.045L113.736 124.92C113.903 124.836 114.162 124.735 114.476 124.554C115.408 124.055 116.269 123.433 117.034 122.704C118.249 121.559 119.229 120.19 119.921 118.671C120.353 117.725 120.663 116.729 120.846 115.705C120.959 115.153 120.979 114.586 120.906 114.026C120.884 113.739 120.796 113.46 120.65 113.21C120.504 112.961 120.304 112.748 120.064 112.588C119.808 112.441 119.51 112.386 119.218 112.431C118.917 112.484 118.634 112.608 118.39 112.791C117.871 113.176 117.473 113.701 117.243 114.304C116.742 115.598 116.694 117.023 117.108 118.347C117.51 119.827 118.425 121.116 119.689 121.986C120.952 122.855 122.484 123.247 124.01 123.093C125.664 122.973 127.235 122.324 128.492 121.242C129.795 120.106 130.772 118.644 131.323 117.005C131.62 116.171 131.816 115.305 131.906 114.424C132.016 113.534 131.966 112.632 131.758 111.76C131.574 110.874 131.083 110.082 130.37 109.526C130.006 109.264 129.579 109.104 129.132 109.062C128.686 109.021 128.236 109.099 127.831 109.29C126.995 109.666 126.315 110.32 125.906 111.14C125.496 111.943 125.387 112.868 125.601 113.744C125.824 114.602 126.225 115.404 126.776 116.099C127.327 116.793 128.017 117.365 128.802 117.778C129.187 117.978 129.584 118.154 129.991 118.305C131.212 118.703 132.507 118.818 133.779 118.643C134.605 118.528 135.412 118.305 136.18 117.981C136.93 117.661 137.637 117.248 138.284 116.751C139.539 115.793 140.512 114.514 141.101 113.05C141.372 112.353 141.512 111.611 141.513 110.862C141.529 110.14 141.371 109.424 141.051 108.776C140.883 108.474 140.664 108.203 140.403 107.976C140.137 107.763 139.83 107.605 139.501 107.514C139.176 107.451 138.841 107.454 138.517 107.523C138.193 107.591 137.886 107.723 137.614 107.911C137.075 108.266 136.651 108.769 136.393 109.359C136.158 109.931 136.079 110.555 136.166 111.168C136.342 112.317 136.903 113.372 137.757 114.161C138.524 114.859 139.44 115.373 140.435 115.664C141.305 115.908 142.206 116.027 143.109 116.015C143.87 116.01 144.629 115.945 145.38 115.821C146.423 115.65 147.456 115.425 148.475 115.146L149.27 114.928L149.525 114.915Z" fill="#263238"/>
<path d="M126.226 6.71704H91.312V20.0665H126.226V6.71704Z" fill="#E0E0E0"/>
<path d="M126.226 20.0619C126.226 20.0619 126.226 19.9786 126.226 19.8214C126.226 19.6641 126.226 19.4282 126.226 19.1275C126.226 18.5123 126.226 17.6242 126.226 16.477C126.226 14.1642 126.198 10.8477 126.179 6.71702L126.263 6.80028L91.3531 6.83729L91.4734 6.71702C91.4734 11.3796 91.4734 15.8896 91.4734 20.0619L91.3578 19.9463L116.336 20.0018L123.612 20.0341H125.569H126.078H126.253C126.199 20.0387 126.145 20.0387 126.091 20.0341H125.597H123.668L116.415 20.0665L91.3393 20.1174H91.2236V20.0018C91.2236 15.8387 91.2236 11.3195 91.2236 6.65689L91.3439 6.53662L126.253 6.57363H126.337V6.65689C126.337 10.8199 126.304 14.1504 126.29 16.4678C126.29 17.6057 126.29 18.4892 126.29 19.0998C126.29 19.3912 126.29 19.6178 126.29 19.7797C126.29 19.9416 126.226 20.0619 126.226 20.0619Z" fill="#263238"/>
<path d="M168.042 212.214H145.432C144.947 212.214 144.481 212.024 144.135 211.684C143.789 211.344 143.59 210.881 143.582 210.396L143.036 149.417H169.319L169.865 210.359C169.866 210.846 169.675 211.314 169.334 211.661C168.993 212.008 168.529 212.207 168.042 212.214Z" fill="#0094B8"/>
<g opacity="0.3">
<path d="M164.716 162.951V209.897C164.716 209.897 168.416 211.127 168.597 207.889C168.777 204.651 168.68 162.942 168.68 162.942L164.716 162.951Z" fill="white"/>
</g>
<path d="M166.839 146.322H145.561C145.193 146.322 144.84 146.469 144.58 146.729C144.32 146.989 144.173 147.342 144.173 147.71V149.075H168.226V147.687C168.22 147.323 168.072 146.976 167.812 146.721C167.552 146.465 167.203 146.322 166.839 146.322Z" fill="#FAFAFA"/>
<path d="M166.839 146.322C166.916 146.311 166.993 146.311 167.07 146.322C167.298 146.351 167.515 146.439 167.699 146.577C167.852 146.69 167.98 146.832 168.076 146.996C168.172 147.16 168.235 147.341 168.259 147.53C168.259 147.992 168.259 148.455 168.259 149.047V149.102H168.199C163.791 149.135 155.275 149.163 145.533 149.163H144.03V147.752C144.023 147.522 144.068 147.294 144.162 147.084C144.255 146.874 144.395 146.688 144.571 146.54C144.747 146.393 144.955 146.289 145.177 146.235C145.391 146.196 145.608 146.182 145.825 146.193H147.055H151.732L159.595 146.221L164.882 146.258L159.595 146.295L151.732 146.322H147.055H145.825C145.627 146.311 145.428 146.323 145.233 146.359C145.047 146.406 144.873 146.493 144.724 146.614C144.058 147.118 144.326 148.089 144.261 148.927L144.141 148.806H145.529C155.284 148.806 163.8 148.829 168.194 148.867L168.134 148.927C168.134 148.358 168.134 147.844 168.134 147.423C168.116 147.243 168.063 147.068 167.976 146.91C167.889 146.751 167.772 146.611 167.63 146.498C167.386 146.372 167.113 146.311 166.839 146.322Z" fill="#263238"/>
<path d="M170.877 148.413H141.5C140.826 148.413 140.279 148.96 140.279 149.634V161.721C140.279 162.395 140.826 162.942 141.5 162.942H170.877C171.552 162.942 172.098 162.395 172.098 161.721V149.634C172.098 148.96 171.552 148.413 170.877 148.413Z" fill="#FAFAFA"/>
<path d="M170.877 162.952C170.877 162.952 170.96 162.952 171.108 162.915C171.33 162.868 171.534 162.759 171.696 162.6C172.237 162.193 172.02 161.212 172.052 160.088C172.052 157.776 172.029 154.468 172.015 150.375C172.015 150.12 172.015 149.861 172.015 149.597C172.007 149.35 171.918 149.113 171.761 148.922C171.597 148.728 171.375 148.591 171.127 148.534C170.86 148.505 170.591 148.497 170.322 148.51H166.834H159.137H141.509C141.333 148.509 141.159 148.551 141.002 148.631C140.845 148.712 140.709 148.829 140.607 148.973C140.508 149.11 140.443 149.269 140.418 149.436C140.408 149.624 140.408 149.812 140.418 150V156.8C140.418 158.271 140.418 159.718 140.418 161.138V161.67C140.418 161.83 140.453 161.988 140.519 162.133C140.585 162.277 140.681 162.405 140.801 162.509C140.921 162.613 141.061 162.69 141.213 162.734C141.371 162.778 141.535 162.794 141.699 162.78H143.235L157.634 162.804L167.348 162.845H169.984L167.348 162.868L157.634 162.905L143.235 162.933H141.699C141.515 162.946 141.33 162.927 141.153 162.878C140.969 162.825 140.799 162.733 140.654 162.608C140.509 162.484 140.392 162.33 140.311 162.156C140.233 161.98 140.192 161.789 140.191 161.596V161.064C140.191 159.646 140.191 158.2 140.191 156.726C140.191 155.25 140.191 153.747 140.191 152.225V149.912C140.191 149.713 140.191 149.533 140.191 149.315C140.223 149.102 140.303 148.9 140.427 148.723C140.551 148.548 140.715 148.405 140.906 148.307C141.097 148.209 141.308 148.158 141.523 148.159H159.151H166.848H170.336C170.619 148.145 170.902 148.155 171.182 148.191C171.469 148.264 171.725 148.426 171.913 148.654C172.092 148.878 172.194 149.154 172.205 149.44V150.222C172.205 154.311 172.172 157.623 172.163 159.936C172.163 160.505 172.163 161.013 172.163 161.458C172.177 161.648 172.148 161.84 172.077 162.018C172.007 162.196 171.897 162.355 171.756 162.484C171.586 162.644 171.371 162.749 171.141 162.785C171.065 162.858 170.976 162.915 170.877 162.952Z" fill="#263238"/>
<path d="M142.129 162.702C142.06 162.702 142.009 159.607 142.009 155.796C142.009 151.984 142.06 148.885 142.129 148.885C142.198 148.885 142.249 151.98 142.249 155.796C142.249 159.612 142.194 162.702 142.129 162.702Z" fill="#263238"/>
<path d="M144.534 162.702C144.464 162.702 144.414 159.607 144.414 155.796C144.414 151.984 144.464 148.885 144.534 148.885C144.603 148.885 144.654 151.98 144.654 155.796C144.654 159.612 144.599 162.702 144.534 162.702Z" fill="#263238"/>
<path d="M146.94 162.702C146.875 162.702 146.82 159.607 146.82 155.796C146.82 151.984 146.875 148.885 146.94 148.885C147.005 148.885 147.06 151.98 147.06 155.796C147.06 159.612 147.005 162.702 146.94 162.702Z" fill="#263238"/>
<path d="M149.345 162.702C149.281 162.702 149.225 159.607 149.225 155.796C149.225 151.984 149.281 148.885 149.345 148.885C149.41 148.885 149.466 151.98 149.466 155.796C149.466 159.612 149.415 162.702 149.345 162.702Z" fill="#263238"/>
<path d="M151.755 162.702C151.686 162.702 151.635 159.607 151.635 155.796C151.635 151.984 151.686 148.885 151.755 148.885C151.824 148.885 151.875 151.98 151.875 155.796C151.875 159.612 151.82 162.702 151.755 162.702Z" fill="#263238"/>
<path d="M154.16 162.702C154.091 162.702 154.04 159.607 154.04 155.796C154.04 151.984 154.091 148.885 154.16 148.885C154.23 148.885 154.281 151.98 154.281 155.796C154.281 159.612 154.225 162.702 154.16 162.702Z" fill="#263238"/>
<path d="M156.566 162.702C156.501 162.702 156.445 159.607 156.445 155.796C156.445 151.984 156.501 148.885 156.566 148.885C156.63 148.885 156.686 151.98 156.686 155.796C156.686 159.612 156.63 162.702 156.566 162.702Z" fill="#263238"/>
<path d="M158.971 162.702C158.906 162.702 158.851 159.607 158.851 155.796C158.851 151.984 158.906 148.885 158.971 148.885C159.036 148.885 159.091 151.98 159.091 155.796C159.091 159.612 159.04 162.702 158.971 162.702Z" fill="#263238"/>
<path d="M161.376 162.702C161.311 162.702 161.256 159.607 161.256 155.796C161.256 151.984 161.311 148.885 161.376 148.885C161.441 148.885 161.501 151.98 161.501 155.796C161.501 159.612 161.446 162.702 161.376 162.702Z" fill="#263238"/>
<path d="M163.786 162.702C163.717 162.702 163.666 159.607 163.666 155.796C163.666 151.984 163.717 148.885 163.786 148.885C163.856 148.885 163.907 151.98 163.907 155.796C163.907 159.612 163.851 162.702 163.786 162.702Z" fill="#263238"/>
<path d="M166.191 162.702C166.126 162.702 166.071 159.607 166.071 155.796C166.071 151.984 166.126 148.885 166.191 148.885C166.256 148.885 166.311 151.98 166.311 155.796C166.311 159.612 166.256 162.702 166.191 162.702Z" fill="#263238"/>
<path d="M168.596 162.702C168.532 162.702 168.476 159.607 168.476 155.796C168.476 151.984 168.532 148.885 168.596 148.885C168.661 148.885 168.717 151.98 168.717 155.796C168.717 159.612 168.666 162.702 168.596 162.702Z" fill="#263238"/>
<path d="M171.003 162.702C170.938 162.702 170.882 159.607 170.882 155.796C170.882 151.984 170.938 148.885 171.003 148.885C171.067 148.885 171.123 151.98 171.123 155.796C171.123 159.612 171.072 162.702 171.003 162.702Z" fill="#263238"/>
<path d="M167.861 173.886H145.108V192.107H167.861V173.886Z" fill="white"/>
<path d="M149.017 179.687L148.485 178.919H147.902V179.687H147.254V176.939H148.443C148.66 176.934 148.874 176.977 149.072 177.064C149.242 177.134 149.387 177.254 149.489 177.406C149.588 177.566 149.638 177.751 149.632 177.938C149.637 178.125 149.585 178.309 149.484 178.466C149.382 178.617 149.237 178.734 149.068 178.803L149.683 179.687H149.017ZM148.855 177.582C148.729 177.491 148.575 177.447 148.42 177.457H147.902V178.415H148.42C148.575 178.425 148.729 178.381 148.855 178.29C148.902 178.244 148.939 178.189 148.965 178.128C148.991 178.067 149.004 178.002 149.004 177.936C149.004 177.87 148.991 177.805 148.965 177.744C148.939 177.683 148.902 177.628 148.855 177.582Z" fill="#263238"/>
<path d="M150.404 181.583L149.775 180.681L149.16 181.583H148.471L149.433 180.261L148.508 178.984H149.192L149.789 179.826L150.376 178.984H151.029L150.104 180.237L151.07 181.583H150.404Z" fill="#263238"/>
<path d="M166.192 176.935H153.198V178.91H166.192V176.935Z" fill="#E0E0E0"/>
<path d="M164.716 183.813C164.716 183.878 160.923 183.933 156.242 183.933C151.561 183.933 147.768 183.878 147.768 183.813C147.768 183.748 151.561 183.693 156.242 183.693C160.923 183.693 164.716 183.767 164.716 183.813Z" fill="#263238"/>
<path d="M164.716 185.867C164.716 185.936 160.923 185.987 156.242 185.987C151.561 185.987 147.768 185.936 147.768 185.867C147.768 185.797 151.561 185.746 156.242 185.746C160.923 185.746 164.716 185.802 164.716 185.867Z" fill="#263238"/>
<path d="M155.321 188.443H146.542V190.136H155.321V188.443Z" fill="#E0E0E0"/>
<path d="M167.343 191.542C167.343 191.542 167.343 191.431 167.343 191.219C167.343 191.006 167.343 190.691 167.343 190.294C167.343 189.475 167.343 188.295 167.32 186.792C167.32 183.776 167.287 179.484 167.269 174.303L167.366 174.405H145.556C145.529 174.428 145.783 174.178 145.677 174.289V178.878C145.677 180.386 145.677 181.866 145.677 183.309C145.677 186.2 145.677 188.957 145.677 191.524L145.57 191.418L161.297 191.473L165.766 191.501H166.959H167.375C167.375 191.501 167.348 191.501 167.278 191.501H166.982H165.812L161.367 191.529L145.566 191.584H145.459V191.473C145.459 188.906 145.459 186.149 145.459 183.258C145.459 181.815 145.459 180.335 145.459 178.827V174.238C145.353 174.34 145.607 174.085 145.58 174.113H167.389H167.491V174.215C167.491 179.419 167.449 183.739 167.44 186.769C167.44 188.258 167.417 189.433 167.412 190.247C167.412 190.636 167.412 190.937 167.412 191.172C167.412 191.408 167.343 191.542 167.343 191.542Z" fill="#263238"/>
<path d="M144.534 207.242C144.464 207.242 144.414 197.731 144.414 186.001C144.414 174.27 144.464 164.76 144.534 164.76C144.603 164.76 144.654 174.27 144.654 186.001C144.654 197.731 144.599 207.242 144.534 207.242Z" fill="white"/>
<path d="M167.885 211.224C167.885 211.289 162.921 211.345 156.783 211.345C150.645 211.345 145.682 211.289 145.682 211.224C145.682 211.16 150.645 211.104 156.783 211.104C162.921 211.104 167.885 211.16 167.885 211.224Z" fill="#263238"/>
<path d="M190.434 212.186H172.117C171.724 212.186 171.348 212.031 171.069 211.755C170.79 211.479 170.631 211.103 170.628 210.711L170.165 161.314H191.443L191.882 210.683C191.887 211.074 191.738 211.451 191.467 211.732C191.196 212.013 190.825 212.177 190.434 212.186Z" fill="#00424E"/>
<g opacity="0.3">
<path d="M187.737 172.268V210.309C187.737 210.309 190.735 211.303 190.883 208.68C191.031 206.058 190.947 172.268 190.947 172.268H187.737Z" fill="white"/>
</g>
<path d="M189.194 158.788H172.463C172.095 158.788 171.742 158.935 171.482 159.195C171.222 159.455 171.076 159.808 171.076 160.176V161.004H190.568V160.176C190.568 159.81 190.424 159.459 190.166 159.2C189.909 158.94 189.56 158.792 189.194 158.788Z" fill="#FAFAFA"/>
<path d="M189.194 158.789C189.26 158.779 189.327 158.779 189.393 158.789C189.59 158.805 189.781 158.869 189.948 158.974C190.227 159.143 190.439 159.402 190.55 159.709C190.613 159.904 190.641 160.11 190.633 160.315C190.633 160.532 190.633 160.778 190.633 161V161.101H190.573C186.969 161.138 180.202 161.161 172.464 161.161H170.956V161.041C170.956 160.69 170.956 160.37 170.956 160C171.009 159.637 171.193 159.306 171.473 159.069C171.753 158.832 172.11 158.706 172.477 158.715H173.458H177.182L183.445 158.738L187.64 158.775L188.778 158.798C188.909 158.795 189.041 158.803 189.171 158.821C189.04 158.831 188.909 158.831 188.778 158.821L187.64 158.844L183.445 158.881L177.182 158.909H172.501C172.194 158.901 171.895 159.005 171.659 159.2C171.417 159.398 171.26 159.681 171.219 159.991C171.191 160.296 171.219 160.662 171.219 161L171.099 160.879H172.487C180.225 160.879 186.993 160.902 190.596 160.939L190.536 161C190.536 160.759 190.536 160.537 190.536 160.315C190.551 160.121 190.529 159.927 190.471 159.741C190.377 159.449 190.186 159.198 189.93 159.029C189.707 158.892 189.455 158.81 189.194 158.789Z" fill="#263238"/>
<path d="M192.502 160.5H169.165C168.491 160.5 167.944 161.047 167.944 161.721V171.051C167.944 171.725 168.491 172.272 169.165 172.272H192.502C193.176 172.272 193.723 171.725 193.723 171.051V161.721C193.723 161.047 193.176 160.5 192.502 160.5Z" fill="#FAFAFA"/>
<path d="M192.497 172.268C192.743 172.249 192.979 172.166 193.182 172.027C193.417 171.853 193.581 171.6 193.644 171.315C193.674 171.128 193.682 170.939 193.668 170.75C193.668 170.547 193.668 170.325 193.668 170.098C193.668 168.248 193.644 165.57 193.631 162.276C193.631 162.073 193.631 161.855 193.631 161.652C193.618 161.453 193.553 161.261 193.441 161.097C193.326 160.925 193.167 160.788 192.981 160.699C192.794 160.61 192.587 160.573 192.382 160.592H189.569H183.371H169.166C168.88 160.593 168.606 160.705 168.401 160.903C168.196 161.101 168.076 161.371 168.065 161.656C168.065 162.276 168.065 162.891 168.065 163.507V167.133C168.065 168.323 168.065 169.489 168.065 170.63C168.04 170.899 168.066 171.171 168.143 171.43C168.241 171.668 168.415 171.867 168.638 171.995C168.872 172.111 169.133 172.159 169.392 172.133H170.216L181.817 172.161L189.639 172.198H191.766L189.639 172.221L181.817 172.258L170.216 172.286H169.392C169.103 172.337 168.806 172.309 168.532 172.203C168.263 172.049 168.053 171.81 167.935 171.523C167.878 171.375 167.847 171.219 167.843 171.06V170.63C167.843 169.489 167.843 168.323 167.843 167.133V161.675C167.856 161.328 168.003 160.999 168.253 160.757C168.503 160.516 168.837 160.381 169.184 160.38H183.389H189.588H192.4C192.636 160.368 192.871 160.416 193.084 160.521C193.296 160.625 193.478 160.782 193.612 160.976C193.737 161.168 193.809 161.39 193.82 161.619C193.82 161.841 193.82 162.045 193.82 162.253C193.82 165.547 193.788 168.215 193.779 170.075C193.779 170.302 193.779 170.538 193.779 170.727C193.788 170.921 193.775 171.115 193.742 171.305C193.67 171.608 193.486 171.872 193.228 172.045C193.072 172.152 192.893 172.218 192.705 172.24C192.638 172.261 192.568 172.271 192.497 172.268Z" fill="#263238"/>
<path d="M169.457 172.073C169.392 172.073 169.337 169.571 169.337 166.481C169.337 163.391 169.392 160.884 169.457 160.884C169.522 160.884 169.577 163.386 169.577 166.481C169.577 169.575 169.503 172.073 169.457 172.073Z" fill="#263238"/>
<path d="M171.386 172.073C171.321 172.073 171.266 169.571 171.266 166.481C171.266 163.391 171.321 160.884 171.386 160.884C171.451 160.884 171.506 163.386 171.506 166.481C171.506 169.575 171.455 172.073 171.386 172.073Z" fill="#263238"/>
<path d="M173.338 172.073C173.269 172.073 173.218 169.571 173.218 166.481C173.218 163.391 173.269 160.884 173.338 160.884C173.407 160.884 173.458 163.386 173.458 166.481C173.458 169.575 173.403 172.073 173.338 172.073Z" fill="#263238"/>
<path d="M175.285 172.073C175.221 172.073 175.165 169.571 175.165 166.481C175.165 163.391 175.221 160.884 175.285 160.884C175.35 160.884 175.406 163.386 175.406 166.481C175.406 169.575 175.355 172.073 175.285 172.073Z" fill="#263238"/>
<path d="M177.237 172.073C177.168 172.073 177.117 169.571 177.117 166.481C177.117 163.391 177.168 160.884 177.237 160.884C177.307 160.884 177.358 163.386 177.358 166.481C177.358 169.575 177.321 172.073 177.237 172.073Z" fill="#263238"/>
<path d="M179.171 172.073C179.106 172.073 179.05 169.571 179.05 166.481C179.05 163.391 179.106 160.884 179.171 160.884C179.235 160.884 179.291 163.386 179.291 166.481C179.291 169.575 179.254 172.073 179.171 172.073Z" fill="#263238"/>
<path d="M181.137 172.073C181.067 172.073 181.017 169.571 181.017 166.481C181.017 163.391 181.067 160.884 181.137 160.884C181.206 160.884 181.257 163.386 181.257 166.481C181.257 169.575 181.202 172.073 181.137 172.073Z" fill="#263238"/>
<path d="M183.084 172.073C183.019 172.073 182.964 169.571 182.964 166.481C182.964 163.391 183.019 160.884 183.084 160.884C183.149 160.884 183.204 163.386 183.204 166.481C183.204 169.575 183.149 172.073 183.084 172.073Z" fill="#263238"/>
<path d="M185.037 172.073C184.967 172.073 184.912 169.571 184.912 166.481C184.912 163.391 184.967 160.884 185.037 160.884C185.106 160.884 185.157 163.386 185.157 166.481C185.157 169.575 185.101 172.073 185.037 172.073Z" fill="#263238"/>
<path d="M186.984 172.073C186.919 172.073 186.863 169.571 186.863 166.481C186.863 163.391 186.919 160.884 186.984 160.884C187.048 160.884 187.104 163.386 187.104 166.481C187.104 169.575 187.034 172.073 186.984 172.073Z" fill="#263238"/>
<path d="M188.931 172.073C188.866 172.073 188.811 169.571 188.811 166.481C188.811 163.391 188.866 160.884 188.931 160.884C188.996 160.884 189.051 163.386 189.051 166.481C189.051 169.575 189 172.073 188.931 172.073Z" fill="#263238"/>
<path d="M190.882 172.073C190.813 172.073 190.762 169.571 190.762 166.481C190.762 163.391 190.813 160.884 190.882 160.884C190.952 160.884 191.003 163.386 191.003 166.481C191.003 169.575 190.947 172.073 190.882 172.073Z" fill="#263238"/>
<path d="M192.83 172.073C192.765 172.073 192.71 169.571 192.71 166.481C192.71 163.391 192.765 160.884 192.83 160.884C192.895 160.884 192.951 163.386 192.951 166.481C192.951 169.575 192.9 172.073 192.83 172.073Z" fill="#263238"/>
<path d="M190.287 181.135H171.854V195.895H190.287V181.135Z" fill="white"/>
<path d="M175.008 185.834L174.582 185.214H174.12V185.834H173.62V183.609H174.545C174.721 183.605 174.896 183.638 175.059 183.707C175.195 183.765 175.311 183.864 175.392 183.989C175.47 184.118 175.512 184.266 175.512 184.417C175.512 184.567 175.47 184.715 175.392 184.844C175.309 184.967 175.191 185.062 175.054 185.117L175.554 185.834H175.008ZM174.878 184.127C174.776 184.056 174.652 184.022 174.527 184.03H174.106V184.803H174.545C174.671 184.812 174.796 184.776 174.897 184.701C174.938 184.666 174.97 184.622 174.991 184.572C175.012 184.522 175.021 184.468 175.017 184.414C175.02 184.36 175.009 184.305 174.987 184.255C174.964 184.205 174.93 184.162 174.888 184.127H174.878Z" fill="#263238"/>
<path d="M176.145 187.37L175.636 186.639L175.137 187.37H174.577L175.354 186.297L174.614 185.265H175.169L175.632 185.945L176.094 185.265H176.622L175.932 186.278L176.714 187.37H176.145Z" fill="#263238"/>
<path d="M188.931 183.605H178.408V185.205H188.931V183.605Z" fill="#E0E0E0"/>
<path d="M187.737 189.174C187.737 189.243 184.666 189.294 180.873 189.294C177.08 189.294 174.008 189.243 174.008 189.174C174.008 189.105 177.08 189.054 180.873 189.054C184.666 189.054 187.737 189.109 187.737 189.174Z" fill="#263238"/>
<path d="M187.737 190.844C187.737 190.909 184.666 190.964 180.873 190.964C177.08 190.964 174.008 190.909 174.008 190.844C174.008 190.779 177.08 190.724 180.873 190.724C184.666 190.724 187.737 190.775 187.737 190.844Z" fill="#263238"/>
<path d="M180.128 192.926H173.014V194.295H180.128V192.926Z" fill="#E0E0E0"/>
<path d="M189.865 195.442C189.865 195.442 189.865 195.345 189.865 195.174C189.865 195.002 189.865 194.739 189.865 194.424C189.865 193.753 189.865 192.796 189.842 191.584C189.842 189.137 189.809 185.663 189.791 181.472L189.888 181.574H172.223L172.343 181.454V183.304C172.343 183.929 172.343 184.544 172.343 185.154V188.744C172.343 191.085 172.343 193.314 172.343 195.4L172.237 195.289L184.971 195.345L188.598 195.372H189.564H189.814H189.902H189.587H188.662L185.059 195.4L172.255 195.456H172.144V195.349C172.144 193.263 172.144 191.034 172.144 188.693V181.385C172.038 181.491 172.292 181.237 172.269 181.264H189.934H190.036V181.454C190.036 185.668 189.995 189.169 189.985 191.63C189.985 192.833 189.962 193.781 189.958 194.443C189.958 194.753 189.958 194.998 189.958 195.178C189.934 195.268 189.903 195.357 189.865 195.442Z" fill="#263238"/>
<path d="M171.386 208.158C171.321 208.158 171.266 200.451 171.266 190.95C171.266 181.449 171.321 173.743 171.386 173.743C171.451 173.743 171.506 181.445 171.506 190.95C171.506 200.456 171.455 208.158 171.386 208.158Z" fill="white"/>
<path d="M190.305 211.382C190.305 211.451 186.281 211.502 181.322 211.502C176.363 211.502 172.344 211.451 172.344 211.382C172.344 211.312 176.363 211.261 181.322 211.261C186.281 211.261 190.305 211.317 190.305 211.382Z" fill="#263238"/>
</svg>
