<svg width="277" height="182" viewBox="0 0 277 182" fill="none" xmlns="http://www.w3.org/2000/svg">
<path d="M254.855 46.6583C251.065 46.6591 247.359 45.5359 244.207 43.4306C241.056 41.3254 238.599 38.3327 237.148 34.8311C235.697 31.3295 235.317 27.4763 236.056 23.7588C236.796 20.0413 238.621 16.6265 241.301 13.9463C243.981 11.2662 247.396 9.4411 251.113 8.70186C254.831 7.96262 258.684 8.34245 262.186 9.79332C265.687 11.2442 268.68 13.7009 270.785 16.8528C272.89 20.0046 274.014 23.71 274.013 27.5003C274.006 32.5793 271.986 37.4482 268.394 41.0396C264.803 44.6309 259.934 46.6515 254.855 46.6583ZM254.855 9.19074C251.233 9.18989 247.693 10.263 244.682 12.2744C241.67 14.2858 239.323 17.145 237.936 20.4906C236.55 23.8362 236.186 27.5177 236.892 31.0697C237.598 34.6217 239.342 37.8846 241.902 40.4457C244.463 43.0067 247.725 44.751 251.277 45.4578C254.829 46.1646 258.511 45.8023 261.856 44.4166C265.202 43.0309 268.062 40.6841 270.074 37.673C272.086 34.662 273.16 31.1218 273.16 27.5003C273.155 22.6468 271.224 17.9936 267.793 14.5612C264.361 11.1289 259.708 9.1975 254.855 9.19074Z" fill="#EBEBEB"/>
<path d="M253.9 49.3694C253.606 49.3694 253.316 49.3396 253.047 49.314L253.115 48.4614C253.392 48.4827 253.674 48.4998 253.968 48.5126L253.9 49.3694ZM256.948 49.2927L256.871 48.4401C257.148 48.4103 257.425 48.3804 257.702 48.3421L257.817 49.1947C257.519 49.233 257.233 49.2629 256.939 49.2927H256.948ZM250.012 48.8664C249.726 48.8025 249.445 48.7343 249.159 48.6575L249.381 47.8348C249.65 47.9072 249.922 47.9755 250.195 48.0351L250.012 48.8664ZM260.806 48.5893L260.576 47.7708C260.844 47.6941 261.113 47.6131 261.377 47.5278L261.641 48.3378C261.356 48.4103 261.079 48.4955 260.797 48.5723L260.806 48.5893ZM246.278 47.66C246.009 47.5449 245.74 47.4255 245.48 47.3019L245.843 46.5303C246.098 46.6497 246.354 46.7648 246.61 46.8756L246.278 47.66ZM264.472 47.1911L264.097 46.4237C264.348 46.3001 264.596 46.1722 264.843 46.04L265.269 46.7903C264.984 46.914 264.724 47.0461 264.464 47.174L264.472 47.1911ZM242.816 45.7843C242.573 45.6223 242.334 45.456 242.096 45.2898L242.594 44.5949C242.82 44.7569 243.05 44.9189 243.285 45.0723L242.816 45.7843ZM267.818 45.1406L267.315 44.4542C267.537 44.2865 267.759 44.116 267.98 43.9426L268.509 44.6119C268.279 44.791 268.049 44.97 267.814 45.1406H267.818ZM239.747 43.3373C239.538 43.1369 239.32 42.9323 239.128 42.7234L239.738 42.1309C239.934 42.3312 240.135 42.5273 240.335 42.7234L239.747 43.3373ZM270.756 42.5444L270.138 41.9604C270.329 41.7557 270.517 41.534 270.705 41.338L271.344 41.9007C271.148 42.1181 270.952 42.3355 270.751 42.5444H270.756ZM237.163 40.3873C236.993 40.1528 236.822 39.9184 236.66 39.6754L237.368 39.1979C237.526 39.4324 237.688 39.6626 237.85 39.8885L237.163 40.3873ZM273.19 39.4665L272.478 39.0018C272.631 38.7674 272.776 38.5286 272.904 38.2899L273.637 38.7162C273.51 38.9762 273.343 39.2235 273.186 39.4665H273.19ZM235.143 37.0281C235.019 36.768 234.895 36.5037 234.78 36.2394L235.569 35.8898C235.68 36.1456 235.799 36.3971 235.918 36.6486L235.143 37.0281ZM275.036 36.0007L274.251 35.6724C274.358 35.4124 274.46 35.1523 274.558 34.888L275.36 35.1907C275.253 35.4635 275.142 35.7364 275.031 36.0007H275.036ZM233.757 33.3619C233.68 33.0805 233.608 32.7992 233.544 32.5093L234.371 32.3174C234.435 32.5903 234.507 32.8588 234.58 33.1274L233.757 33.3619ZM276.229 32.262L275.377 32.0744C275.436 31.8016 275.492 31.5288 275.539 31.2517L276.391 31.4052C276.344 31.6908 276.289 31.9764 276.225 32.262H276.229ZM233.054 29.4953C233.024 29.2097 233.007 28.9198 232.99 28.6427L233.842 28.6001C233.842 28.8815 233.876 29.1586 233.902 29.4527L233.054 29.4953ZM276.728 28.3656L275.876 28.3315C275.876 28.0544 275.876 27.7773 275.876 27.4789V27.3894H276.728V27.4704C276.745 27.7901 276.737 28.08 276.728 28.3699V28.3656ZM233.894 25.6586L233.041 25.5819C233.066 25.292 233.096 25.0021 233.13 24.7293L233.983 24.8359C233.949 25.0959 233.919 25.373 233.894 25.6586ZM275.671 24.4906C275.633 24.2135 275.59 23.9364 275.539 23.6635L276.391 23.5101C276.447 23.7957 276.494 24.0813 276.536 24.3627L275.671 24.4906ZM234.55 21.9328L233.727 21.7111C233.804 21.4297 233.889 21.1484 233.974 20.8585L234.789 21.1185C234.716 21.3956 234.627 21.6727 234.554 21.9413L234.55 21.9328ZM274.806 20.8116C274.716 20.543 274.622 20.283 274.524 20.0229L275.321 19.7203C275.424 19.9874 275.522 20.2602 275.616 20.5388L274.806 20.8116ZM235.872 18.4115L235.104 18.0449C235.232 17.7806 235.36 17.5206 235.496 17.2648L236.251 17.6655C236.119 17.9085 235.995 18.1557 235.872 18.4115ZM273.296 17.3713C273.16 17.1284 273.024 16.8854 272.87 16.6466L273.599 16.2203C273.75 16.4676 273.892 16.7191 274.025 16.9749L273.296 17.3713ZM237.803 15.1716L237.112 14.6729C237.283 14.4384 237.457 14.2039 237.641 13.978L238.31 14.5023C238.127 14.7198 237.969 14.9414 237.803 15.1674V15.1716ZM271.191 14.2508C271.016 14.0334 270.837 13.8245 270.649 13.6071L271.289 13.0444C271.48 13.2618 271.668 13.4707 271.856 13.7094L271.191 14.2508ZM240.279 12.3282L239.687 11.7143C239.9 11.514 240.113 11.3136 240.331 11.1218L240.893 11.7612C240.684 11.9403 240.48 12.1321 240.279 12.324V12.3282ZM268.565 11.5438L267.917 11.0109L268.445 10.3417C268.675 10.525 268.897 10.7083 269.119 10.9001L268.565 11.5438ZM243.242 9.96651L242.769 9.25459C243.012 9.09686 243.255 8.93913 243.507 8.78566L243.933 9.51463C243.669 9.65957 243.451 9.81304 243.242 9.96651ZM265.516 9.34837C265.278 9.20343 265.035 9.06702 264.787 8.92207L265.188 8.17179C265.444 8.3082 265.7 8.45315 265.951 8.59809L265.516 9.34837ZM246.529 8.18031L246.192 7.39592C246.461 7.28082 246.729 7.16998 246.998 7.06767L247.305 7.86059C247.045 7.95437 246.785 8.06095 246.529 8.18031ZM262.085 7.75401C261.825 7.65596 261.556 7.56644 261.292 7.48118L261.552 6.66695C261.829 6.75647 262.106 6.85026 262.379 6.95257L262.085 7.75401ZM250.11 7.01225L249.918 6.18097C250.202 6.1156 250.487 6.05592 250.771 6.00192L250.924 6.85452C250.656 6.87583 250.383 6.93552 250.11 6.9952V7.01225ZM258.44 6.78205C258.167 6.73516 257.89 6.69252 257.613 6.65416L257.724 5.80156C258.014 5.83992 258.299 5.88255 258.576 5.93371L258.44 6.78205ZM253.844 6.47511L253.806 5.62251C254.096 5.62251 254.386 5.6012 254.659 5.6012V6.4538C254.403 6.47511 254.121 6.47511 253.844 6.47511Z" fill="#EBEBEB"/>
<path d="M251.914 39.3472H257.818V30.4418H266.728V24.5375H257.818V15.6321H251.914V24.5375H243.009V30.4418H251.914V39.3472Z" fill="#F5F5F5"/>
<path d="M33.7973 97.0726C30.6072 101.344 26.5365 104.879 21.8609 107.44C17.1861 104.878 13.1157 101.343 9.92448 97.0726C5.72116 91.5051 5.92578 82.7873 11.9451 80.903C18.5826 78.8184 21.8481 88.8365 21.8481 88.8365C21.8481 88.8365 25.1647 78.7545 31.7766 80.903C37.7661 82.8555 38.0049 91.5051 33.7973 97.0726Z" fill="#F5F5F5"/>
<path d="M17.1497 103.041L15.3379 95.4909L14.1528 98.151H6.82471V97.2984H13.5986L15.5809 92.8435L16.992 98.735L18.9956 86.53L20.7605 96.1857L22.1545 92.1529L24.3542 98.7521L24.8402 97.2941H36.8789V98.1467H25.454L24.3542 101.442L22.1374 94.8045L20.5047 99.5279L19.0382 91.522L17.1497 103.041Z" fill="white"/>
<path d="M21.8647 111.025C18.0746 111.026 14.3694 109.903 11.2176 107.798C8.06584 105.693 5.60911 102.701 4.15811 99.1991C2.70712 95.6978 2.32703 91.8448 3.06593 88.1274C3.80482 84.41 5.62951 80.9952 8.30922 78.3149C10.9889 75.6346 14.4033 73.8092 18.1205 73.0694C21.8377 72.3297 25.6908 72.7089 29.1925 74.1592C32.6942 75.6094 35.6872 78.0654 37.7929 81.2167C39.8987 84.368 41.0226 88.073 41.0226 91.8631C41.017 96.9428 38.9969 101.813 35.4054 105.405C31.814 108.997 26.9444 111.019 21.8647 111.025ZM21.8647 73.5578C18.2431 73.557 14.7025 74.6302 11.6908 76.6417C8.67919 78.6533 6.33174 81.5128 4.9454 84.8586C3.55906 88.2045 3.19611 91.8863 3.90246 95.4384C4.6088 98.9905 6.35271 102.253 8.91361 104.814C11.4745 107.375 14.7374 109.119 18.2895 109.825C21.8416 110.532 25.5234 110.169 28.8692 108.782C32.215 107.396 35.0745 105.049 37.0861 102.037C39.0977 99.0254 40.1709 95.4848 40.17 91.8631C40.1633 87.0103 38.2325 82.3582 34.8011 78.9268C31.3696 75.4953 26.7175 73.5646 21.8647 73.5578Z" fill="#EBEBEB"/>
<path d="M20.9015 113.737L20.0489 113.681L20.1171 112.829C20.3985 112.854 20.6756 112.871 20.9697 112.884L20.9015 113.737ZM23.9538 113.656L23.8728 112.803C24.1499 112.777 24.4313 112.743 24.7254 112.709L24.8363 113.562C24.5506 113.596 24.2437 113.63 23.9538 113.656ZM17.0136 113.229C16.7323 113.165 16.4467 113.093 16.161 113.02L16.3785 112.198L17.197 112.398L17.0136 113.229ZM27.8076 112.952L27.5774 112.129C27.8502 112.053 28.1145 111.972 28.3788 111.886L28.6474 112.696C28.3873 112.773 28.0889 112.858 27.8076 112.939V112.952ZM13.2793 112.023C13.0107 111.908 12.7464 111.788 12.4821 111.66L12.8487 110.893C13.1016 111.012 13.3574 111.128 13.616 111.238L13.2793 112.023ZM31.4738 111.55L31.0986 110.787C31.3501 110.663 31.5974 110.535 31.8446 110.403L32.2709 111.153C31.9938 111.277 31.7338 111.409 31.4738 111.537V111.55ZM9.82196 110.16C9.57897 110.002 9.34024 109.836 9.10151 109.665L9.60028 108.975C9.82622 109.137 10.0607 109.294 10.2909 109.448L9.82196 110.16ZM34.8245 109.52L34.3214 108.834C34.546 108.669 34.7676 108.499 34.9865 108.323L35.5193 108.988C35.2934 109.158 35.0589 109.333 34.8245 109.508V109.52ZM6.7526 107.717C6.54371 107.517 6.3263 107.312 6.13446 107.103L6.74833 106.511C6.94017 106.711 7.14053 106.907 7.34089 107.099L6.7526 107.717ZM37.7659 106.911L37.1478 106.323C37.3396 106.119 37.5272 105.897 37.7105 105.705L38.3542 106.263C38.1624 106.485 37.9663 106.698 37.7659 106.911ZM4.16922 104.754C3.9987 104.52 3.83244 104.281 3.67045 104.042L4.3781 103.565C4.53157 103.799 4.69357 104.025 4.85982 104.251L4.16922 104.754ZM40.1959 103.834L39.4839 103.365C39.6374 103.13 39.7866 102.896 39.9315 102.653L40.6605 103.079C40.5113 103.343 40.3578 103.586 40.1959 103.834ZM2.15282 101.395C2.02493 101.135 1.9013 100.871 1.7862 100.602L2.57059 100.261C2.68143 100.517 2.79653 100.773 2.92016 101.024L2.15282 101.395ZM42.0289 100.368L41.2446 100.035C41.3511 99.7794 41.4577 99.5194 41.5558 99.2551L42.3529 99.5535C42.2634 99.8349 42.1568 100.099 42.0289 100.368ZM0.754552 97.7247C0.677818 97.4405 0.605346 97.1563 0.537138 96.8721L1.36842 96.676C1.43237 96.9488 1.50058 97.2216 1.57731 97.4902L0.754552 97.7247ZM43.2226 96.6248L42.37 96.4415C42.4297 96.1687 42.4851 95.8958 42.5362 95.6187L43.3888 95.7722C43.3547 96.0578 43.3078 96.3435 43.2354 96.6248H43.2226ZM0.0639457 93.8667C0.0383677 93.5825 0.017052 93.2983 0 93.0141L0.852601 92.9714C0.852601 93.2485 0.886704 93.5299 0.912282 93.824L0.0639457 93.8667ZM43.7341 92.737L42.8815 92.7029C42.8815 92.4258 42.8815 92.1444 42.8815 91.8503V91.7607H43.7341V91.846C43.7555 92.1615 43.7341 92.4471 43.7341 92.737ZM0.903756 90.03L0.0511556 89.9532C0.0767336 89.6633 0.106575 89.3735 0.144942 89.1006L0.997543 89.2072C0.959176 89.463 0.929334 89.7401 0.903756 90.03ZM42.6812 88.8619C42.6428 88.5805 42.5959 88.3077 42.5448 88.0093L43.3974 87.8558C43.4485 88.1414 43.4954 88.4271 43.538 88.7084L42.6812 88.8619ZM1.56026 86.3041L0.737499 86.0781C0.814233 85.7968 0.895231 85.5197 0.984754 85.2255L1.79472 85.4813C1.71799 85.767 1.64126 86.0398 1.56879 86.3084L1.56026 86.3041ZM41.8115 85.1787C41.722 84.9143 41.6282 84.65 41.5302 84.39L42.3274 84.0873C42.4297 84.3602 42.5277 84.633 42.6215 84.9101L41.8115 85.1787ZM2.88605 82.7828L2.11445 82.4162C2.24234 82.1519 2.37449 81.8919 2.51091 81.6318L3.2612 82.0326C3.13331 82.2713 3.00542 82.5228 2.88605 82.7828ZM40.3237 81.7341C40.1916 81.4869 40.0509 81.2482 39.8974 81.0094L40.6264 80.5831C40.7799 80.8347 40.9248 81.0862 41.0527 81.3377L40.3237 81.7341ZM4.81293 79.5344L4.12232 79.0357C4.29711 78.7969 4.47189 78.5667 4.65094 78.3365L5.32023 78.8651C5.14544 79.0826 4.97919 79.3085 4.81293 79.5344ZM38.1922 78.6094C38.0132 78.392 37.8341 78.1831 37.6508 77.9699L38.2903 77.4072C38.4835 77.626 38.6711 77.8477 38.853 78.0722L38.1922 78.6094ZM7.27695 76.691L6.68865 76.0729C6.89896 75.8739 7.11211 75.6778 7.3281 75.4846L7.92492 76.1198C7.69898 76.3073 7.49862 76.4949 7.28974 76.691H7.27695ZM35.562 75.9066C35.3488 75.7233 35.1357 75.5443 34.914 75.3695L35.4469 74.7045C35.6728 74.8835 35.8987 75.0711 36.1204 75.2587L35.562 75.9066ZM10.2184 74.3293L9.74522 73.6217C9.98822 73.4597 10.2312 73.3062 10.4827 73.1527L10.909 73.8817C10.7001 74.0266 10.4827 74.1758 10.2312 74.3293H10.2184ZM32.4969 73.7112C32.2539 73.5705 32.0109 73.4341 31.7636 73.2849L32.1644 72.5303C32.4201 72.671 32.6759 72.8117 32.9274 72.9566L32.4969 73.7112ZM13.5436 72.5516L13.2025 71.7672L14.0082 71.439L14.3152 72.2362C14.0551 72.3172 13.7993 72.4238 13.5436 72.5516ZM29.095 72.1253C28.835 72.0316 28.5706 71.9378 28.3021 71.8525L28.5621 71.0425C28.8392 71.1321 29.1163 71.2258 29.3891 71.3239L29.095 72.1253ZM17.1202 71.3878L16.9284 70.5352L17.781 70.3562L17.9387 71.2088C17.6659 71.2429 17.3931 71.2983 17.1202 71.3623V71.3878ZM25.4544 71.1534C25.1773 71.1065 24.9002 71.0681 24.6018 71.0297L24.7126 70.1771C25.0025 70.2155 25.2881 70.2581 25.5652 70.305L25.4544 71.1534ZM20.8546 70.8464L20.8162 69.9938C21.1061 69.9938 21.396 69.9938 21.6902 69.9683V70.8209C21.4131 70.8464 21.1402 70.8464 20.8546 70.8464Z" fill="#EBEBEB"/>
<path d="M245.506 120.852C245.295 115.526 245.368 110.192 245.724 104.874C246.512 93.9072 248.185 83.0224 250.729 72.3258C252.127 66.3021 253.845 60.3893 255.635 54.4638C255.691 54.2847 255.972 54.3359 255.925 54.5235C250.383 75.3738 245.843 96.8934 246.154 118.571C246.244 124.637 246.947 130.597 247.523 136.625C247.523 136.787 247.271 136.851 247.233 136.684C246.09 131.526 245.72 126.121 245.506 120.852Z" fill="#EBEBEB"/>
<path d="M255.925 54.5233C255.925 54.5233 264.314 75.817 262.426 80.8218C260.537 85.8265 256.675 86.8966 256.675 86.8966C256.675 86.8966 261.791 94.2247 258.222 101.097C254.654 107.969 246.665 107.645 246.137 115.437C246.145 115.437 245.702 82.851 255.925 54.5233Z" fill="#F5F5F5"/>
<path d="M247.079 101.966C247.065 101.931 247.065 101.891 247.079 101.856C248.256 87.3614 250.826 72.9396 255.217 59.0166C255.217 59.0076 255.221 58.9989 255.227 58.9925C255.234 58.9861 255.242 58.9825 255.251 58.9825C255.26 58.9825 255.269 58.9861 255.275 58.9925C255.282 58.9989 255.285 59.0076 255.285 59.0166C253.623 65.2435 252.154 71.5058 250.878 77.8037C252.005 76.7352 253.383 75.9671 254.885 75.5699C254.89 75.5699 254.896 75.5721 254.9 75.5761C254.904 75.5801 254.906 75.5856 254.906 75.5912C254.906 75.5969 254.904 75.6023 254.9 75.6063C254.896 75.6103 254.89 75.6125 254.885 75.6125C253.333 76.2818 251.849 77.0619 250.75 78.3749C250.507 79.6112 250.268 80.8432 250.038 82.0795C251.913 79.9864 254.514 78.9462 257.114 77.9572C257.153 77.9572 257.17 77.9998 257.136 78.0169C254.424 79.1167 251.726 80.5406 249.889 82.8724C249.246 86.4079 248.678 89.9604 248.183 93.5299C249.54 92.1104 251.278 91.114 253.188 90.6609C253.248 90.6609 253.278 90.7334 253.218 90.7504C251.249 91.3206 249.487 92.4489 248.145 93.9989C248.145 93.9989 248.145 93.9989 248.115 94.0244C247.945 95.2778 247.787 96.5268 247.642 97.7844C248.689 96.8912 249.872 96.1716 251.146 95.6529C251.18 95.6529 251.197 95.6913 251.146 95.7041C249.847 96.2648 248.658 97.0514 247.633 98.0274C247.633 98.0274 247.604 98.0274 247.586 98.0487C247.446 99.2381 247.309 100.432 247.186 101.625C249.078 99.3438 251.532 97.594 254.305 96.5481C254.36 96.5268 254.386 96.6078 254.335 96.6334C251.595 97.8386 249.189 99.6906 247.322 102.03C247.301 102.057 247.273 102.076 247.241 102.086C247.209 102.096 247.175 102.096 247.143 102.086C246.964 103.913 246.805 105.748 246.666 107.589C246.666 107.615 246.623 107.619 246.623 107.589C246.759 105.731 246.912 103.856 247.079 101.966Z" fill="#A6A6A6"/>
<path d="M253.798 73.4896C255.251 72.4878 257.101 72.0615 258.837 71.9166C258.842 71.9146 258.847 71.914 258.853 71.9147C258.858 71.9154 258.863 71.9174 258.868 71.9205C258.872 71.9237 258.876 71.9279 258.879 71.9327C258.881 71.9376 258.883 71.943 258.883 71.9485C258.883 71.954 258.881 71.9595 258.879 71.9643C258.876 71.9692 258.872 71.9734 258.868 71.9765C258.863 71.9797 258.858 71.9817 258.853 71.9824C258.847 71.9831 258.842 71.9824 258.837 71.9805C257.033 72.2491 255.516 72.9013 253.853 73.609C253.838 73.6115 253.823 73.6091 253.81 73.6021C253.797 73.5951 253.786 73.584 253.78 73.5705C253.773 73.5569 253.772 73.5416 253.775 73.527C253.778 73.5124 253.786 73.4993 253.798 73.4896Z" fill="#A6A6A6"/>
<path d="M252.78 96.0323C253.948 95.3684 255.233 94.9343 256.565 94.7534C256.608 94.7534 256.612 94.8174 256.565 94.8216C255.262 95.0822 254.002 95.5242 252.822 96.1346C252.775 96.1474 252.728 96.0622 252.78 96.0323Z" fill="#A6A6A6"/>
<path d="M223.45 81.1672C226.998 83.6203 230.256 86.4693 233.161 89.6591C236.161 93.0306 238.477 96.9527 239.982 101.208C243.163 110.075 244.874 119.404 245.046 128.823C245.15 134.042 244.648 139.255 243.55 144.358C243.538 144.391 243.514 144.42 243.483 144.438C243.452 144.455 243.416 144.462 243.381 144.455C243.346 144.448 243.314 144.429 243.292 144.401C243.27 144.373 243.258 144.338 243.26 144.302C244.629 135.3 244.577 126.138 243.106 117.151C241.665 108.361 239.406 98.7606 233.8 91.603C230.752 87.7023 226.95 84.6372 223.194 81.4656C222.994 81.2993 223.249 81.0265 223.45 81.1672Z" fill="#EBEBEB"/>
<path d="M243.81 122.484C241.79 119.218 239.417 116.185 236.733 113.438C232.534 109.239 229 106.259 228.454 103.484C227.909 100.709 232.658 98.667 232.658 98.667C232.658 98.667 226.851 99.7071 225.261 97.2687C223.671 94.8303 222.904 80.7155 222.904 80.7155C222.904 80.7155 233.472 88.261 238.396 98.8332C243.319 109.405 243.81 122.484 243.81 122.484Z" fill="#EBEBEB"/>
<path d="M226.681 93.9562C227.375 93.8576 228.078 93.8333 228.778 93.8837C228.863 93.8837 228.859 94.0329 228.778 94.0329C228.079 94.0542 227.384 94.0031 226.689 94.0329C226.617 94.0457 226.617 93.9647 226.681 93.9562Z" fill="#A6A6A6"/>
<path d="M234.29 107.653C235.406 107.679 236.508 107.9 237.547 108.306C237.573 108.306 237.547 108.361 237.547 108.352C236.469 108.097 235.382 107.994 234.295 107.815C234.188 107.798 234.192 107.653 234.29 107.653Z" fill="#A6A6A6"/>
<path d="M236.563 102.921C237.026 102.918 237.489 102.959 237.944 103.045C237.991 103.045 237.991 103.13 237.944 103.13C237.481 103.154 237.017 103.132 236.559 103.066C236.549 103.066 236.54 103.064 236.531 103.06C236.522 103.056 236.515 103.051 236.508 103.044C236.495 103.03 236.488 103.011 236.488 102.992C236.489 102.973 236.497 102.954 236.511 102.941C236.525 102.928 236.544 102.921 236.563 102.921Z" fill="#A6A6A6"/>
<path d="M274.788 96.1517C271.356 97.3179 268.066 98.8696 264.983 100.777C261.78 102.814 259.001 105.453 256.803 108.548C252.173 114.988 248.629 122.142 246.312 129.727C245.021 133.926 244.223 138.261 243.933 142.644C243.929 142.677 243.939 142.71 243.96 142.735C243.981 142.761 244.011 142.777 244.044 142.78C244.076 142.784 244.109 142.774 244.135 142.753C244.16 142.732 244.177 142.702 244.18 142.67C245.152 135.066 247.309 127.663 250.575 120.728C253.78 113.933 257.822 106.703 264.012 102.201C267.379 99.7497 271.165 98.1468 274.942 96.4501C275.121 96.3606 274.98 96.0835 274.788 96.1517Z" fill="#EBEBEB"/>
<path d="M248.759 124.88C251.148 122.703 253.77 120.796 256.577 119.193C260.942 116.768 264.494 115.173 265.576 113.054C266.659 110.936 263.279 108.182 263.279 108.182C263.279 108.182 267.738 110.369 269.588 108.762C271.438 107.154 275.322 95.9087 275.322 95.9087C275.322 95.9087 265.026 99.5749 258.598 106.992C252.169 114.41 248.759 124.88 248.759 124.88Z" fill="#F5F5F5"/>
<path d="M249.292 122.561C254.441 112.897 261.313 104.153 270.726 98.3856C268.268 99.9663 265.962 101.772 263.837 103.778C265.755 103.672 267.667 104.075 269.379 104.946C269.383 104.948 269.386 104.95 269.389 104.953C269.391 104.956 269.393 104.96 269.395 104.964C269.396 104.967 269.397 104.971 269.397 104.975C269.397 104.979 269.396 104.983 269.394 104.987C269.392 104.991 269.39 104.994 269.387 104.997C269.384 104.999 269.38 105.001 269.377 105.003C269.373 105.004 269.369 105.005 269.365 105.005C269.361 105.004 269.357 105.003 269.353 105.002C267.534 104.321 265.6 103.996 263.658 104.043C263.634 104.042 263.612 104.033 263.594 104.017C263.257 104.333 262.929 104.656 262.601 104.98C263.596 105.027 264.586 105.159 265.559 105.373C265.565 105.373 265.57 105.375 265.574 105.379C265.578 105.383 265.581 105.388 265.581 105.394C265.581 105.4 265.578 105.405 265.574 105.409C265.57 105.413 265.565 105.415 265.559 105.415C264.53 105.22 263.482 105.133 262.435 105.155C260.714 106.902 259.093 108.744 257.579 110.672C258.271 110.573 258.976 110.624 259.647 110.821C259.657 110.821 259.666 110.825 259.674 110.832C259.681 110.839 259.685 110.849 259.685 110.859C259.685 110.869 259.681 110.879 259.674 110.886C259.666 110.893 259.657 110.898 259.647 110.898C258.913 110.815 258.174 110.805 257.438 110.868C257.157 111.226 256.871 111.584 256.586 111.946C258.688 111.818 260.797 112.024 262.835 112.556C262.865 112.556 262.857 112.607 262.835 112.603C260.731 112.188 258.582 112.045 256.441 112.176C256.176 112.526 255.929 112.884 255.669 113.234C256.923 113.203 258.176 113.346 259.391 113.66C259.401 113.66 259.411 113.664 259.418 113.671C259.425 113.678 259.429 113.688 259.429 113.698C259.429 113.708 259.425 113.718 259.418 113.725C259.411 113.733 259.401 113.737 259.391 113.737C258.131 113.463 256.841 113.361 255.554 113.434C254.446 114.96 253.383 116.516 252.365 118.102C252.91 118.004 253.469 118.038 253.998 118.2C254.004 118.2 254.009 118.202 254.013 118.206C254.017 118.21 254.019 118.216 254.019 118.221C254.019 118.227 254.017 118.232 254.013 118.236C254.009 118.24 254.004 118.243 253.998 118.243C253.408 118.198 252.816 118.227 252.233 118.328C251.315 119.749 250.431 121.188 249.582 122.646C249.424 122.783 249.211 122.689 249.292 122.561Z" fill="#A6A6A6"/>
<path d="M257.311 114.547C258.319 114.476 259.332 114.599 260.295 114.909C260.32 114.909 260.295 114.96 260.295 114.956C259.308 114.789 258.311 114.687 257.311 114.649C257.247 114.649 257.234 114.551 257.311 114.547Z" fill="#A6A6A6"/>
<path d="M266.284 102.768C266.745 102.733 267.208 102.76 267.661 102.849C267.717 102.849 267.7 102.934 267.661 102.93C267.209 102.883 266.762 102.896 266.31 102.883C266.296 102.884 266.282 102.88 266.27 102.871C266.259 102.863 266.251 102.85 266.248 102.836C266.245 102.823 266.247 102.808 266.254 102.796C266.26 102.783 266.271 102.773 266.284 102.768Z" fill="#A6A6A6"/>
<path d="M235.48 156.998H258.718L255.405 132.728L254.557 126.504H239.641L238.792 132.728L235.48 156.998Z" fill="#F5F5F5"/>
<path d="M238.792 132.728H255.405L254.557 126.504H239.64L238.792 132.728Z" fill="#C7C7C7"/>
<path d="M237.509 129.616H256.693V124.347H237.509V129.616Z" fill="#F5F5F5"/>
<path d="M12.3027 156.998L43.8191 156.895L75.3355 156.857L138.373 156.785L201.41 156.857L232.926 156.895L264.442 156.998L232.926 157.104L201.41 157.138L138.373 157.211L75.3355 157.138L43.8191 157.1L12.3027 156.998Z" fill="#263238"/>
<path d="M138.373 182C208.263 182 264.92 176.986 264.92 170.801C264.92 164.616 208.263 159.602 138.373 159.602C68.4828 159.602 11.8257 164.616 11.8257 170.801C11.8257 176.986 68.4828 182 138.373 182Z" fill="#F5F5F5"/>
<path d="M237.67 3.14587H39.0742V144.592H237.67V3.14587Z" fill="#00424E"/>
<path d="M228.071 12.3412H48.6753V113.911H228.071V12.3412Z" fill="white"/>
<path d="M237.67 123.725H39.0742V144.588H237.67V123.725Z" fill="#F5F5F5"/>
<path d="M178.91 164.739H97.8408V170.094H178.91V164.739Z" fill="#C7C7C7"/>
<path d="M169.255 164.744H107.492L109.061 155.455L109.138 155.015L109.283 154.146L109.355 153.707L109.509 152.833L109.526 152.701L109.581 152.398L109.73 151.524L109.803 151.085L110.898 144.597H165.844L166.88 150.718L166.936 151.012L167.106 152.027L167.153 152.321L167.217 152.701L167.328 153.336L167.375 153.634L167.545 154.653L167.596 154.943L169.255 164.744Z" fill="#F5F5F5"/>
<path d="M228.071 12.3412H48.6753V17.8362H228.071V12.3412Z" fill="#455A64"/>
<path d="M53.0403 15.0865C53.0403 15.3564 52.9602 15.6204 52.8101 15.8448C52.66 16.0692 52.4467 16.2441 52.1972 16.3472C51.9477 16.4503 51.6732 16.4771 51.4085 16.4241C51.1437 16.3711 50.9007 16.2408 50.7101 16.0495C50.5194 15.8583 50.3899 15.6149 50.3377 15.35C50.2856 15.0851 50.3132 14.8106 50.4171 14.5615C50.521 14.3123 50.6965 14.0995 50.9214 13.9501C51.1463 13.8007 51.4104 13.7215 51.6804 13.7223C51.8594 13.7223 52.0366 13.7576 52.2018 13.8262C52.3671 13.8948 52.5172 13.9954 52.6435 14.1221C52.7699 14.2488 52.87 14.3993 52.938 14.5647C53.0061 14.7302 53.0409 14.9075 53.0403 15.0865Z" fill="#C7C7C7"/>
<path d="M58.6033 15.0865C58.6033 15.3564 58.5232 15.6204 58.3731 15.8448C58.223 16.0692 58.0097 16.2441 57.7602 16.3472C57.5107 16.4503 57.2362 16.4771 56.9715 16.4241C56.7067 16.3711 56.4637 16.2408 56.273 16.0495C56.0824 15.8583 55.9528 15.6149 55.9007 15.35C55.8485 15.0851 55.8762 14.8106 55.9801 14.5615C56.084 14.3123 56.2595 14.0995 56.4844 13.9501C56.7093 13.8007 56.9734 13.7215 57.2434 13.7223C57.4224 13.7223 57.5996 13.7576 57.7648 13.8262C57.9301 13.8948 58.0802 13.9954 58.2065 14.1221C58.3329 14.2488 58.4329 14.3993 58.501 14.5647C58.5691 14.7302 58.6039 14.9075 58.6033 15.0865Z" fill="white"/>
<path d="M64.1668 15.0865C64.1668 15.3564 64.0867 15.6204 63.9366 15.8448C63.7865 16.0692 63.5732 16.2441 63.3237 16.3472C63.0742 16.4503 62.7997 16.4771 62.5349 16.4241C62.2702 16.3711 62.0271 16.2408 61.8365 16.0495C61.6459 15.8583 61.5163 15.6149 61.4642 15.35C61.412 15.0851 61.4396 14.8106 61.5435 14.5615C61.6474 14.3123 61.823 14.0995 62.0479 13.9501C62.2728 13.8007 62.5369 13.7215 62.8069 13.7223C62.9858 13.7223 63.163 13.7576 63.3283 13.8262C63.4936 13.8948 63.6437 13.9954 63.77 14.1221C63.8963 14.2488 63.9964 14.3993 64.0645 14.5647C64.1326 14.7302 64.1674 14.9075 64.1668 15.0865Z" fill="#0681F7"/>
<path d="M141.096 133.95C141.534 132.104 140.392 130.254 138.547 129.816C136.702 129.379 134.851 130.52 134.414 132.365C133.976 134.21 135.117 136.061 136.963 136.499C138.808 136.936 140.659 135.795 141.096 133.95Z" fill="#263238"/>
<path d="M167.216 152.701H109.525L109.58 152.398L109.73 151.524L109.802 151.085L110.898 144.597H165.843L166.879 150.718L166.935 151.012L167.105 152.027L167.152 152.321L167.216 152.701Z" fill="#C7C7C7"/>
<path d="M228.075 17.8361H188.263V113.916H228.075V17.8361Z" fill="#EBEBEB"/>
<path d="M198.11 57.3882H221.757V41.986H198.11V57.3882Z" fill="#0094B8"/>
<path d="M218.948 44.6504H200.919V44.9445H218.948V44.6504Z" fill="white"/>
<path d="M209.931 46.2319H200.919V46.5261H209.931V46.2319Z" fill="white"/>
<path d="M215.375 49.391H200.919V49.6851H215.375V49.391Z" fill="white"/>
<path d="M218.948 50.9724H200.919V51.2666H218.948V50.9724Z" fill="white"/>
<path d="M218.948 52.5541H200.919V52.8482H218.948V52.5541Z" fill="white"/>
<path d="M206.917 54.1313H200.919V54.4255H206.917V54.1313Z" fill="white"/>
<path d="M221.744 54.562L223.373 59.8524L217.763 57.3713L221.744 54.562Z" fill="#0681F7"/>
<path d="M218.236 24.2263H194.589V37.22H218.236V24.2263Z" fill="#263238"/>
<path d="M194.589 34.4108L192.96 39.7054L198.571 37.2201L194.589 34.4108Z" fill="#263238"/>
<path d="M208.222 26.6265H197.454V26.9206H208.222V26.6265Z" fill="white"/>
<path d="M215.482 28.208H197.454V28.5022H215.482V28.208Z" fill="white"/>
<path d="M215.482 29.7855H197.454V30.0797H215.482V29.7855Z" fill="white"/>
<path d="M212.042 31.3671H197.454V31.6612H212.042V31.3671Z" fill="white"/>
<path d="M215.482 32.9485H197.454V33.2426H215.482V32.9485Z" fill="white"/>
<path d="M204.142 34.53H197.454V34.8242H204.142V34.53Z" fill="white"/>
<path d="M218.236 61.7494H194.589V70.642H218.236V61.7494Z" fill="#263238"/>
<path d="M194.589 67.8328L192.96 73.1232L198.571 70.6421L194.589 67.8328Z" fill="#263238"/>
<path d="M213.065 64.1495H197.454V64.4437H213.065V64.1495Z" fill="white"/>
<path d="M205.609 65.7311H197.454V66.0252H205.609V65.7311Z" fill="white"/>
<path d="M211.065 67.3082H197.454V67.6024H211.065V67.3082Z" fill="white"/>
<path d="M223.373 90.7251H192.96V96.3267H223.373V90.7251Z" fill="white"/>
<path d="M222.043 93.594C222.044 93.8675 221.963 94.1352 221.812 94.363C221.66 94.5907 221.445 94.7684 221.192 94.8735C220.939 94.9786 220.661 95.0063 220.393 94.9531C220.125 94.9 219.878 94.7683 219.685 94.5749C219.491 94.3815 219.36 94.135 219.307 93.8667C219.253 93.5983 219.281 93.3203 219.386 93.0677C219.491 92.8152 219.669 92.5995 219.897 92.448C220.125 92.2966 220.392 92.2162 220.666 92.217C221.031 92.2182 221.38 92.3636 221.638 92.6216C221.896 92.8796 222.042 93.2291 222.043 93.594Z" fill="#0681F7"/>
<path d="M220.41 92.7966L221.263 93.5938L220.41 94.391L220.235 94.2034L220.883 93.5938L220.235 92.9842L220.41 92.7966Z" fill="white"/>
<path d="M194.534 91.8547H194.167V95.1969H194.534V91.8547Z" fill="#263238"/>
<path d="M228.071 99.882H48.6753V113.916H228.071V99.882Z" fill="#0094B8"/>
<path d="M121.505 111.72C124.167 111.72 126.326 109.562 126.326 106.899C126.326 104.236 124.167 102.077 121.505 102.077C118.842 102.077 116.683 104.236 116.683 106.899C116.683 109.562 118.842 111.72 121.505 111.72Z" fill="#A6A6A6"/>
<path d="M124.612 105.658H124.391V108.135H124.612V105.658Z" fill="white"/>
<path d="M124.292 105.658V108.135L123.15 107.845L122.817 107.76V106.033L123.679 105.816L124.292 105.658Z" fill="white"/>
<path d="M122.19 104.917H119.014C118.671 104.917 118.392 105.195 118.392 105.539V108.259C118.392 108.603 118.671 108.881 119.014 108.881H122.19C122.534 108.881 122.813 108.603 122.813 108.259V105.539C122.813 105.195 122.534 104.917 122.19 104.917Z" fill="white"/>
<path d="M155.241 111.72C157.904 111.72 160.063 109.562 160.063 106.899C160.063 104.236 157.904 102.077 155.241 102.077C152.579 102.077 150.42 104.236 150.42 106.899C150.42 109.562 152.579 111.72 155.241 111.72Z" fill="#A6A6A6"/>
<path d="M155.245 110.237C155.209 110.237 155.174 110.222 155.149 110.197C155.123 110.171 155.109 110.137 155.109 110.1V108.51C155.109 108.474 155.123 108.439 155.149 108.414C155.174 108.388 155.209 108.374 155.245 108.374C155.281 108.374 155.316 108.388 155.342 108.414C155.367 108.439 155.382 108.474 155.382 108.51V110.1C155.382 110.137 155.367 110.171 155.342 110.197C155.316 110.222 155.281 110.237 155.245 110.237Z" fill="white"/>
<path d="M156.115 110.237H154.372C154.336 110.237 154.301 110.222 154.275 110.197C154.25 110.171 154.235 110.136 154.235 110.1C154.236 110.064 154.251 110.03 154.277 110.005C154.302 109.98 154.336 109.965 154.372 109.964H156.115C156.151 109.965 156.185 109.98 156.211 110.005C156.236 110.03 156.251 110.064 156.252 110.1C156.252 110.136 156.237 110.171 156.212 110.197C156.186 110.222 156.152 110.237 156.115 110.237Z" fill="white"/>
<path d="M156.363 104.678V106.993C156.369 107.25 156.287 107.501 156.13 107.705C155.972 107.908 155.749 108.051 155.499 108.109C155.248 108.167 154.985 108.137 154.754 108.024C154.523 107.91 154.339 107.721 154.231 107.487C154.154 107.334 154.114 107.164 154.116 106.993V104.678C154.125 104.392 154.244 104.12 154.447 103.918C154.65 103.716 154.923 103.6 155.209 103.593C155.495 103.586 155.774 103.688 155.987 103.88C156.2 104.071 156.331 104.337 156.354 104.622L156.363 104.678Z" fill="white"/>
<path d="M155.241 108.647C154.81 108.645 154.397 108.473 154.092 108.168C153.788 107.863 153.617 107.449 153.617 107.018V106.042C153.613 106.022 153.614 106.002 153.619 105.983C153.624 105.964 153.634 105.946 153.647 105.93C153.659 105.915 153.675 105.903 153.693 105.894C153.712 105.886 153.731 105.881 153.751 105.881C153.771 105.881 153.791 105.886 153.809 105.894C153.827 105.903 153.843 105.915 153.856 105.93C153.869 105.946 153.878 105.964 153.883 105.983C153.888 106.002 153.889 106.022 153.885 106.042V107.018C153.886 107.202 153.924 107.384 153.997 107.552C154.07 107.721 154.178 107.873 154.312 107.999C154.443 108.126 154.6 108.225 154.772 108.289C154.943 108.352 155.126 108.38 155.309 108.37C155.66 108.341 155.987 108.182 156.224 107.922C156.461 107.663 156.591 107.323 156.588 106.971V106.042C156.588 106.006 156.603 105.971 156.628 105.945C156.654 105.92 156.688 105.905 156.725 105.905C156.761 105.905 156.795 105.92 156.821 105.945C156.847 105.971 156.861 106.006 156.861 106.042V106.971C156.868 107.396 156.711 107.808 156.422 108.119C156.132 108.431 155.734 108.618 155.309 108.642L155.241 108.647Z" fill="white"/>
<path d="M140.623 111.716H135.964C135.33 111.719 134.701 111.596 134.114 111.355C133.527 111.115 132.994 110.76 132.544 110.313C132.094 109.865 131.738 109.333 131.494 108.747C131.251 108.161 131.125 107.533 131.125 106.899C131.125 105.62 131.633 104.394 132.538 103.49C133.442 102.585 134.668 102.077 135.947 102.077H140.606C141.885 102.077 143.111 102.585 144.016 103.49C144.92 104.394 145.428 105.62 145.428 106.899C145.427 108.174 144.921 109.397 144.02 110.299C143.12 111.202 141.898 111.712 140.623 111.716Z" fill="#455A64"/>
<path d="M134.583 106.814C134.592 106.661 134.642 106.514 134.728 106.387L134.843 106.213L135.099 105.957C135.197 105.889 135.291 105.812 135.393 105.748C135.798 105.49 136.25 105.315 136.723 105.232C137.813 105.012 138.937 105.012 140.027 105.232C140.494 105.313 140.94 105.485 141.34 105.739C141.442 105.808 141.54 105.884 141.643 105.957L141.886 106.2C142.029 106.377 142.127 106.586 142.171 106.809H140.01C139.992 106.811 139.974 106.807 139.959 106.798C139.944 106.788 139.932 106.775 139.925 106.758C139.867 106.644 139.779 106.547 139.671 106.478C139.563 106.409 139.439 106.37 139.311 106.366C138.682 106.328 138.051 106.328 137.422 106.366C137.294 106.372 137.17 106.412 137.062 106.482C136.954 106.551 136.867 106.648 136.808 106.762C136.808 106.792 136.778 106.814 136.736 106.814H134.583Z" fill="white"/>
<path d="M134.579 108.033V107.3C134.579 107.278 134.579 107.261 134.579 107.248H136.71C136.71 107.3 136.71 107.351 136.71 107.406V108.033C136.716 108.07 136.713 108.108 136.701 108.144C136.69 108.179 136.67 108.212 136.643 108.239C136.617 108.265 136.584 108.285 136.548 108.297C136.512 108.308 136.474 108.311 136.437 108.306H134.843C134.807 108.309 134.77 108.304 134.736 108.292C134.701 108.279 134.671 108.259 134.645 108.233C134.62 108.207 134.601 108.175 134.589 108.14C134.578 108.106 134.574 108.069 134.579 108.033Z" fill="white"/>
<path d="M140.022 108.046C140.022 107.777 140.022 107.509 140.043 107.244H142.149C142.152 107.26 142.152 107.276 142.149 107.291V108.037C142.154 108.073 142.151 108.109 142.139 108.143C142.128 108.177 142.109 108.208 142.084 108.233C142.059 108.259 142.028 108.278 141.995 108.29C141.961 108.302 141.925 108.306 141.889 108.301H140.278C140.243 108.305 140.209 108.3 140.176 108.289C140.144 108.277 140.114 108.258 140.09 108.234C140.065 108.209 140.046 108.18 140.035 108.147C140.023 108.115 140.019 108.08 140.022 108.046Z" fill="white"/>
<path d="M188.258 17.8361H146.174V59.0295H188.258V17.8361Z" fill="#DBDBDB"/>
<path d="M168.853 44.0961C165.715 47.0802 159.274 50.0046 153.216 50.1453C149.806 50.2263 142.964 37.1815 141.664 34.3466C139.489 29.6189 147.96 28.4637 149.921 28.9283C152.364 29.5081 156.085 40.2765 157.432 41.3891C157.906 41.7813 164.522 40.8946 167.323 40.3319C170.315 39.7265 170.469 42.5614 168.853 44.0961Z" fill="#FFB573"/>
<path d="M141.822 34.6451C141.306 33.5495 139.388 28.3188 139.183 26.7457C138.978 25.1727 138.706 20.5942 139.895 20.3129C141.084 20.0315 141.272 21.3658 141.272 21.3658C141.272 21.3658 141.464 19.4134 142.687 19.2343C143.911 19.0553 144.132 21.1441 144.132 21.1441C144.132 21.1441 144.473 19.1576 145.705 19.0723C146.937 18.9871 146.81 21.1143 146.81 21.1143C146.81 21.1143 147.04 19.2855 148.088 19.6393C149.346 20.0656 148.54 23.3993 148.898 25.1215C148.979 25.5095 151.119 32.9228 151.119 32.9228L141.822 34.6451Z" fill="#FFB573"/>
<path d="M146.817 20.9354C146.233 23.3866 146.391 24.5632 147.201 26.9036C147.201 26.9505 147.15 26.9846 147.129 26.9377C146.139 24.7082 145.713 23.2673 146.702 20.897C146.749 20.7862 146.847 20.8203 146.817 20.9354Z" fill="#263238"/>
<path d="M144.179 20.9695C143.796 23.5656 143.966 24.8403 144.606 27.364C144.606 27.4023 144.554 27.4194 144.542 27.3853C143.689 24.9682 143.301 23.5187 144.03 20.9908C144.081 20.8416 144.201 20.8373 144.179 20.9695Z" fill="#263238"/>
<path d="M141.31 21.4896C141.114 24.0474 141.242 25.4371 142.197 27.8031C142.197 27.8585 142.137 27.8969 142.111 27.8457C140.905 25.5267 140.734 23.7746 141.229 21.4939C141.263 21.3361 141.318 21.3319 141.31 21.4896Z" fill="#263238"/>
<path d="M151.72 34.7091C151.72 34.7091 152.786 31.725 152.965 30.3267C153.144 28.9285 151.886 23.4207 150.684 23.6253C149.133 23.8896 149.235 27.2062 149.495 28.8262C149.495 28.8262 145.901 29.4315 145.462 31.8103C145.023 34.189 151.72 34.7091 151.72 34.7091Z" fill="#FFB573"/>
<path d="M150.283 23.8385C149.039 25.1174 149.52 27.202 149.657 28.7921C149.66 28.8153 149.658 28.8389 149.65 28.861C149.642 28.8831 149.629 28.903 149.612 28.9189C149.595 28.9348 149.574 28.9463 149.551 28.9525C149.529 28.9586 149.505 28.9592 149.482 28.9541C147.99 29.3079 145.995 30.233 145.402 31.7464C145.402 31.7554 145.399 31.7641 145.392 31.7705C145.386 31.7769 145.377 31.7805 145.368 31.7805C145.359 31.7805 145.35 31.7769 145.344 31.7705C145.338 31.7641 145.334 31.7554 145.334 31.7464C145.76 30.0412 147.636 28.9712 149.29 28.6855C149.124 27.0571 148.736 24.9298 150.271 23.847L150.283 23.8385Z" fill="#263238"/>
<path d="M152.837 32.0531C152.837 32.0531 143.791 38.9592 143.804 39.7265C143.804 39.7265 149.921 50.1453 152.756 50.3584C157.019 50.6739 163.614 48.2696 167.497 45.6095C171.654 42.7618 171.931 39.3471 166.717 40.042C161.107 40.7923 158.055 41.3209 157.505 40.8946C156.955 40.4683 153.293 32.2236 152.837 32.0531Z" fill="#0094B8"/>
<path d="M153.553 34.692C152.825 35.1499 152.12 35.6451 151.443 36.1755C150.752 36.6914 150.066 37.2157 149.397 37.7571C148.728 38.2985 148.054 38.8442 147.402 39.4069C146.749 39.9696 146.161 40.5238 145.535 41.0737C145.505 41.0993 145.535 41.1462 145.577 41.1249C146.251 40.592 146.946 40.0847 147.628 39.5604C148.31 39.036 148.979 38.4989 149.661 37.966C150.343 37.4331 151.008 36.896 151.682 36.3546C152.355 35.8132 152.995 35.3187 153.6 34.7474C153.63 34.7176 153.587 34.675 153.553 34.692Z" fill="#263238"/>
<path opacity="0.1" d="M167.498 45.6097C163.614 48.2698 157.006 50.6741 152.756 50.3587C152.584 50.3422 152.416 50.2991 152.257 50.2308L170.345 40.7328C171.198 41.8071 170.111 43.8192 167.498 45.6097Z" fill="black"/>
<path d="M168.589 42.9495C170.004 43.4611 172.754 41.5214 173.943 39.829C174.024 39.7139 173.982 38.3924 174.007 36.7809C174.029 35.8047 174.071 34.7134 174.186 33.7244L167.792 34.5301C168.006 35.8072 168.063 37.1056 167.962 38.3966C167.947 38.533 167.917 38.6674 167.873 38.7973C167.873 38.8187 167.873 38.84 167.873 38.8655C167.655 39.6201 167.221 42.4593 168.589 42.9495Z" fill="#FFB573"/>
<path d="M173.824 33.7584C173.462 35.0927 172.034 39.279 168.504 38.9593C168.29 38.9398 168.077 38.9042 167.869 38.8527C167.869 38.8271 167.869 38.8058 167.869 38.7845C167.913 38.6546 167.943 38.5202 167.958 38.3838C168.059 37.0928 168.001 35.7944 167.788 34.5172L173.824 33.7584Z" fill="#263238"/>
<path d="M174.898 25.7483C175.644 27.9395 174.676 34.3723 173.146 35.8473C170.925 37.9788 167.177 38.2986 165.353 35.6086C163.567 33.0039 164.978 24.6442 166.7 23.2928C169.228 21.302 173.798 22.5084 174.898 25.7483Z" fill="#FFB573"/>
<path d="M169.748 29.9216C169.748 29.9216 169.782 29.9472 169.778 29.9643C169.701 30.3906 169.684 30.9021 170.055 31.1025C170.055 31.1025 170.055 31.1323 170.055 31.1281C169.582 31.0002 169.607 30.3479 169.748 29.9216Z" fill="#263238"/>
<path d="M170.205 29.5337C170.908 29.5806 170.759 30.9874 170.107 30.9448C169.454 30.9022 169.612 29.4954 170.205 29.5337Z" fill="#263238"/>
<path d="M167.191 29.5636C167.191 29.5636 167.152 29.5636 167.152 29.602C167.118 30.0283 167.007 30.5313 166.598 30.6336V30.6592C167.088 30.6421 167.229 29.9856 167.191 29.5636Z" fill="#263238"/>
<path d="M166.85 29.0692C166.155 28.9414 165.95 30.3481 166.594 30.459C167.237 30.5698 167.429 29.1758 166.85 29.0692Z" fill="#263238"/>
<path d="M170.827 28.9497C170.647 28.8771 170.472 28.7931 170.302 28.6982C170.106 28.6373 169.935 28.5129 169.816 28.3444C169.789 28.2836 169.783 28.2156 169.798 28.1509C169.814 28.0861 169.85 28.0283 169.902 27.9863C170.016 27.9204 170.145 27.8857 170.277 27.8857C170.408 27.8857 170.538 27.9204 170.652 27.9863C170.904 28.0875 171.109 28.279 171.227 28.5234C171.252 28.5805 171.259 28.6434 171.248 28.7044C171.237 28.7654 171.208 28.822 171.166 28.8672C171.124 28.9123 171.069 28.9442 171.009 28.9588C170.948 28.9735 170.885 28.9703 170.827 28.9497Z" fill="#263238"/>
<path d="M166.38 28.3019C166.567 28.2856 166.752 28.2571 166.935 28.2166C167.142 28.2168 167.344 28.1461 167.506 28.0163C167.549 27.9666 167.574 27.9042 167.578 27.8387C167.582 27.7732 167.564 27.7082 167.527 27.6539C167.437 27.5571 167.323 27.4859 167.196 27.4477C167.07 27.4095 166.935 27.4056 166.807 27.4365C166.537 27.4593 166.286 27.5826 166.103 27.7818C166.061 27.83 166.035 27.8898 166.028 27.9532C166.021 28.0167 166.033 28.0808 166.063 28.1372C166.093 28.1936 166.139 28.2395 166.196 28.2689C166.253 28.2983 166.317 28.3098 166.38 28.3019Z" fill="#263238"/>
<path d="M169.603 33.9461C169.484 34.0356 169.369 34.1635 169.207 34.1635C169.045 34.1418 168.89 34.0867 168.751 34.0015C168.751 34.0015 168.721 34.0015 168.73 34.0228C168.782 34.1155 168.86 34.1918 168.953 34.2437C169.046 34.2955 169.152 34.3209 169.258 34.317C169.35 34.3035 169.435 34.263 169.503 34.2008C169.572 34.1385 169.62 34.0572 169.642 33.9674C169.642 33.9674 169.616 33.9333 169.603 33.9461Z" fill="#263238"/>
<path d="M169.284 32.5904C169.155 32.7517 168.994 32.8845 168.811 32.9806C168.629 33.0767 168.428 33.134 168.222 33.1489C168.042 33.1609 167.862 33.1494 167.685 33.1148H167.583L167.489 33.0892C167.467 33.0814 167.448 33.067 167.434 33.0479C167.42 33.0289 167.413 33.0061 167.412 32.9826C167.41 32.9685 167.41 32.9541 167.412 32.94V32.9016C167.438 32.5648 167.523 32.049 167.523 32.049C167.395 32.1002 166.739 32.3133 166.769 32.1385C166.969 30.6304 167.322 29.1464 167.822 27.7093C167.822 27.6991 167.826 27.6893 167.833 27.6821C167.84 27.6749 167.85 27.6709 167.86 27.6709C167.87 27.6709 167.88 27.6749 167.887 27.6821C167.894 27.6893 167.898 27.6991 167.898 27.7093C167.723 29.1033 167.301 30.4589 167.101 31.8572C167.335 31.7767 167.579 31.7293 167.826 31.7165C167.873 31.7378 167.642 32.6927 167.642 32.8462C167.914 32.9026 168.195 32.9037 168.467 32.8495C168.74 32.7954 168.999 32.6869 169.228 32.5307C169.279 32.5265 169.314 32.5606 169.284 32.5904Z" fill="#263238"/>
<path d="M167.907 33.021C168.076 33.2734 168.308 33.4775 168.58 33.6135C168.732 33.6797 168.899 33.7004 169.062 33.6732C169.416 33.6008 169.441 33.281 169.395 33.0039C169.368 32.8575 169.325 32.7145 169.267 32.5776C168.872 32.8666 168.396 33.0219 167.907 33.021Z" fill="#263238"/>
<path d="M168.581 33.6134C168.732 33.6796 168.899 33.7003 169.062 33.6731C169.416 33.6007 169.442 33.2809 169.395 33.0038C169.21 32.9979 169.029 33.0551 168.881 33.1659C168.733 33.2766 168.627 33.4345 168.581 33.6134Z" fill="#FF99BA"/>
<path d="M165.869 25.177C167.822 27.1167 171.305 25.3603 171.305 25.3603C171.405 25.8836 171.671 26.3606 172.065 26.7201C172.458 27.0796 172.957 27.3024 173.487 27.3554C173.487 27.3554 173.231 31.2177 174.229 31.3924C175.751 31.661 177.166 26.5923 176.876 25.4882C176.586 24.3841 175.342 23.8896 175.342 23.8896C175.313 23.2459 175.042 22.6369 174.583 22.1844C173.692 21.2124 169.919 21.6216 169.919 21.6216C169.802 21.1067 169.565 20.6263 169.229 20.2191C169.148 20.1176 169.048 20.0335 168.935 19.9718C168.821 19.9101 168.696 19.8721 168.567 19.8601C168.439 19.8482 168.309 19.8625 168.186 19.9022C168.063 19.9419 167.949 20.0062 167.852 20.0912C167.993 20.4056 168.06 20.7485 168.048 21.093C168.022 22.2313 167.118 22.065 167.31 21.0632C167.368 20.6846 167.56 20.3395 167.852 20.0912C167.528 19.3537 166.837 19.0084 166.33 19.277C165.405 19.7672 164.241 23.5613 165.869 25.177Z" fill="#263238"/>
<path d="M173.696 31.0003C173.696 31.0003 175.12 28.9156 176.062 29.4229C177.004 29.9302 175.956 32.9399 174.856 33.362C174.718 33.4252 174.57 33.4601 174.419 33.4646C174.268 33.4691 174.117 33.4432 173.976 33.3883C173.835 33.3334 173.707 33.2506 173.599 33.145C173.491 33.0395 173.405 32.9131 173.347 32.7737L173.696 31.0003Z" fill="#FFB573"/>
<path d="M175.738 30.2755V30.3054C174.967 30.6293 174.57 31.3498 174.293 32.0958C174.337 32.0177 174.398 31.9501 174.47 31.8977C174.543 31.8453 174.626 31.8093 174.714 31.7923C174.802 31.7753 174.893 31.7776 174.98 31.7991C175.067 31.8206 175.148 31.8607 175.218 31.9168C175.218 31.9168 175.218 31.9637 175.197 31.9594C175.06 31.9176 174.914 31.919 174.778 31.9632C174.643 32.0075 174.524 32.0925 174.438 32.2067C174.299 32.3998 174.18 32.607 174.084 32.8248C174.046 32.893 173.922 32.8589 173.948 32.7779C173.931 31.7761 174.681 30.3864 175.738 30.2755Z" fill="#263238"/>
<path d="M183.062 59.0338C180.747 51.3178 177.571 42.8557 174.506 40.3917C174.216 39.9654 174.6 38.3796 174.396 38.2176C174.191 38.0556 167.634 38.3242 167.443 38.4862C167.251 38.6482 167.443 39.6244 167.234 39.8759C165.876 42.0625 164.695 44.3532 163.7 46.7266C162.732 49.182 161.679 54.1101 160.818 59.0338H183.062Z" fill="#0094B8"/>
<path d="M173.756 38.6523C173.682 39.1484 173.682 39.6526 173.756 40.1487C173.836 39.6531 173.836 39.1479 173.756 38.6523Z" fill="#263238"/>
<path d="M172.929 38.6523C172.849 39.1479 172.849 39.6531 172.929 40.1487C173.008 39.6531 173.008 39.1479 172.929 38.6523Z" fill="#263238"/>
<path d="M172.11 38.6523C172.03 39.1479 172.03 39.6531 172.11 40.1487C172.184 39.6526 172.184 39.1484 172.11 38.6523Z" fill="#263238"/>
<path d="M171.287 38.6523C171.213 39.1484 171.213 39.6526 171.287 40.1487C171.328 39.9021 171.348 39.6526 171.347 39.4026C171.346 39.1514 171.326 38.9005 171.287 38.6523Z" fill="#263238"/>
<path d="M170.469 38.6523C170.43 38.9005 170.41 39.1514 170.409 39.4026C170.408 39.6526 170.428 39.9021 170.469 40.1487C170.543 39.6526 170.543 39.1484 170.469 38.6523Z" fill="#263238"/>
<path d="M169.646 38.6523C169.572 39.1484 169.572 39.6526 169.646 40.1487C169.689 39.9024 169.709 39.6526 169.705 39.4026C169.707 39.1513 169.687 38.9003 169.646 38.6523Z" fill="#263238"/>
<path d="M168.827 38.6523C168.748 39.1479 168.748 39.6531 168.827 40.1487C168.907 39.6531 168.907 39.1479 168.827 38.6523Z" fill="#263238"/>
<path d="M168.009 38.6523C167.93 39.1479 167.93 39.6531 168.009 40.1487C168.083 39.6526 168.083 39.1484 168.009 38.6523Z" fill="#263238"/>
<path d="M164.744 44.1985C164.493 44.6325 164.268 45.0809 164.07 45.5414C164.07 45.4476 164.109 45.3495 164.126 45.2515C164.177 44.9957 164.245 44.7357 164.317 44.4841C164.317 44.4841 164.317 44.4841 164.296 44.4841C164.195 44.7304 164.112 44.9841 164.049 45.2429C164.002 45.4351 163.968 45.6302 163.947 45.827C163.921 45.8867 163.891 45.9463 163.87 46.0103C163.633 46.6197 163.429 47.2416 163.26 47.8732C163.26 47.9159 163.311 47.9286 163.324 47.8732C163.789 46.6412 164.322 45.439 164.778 44.2028C164.803 44.19 164.752 44.1815 164.744 44.1985Z" fill="#263238"/>
<path d="M188.25 54.3529C183.842 48.3847 178.019 42.7149 175.256 41.2953C171.931 39.5901 174.502 45.9548 176.612 49.6636C178.317 52.6861 182.111 57.7633 181.868 57.9082C181.625 58.0532 180.815 56.0197 179.566 55.8151C178.134 55.5764 172.05 55.8151 172.153 56.6677C172.191 57.0215 172.6 57.8827 173.291 59.0294H188.25V54.3529Z" fill="#AD6359"/>
<path d="M188.25 59.021V53.9864C185.17 50.037 181.772 46.3458 178.091 42.9494C174.156 39.4964 171.807 39.3216 174.745 46.3044C176.451 50.4183 178.789 54.24 181.676 57.6312C181.676 57.6312 177.486 58.4242 175.026 59.0252L188.25 59.021Z" fill="#0094B8"/>
<path d="M174.203 47.1614C174.527 47.3959 174.835 47.6523 175.124 47.9287L175.367 48.176C174.983 47.5237 174.608 46.8672 174.25 46.2022C174.245 46.192 174.244 46.1803 174.248 46.1695C174.251 46.1587 174.259 46.1497 174.269 46.1447C174.279 46.1396 174.291 46.1387 174.302 46.1423C174.313 46.1459 174.321 46.1537 174.327 46.1639C175.392 47.8691 176.458 49.5743 177.528 51.2326C178.598 52.8909 179.719 54.5279 180.828 56.1649C181.459 57.0942 182.064 58.0448 182.699 58.9699C182.725 59.004 182.665 59.0424 182.639 59.0083C182.03 58.2239 181.399 57.4565 180.815 56.6508C180.231 55.8451 179.689 55.0607 179.148 54.2508C178.037 52.5939 176.974 50.9057 175.959 49.1863L175.657 48.6748C175.571 48.5938 175.482 48.5213 175.397 48.4488C175.247 48.3209 175.102 48.1888 174.97 48.0566C174.693 47.7887 174.432 47.504 174.19 47.204C174.19 47.204 174.182 47.1443 174.203 47.1614Z" fill="#263238"/>
<path d="M181.804 54.4085C180.61 54.255 180.069 55.4657 180.069 55.4657C180.069 55.4657 179.536 53.9779 178.313 53.9779C177.682 53.9779 177.132 54.9882 177.132 54.9882C176.977 54.6917 176.745 54.4432 176.459 54.2696C176.174 54.096 175.846 54.0039 175.512 54.0035C174.659 54.0589 174.233 55.0607 174.233 55.0607C174.233 55.0607 173.252 54.2848 172.387 54.6344C170.631 55.325 170.324 62.781 173.026 64.0429C174.305 64.6311 174.258 62.8066 174.258 62.8066C174.258 62.8066 174.928 65.4241 176.462 65.5264C177.997 65.6287 177.822 63.2585 177.822 63.2585C177.822 63.2585 178.492 65.7864 180.095 65.731C181.697 65.6756 181.182 63.3352 181.182 63.3352C181.182 63.3352 182.239 65.0404 183.454 64.7164C185.466 64.1835 183.189 60.658 183.646 59.0338H187.823C187.823 59.0338 184.771 54.8007 181.804 54.4085Z" fill="#FFB573"/>
<path d="M172.161 56.5612C170.482 56.8383 168.926 54.5192 167.284 54.5534C165.059 54.596 166.474 58.356 169.539 59.0167H172.153L172.161 56.5612Z" fill="#FFB573"/>
<path d="M174.135 55.2099C174.135 55.1843 174.101 55.1758 174.097 55.2099C173.362 57.7311 173.411 60.4161 174.237 62.9089C174.267 62.9856 174.408 62.9728 174.391 62.8833C173.934 60.3514 173.848 57.7666 174.135 55.2099Z" fill="#263238"/>
<path d="M177.119 54.9542C177.117 54.9487 177.113 54.9439 177.108 54.9406C177.103 54.9372 177.097 54.9354 177.091 54.9354C177.085 54.9354 177.079 54.9372 177.075 54.9406C177.07 54.9439 177.066 54.9487 177.064 54.9542C176.283 57.7408 176.524 60.7144 177.741 63.3395C177.788 63.429 177.92 63.4674 177.874 63.3395C177.132 61.532 176.812 57.3457 177.119 54.9542Z" fill="#263238"/>
<path d="M181.331 63.4887C180.163 60.9309 179.937 58.2196 180.103 55.4231C180.103 55.3847 180.056 55.3847 180.044 55.4231C179.592 56.7702 179.668 58.5649 179.852 59.9589C179.993 61.2538 180.472 62.4887 181.242 63.5398C181.271 63.5739 181.357 63.5441 181.331 63.4887Z" fill="#263238"/>
<path d="M171.274 56.4887C170.983 57.2933 170.87 58.1513 170.942 59.0039C170.942 59.0422 171.006 59.0508 171.01 59.0039C171.061 58.5776 171.185 57.2731 171.343 56.4972C171.351 56.4716 171.292 56.4546 171.274 56.4887Z" fill="#263238"/>
<path d="M243.844 170.891H195.331V106.98H243.844V170.891Z" fill="#455A64"/>
<path d="M239.245 111.077H199.931V166.79H239.245V111.077Z" fill="white"/>
<path d="M214.66 111.077H199.931V166.79H214.66V111.077Z" fill="#EBEBEB"/>
<path d="M209.595 122.352C209.244 122.57 208.859 122.73 208.457 122.825C207.442 123.072 206.37 122.907 205.477 122.365C204.583 121.823 203.941 120.95 203.691 119.935C203.518 119.229 203.544 118.488 203.766 117.796C203.988 117.103 204.397 116.485 204.948 116.011C205.499 115.536 206.171 115.223 206.888 115.106C207.606 114.989 208.342 115.073 209.015 115.349C209.688 115.625 210.272 116.081 210.702 116.667C211.132 117.254 211.391 117.948 211.451 118.673C211.511 119.398 211.37 120.125 211.042 120.774C210.715 121.424 210.214 121.97 209.595 122.352Z" fill="#A6A6A6"/>
<path d="M208.713 118.545C208.714 118.783 208.644 119.016 208.512 119.214C208.381 119.413 208.193 119.567 207.974 119.659C207.754 119.751 207.512 119.775 207.279 119.729C207.045 119.683 206.831 119.569 206.662 119.401C206.494 119.233 206.379 119.019 206.332 118.786C206.285 118.552 206.309 118.31 206.4 118.091C206.491 117.871 206.645 117.683 206.842 117.55C207.04 117.418 207.273 117.347 207.511 117.347C207.829 117.347 208.134 117.473 208.359 117.698C208.585 117.923 208.712 118.227 208.713 118.545Z" fill="white"/>
<path d="M209.594 121.858V122.352C209.243 122.57 208.859 122.73 208.456 122.825C207.948 122.952 207.42 122.975 206.903 122.893C206.386 122.811 205.89 122.626 205.446 122.348V121.858C205.434 121.577 205.478 121.297 205.576 121.035C205.675 120.772 205.826 120.532 206.02 120.329C206.213 120.126 206.446 119.965 206.704 119.855C206.962 119.744 207.24 119.688 207.52 119.688C207.801 119.688 208.079 119.744 208.337 119.855C208.595 119.965 208.827 120.126 209.021 120.329C209.215 120.532 209.366 120.772 209.464 121.035C209.563 121.297 209.607 121.577 209.594 121.858Z" fill="white"/>
<path d="M227.871 115.787H217.26V116.52H227.871V115.787Z" fill="#EBEBEB"/>
<path d="M235.595 117.816H217.26V118.55H235.595V117.816Z" fill="#EBEBEB"/>
<path d="M231.507 119.841H217.26V120.574H231.507V119.841Z" fill="#EBEBEB"/>
<path d="M225.484 123.896H217.26V124.629H225.484V123.896Z" fill="#EBEBEB"/>
<path d="M231.507 125.925H217.26V126.658H231.507V125.925Z" fill="#EBEBEB"/>
<path d="M235.595 127.954H217.26V128.687H235.595V127.954Z" fill="#EBEBEB"/>
<path d="M227.871 129.979H217.26V130.712H227.871V129.979Z" fill="#EBEBEB"/>
<path d="M235.595 134.037H217.26V134.77H235.595V134.037Z" fill="#EBEBEB"/>
<path d="M230.561 136.062H217.26V136.795H230.561V136.062Z" fill="#EBEBEB"/>
<path d="M227.138 138.091H217.26V138.824H227.138V138.091Z" fill="#EBEBEB"/>
<path d="M233.775 140.12H217.26V140.854H233.775V140.12Z" fill="#EBEBEB"/>
<path d="M230.561 144.175H217.26V144.908H230.561V144.175Z" fill="#EBEBEB"/>
<path d="M235.595 146.204H217.26V146.937H235.595V146.204Z" fill="#EBEBEB"/>
<path d="M233.775 150.258H217.26V150.991H233.775V150.258Z" fill="#EBEBEB"/>
<path d="M227.044 152.287H217.26V153.02H227.044V152.287Z" fill="#EBEBEB"/>
<path d="M235.595 154.312H217.26V155.045H235.595V154.312Z" fill="#EBEBEB"/>
<path d="M230.561 158.37H217.26V159.103H230.561V158.37Z" fill="#EBEBEB"/>
<path d="M235.595 160.395H217.26V161.129H235.595V160.395Z" fill="#EBEBEB"/>
<path d="M233.775 162.424H217.26V163.158H233.775V162.424Z" fill="#EBEBEB"/>
<path d="M208.448 125.925H203.58V126.658H208.448V125.925Z" fill="#A6A6A6"/>
<path d="M211.684 127.954H203.58V128.687H211.684V127.954Z" fill="#A6A6A6"/>
<path d="M210.354 129.979H203.58V130.712H210.354V129.979Z" fill="#A6A6A6"/>
<path d="M211.684 134.037H203.58V134.77H211.684V134.037Z" fill="#A6A6A6"/>
<path d="M212.191 136.062H203.58V136.795H212.191V136.062Z" fill="#A6A6A6"/>
<path d="M209.621 138.091H203.58V138.824H209.621V138.091Z" fill="#A6A6A6"/>
<path d="M210.716 140.12H203.58V140.854H210.716V140.12Z" fill="#A6A6A6"/>
<path d="M231.882 103.267H207.293V111.98H231.882V103.267Z" fill="#F5F5F5"/>
<path d="M228.335 106.647H210.84V99.8861H228.335V106.647Z" fill="#C7C7C7"/>
<path d="M55.8797 125.383H27.4028V168.098H55.8797V125.383Z" fill="#0094B8"/>
<path d="M59.3204 113.916H23.9673V125.383H59.3204V113.916Z" fill="#455A64"/>
<path d="M51.1221 137.678H32.1646V156.635H51.1221V137.678Z" fill="white"/>
<path opacity="0.1" d="M27.4028 125.383V128.708L43.436 134.775V168.098H51.1222V125.383H27.4028Z" fill="black"/>
<path d="M18.5825 167.122C18.5848 166.172 18.9641 165.262 19.6371 164.591C20.3101 163.921 21.2219 163.545 22.172 163.546H29.2741C30.2235 163.546 31.1341 163.922 31.8062 164.593C32.4783 165.263 32.8571 166.173 32.8593 167.122C32.8571 168.072 32.4786 168.983 31.8068 169.655C31.1349 170.327 30.2243 170.705 29.2741 170.707H22.1762C21.2246 170.707 20.3118 170.33 19.6381 169.658C18.9644 168.986 18.5848 168.074 18.5825 167.122Z" fill="#455A64"/>
<path d="M18.5825 167.122C18.5848 166.172 18.9641 165.262 19.6371 164.591C20.3101 163.921 21.2219 163.545 22.172 163.546H25.7273V170.72H22.172C21.7 170.72 21.2328 170.626 20.797 170.445C20.3612 170.264 19.9654 169.999 19.6321 169.665C19.2988 169.331 19.0345 168.934 18.8544 168.498C18.6744 168.062 18.582 167.594 18.5825 167.122Z" fill="#0094B8"/>
<path d="M67.309 167.118C67.3068 168.068 66.9275 168.978 66.2544 169.649C65.5814 170.32 64.6697 170.696 63.7196 170.695H56.6174C56.1472 170.695 55.6814 170.603 55.2467 170.424C54.8121 170.244 54.417 169.981 54.0841 169.649C53.7512 169.317 53.4869 168.922 53.3064 168.488C53.126 168.054 53.0328 167.588 53.0322 167.118C53.0334 166.168 53.4114 165.256 54.0835 164.584C54.7557 163.912 55.6669 163.534 56.6174 163.533H63.7196C64.6705 163.534 65.5822 163.912 66.255 164.584C66.9277 165.256 67.3068 166.167 67.309 167.118Z" fill="#455A64"/>
<path d="M67.3089 167.118C67.3066 168.068 66.9273 168.978 66.2543 169.649C65.5812 170.32 64.6695 170.696 63.7194 170.695H60.1641V163.533H63.7194C64.6703 163.534 65.582 163.912 66.2548 164.584C66.9276 165.256 67.3066 166.167 67.3089 167.118Z" fill="#0094B8"/>
<path d="M75.3657 168.58C75.0332 168.913 74.6384 169.177 74.2039 169.357C73.7694 169.537 73.3038 169.629 72.8335 169.629C72.3632 169.629 71.8975 169.537 71.463 169.357C71.0285 169.177 70.6338 168.913 70.3012 168.58L65.2794 163.558C64.9469 163.226 64.6831 162.831 64.5031 162.397C64.3231 161.962 64.2305 161.496 64.2305 161.026C64.2305 160.556 64.3231 160.09 64.5031 159.656C64.6831 159.221 64.9469 158.826 65.2794 158.494C65.953 157.823 66.8651 157.446 67.8159 157.446C68.7668 157.446 69.6788 157.823 70.3524 158.494L75.3742 163.516C76.0416 164.19 76.4152 165.101 76.4137 166.05C76.4121 166.999 76.0353 167.908 75.3657 168.58Z" fill="#455A64"/>
<path d="M75.3658 168.58C75.0332 168.913 74.6385 169.177 74.204 169.357C73.7695 169.537 73.3038 169.629 72.8335 169.629C72.3632 169.629 71.8976 169.537 71.4631 169.357C71.0286 169.177 70.6338 168.913 70.3013 168.58L67.7861 166.065L72.8591 160.992L75.3743 163.507C76.0443 164.182 76.4195 165.095 76.4179 166.045C76.4163 166.996 76.038 167.908 75.3658 168.58Z" fill="#0094B8"/>
<path d="M42.8823 174.292C42.8846 173.342 43.2639 172.432 43.9369 171.761C44.6099 171.091 45.5217 170.715 46.4718 170.716H53.5739C54.0442 170.715 54.5099 170.807 54.9446 170.987C55.3793 171.166 55.7744 171.43 56.1073 171.762C56.4402 172.094 56.7044 172.488 56.8849 172.922C57.0654 173.357 57.1586 173.822 57.1591 174.292C57.1591 175.244 56.7815 176.156 56.1093 176.829C55.4371 177.502 54.5252 177.881 53.5739 177.882H46.4718C45.5201 177.881 44.6078 177.502 43.9349 176.829C43.262 176.156 42.8835 175.244 42.8823 174.292Z" fill="#455A64"/>
<path d="M42.8823 174.292C42.8846 173.342 43.2639 172.432 43.9369 171.761C44.61 171.091 45.5217 170.715 46.4718 170.716H50.0271V177.89H46.4718C45.9998 177.89 45.5326 177.796 45.0968 177.615C44.661 177.434 44.2652 177.169 43.9319 176.835C43.5986 176.501 43.3343 176.104 43.1542 175.668C42.9742 175.232 42.8818 174.764 42.8823 174.292Z" fill="#0094B8"/>
<g clip-path="url(#clip0_171_6292)">
<path d="M79.3832 26.7465C73.7549 30.8364 69.0762 46.8811 82.4998 53.3543C95.9234 59.8352 114.853 59.3124 109.133 45.2205C103.412 31.1363 105.457 22.841 91.9492 21.2343C78.4336 19.6352 79.3832 26.7465 79.3832 26.7465Z" fill="#263238"/>
<path d="M111.277 68.4456C111.216 70.3983 111.2 72.4817 111.208 74.5113C111.216 76.5486 111.262 78.5936 111.331 80.6309C111.476 84.7055 111.759 88.757 112.257 92.7162L112.311 93.2006C112.318 93.1621 112.288 93.0468 112.295 93.0853C112.303 93.1237 112.295 93.1237 112.303 93.1929L112.341 93.3851L112.403 93.6311C112.487 93.9694 112.594 94.3538 112.709 94.7535C112.939 95.5454 113.214 96.3834 113.505 97.2136C114.08 98.8819 114.723 100.573 115.381 102.257C116.048 103.941 116.729 105.617 117.441 107.277C118.153 108.922 118.896 110.606 119.647 112.067L113.911 115.419C112.832 113.673 111.959 112.044 111.063 110.36C110.182 108.692 109.332 107.016 108.497 105.317C107.67 103.618 106.859 101.911 106.085 100.15C105.695 99.2663 105.319 98.3745 104.952 97.4212C104.768 96.9446 104.592 96.4525 104.424 95.899L104.301 95.4762L104.179 94.9918C104.14 94.8381 104.094 94.6075 104.056 94.4153C104.018 94.2231 103.979 93.8771 103.956 93.608L104.01 94.0924C103.168 89.8102 102.578 85.5511 102.126 81.292C101.904 79.1625 101.713 77.0329 101.552 74.9034C101.391 72.7585 101.261 70.6674 101.177 68.4456H111.277Z" fill="#407BFF"/>
<path opacity="0.5" d="M111.277 68.4456C111.216 70.3983 111.2 72.4817 111.208 74.5113C111.216 76.5486 111.262 78.5936 111.331 80.6309C111.476 84.7055 111.759 88.757 112.257 92.7162L112.311 93.2006C112.318 93.1621 112.288 93.0468 112.295 93.0853C112.303 93.1237 112.295 93.1237 112.303 93.1929L112.341 93.3851L112.403 93.6311C112.487 93.9694 112.594 94.3538 112.709 94.7535C112.939 95.5454 113.214 96.3834 113.505 97.2136C114.08 98.8819 114.723 100.573 115.381 102.257C116.048 103.941 116.729 105.617 117.441 107.277C118.153 108.922 118.896 110.606 119.647 112.067L113.911 115.419C112.832 113.673 111.959 112.044 111.063 110.36C110.182 108.692 109.332 107.016 108.497 105.317C107.67 103.618 106.859 101.911 106.085 100.15C105.695 99.2663 105.319 98.3745 104.952 97.4212C104.768 96.9446 104.592 96.4525 104.424 95.899L104.301 95.4762L104.179 94.9918C104.14 94.8381 104.094 94.6075 104.056 94.4153C104.018 94.2231 103.979 93.8771 103.956 93.608L104.01 94.0924C103.168 89.8102 102.578 85.5511 102.126 81.292C101.904 79.1625 101.713 77.0329 101.552 74.9034C101.391 72.7585 101.261 70.6674 101.177 68.4456H111.277Z" fill="white"/>
<path d="M110.167 66.0546C110.473 71.144 110.71 85.5281 107.984 107.523H78.2962C78.3269 96.8677 79.1998 86.6659 74.3602 66.6312C73.6021 63.4869 75.6314 60.4655 78.794 60.0581C80.471 59.8428 82.3853 59.6506 84.3839 59.5507C89.1546 59.32 93.0676 59.1663 97.2792 59.5507C100.067 59.8044 103.045 60.2579 105.327 60.6423C107.984 61.1036 110.006 63.3715 110.167 66.0546Z" fill="white"/>
<path d="M86.6046 45.4741C87.5771 49.641 88.6798 57.275 85.8848 60.0504C85.8848 60.0504 88.473 64.1788 96.4904 67.6537C100.916 64.9629 98.78 60.0504 98.78 60.0504C94.1089 58.9433 94.1013 55.4914 94.7828 52.2548L86.6046 45.4741Z" fill="#FFB573"/>
<path opacity="0.2" d="M89.9433 48.2417L94.7829 52.2548C94.6221 53.0236 94.4995 53.8 94.4689 54.5535C92.6924 54.2998 90.1884 52.347 89.928 50.4943C89.7978 49.564 89.8055 48.6722 89.9433 48.2417Z" fill="black"/>
<path d="M81.9405 37.8323C83.8166 44.6053 84.4675 47.5113 88.5413 50.4327C94.675 54.8225 102.225 51.3783 102.333 44.267C102.424 37.863 99.3461 27.8534 92.3241 26.285C85.4094 24.7321 80.0644 31.0592 81.9405 37.8323Z" fill="#FFB573"/>
<path d="M83.3191 41.3996C84.9654 39.962 86.6042 33.7041 85.7389 31.0517C91.6352 31.5284 96.536 29.445 98.9174 31.4669C99.1701 28.3994 96.4441 24.2249 91.5892 24.271C86.742 24.3094 75.0949 30.183 83.3191 41.3996Z" fill="#263238"/>
<path d="M91.306 38.063C91.4285 38.6242 91.8114 39.0239 92.1789 38.9547C92.5388 38.8932 92.7379 38.3858 92.6154 37.8246C92.4929 37.2634 92.11 36.8636 91.7425 36.9328C91.3749 36.9943 91.1835 37.5017 91.306 38.063Z" fill="#263238"/>
<path d="M97.96 36.8407C98.0826 37.4019 98.4654 37.8017 98.833 37.7325C99.1929 37.671 99.392 37.1636 99.2695 36.6023C99.1469 36.0411 98.7641 35.6414 98.3965 35.7105C98.0366 35.772 97.8452 36.2794 97.96 36.8407Z" fill="#263238"/>
<path d="M98.2437 35.7719L99.4842 35.1492C99.4918 35.1492 99.0324 36.3177 98.2437 35.7719Z" fill="#263238"/>
<path d="M96.9878 38.0399C96.9878 38.0399 98.4351 40.2694 99.7139 41.2458C99.1319 42.0607 97.8301 41.9684 97.8301 41.9684L96.9878 38.0399Z" fill="#ED893E"/>
<path d="M95.5944 44.7823C95.893 44.7823 96.207 44.7592 96.5362 44.6977C96.6281 44.6823 96.6817 44.5977 96.6664 44.5055C96.6435 44.4132 96.5592 44.3517 96.4673 44.3671C94.0475 44.8053 92.5467 43.2908 92.5314 43.2754C92.4701 43.2062 92.3629 43.2062 92.294 43.2677C92.2327 43.3292 92.2327 43.4369 92.294 43.5061C92.3629 43.5676 93.5651 44.7823 95.5944 44.7823Z" fill="#263238"/>
<path d="M80.4171 42.5374C81.1982 43.7752 82.4693 44.5593 83.6333 44.8361C85.3868 45.2512 86.1373 43.6906 85.54 42.0992C85.004 40.6616 83.4418 38.7165 81.7342 39.0087C80.0572 39.2931 79.5288 41.1228 80.4171 42.5374Z" fill="#FFB573"/>
<path d="M89.8281 35.1801C89.9123 35.1724 89.9966 35.1263 90.0502 35.0571C90.9231 33.8963 92.1407 33.9962 92.156 33.9962C92.3398 34.0116 92.4929 33.8809 92.5082 33.6964C92.5159 33.5119 92.3781 33.3504 92.1943 33.335C92.133 33.3274 90.6015 33.2043 89.5142 34.642C89.4069 34.7881 89.4376 34.9956 89.5831 35.1109C89.6596 35.1648 89.7515 35.1878 89.8281 35.1801Z" fill="#263238"/>
<path d="M100.158 33.1197C100.235 33.089 100.296 33.0351 100.334 32.9506C100.411 32.7891 100.334 32.5892 100.166 32.5047C98.4888 31.6898 97.1947 32.4586 97.1411 32.497C96.9879 32.5892 96.942 32.7968 97.0415 32.9506C97.141 33.112 97.3478 33.1582 97.501 33.0659C97.5546 33.0351 98.5654 32.4509 99.8978 33.0966C99.982 33.1505 100.074 33.1505 100.158 33.1197Z" fill="#263238"/>
<path d="M91.5898 36.9944L92.8304 36.3717C92.8304 36.3717 92.3709 37.5403 91.5898 36.9944Z" fill="#263238"/>
<path d="M111.506 71.1133C111.131 63.9559 109.975 61.1575 105.289 60.258C100.602 59.3585 96.1914 58.9049 96.1914 58.9049C102.333 62.7642 104.638 71.9974 98.9098 78.8704C95.7549 72.9815 83.7862 63.756 86.6731 58.951C86.6731 58.951 82.9439 58.6512 78.3188 59.5507C73.7013 60.4502 72.3689 63.633 73.5098 70.7366C76.4273 88.88 74.1913 110.921 74.1913 110.921C74.1913 110.921 91.2906 119.009 96.9801 120.554C106.024 118.34 108.007 111.99 108.007 111.99C108.007 111.99 111.882 78.2707 111.506 71.1133Z" fill="#407BFF"/>
<path opacity="0.6" d="M111.506 71.1133C111.131 63.9559 109.975 61.1575 105.289 60.258C100.602 59.3585 96.1914 58.9049 96.1914 58.9049C102.333 62.7642 104.638 71.9974 98.9098 78.8704C95.7549 72.9815 83.7862 63.756 86.6731 58.951C86.6731 58.951 82.9439 58.6512 78.3188 59.5507C73.7013 60.4502 72.3689 63.633 73.5098 70.7366C76.4273 88.88 74.1913 110.921 74.1913 110.921C74.1913 110.921 91.2906 119.009 96.9801 120.554C106.024 118.34 108.007 111.99 108.007 111.99C108.007 111.99 111.882 78.2707 111.506 71.1133Z" fill="white"/>
<path d="M86.0301 85.0128C82.8446 80.3463 80.4554 73.5041 82.3085 70.0138C82.9977 68.7145 84.2153 68.061 85.8923 68.0533C87.2017 68.061 88.3044 68.5531 89.1773 69.514C91.2449 71.782 91.9647 76.4947 91.375 83.9058L90.6016 83.8443C91.1683 76.756 90.4944 72.1126 88.603 70.0445C87.8756 69.245 86.9873 68.8529 85.8846 68.8375C84.5063 68.8606 83.5491 69.3449 82.9977 70.3828C81.5275 73.1581 83.1356 79.393 86.6733 84.5746L86.0301 85.0128Z" fill="#263238"/>
<path d="M86.6809 86.3814C87.3279 86.3814 87.8525 85.6139 87.8525 84.667C87.8525 83.7202 87.3279 82.9526 86.6809 82.9526C86.0338 82.9526 85.5093 83.7202 85.5093 84.667C85.5093 85.6139 86.0338 86.3814 86.6809 86.3814Z" fill="#263238"/>
<path d="M92.2787 84.2057C92.2787 85.1513 91.758 85.9201 91.1071 85.9201C90.4639 85.9201 89.9355 85.1513 89.9355 84.2057C89.9355 83.2601 90.4563 82.4913 91.1071 82.4913C91.7504 82.499 92.2787 83.2678 92.2787 84.2057Z" fill="#263238"/>
<path d="M107.402 70.2446C107.501 71.3363 106.728 72.2973 105.671 72.3972C104.615 72.4971 103.673 71.6976 103.573 70.6059C103.474 69.5142 104.247 68.5533 105.304 68.4533C106.36 68.3534 107.295 69.1606 107.402 70.2446Z" fill="#263238"/>
<path d="M85.5096 68.8454C85.3565 68.8454 85.2033 68.7531 85.1497 68.5993C85.0884 68.4379 83.6182 64.5863 84.2538 58.8665C84.2768 58.6512 84.4682 58.5051 84.6826 58.5205C84.897 58.5436 85.0502 58.7358 85.0272 58.951C84.4146 64.4633 85.8619 68.2688 85.8772 68.3072C85.9538 68.5071 85.8542 68.7377 85.6551 68.8146C85.6015 68.8377 85.5556 68.8454 85.5096 68.8454Z" fill="#263238"/>
<path d="M106.231 70.2215C106.024 70.2215 105.855 70.0601 105.84 69.8525C105.832 69.7679 105.289 61.1652 98.5961 59.5815C98.3894 59.5354 98.2592 59.3201 98.3051 59.1125C98.3511 58.9049 98.5655 58.7666 98.7722 58.8204C106.039 60.5348 106.614 69.7141 106.614 69.8064C106.629 70.0216 106.46 70.2061 106.246 70.2215C106.246 70.2215 106.238 70.2215 106.231 70.2215Z" fill="#263238"/>
<path d="M86.8417 99.643L93.5727 74.0115C93.7718 73.2427 94.5911 72.6354 95.3875 72.6662L113.628 73.3504C114.432 73.3811 114.914 74.0269 114.707 74.8034L107.976 100.435C107.777 101.204 106.958 101.811 106.162 101.78L87.9214 101.096C87.125 101.065 86.6426 100.412 86.8417 99.643Z" fill="#263238"/>
<path d="M87.0332 100.097L93.7641 74.4652C93.9632 73.6964 94.7826 73.089 95.579 73.1198L113.819 73.804C114.623 73.8347 115.106 74.4805 114.899 75.257L108.168 100.888C107.969 101.657 107.149 102.265 106.353 102.234L88.1129 101.55C87.3088 101.519 86.8264 100.865 87.0332 100.097Z" fill="#0094B8"/>
<path d="M84.6367 91.4477L84.9583 88.5878L89.3078 84.0673C89.9434 83.4062 90.7934 82.991 91.697 82.8834L93.5501 82.6758C94.1933 82.5989 94.7829 82.9987 94.9437 83.6137L95.8473 87.1194C96.0158 87.7575 95.6559 88.4417 95.0203 88.6878L90.9848 90.0639C90.9848 90.0562 87.2403 92.6931 84.6367 91.4477Z" fill="#FFB573"/>
<path d="M82.4998 67.8458C82.2242 68.1995 81.8719 68.6915 81.558 69.1374L80.6008 70.5289C79.9728 71.4668 79.3603 72.4201 78.7706 73.3811C77.5914 75.3031 76.504 77.2789 75.5468 79.27C74.5973 81.2612 73.7779 83.2754 73.2189 85.2589C72.6523 87.227 72.3766 89.172 72.5068 90.7711L70.7838 87.9189C70.2937 87.6037 70.3167 87.719 70.4239 87.7344C70.5388 87.7728 70.7456 87.8343 71.0059 87.8805C71.5113 87.9727 72.1469 88.0342 72.7978 88.0573C74.1072 88.1111 75.5238 88.0496 76.9252 87.9266C78.3341 87.8036 79.7431 87.6037 81.1215 87.3423C82.4998 87.0732 83.8552 86.735 85.0881 86.3121L87.6304 92.4701C86.0146 93.2159 84.4295 93.7694 82.8215 94.2537C81.221 94.7227 79.613 95.1148 77.9742 95.4223C76.3355 95.7298 74.6815 95.9605 72.9203 96.0681C72.032 96.1142 71.1284 96.1373 70.11 96.0681C69.6046 96.0373 69.0532 95.9681 68.4253 95.8298C67.7897 95.6683 67.0699 95.5299 65.9443 94.7842L64.5047 93.8232L64.2213 91.932C63.7466 88.7492 64.0988 85.8355 64.6808 83.1524C65.2704 80.4617 66.1281 77.9554 67.1006 75.5491C68.0807 73.1428 69.1834 70.8287 70.3856 68.5839C70.9829 67.4614 71.6032 66.3544 72.2541 65.255L73.2419 63.6175C73.5865 63.0563 73.9081 62.5566 74.3293 61.9338L82.4998 67.8458Z" fill="#407BFF"/>
<path opacity="0.6" d="M82.4998 67.8458C82.2242 68.1995 81.8719 68.6915 81.558 69.1374L80.6008 70.5289C79.9728 71.4668 79.3603 72.4201 78.7706 73.3811C77.5914 75.3031 76.504 77.2789 75.5468 79.27C74.5973 81.2612 73.7779 83.2754 73.2189 85.2589C72.6523 87.227 72.3766 89.172 72.5068 90.7711L70.7838 87.9189C70.2937 87.6037 70.3167 87.719 70.4239 87.7344C70.5388 87.7728 70.7456 87.8343 71.0059 87.8805C71.5113 87.9727 72.1469 88.0342 72.7978 88.0573C74.1072 88.1111 75.5238 88.0496 76.9252 87.9266C78.3341 87.8036 79.7431 87.6037 81.1215 87.3423C82.4998 87.0732 83.8552 86.735 85.0881 86.3121L87.6304 92.4701C86.0146 93.2159 84.4295 93.7694 82.8215 94.2537C81.221 94.7227 79.613 95.1148 77.9742 95.4223C76.3355 95.7298 74.6815 95.9605 72.9203 96.0681C72.032 96.1142 71.1284 96.1373 70.11 96.0681C69.6046 96.0373 69.0532 95.9681 68.4253 95.8298C67.7897 95.6683 67.0699 95.5299 65.9443 94.7842L64.5047 93.8232L64.2213 91.932C63.7466 88.7492 64.0988 85.8355 64.6808 83.1524C65.2704 80.4617 66.1281 77.9554 67.1006 75.5491C68.0807 73.1428 69.1834 70.8287 70.3856 68.5839C70.9829 67.4614 71.6032 66.3544 72.2541 65.255L73.2419 63.6175C73.5865 63.0563 73.9081 62.5566 74.3293 61.9338L82.4998 67.8458Z" fill="white"/>
</g>
<defs>
<clipPath id="clip0_171_6292">
<rect width="58" height="79" fill="white" transform="translate(64 21)"/>
</clipPath>
</defs>
</svg>
