<svg width="224" height="208" viewBox="0 0 224 208" fill="none" xmlns="http://www.w3.org/2000/svg">
<g clip-path="url(#clip0_175_653)">
<path d="M112 208C173.379 208 223.137 205.087 223.137 201.494C223.137 197.9 173.379 194.987 112 194.987C50.6206 194.987 0.862793 197.9 0.862793 201.494C0.862793 205.087 50.6206 208 112 208Z" fill="#F5F5F5"/>
<path d="M63.7369 30.1002C70.4323 30.1002 75.86 24.6577 75.86 17.944C75.86 11.2303 70.4323 5.78784 63.7369 5.78784C57.0415 5.78784 51.6138 11.2303 51.6138 17.944C51.6138 24.6577 57.0415 30.1002 63.7369 30.1002Z" fill="#263238"/>
<path d="M77.568 186.722L73.3722 189.498L66.6543 180.325L70.8444 177.543L77.568 186.722Z" fill="#FF8B7B"/>
<path d="M73.0344 189.05L77.6085 186.015C77.7805 185.9 77.9868 185.929 78.1072 186.084L80.8012 189.539C81.0821 189.895 80.9732 190.487 80.5719 190.74C78.9097 191.803 76.4736 193.28 74.4043 194.654C71.9797 196.263 72.3293 197.378 69.0736 198.315C67.1018 198.884 66.3108 196.976 67.1133 196.551C70.7645 194.62 70.2372 193.821 72.1975 190.062C72.3981 189.659 72.6733 189.286 73.0344 189.05Z" fill="#263238"/>
<path opacity="0.2" d="M66.6543 180.325L70.1164 185.056L74.3122 182.274L70.8501 177.543L66.6543 180.325Z" fill="black"/>
<path d="M67.2508 38.6411C60.9284 37.2329 54.4799 37.1007 47.9111 37.6985C45.6814 37.8996 43.7611 39.532 43.2223 41.7275C41.7263 47.8258 39.1297 61.5798 39.5424 82.5183L66.0585 82.9494C66.6031 79.2077 66.1732 61.8901 70.667 44.4059C71.3377 41.7793 69.8244 39.2158 67.2508 38.6411Z" fill="#263238"/>
<path d="M51.2871 42.3886L51.9807 44.3716C52.0495 44.5727 52.2214 44.7107 52.4335 44.7452L53.4423 44.9003C53.62 44.9291 53.8092 44.8888 53.9697 44.7969L55.8899 43.6646L53.9353 41.8656L51.2871 42.3886Z" fill="#0094B8"/>
<path d="M53.5513 44.2967C52.8291 44.0381 52.3762 44.1415 52.3762 44.1415C51.1897 46.1819 49.2638 52.1479 48.7192 54.8091C50.3357 60.2578 51.0636 60.8556 51.0636 60.8556L53.4137 54.6022C53.4137 54.6022 53.087 48.0154 53.5513 44.2967Z" fill="#0094B8"/>
<path d="M63.3526 25.3584C62.2807 28.9334 60.9051 35.5317 63.1921 38.1468C61.0312 39.9631 58.2397 42.0322 53.9293 41.8655C49.6246 41.6988 50.6678 38.7848 51.9632 37.3077C56.0902 36.6409 56.2851 33.6292 55.8667 30.7611L63.3526 25.3584Z" fill="#FF8B7B"/>
<path d="M64.3271 37.94C64.0119 37.7561 63.6622 37.6181 63.4272 37.5377C63.2724 37.4802 63.0948 37.5319 62.9916 37.6698C62.4872 38.3308 60.8192 41.3483 53.9351 41.8713C54.9554 42.6415 56.1648 44.8371 56.6692 45.8774C58.8244 45.0268 64.4876 42.4059 64.5163 38.2791C64.5106 38.1354 64.4475 38.0032 64.3271 37.94Z" fill="white"/>
<path d="M51.9808 37.4801C52.0725 37.2099 51.8662 36.9398 51.5853 36.9628C51.2987 36.9858 51.0121 37.049 50.8745 37.0778C50.8172 37.0892 50.7714 37.1122 50.7198 37.1467C50.1408 37.572 46.7991 41.3712 49.0002 44.9405C49.7052 44.1013 51.849 42.2563 53.9297 41.8655C52.1528 40.8137 51.4248 39.1181 51.9808 37.4801Z" fill="white"/>
<path opacity="0.2" d="M60.3034 27.5656L55.8726 30.7555C55.9757 31.4337 56.0388 32.1234 56.0159 32.7844C57.575 32.6752 59.862 31.1348 60.1887 29.5312C60.3492 28.7266 60.3951 27.9506 60.3034 27.5656Z" fill="black"/>
<path d="M66.8611 20.8121C65.279 25.5768 64.5912 28.4277 61.536 30.3876C56.9333 33.3304 51.6713 29.8531 51.8261 24.7894C51.9637 20.2316 54.5258 13.208 59.6846 12.2941C64.7632 11.3918 68.4431 16.0473 66.8611 20.8121Z" fill="#FF8B7B"/>
<path d="M65.0437 24.1629L62.2178 23.0192C62.2178 23.0192 65.5997 19.3005 65.7946 17.0474C60.5498 16.237 53.2473 16.3979 56.2738 11.4895C58.3144 8.18459 60.7103 8.18459 65.1412 9.70196C72.4036 12.1849 71.4463 18.5475 69.807 22.1685C68.1676 25.7895 65.0437 24.1629 65.0437 24.1629Z" fill="#263238"/>
<path d="M66.3507 24.14C66.3164 24.14 66.2762 24.1285 66.2476 24.0997C64.207 22.1398 61.6907 21.2949 61.6677 21.2892C61.5932 21.2662 61.5473 21.18 61.576 21.1052C61.5989 21.0248 61.6849 20.9845 61.7594 21.0133C61.7824 21.019 64.3675 21.8812 66.4539 23.8928C66.5112 23.9503 66.517 24.0423 66.4597 24.0997C66.431 24.1227 66.3909 24.14 66.3507 24.14Z" fill="white"/>
<path d="M56.01 25.5137C57.4774 25.9045 58.5779 25.2033 58.6295 25.1688C58.6868 25.1343 58.704 25.0596 58.6696 25.0079C58.6352 24.9561 58.5607 24.9389 58.5091 24.9791C58.4977 24.9849 57.2137 25.8068 55.6259 25.1343C55.5686 25.1113 55.4941 25.1401 55.4712 25.1975C55.4425 25.255 55.4655 25.324 55.5285 25.3527C55.689 25.416 55.8495 25.4734 56.01 25.5137Z" fill="#263238"/>
<path d="M67.1302 26.416C66.1787 27.3988 64.8832 27.8701 63.7942 27.8989C62.1491 27.9448 61.8109 26.3758 62.6764 25.0308C63.4503 23.8238 65.2444 22.3409 66.7003 22.9387C68.1333 23.5249 68.2193 25.2895 67.1302 26.416Z" fill="#FF8B7B"/>
<path d="M52.7718 131.913C53.345 106.888 59.6043 82.8631 59.6043 82.8631L38.9233 82.5298C38.9233 82.5298 40.1901 118.671 40.5512 133.804C40.9238 149.541 66.8667 185.28 66.8667 185.28L73.9686 180.567C73.9629 180.567 53.3221 151.656 52.7718 131.913Z" fill="#263238"/>
<path opacity="0.2" d="M55.5575 96.6287C49.4128 104.727 51.591 119.953 53.6774 130.718C54.0844 117.343 56.0619 104.354 57.7815 95.2896L55.5575 96.6287Z" fill="black"/>
<path d="M67.3994 185.728L75.8426 180.13L74.0141 177.509L65.1353 183.182L67.3994 185.728Z" fill="#263238"/>
<path d="M59.5356 20.3638C59.4324 20.7546 59.1401 21.0305 58.8879 20.9788C58.6357 20.9213 58.5153 20.5592 58.6185 20.1683C58.7216 19.7775 59.014 19.5016 59.2662 19.5534C59.5241 19.6108 59.6445 19.9729 59.5356 20.3638Z" fill="#263238"/>
<path d="M55.0585 19.5304C54.9554 19.9212 54.663 20.1971 54.4108 20.1454C54.1586 20.0879 54.0382 19.7258 54.1414 19.335C54.2446 18.9441 54.5369 18.6683 54.7891 18.72C55.0471 18.7717 55.1674 19.1396 55.0585 19.5304Z" fill="#263238"/>
<path d="M56.2854 19.9901C56.2854 19.9901 54.7951 21.7891 53.5283 22.5593C54.0327 23.2433 55.2766 23.1915 55.2766 23.1915L56.2854 19.9901Z" fill="#FF5652"/>
<path d="M61.3693 19.2832C61.4095 19.2889 61.4496 19.2774 61.4897 19.2602C61.6101 19.2027 61.6674 19.0648 61.6216 18.9441C61.1343 17.7601 60.0739 17.5991 60.0281 17.5934C59.902 17.5761 59.7759 17.6623 59.7529 17.7945C59.73 17.921 59.8102 18.0417 59.9364 18.0589C59.9707 18.0647 60.7961 18.2026 61.1859 19.1452C61.2146 19.2257 61.2891 19.2717 61.3693 19.2832Z" fill="#263238"/>
<path d="M53.3507 17.2658C53.4195 17.2945 53.5055 17.283 53.5743 17.2371C54.4512 16.6278 55.2365 16.9037 55.2709 16.9152C55.3913 16.9612 55.5289 16.898 55.5804 16.7773C55.632 16.6566 55.5804 16.5244 55.4601 16.4784C55.4142 16.4611 54.4111 16.0933 53.3106 16.8635C53.2017 16.9382 53.173 17.0876 53.2418 17.1911C53.2705 17.2198 53.3106 17.2486 53.3507 17.2658Z" fill="#263238"/>
<path d="M72.5067 189.935C72.5353 189.901 72.5411 189.855 72.5239 189.809C72.5067 189.763 72.4608 189.734 72.4092 189.74C72.157 189.769 69.9617 190.022 69.6235 190.648C69.5604 190.769 69.5547 190.901 69.6178 191.022C69.7209 191.228 69.8814 191.355 70.0935 191.384C70.7985 191.487 71.8991 190.527 72.4952 189.941C72.5009 189.947 72.5067 189.941 72.5067 189.935ZM69.8528 190.723C70.105 190.401 71.2284 190.148 72.0825 190.027C71.2456 190.797 70.5349 191.211 70.1394 191.154C70.0018 191.131 69.8986 191.056 69.8298 190.912C69.8012 190.855 69.8012 190.815 69.8298 190.763C69.8356 190.751 69.8413 190.734 69.8528 190.723Z" fill="#407BFF"/>
<path d="M72.5066 189.935C72.5124 189.924 72.5181 189.918 72.5238 189.907C72.541 189.866 72.5353 189.82 72.5124 189.786C72.478 189.74 71.6927 188.677 70.8959 188.59C70.6552 188.562 70.4316 188.631 70.2425 188.786C69.9846 188.993 69.9903 189.188 70.0361 189.309C70.2425 189.838 71.7901 190.085 72.4321 189.981C72.4608 189.976 72.4894 189.958 72.5066 189.935ZM70.2941 189.062C70.317 189.033 70.3457 189.004 70.3858 188.975C70.5291 188.861 70.6839 188.815 70.8673 188.832C71.3889 188.889 71.9449 189.47 72.1914 189.769C71.4863 189.797 70.3801 189.533 70.2597 189.217C70.2482 189.194 70.2253 189.142 70.2941 189.062Z" fill="#407BFF"/>
<path d="M68.6608 193.332L63.7027 193.257L62.8027 181.716L67.7609 181.791L68.6608 193.332Z" fill="#FF8B7B"/>
<path d="M63.4846 192.683L68.8898 192.769C69.0905 192.775 69.2395 192.918 69.251 193.114L69.4401 197.551C69.4573 198.011 69.0331 198.442 68.5689 198.424C66.6257 198.361 66.0239 198.2 63.5706 198.16C60.7046 198.114 58.4806 198.235 55.1216 198.177C53.0925 198.143 52.8976 196.079 53.7804 195.896C56.5718 195.315 60.9052 194.217 62.2236 193.045C62.5732 192.74 63.0604 192.677 63.4846 192.683Z" fill="#263238"/>
<path opacity="0.2" d="M62.8027 181.716L63.267 187.665L68.2309 187.745L67.7666 181.797L62.8027 181.716Z" fill="black"/>
<path d="M66.9639 131.563C66.6773 109.124 68.1274 91.6685 65.1755 82.9494L47.6528 82.6677C47.6528 82.6677 53.809 117.619 55.5458 132.643C57.3456 148.265 60.3148 185.015 60.3148 185.015L68.3109 185.13C68.3109 185.13 70.254 149.076 66.9639 131.563Z" fill="#263238"/>
<path d="M59.9822 186.671L69.9616 186.826L70.7297 183.584L59.6211 183.234L59.9822 186.671Z" fill="#263238"/>
<path d="M63.1979 192.844C63.238 192.826 63.2724 192.792 63.2781 192.746C63.2838 192.694 63.2609 192.648 63.2208 192.625C63.003 192.51 61.0598 191.539 60.4522 191.889C60.3376 191.958 60.2631 192.068 60.2516 192.211C60.2287 192.447 60.2918 192.642 60.4522 192.786C60.9739 193.263 62.3897 193.028 63.1864 192.844C63.1921 192.844 63.1979 192.844 63.1979 192.844ZM60.607 192.073C60.9796 191.935 62.04 192.326 62.8024 192.683C61.7133 192.895 60.9051 192.867 60.6127 192.602C60.5096 192.51 60.4694 192.384 60.4866 192.223C60.4924 192.16 60.5153 192.119 60.5612 192.096C60.5726 192.091 60.5898 192.079 60.607 192.073Z" fill="#407BFF"/>
<path d="M63.198 192.844C63.2094 192.838 63.2209 192.832 63.2266 192.826C63.261 192.803 63.2782 192.757 63.2782 192.717C63.2725 192.66 63.1808 191.309 62.5732 190.797C62.3897 190.642 62.1719 190.579 61.9369 190.608C61.6159 190.648 61.5185 190.82 61.4956 190.953C61.3866 191.522 62.5273 192.585 63.112 192.844C63.1406 192.855 63.175 192.855 63.198 192.844ZM61.8395 190.872C61.8681 190.861 61.9083 190.849 61.9598 190.843C62.1375 190.82 62.2923 190.866 62.4299 190.981C62.8311 191.315 62.9801 192.125 63.0317 192.516C62.4413 192.16 61.6675 191.321 61.7306 190.981C61.7306 190.964 61.742 190.907 61.8395 190.872Z" fill="#407BFF"/>
<path d="M63.5651 37.9629C60.6705 41.5954 53.0641 46.5785 51.0522 55.3034C48.8569 46.6245 51.8203 37.3077 51.8203 37.3077C50.2039 37.187 46.8507 37.0375 44.4948 37.6985C42.9701 38.1238 41.7951 39.4113 41.4741 40.9574C40.5455 45.452 38.6711 56.177 38.6368 69.7644C38.5909 88.0187 37.1006 116.257 37.1006 116.257C37.1006 116.257 55.5346 117.343 70.0652 115.774C70.134 101.824 67.2336 78.1444 67.9845 71.9542C68.9532 63.9938 71.16 48.4523 72.2548 41.9862C72.5815 40.0723 71.5039 38.302 69.7041 37.733C67.9042 37.164 65.6401 37.3077 64.551 37.4284C64.1612 37.4686 63.8059 37.6583 63.5651 37.9629Z" fill="#407BFF"/>
<path opacity="0.7" d="M63.5594 37.9686C60.659 41.6011 53.0584 46.5843 51.0522 55.3034C48.8569 46.6245 51.8203 37.3077 51.8203 37.3077C50.2039 37.187 46.8507 37.0375 44.4948 37.6985C42.9701 38.1238 41.7951 39.4113 41.4741 40.9574C40.5455 45.452 38.6711 56.177 38.6368 69.7644C38.5909 88.0187 37.1006 116.257 37.1006 116.257C37.1006 116.257 55.5346 117.343 70.0652 115.774C70.134 101.824 67.2336 78.1444 67.9845 71.9542C68.9532 63.988 71.16 48.4465 72.2548 41.9862C72.57 40.1412 71.6013 38.3652 69.876 37.7905C68.0303 37.1755 65.6802 37.3192 64.5567 37.4341C64.167 37.4686 63.8058 37.6583 63.5594 37.9686Z" fill="white"/>
<path opacity="0.5" d="M50.1176 114.544C49.2463 96.7897 50.5532 59.6429 50.7653 56.3265L51.0748 56.3495C50.8627 59.6659 49.5558 96.7897 50.4271 114.533L50.1176 114.544Z" fill="#407BFF"/>
<path d="M49.5961 43.9002C47.7676 47.1074 46.0136 50.4985 44.4488 53.8493C43.6578 55.5276 42.9184 57.2232 42.2821 58.8957C41.9611 59.7291 41.6688 60.5568 41.4281 61.35C41.1873 62.1316 40.9982 62.9248 40.9408 63.4134L40.9351 63.4593C40.9351 63.4306 40.9466 63.2869 40.9466 63.2064C40.9408 63.0225 40.9179 62.8271 40.8778 62.6087C40.8262 62.4018 40.7631 62.2064 40.6829 62.0224C40.5912 61.827 40.5109 61.6891 40.4135 61.5511C40.0237 61.0224 39.7658 60.9189 39.6683 60.8557C39.4849 60.7752 39.7085 60.8902 39.9779 60.9361C40.5396 61.0626 41.365 61.1488 42.1961 61.1948C43.8813 61.281 45.7098 61.2408 47.5383 61.1431C49.3726 61.0281 51.224 60.8614 53.0812 60.6603C54.0097 60.5568 54.9383 60.4361 55.8612 60.3097L57.2483 60.1142L57.9361 60.005L58.2801 59.9476L58.4463 59.9188L58.5265 59.9073L58.5667 59.9016L58.5838 59.8958C58.6068 59.8901 58.5667 59.8958 58.4979 59.9073L58.3259 59.9418L59.9939 67.6034L59.8048 67.6378L59.6959 67.6551L59.6672 67.6608L59.6156 67.6666L59.5182 67.6781L59.329 67.7011L58.9622 67.7413L58.2285 67.8218L56.7668 67.9769L53.8435 68.2586C51.8946 68.4425 49.9343 68.5977 47.951 68.6954C45.962 68.8046 43.9616 68.8851 41.8293 68.7931C40.7517 68.7414 39.6626 68.6667 38.3557 68.3965C37.6908 68.2413 36.9858 68.0919 35.9598 67.5516C35.4496 67.2585 34.7904 66.8619 34.1255 65.9423C33.8045 65.494 33.5065 64.879 33.3746 64.2353C33.3001 63.9019 33.2657 63.5915 33.2657 63.2869C33.26 63.149 33.2715 62.9421 33.2772 62.8558L33.2887 62.7236C33.4205 61.304 33.6956 60.2349 33.9765 59.1716C34.2688 58.1256 34.5898 57.137 34.928 56.1714C35.6158 54.2459 36.3495 52.4009 37.1061 50.5732C37.8628 48.7512 38.6652 46.958 39.4677 45.1762C40.2702 43.383 41.0899 41.6414 41.9554 39.8252L49.5961 43.9002Z" fill="#407BFF"/>
<g opacity="0.7">
<path d="M49.5961 43.9002C47.7676 47.1074 46.0136 50.4985 44.4488 53.8493C43.6578 55.5276 42.9184 57.2232 42.2821 58.8957C41.9611 59.7291 41.6688 60.5568 41.4281 61.35C41.1873 62.1316 40.9982 62.9248 40.9408 63.4134L40.9351 63.4593C40.9351 63.4306 40.9466 63.2869 40.9466 63.2064C40.9408 63.0225 40.9179 62.8271 40.8778 62.6087C40.8262 62.4018 40.7631 62.2064 40.6829 62.0224C40.5912 61.827 40.5109 61.6891 40.4135 61.5511C40.0237 61.0224 39.7658 60.9189 39.6683 60.8557C39.4849 60.7752 39.7085 60.8902 39.9779 60.9361C40.5396 61.0626 41.365 61.1488 42.1961 61.1948C43.8813 61.281 45.7098 61.2408 47.5383 61.1431C49.3726 61.0281 51.224 60.8614 53.0812 60.6603C54.0097 60.5568 54.9383 60.4361 55.8612 60.3097L57.2483 60.1142L57.9361 60.005L58.2801 59.9476L58.4463 59.9188L58.5265 59.9073L58.5667 59.9016L58.5838 59.8958C58.6068 59.8901 58.5667 59.8958 58.4979 59.9073L58.3259 59.9418L59.9939 67.6034L59.8048 67.6378L59.6959 67.6551L59.6672 67.6608L59.6156 67.6666L59.5182 67.6781L59.329 67.7011L58.9622 67.7413L58.2285 67.8218L56.7668 67.9769L53.8435 68.2586C51.8946 68.4425 49.9343 68.5977 47.951 68.6954C45.962 68.8046 43.9616 68.8851 41.8293 68.7931C40.7517 68.7414 39.6626 68.6667 38.3557 68.3965C37.6908 68.2413 36.9858 68.0919 35.9598 67.5516C35.4496 67.2585 34.7904 66.8619 34.1255 65.9423C33.8045 65.494 33.5065 64.879 33.3746 64.2353C33.3001 63.9019 33.2657 63.5915 33.2657 63.2869C33.26 63.149 33.2715 62.9421 33.2772 62.8558L33.2887 62.7236C33.4205 61.304 33.6956 60.2349 33.9765 59.1716C34.2688 58.1256 34.5898 57.137 34.928 56.1714C35.6158 54.2459 36.3495 52.4009 37.1061 50.5732C37.8628 48.7512 38.6652 46.958 39.4677 45.1762C40.2702 43.383 41.0899 41.6414 41.9554 39.8252L49.5961 43.9002Z" fill="white"/>
</g>
<path d="M44.4315 60.7407L40.6886 57.1484L38.1436 62.4822C38.1436 62.4822 41.8923 65.3388 43.5889 63.649L44.4315 60.7407Z" fill="#FF8B7B"/>
<path d="M58.1138 62.5626L61.5415 58.6715L64.5164 63.7869C64.5164 63.7869 61.0199 66.9423 59.1971 65.3962L58.1138 62.5626Z" fill="#FF8B7B"/>
<path d="M66.6888 58.206L67.4282 60.2004C67.7206 60.9936 67.3996 61.9247 66.6716 62.396L64.5164 63.7926L61.5415 58.6773L64.4476 57.3208C65.3361 56.8955 66.3506 57.2978 66.6888 58.206Z" fill="#FF8B7B"/>
<path d="M35.5125 57.1082L34.9393 59.1486C34.71 59.9648 35.1055 60.8614 35.8736 61.2695L38.1377 62.4822L40.6827 57.1484L37.6734 56.0334C36.7506 55.6943 35.7704 56.1771 35.5125 57.1082Z" fill="#FF8B7B"/>
<path d="M72.2544 41.1471C72.4608 42.2621 72.6213 43.2565 72.7875 44.3083C72.948 45.3486 73.0913 46.3889 73.2231 47.435C73.4925 49.5271 73.7104 51.6307 73.8193 53.7976C73.911 55.9644 73.974 58.16 73.676 60.5797C73.5097 61.7982 73.2919 63.0742 72.6614 64.5743C72.5067 64.9479 72.3003 65.3445 72.0596 65.7411C71.922 65.948 71.8016 66.1492 71.6354 66.3561L71.515 66.5113C71.4634 66.5745 71.4577 66.5917 71.3603 66.7009C71.1998 66.8791 71.0163 67.0745 70.8501 67.2182C70.168 67.8045 69.6349 68.0459 69.1534 68.2585C68.6662 68.4655 68.2765 68.5689 67.8809 68.6724C66.3906 69.0115 65.2385 69.0804 64.0806 69.1207C62.94 69.1552 61.8509 69.1322 60.779 69.0862C58.6353 68.9942 56.5603 68.7873 54.4968 68.5804C52.4333 68.3677 50.3927 68.1091 48.3636 67.8217C46.3173 67.5516 44.3225 67.247 42.2476 66.9251L43.6634 59.2118C45.5492 59.6026 47.5324 59.936 49.4698 60.2521C51.4245 60.551 53.3733 60.8154 55.3165 61.0395C57.2596 61.2637 59.197 61.4131 61.0771 61.4879C62.0171 61.5224 62.94 61.5281 63.8112 61.4994C64.6653 61.4649 65.5308 61.3787 66.0009 61.2465C66.0926 61.2177 66.19 61.1832 66.1614 61.189C66.1384 61.2005 66.0639 61.2062 65.7544 61.4591C65.6856 61.5166 65.5824 61.6143 65.5136 61.7063C65.4621 61.7752 65.485 61.7408 65.4735 61.7523L65.4678 61.758C65.4621 61.7752 65.4621 61.7523 65.4678 61.7523C65.4792 61.7178 65.5079 61.666 65.5423 61.5683C65.6913 61.2062 65.8461 60.4705 65.9149 59.6889C66.0639 58.091 66.0123 56.2288 65.8289 54.3723C65.6512 52.5044 65.3761 50.6019 65.0379 48.6994C64.8602 47.7511 64.671 46.797 64.4647 45.8544C64.2641 44.9233 64.0348 43.9347 63.8055 43.0783L72.2544 41.1471Z" fill="#407BFF"/>
<g opacity="0.7">
<path d="M72.2544 41.1471C72.4608 42.2621 72.6213 43.2565 72.7875 44.3083C72.948 45.3486 73.0913 46.3889 73.2231 47.435C73.4925 49.5271 73.7104 51.6307 73.8193 53.7976C73.911 55.9644 73.974 58.16 73.676 60.5797C73.5097 61.7982 73.2919 63.0742 72.6614 64.5743C72.5067 64.9479 72.3003 65.3445 72.0596 65.7411C71.922 65.948 71.8016 66.1492 71.6354 66.3561L71.515 66.5113C71.4634 66.5745 71.4577 66.5917 71.3603 66.7009C71.1998 66.8791 71.0163 67.0745 70.8501 67.2182C70.168 67.8045 69.6349 68.0459 69.1534 68.2585C68.6662 68.4655 68.2765 68.5689 67.8809 68.6724C66.3906 69.0115 65.2385 69.0804 64.0806 69.1207C62.94 69.1552 61.8509 69.1322 60.779 69.0862C58.6353 68.9942 56.5603 68.7873 54.4968 68.5804C52.4333 68.3677 50.3927 68.1091 48.3636 67.8217C46.3173 67.5516 44.3225 67.247 42.2476 66.9251L43.6634 59.2118C45.5492 59.6026 47.5324 59.936 49.4698 60.2521C51.4245 60.551 53.3733 60.8154 55.3165 61.0395C57.2596 61.2637 59.197 61.4131 61.0771 61.4879C62.0171 61.5224 62.94 61.5281 63.8112 61.4994C64.6653 61.4649 65.5308 61.3787 66.0009 61.2465C66.0926 61.2177 66.19 61.1832 66.1614 61.189C66.1384 61.2005 66.0639 61.2062 65.7544 61.4591C65.6856 61.5166 65.5824 61.6143 65.5136 61.7063C65.4621 61.7752 65.485 61.7408 65.4735 61.7523L65.4678 61.758C65.4621 61.7752 65.4621 61.7523 65.4678 61.7523C65.4792 61.7178 65.5079 61.666 65.5423 61.5683C65.6913 61.2062 65.8461 60.4705 65.9149 59.6889C66.0639 58.091 66.0123 56.2288 65.8289 54.3723C65.6512 52.5044 65.3761 50.6019 65.0379 48.6994C64.8602 47.7511 64.671 46.797 64.4647 45.8544C64.2641 44.9233 64.0348 43.9347 63.8055 43.0783L72.2544 41.1471Z" fill="white"/>
</g>
<path d="M59.3004 82.1792L67.8812 88.4613C67.8812 88.4613 68.8556 96.8988 64.0236 97.7265C59.1915 98.5541 58.2572 88.2602 59.3004 82.1792Z" fill="#407BFF"/>
<path d="M59.3004 82.1792L67.8812 88.4613C67.8812 88.4613 68.8556 96.8988 64.0236 97.7265C59.1915 98.5541 58.2572 88.2602 59.3004 82.1792Z" fill="#00424E"/>
<path d="M40.6944 82.1792L37.5476 88.4613C37.5476 88.4613 36.5445 96.8988 37.9546 97.7265C39.3589 98.5541 40.5053 88.2602 40.6944 82.1792Z" fill="#407BFF"/>
<path d="M40.6944 82.1792L37.5476 88.4613C37.5476 88.4613 36.5445 96.8988 37.9546 97.7265C39.3589 98.5541 40.5053 88.2602 40.6944 82.1792Z" fill="#00424E"/>
<path d="M52.9608 22.3064C52.8577 22.3064 52.7545 22.2949 52.6513 22.272C52.2615 22.18 51.9348 21.9271 51.7113 21.5305C51.2814 20.7776 51.2527 19.6281 51.631 18.4613C52.2214 16.6278 53.6315 15.3518 54.7779 15.6162C55.1677 15.7082 55.4944 15.9611 55.7179 16.3577C56.1478 17.1106 56.1765 18.2601 55.7982 19.4269C55.2594 21.0937 54.0385 22.3064 52.9608 22.3064ZM54.4626 15.7254C53.4481 15.7254 52.2845 16.8922 51.7686 18.5015C51.4132 19.6166 51.4361 20.7431 51.8374 21.4558C52.0437 21.8179 52.3361 22.0478 52.68 22.1283C53.7576 22.3812 55.0874 21.1454 55.6549 19.3809C56.0103 18.2659 55.9873 17.1336 55.5861 16.4266C55.3797 16.0645 55.0874 15.8346 54.7435 15.7542C54.6518 15.7369 54.5601 15.7254 54.4626 15.7254Z" fill="white"/>
<path d="M59.0596 23.6226C58.9163 23.6226 58.773 23.6054 58.6297 23.5766C57.9591 23.4214 57.4088 22.9271 57.0878 22.1799C56.7669 21.4385 56.6981 20.5419 56.9044 19.651C57.3229 17.8003 58.7845 16.553 60.1602 16.8634C60.8308 17.0186 61.3754 17.5129 61.7021 18.2601C62.0231 19.0015 62.0919 19.8981 61.8855 20.789C61.5129 22.4443 60.2978 23.6226 59.0596 23.6226ZM59.7303 16.9611C58.561 16.9611 57.4088 18.0934 57.0477 19.6855C56.8528 20.5476 56.9159 21.4155 57.2254 22.1282C57.5349 22.8294 58.0451 23.295 58.6699 23.4387C59.9653 23.7375 61.3467 22.5305 61.7479 20.7603C61.9428 19.8981 61.8798 19.0303 61.5703 18.3176C61.2607 17.6163 60.7506 17.1508 60.1258 17.0071C59.994 16.9726 59.8621 16.9611 59.7303 16.9611Z" fill="white"/>
<path d="M56.8702 20.5189C56.8358 20.5189 56.8014 20.5074 56.7728 20.4844C56.1824 19.9557 55.5862 20.0649 55.5576 20.0706C55.4773 20.0879 55.4028 20.0361 55.3856 19.9557C55.3684 19.8752 55.42 19.8005 55.5003 19.7832C55.5289 19.7775 56.2569 19.6395 56.9677 20.266C57.0307 20.3178 57.0364 20.4097 56.9791 20.4729C56.9562 20.5017 56.9103 20.5189 56.8702 20.5189Z" fill="white"/>
<path d="M58.4806 57.6427L58.171 56.9357C63.0547 54.7746 66.2646 50.4065 65.7659 48.0902C65.5022 46.8659 64.2125 46.6073 63.1693 46.6303C58.1309 46.6763 56.44 51.6767 55.0872 55.6943C54.9153 56.2116 54.7433 56.7058 54.5771 57.1714L53.8491 56.907C54.0153 56.453 54.1816 55.9587 54.3535 55.4471C55.712 51.4181 57.5749 45.9061 63.1636 45.8544C63.1865 45.8544 63.2037 45.8544 63.2266 45.8544C65.7028 45.8544 66.3563 47.1476 66.5225 47.9293C67.0843 50.5846 63.7712 55.3034 58.4806 57.6427Z" fill="#263238"/>
<path d="M57.271 56.8093C56.8812 57.6599 57.0417 58.568 57.6206 58.8324C58.1995 59.0968 58.9905 58.6255 59.3746 57.7749C59.7644 56.9242 59.6039 56.0161 59.0249 55.7517C58.4403 55.4873 57.655 55.9586 57.271 56.8093Z" fill="#263238"/>
<path d="M52.9091 56.8093C52.5194 57.6599 52.6799 58.568 53.2588 58.8324C53.8377 59.0968 54.6287 58.6255 55.0128 57.7749C55.4025 56.9242 55.242 56.0161 54.6631 55.7517C54.0785 55.4873 53.2932 55.9586 52.9091 56.8093Z" fill="#263238"/>
<path d="M45.6511 48.3858C45.7517 47.3113 44.9851 46.3601 43.9387 46.2614C42.8923 46.1626 41.9625 46.9536 41.8619 48.0281C41.7613 49.1027 42.5279 50.0538 43.5743 50.1526C44.6207 50.2513 45.5505 49.4603 45.6511 48.3858Z" fill="#263238"/>
<path d="M63.5361 46.6419C63.4903 46.6419 63.4444 46.6361 63.3986 46.6189C63.1979 46.5441 63.1005 46.32 63.175 46.1188C63.1865 46.0843 64.3959 42.768 62.4757 37.7963C62.4012 37.5951 62.4986 37.371 62.6935 37.2963C62.8942 37.2158 63.1177 37.3192 63.1922 37.5147C65.2271 42.7852 63.9488 46.2453 63.8915 46.389C63.8342 46.5441 63.6909 46.6419 63.5361 46.6419Z" fill="#263238"/>
<path d="M43.0156 48.004C42.9869 48.004 42.964 48.004 42.9353 47.9982C42.729 47.9523 42.5914 47.7511 42.6373 47.5384C42.7118 47.1763 44.5747 38.6181 51.7282 36.9284C51.9345 36.8766 52.1409 37.0088 52.1925 37.2157C52.244 37.4226 52.1122 37.6296 51.9059 37.6813C45.2281 39.2619 43.4111 47.6131 43.3939 47.6994C43.3538 47.8833 43.1933 48.004 43.0156 48.004Z" fill="#263238"/>
<path d="M109.352 196.074L104.084 195.993L103.545 183.716L108.819 183.797L109.352 196.074Z" fill="#FF8B7B"/>
<path d="M104.044 195.378L109.793 195.47C110.011 195.476 110.171 195.625 110.189 195.838L110.533 200.557C110.567 201.045 110.131 201.5 109.633 201.488C107.563 201.419 104.583 201.252 101.981 201.212C98.9311 201.166 99.2234 201.293 95.6524 201.235C93.4915 201.201 93.2163 198.994 94.1506 198.81C98.4038 197.97 98.8337 197.925 102.72 195.775C103.138 195.539 103.591 195.373 104.044 195.378Z" fill="#263238"/>
<path opacity="0.2" d="M103.551 183.722L103.821 190.045L109.1 190.131L108.825 183.803L103.551 183.722Z" fill="black"/>
<path d="M122.553 31.5659C115.789 30.0658 108.922 29.9278 101.958 30.5658C99.5961 30.7842 97.6014 32.5142 97.097 34.8478C95.6984 41.3368 93.3769 55.9587 94.4775 78.2307L122.69 78.6905C123.149 74.7131 122.14 56.2921 126.364 37.6986C127.001 34.8995 125.31 32.1751 122.553 31.5659Z" fill="#0094B8"/>
<path d="M105.695 35.549L106.497 37.6583C106.578 37.871 106.767 38.0204 106.99 38.0549L108.068 38.2216C108.263 38.2503 108.458 38.2101 108.624 38.1124L110.63 36.9054L108.492 34.9915L105.695 35.549Z" fill="#263238"/>
<path d="M108.16 37.5779C107.386 37.302 106.91 37.4112 106.91 37.4112C105.718 39.5838 103.855 45.9234 103.362 48.757C105.254 54.5506 106.045 55.1828 106.045 55.1828L108.343 48.5386C108.343 48.5386 107.787 41.5322 108.16 37.5779Z" fill="#263238"/>
<path d="M117.984 17.4382C116.958 21.2431 115.709 28.261 118.219 31.0371C115.978 32.9683 113.072 35.1696 108.492 34.9914C103.906 34.8132 104.927 31.7153 106.251 30.1462C110.619 29.4392 110.733 26.2378 110.194 23.1801L117.984 17.4382Z" fill="#FF8B7B"/>
<path d="M119.417 30.813C119.073 30.6176 118.701 30.4681 118.449 30.3819C118.282 30.3244 118.093 30.3762 117.99 30.5198C117.474 31.2268 115.8 34.4282 108.492 34.9915C109.604 35.8076 110.957 38.1412 111.53 39.2505C113.794 38.3481 119.733 35.5605 119.635 31.1693C119.624 31.0256 119.549 30.8877 119.417 30.813Z" fill="white"/>
<path d="M106.274 30.3244C106.36 30.037 106.137 29.7496 105.838 29.7784C105.535 29.8071 105.231 29.8703 105.082 29.9048C105.025 29.9163 104.973 29.945 104.921 29.9795C104.32 30.4336 100.886 34.4741 103.339 38.2676C104.062 37.3767 106.286 35.411 108.487 34.9972C106.561 33.8706 105.735 32.0716 106.274 30.3244Z" fill="white"/>
<path opacity="0.2" d="M114.809 19.7833L110.2 23.1802C110.332 23.9044 110.418 24.6343 110.418 25.3355C112.075 25.2206 114.453 23.5825 114.751 21.8755C114.9 21.0191 114.923 20.1914 114.809 19.7833Z" fill="black"/>
<path d="M108.601 15.1105C105.919 15.9842 105.506 13.8633 106.056 11.7769C106.4 10.478 105.93 9.65031 105.741 8.2249C105.431 5.88563 106.016 3.81649 110.361 2.29912C116.001 0.327695 114.757 3.65556 114.981 5.02923C115.204 6.40291 112.86 7.22482 112.975 8.63873C113.095 10.0469 112.533 13.8288 108.601 15.1105Z" fill="#263238"/>
<path d="M121.573 12.5988C120.042 17.6624 119.4 20.7029 116.213 22.7835C111.416 25.916 105.701 22.2145 105.707 16.829C105.712 11.9838 108.211 4.51189 113.668 3.54055C119.039 2.58644 123.103 7.53513 121.573 12.5988Z" fill="#FF8B7B"/>
<path d="M120.037 7.3627C117.314 6.8799 114.092 8.04092 111.376 7.34546C109.22 6.79369 109.243 5.35679 109.558 3.90265C110.023 1.75879 111.8 1.05758 112.866 0.660997C113.932 0.264413 114.488 1.59211 115.955 0.580531C116.947 -0.103434 120.73 -0.275862 122.971 0.580531C125.213 1.43692 122.65 3.06924 123.848 3.82218C127.54 6.13272 125.178 8.27657 120.037 7.3627Z" fill="#263238"/>
<path opacity="0.3" d="M111.507 6.77645C110.544 4.57511 111.559 1.63234 115.606 1.35071C112.057 2.41976 111.507 6.77645 111.507 6.77645Z" fill="white"/>
<path d="M119.263 17.7256C116.981 17.3635 117.102 14.7599 118.219 12.9666C119.28 11.2596 117.709 9.3801 117.6 8.07539C117.491 6.77068 118.695 5.43724 121.022 5.54644C123.349 5.65565 127.075 7.15002 127.138 8.86281C127.201 10.5756 124.8 10.3687 125.172 12.0297C126.009 15.7427 122.604 18.2601 119.263 17.7256Z" fill="#263238"/>
<path opacity="0.3" d="M124.049 8.75368C123.08 10.4837 121.068 10.8516 118.46 8.74219C121.567 10.0526 124.049 8.75368 124.049 8.75368Z" fill="white"/>
<path d="M106.715 16.7026C105.672 17.8119 105.758 20.042 105.815 21.1168C105.878 22.1858 106.778 23.9446 110.132 24.4504C113.485 24.9562 114.27 23.7607 114.431 22.6399C114.591 21.5191 114.419 18.3119 113.347 17.2429C112.327 16.2313 107.902 15.4439 106.715 16.7026Z" fill="#263238"/>
<path d="M108.899 18.3234C110.476 18.743 111.622 17.99 111.674 17.9556C111.731 17.9153 111.748 17.8406 111.708 17.7831C111.668 17.7257 111.593 17.7142 111.536 17.7486C111.525 17.7601 110.189 18.628 108.475 17.9153C108.412 17.8866 108.338 17.9211 108.309 17.9843C108.28 18.0475 108.309 18.1222 108.372 18.1452C108.55 18.2199 108.727 18.2774 108.899 18.3234Z" fill="#FF8B7B"/>
<path d="M122.037 18.5591C121.057 19.5994 119.698 20.1052 118.535 20.1396C116.786 20.1856 116.379 18.5188 117.251 17.0934C118.036 15.806 119.893 14.2311 121.464 14.8633C123.005 15.4841 123.154 17.3636 122.037 18.5591Z" fill="#FF8B7B"/>
<path d="M109.06 130.752C109.747 104.141 116.488 78.5869 116.488 78.5869L94.4946 78.2306C94.4946 78.2306 95.7213 116.665 96.0537 132.764C96.3976 149.501 101.619 188.797 101.619 188.797L110.55 188.935C110.55 188.929 109.581 151.754 109.06 130.752Z" fill="#263238"/>
<path opacity="0.2" d="M111.203 93.2262C104.64 101.836 106.91 118.033 109.094 129.476C109.57 115.251 111.713 101.44 113.576 91.8008L111.203 93.2262Z" fill="black"/>
<path d="M101.058 188.987L111.674 189.154L111.605 185.705L100.565 185.332L101.058 188.987Z" fill="#263238"/>
<path d="M113.766 12.1275C113.668 12.5471 113.365 12.8345 113.095 12.777C112.826 12.7195 112.688 12.3344 112.786 11.9148C112.883 11.4953 113.187 11.2079 113.456 11.2654C113.726 11.3228 113.869 11.7079 113.766 12.1275Z" fill="#263238"/>
<path d="M108.979 11.2366C108.882 11.6562 108.578 11.9436 108.309 11.8861C108.039 11.8286 107.902 11.4436 107.999 11.024C108.097 10.6044 108.4 10.317 108.67 10.3745C108.939 10.432 109.077 10.8228 108.979 11.2366Z" fill="#263238"/>
<path d="M110.286 11.8976C110.286 11.8976 108.756 13.8115 107.438 14.6277C107.999 15.3519 109.318 15.3002 109.318 15.3002L110.286 11.8976Z" fill="#FF5652"/>
<path d="M115.812 10.4549C115.852 10.4606 115.898 10.4491 115.938 10.4319C116.064 10.3744 116.121 10.225 116.064 10.0985C115.508 8.8398 114.373 8.66737 114.327 8.66162C114.19 8.64438 114.064 8.73634 114.041 8.87428C114.018 9.01222 114.109 9.13867 114.247 9.15591C114.287 9.16166 115.17 9.30535 115.611 10.3112C115.646 10.3916 115.72 10.4434 115.812 10.4549Z" fill="#263238"/>
<path d="M107.632 8.94909C107.713 8.96633 107.799 8.94334 107.862 8.88012C108.653 8.08695 109.535 8.24788 109.57 8.25363C109.702 8.27662 109.839 8.19041 109.868 8.05246C109.897 7.91452 109.816 7.78807 109.679 7.75934C109.627 7.74784 108.504 7.53518 107.512 8.52377C107.415 8.62148 107.409 8.78241 107.506 8.88012C107.541 8.92035 107.587 8.94334 107.632 8.94909Z" fill="#263238"/>
<path d="M103.076 195.85C103.122 195.832 103.156 195.798 103.162 195.752C103.173 195.7 103.15 195.648 103.104 195.62C102.869 195.493 100.806 194.378 100.147 194.729C100.021 194.798 99.9404 194.913 99.9232 195.056C99.8945 195.304 99.9576 195.51 100.124 195.671C100.674 196.194 102.199 196.011 103.059 195.855C103.064 195.855 103.07 195.85 103.076 195.85ZM100.301 194.93C100.708 194.798 101.832 195.258 102.652 195.671C101.477 195.85 100.611 195.781 100.301 195.487C100.193 195.384 100.152 195.252 100.17 195.079C100.175 195.016 100.204 194.976 100.256 194.947C100.267 194.941 100.284 194.936 100.301 194.93Z" fill="#407BFF"/>
<path d="M103.076 195.85C103.087 195.844 103.099 195.838 103.11 195.832C103.15 195.809 103.168 195.763 103.168 195.717C103.168 195.654 103.093 194.229 102.451 193.665C102.256 193.493 102.027 193.418 101.769 193.441C101.425 193.47 101.316 193.642 101.288 193.786C101.161 194.384 102.365 195.545 102.984 195.844C103.013 195.861 103.041 195.861 103.076 195.85ZM101.649 193.717C101.683 193.706 101.723 193.7 101.775 193.694C101.964 193.677 102.13 193.734 102.273 193.861C102.698 194.229 102.841 195.085 102.887 195.505C102.256 195.102 101.442 194.188 101.523 193.832C101.534 193.809 101.545 193.752 101.649 193.717Z" fill="#407BFF"/>
<path d="M132.738 196.074L127.459 195.993L126.135 183.716L131.414 183.797L132.738 196.074Z" fill="#FF8B7B"/>
<path d="M127.213 195.378L132.962 195.47C133.18 195.476 133.34 195.625 133.357 195.838L133.701 200.557C133.736 201.045 133.3 201.499 132.801 201.488C130.732 201.419 130.084 201.252 127.482 201.212C124.433 201.166 125.837 201.293 122.26 201.235C120.099 201.201 119.824 199.005 120.759 198.81C123.711 198.195 124.519 197.022 125.883 195.775C126.244 195.441 126.76 195.373 127.213 195.378Z" fill="#263238"/>
<path opacity="0.2" d="M126.135 183.722L126.817 190.045L132.102 190.131L131.414 183.803L126.135 183.722Z" fill="black"/>
<path d="M127.476 130.086C125.287 106.302 126.106 87.9556 122.69 78.6847L104.05 78.3859C104.05 78.3859 112.344 115.987 115.445 131.827C118.672 148.3 124.53 187.222 124.53 187.222L133.036 187.343C133.036 187.349 132.44 148.484 127.476 130.086Z" fill="#263238"/>
<path d="M123.298 188.987L133.908 189.154L134.63 185.705L122.799 185.332L123.298 188.987Z" fill="#263238"/>
<path d="M128.245 195.781C128.291 195.781 128.336 195.758 128.359 195.717C128.388 195.671 128.382 195.614 128.348 195.574C128.176 195.373 126.64 193.602 125.912 193.706C125.769 193.729 125.66 193.809 125.591 193.941C125.476 194.166 125.47 194.39 125.568 194.597C125.9 195.286 127.374 195.631 128.228 195.781C128.233 195.781 128.239 195.781 128.245 195.781ZM125.986 193.953C126.405 193.964 127.293 194.792 127.912 195.465C126.76 195.229 125.981 194.867 125.797 194.482C125.734 194.344 125.74 194.206 125.814 194.051C125.843 193.993 125.883 193.964 125.941 193.953C125.952 193.953 125.969 193.947 125.986 193.953Z" fill="#407BFF"/>
<path d="M128.245 195.781C128.256 195.781 128.268 195.781 128.279 195.775C128.325 195.763 128.359 195.729 128.371 195.689C128.388 195.631 128.812 194.246 128.411 193.493C128.291 193.263 128.102 193.114 127.855 193.045C127.523 192.953 127.368 193.079 127.288 193.206C126.967 193.729 127.683 195.252 128.159 195.746C128.182 195.763 128.21 195.781 128.245 195.781ZM127.654 193.263C127.689 193.263 127.729 193.269 127.781 193.286C127.964 193.338 128.096 193.447 128.188 193.62C128.451 194.12 128.296 194.982 128.193 195.39C127.746 194.792 127.305 193.643 127.5 193.326C127.511 193.309 127.546 193.257 127.654 193.263Z" fill="#407BFF"/>
<path d="M84.395 80.7595L81.3398 85.2542L87.3985 87.1106C87.3985 87.1106 89.6856 82.7195 87.5992 81.1963L84.395 80.7595Z" fill="#FF8B7B"/>
<path d="M82.2628 90.7144L84.5097 91.0018C85.4039 91.1167 86.2694 90.5592 86.556 89.6855L87.4043 87.1106L81.3456 85.2542L80.7438 88.5993C80.5489 89.6338 81.2425 90.5879 82.2628 90.7144Z" fill="#FF8B7B"/>
<path d="M104.285 36.7962C103.122 40.7046 102.004 44.6302 100.915 48.5615C99.8142 52.4814 98.771 56.4415 97.7794 60.3326C97.5845 61.1718 97.1947 62.6087 96.8565 63.5743C96.5126 64.6088 96.1687 65.6032 95.819 66.5918C95.114 68.5574 94.3861 70.4886 93.6524 72.4141L89.3133 83.961L81.5923 80.8573C83.1858 77.1386 84.6818 73.3394 86.1377 69.5633C86.8428 67.6666 87.5363 65.7698 88.1955 63.8846C88.5222 62.942 88.8432 62.0052 89.1241 61.097C89.4222 60.12 89.5483 59.5854 89.8062 58.4244C90.7176 54.3724 91.7035 50.418 92.6206 46.4234C93.5607 42.4403 94.4892 38.4572 95.3834 34.4569L104.285 36.7962Z" fill="#407BFF"/>
<g opacity="0.6">
<path d="M104.285 36.7962C103.122 40.7046 102.004 44.6302 100.915 48.5615C99.8142 52.4814 98.771 56.4415 97.7794 60.3326C97.5845 61.1718 97.1947 62.6087 96.8565 63.5743C96.5126 64.6088 96.1687 65.6032 95.819 66.5918C95.114 68.5574 94.3861 70.4886 93.6524 72.4141L89.3133 83.961L81.5923 80.8573C83.1858 77.1386 84.6818 73.3394 86.1377 69.5633C86.8428 67.6666 87.5363 65.7698 88.1955 63.8846C88.5222 62.942 88.8432 62.0052 89.1241 61.097C89.4222 60.12 89.5483 59.5854 89.8062 58.4244C90.7176 54.3724 91.7035 50.418 92.6206 46.4234C93.5607 42.4403 94.4892 38.4572 95.3834 34.4569L104.285 36.7962Z" fill="white"/>
</g>
<path d="M108.71 89.881L76.5709 87.6452C75.6022 87.5762 74.8169 86.7371 74.8169 85.7657V63.6432C74.8169 62.6719 75.6022 61.9419 76.5709 62.0052L108.71 64.241C109.679 64.3099 110.464 65.1491 110.464 66.1204V88.243C110.464 89.2143 109.679 89.95 108.71 89.881Z" fill="#263238"/>
<path d="M109.266 89.5534L77.127 87.3176C76.1583 87.2486 75.373 86.4095 75.373 85.4381V63.3156C75.373 62.3442 76.1583 61.6143 77.127 61.6775L109.266 63.9133C110.235 63.9823 111.02 64.8215 111.02 65.7928V87.9153C111.02 88.8867 110.235 89.6224 109.266 89.5534Z" fill="#0094B8"/>
<path d="M119.681 29.7783C117.05 33.681 107.787 39.6125 105.855 49.2799C103.247 40.0493 105.758 29.5427 105.758 29.5427C104.033 29.4162 100.805 29.8645 98.3178 30.56C96.7128 31.0141 95.4976 32.382 95.211 34.0258C94.3627 38.8021 92.7119 50.2111 93.1074 64.6605C93.6405 84.0702 92.9526 114.101 92.9526 114.101C92.9526 114.101 112.59 115.257 127.998 113.584C127.625 98.7496 123.791 73.5636 124.393 66.9826C125.166 58.5163 127.023 41.992 127.981 35.1121C128.267 33.0775 127.064 31.1922 125.138 30.5887C122.484 29.7611 119.681 29.7783 119.681 29.7783Z" fill="#407BFF"/>
<path opacity="0.7" d="M119.681 29.7783C117.05 33.681 107.787 39.6125 105.855 49.2799C103.247 40.0493 105.758 29.5427 105.758 29.5427C104.033 29.4162 100.805 29.8645 98.3178 30.56C96.7128 31.0141 95.4976 32.382 95.211 34.0258C94.3627 38.8021 92.7119 50.2111 93.1074 64.6605C93.6405 84.0702 92.9526 114.101 92.9526 114.101C92.9526 114.101 112.59 115.257 127.998 113.584C127.625 98.7496 123.791 73.5636 124.393 66.9826C125.166 58.5106 127.023 41.9862 127.981 35.1121C128.256 33.1464 127.167 31.2612 125.315 30.652C122.61 29.7611 119.681 29.7783 119.681 29.7783Z" fill="white"/>
<path d="M121.275 76.9834L117.984 81.3113L123.94 83.4839C123.94 83.4839 126.456 79.2192 124.45 77.5869L121.275 76.9834Z" fill="#FF8B7B"/>
<path d="M118.626 86.8175L120.85 87.2198C121.739 87.3807 122.633 86.8692 122.96 86.0128L123.94 83.4839L117.984 81.3113L117.21 84.6162C116.975 85.645 117.612 86.6336 118.626 86.8175Z" fill="#FF8B7B"/>
<path d="M127.597 33.1522C128.457 35.0432 129.259 36.8422 130.039 38.7044C130.824 40.5551 131.592 42.4174 132.314 44.3256C133.031 46.2338 133.719 48.165 134.338 50.1996C134.642 51.2169 134.928 52.2687 135.157 53.3953C135.272 53.9643 135.375 54.5505 135.455 55.177C135.53 55.815 135.587 56.476 135.564 57.3094C135.553 57.5508 135.53 57.7979 135.507 58.0393L135.415 58.6084C135.352 58.9992 135.272 59.2751 135.192 59.6142C135.031 60.2119 134.859 60.7695 134.687 61.304C134.338 62.3615 133.959 63.3386 133.57 64.3042C132.79 66.2239 131.959 68.0574 131.116 69.8736C130.285 71.6956 129.425 73.4946 128.554 75.2764C127.689 77.0754 126.817 78.8284 125.923 80.6447L118.581 76.719C120.443 73.3969 122.203 69.9196 123.831 66.4711C124.634 64.741 125.396 62.9995 126.072 61.2867C126.41 60.4303 126.731 59.5797 126.984 58.7808L127.161 58.1945L127.299 57.6485C127.322 57.5106 127.373 57.3151 127.379 57.2174L127.402 57.0622C127.396 57.0622 127.391 57.0622 127.396 57.0565L127.379 56.7346C127.356 56.5794 127.35 56.4473 127.316 56.2633C127.265 55.9242 127.19 55.5506 127.098 55.1598C126.915 54.3781 126.668 53.539 126.388 52.6941C125.832 50.9985 125.144 49.2627 124.399 47.5385C123.653 45.8142 122.862 44.0899 122.02 42.3829C121.177 40.6873 120.294 38.9516 119.4 37.348L127.597 33.1522Z" fill="#407BFF"/>
<g opacity="0.7">
<path d="M127.597 33.1522C128.457 35.0432 129.259 36.8422 130.039 38.7044C130.824 40.5551 131.592 42.4174 132.314 44.3256C133.031 46.2338 133.719 48.165 134.338 50.1996C134.642 51.2169 134.928 52.2687 135.157 53.3953C135.272 53.9643 135.375 54.5505 135.455 55.177C135.53 55.815 135.587 56.476 135.564 57.3094C135.553 57.5508 135.53 57.7979 135.507 58.0393L135.415 58.6084C135.352 58.9992 135.272 59.2751 135.192 59.6142C135.031 60.2119 134.859 60.7695 134.687 61.304C134.338 62.3615 133.959 63.3386 133.57 64.3042C132.79 66.2239 131.959 68.0574 131.116 69.8736C130.285 71.6956 129.425 73.4946 128.554 75.2764C127.689 77.0754 126.817 78.8284 125.923 80.6447L118.581 76.719C120.443 73.3969 122.203 69.9196 123.831 66.4711C124.634 64.741 125.396 62.9995 126.072 61.2867C126.41 60.4303 126.731 59.5797 126.984 58.7808L127.161 58.1945L127.299 57.6485C127.322 57.5106 127.373 57.3151 127.379 57.2174L127.402 57.0622C127.396 57.0622 127.391 57.0622 127.396 57.0565L127.379 56.7346C127.356 56.5794 127.35 56.4473 127.316 56.2633C127.265 55.9242 127.19 55.5506 127.098 55.1598C126.915 54.3781 126.668 53.539 126.388 52.6941C125.832 50.9985 125.144 49.2627 124.399 47.5385C123.653 45.8142 122.862 44.0899 122.02 42.3829C121.177 40.6873 120.294 38.9516 119.4 37.348L127.597 33.1522Z" fill="white"/>
</g>
<path d="M115.48 77.8628L124.806 84.5415C124.806 84.5415 126.107 93.5135 121 94.3929C115.892 95.278 114.568 84.3288 115.48 77.8628Z" fill="#407BFF"/>
<path d="M115.48 77.8628L124.806 84.5415C124.806 84.5415 126.107 93.5135 121 94.3929C115.892 95.278 114.568 84.3288 115.48 77.8628Z" fill="#00424E"/>
<path d="M95.6928 77.8628L92.546 84.5415C92.546 84.5415 91.7492 93.5135 93.2739 94.3929C94.7986 95.278 95.6871 84.3288 95.6928 77.8628Z" fill="#407BFF"/>
<path d="M95.6928 77.8628L92.546 84.5415C92.546 84.5415 91.7492 93.5135 93.2739 94.3929C94.7986 95.278 95.6871 84.3288 95.6928 77.8628Z" fill="#00424E"/>
<path opacity="0.5" d="M106.744 112.285C105.253 93.4216 105.46 53.9068 105.58 50.3721L105.907 50.3836C105.787 53.9126 105.58 93.4044 107.071 112.257L106.744 112.285Z" fill="#407BFF"/>
<path d="M150.697 20.8407C146.484 23.8984 142.981 35.8937 153.03 40.7332C163.078 45.5784 177.247 45.1876 172.965 34.6522C168.684 24.1226 170.214 17.9209 160.103 16.7197C149.986 15.5242 150.697 20.8407 150.697 20.8407Z" fill="#263238"/>
<path d="M177.775 83.9552L179.804 84.6564L182.383 88.5763C182.761 89.151 182.928 89.8407 182.853 90.519L182.704 91.9099C182.652 92.3927 182.268 92.7605 181.798 92.7778L179.099 92.8697C178.606 92.887 178.17 92.5134 178.09 92.0076L177.746 88.8292C177.752 88.8349 176.445 85.6622 177.775 83.9552Z" fill="#FFB573"/>
<path d="M174.57 52.0157C174.524 53.4756 174.513 55.0332 174.519 56.5506C174.524 58.0737 174.559 59.6026 174.61 61.1257C174.719 64.1719 174.931 67.2009 175.304 70.1609L175.344 70.523C175.35 70.4943 175.327 70.4081 175.333 70.4368C175.338 70.4656 175.333 70.4656 175.338 70.5173L175.367 70.661L175.413 70.8449C175.476 71.0978 175.556 71.3852 175.642 71.684C175.814 72.276 176.02 72.9025 176.238 73.5233C176.668 74.7705 177.15 76.035 177.643 77.2937C178.141 78.5524 178.651 79.8054 179.184 81.0469C179.718 82.2769 180.274 83.5356 180.835 84.6276L176.542 87.1336C175.734 85.8289 175.08 84.6104 174.41 83.3517C173.751 82.1044 173.114 80.8515 172.49 79.5813C171.87 78.311 171.263 77.0351 170.684 75.7189C170.392 75.0579 170.111 74.3912 169.836 73.6785C169.698 73.3221 169.566 72.9543 169.44 72.5404L169.348 72.2243L169.257 71.8622C169.228 71.7473 169.194 71.5748 169.165 71.4311C169.136 71.2875 169.108 71.0288 169.09 70.8277L169.131 71.1897C168.5 67.9883 168.059 64.8042 167.721 61.62C167.554 60.0279 167.411 58.4358 167.291 56.8437C167.17 55.2402 167.073 53.6768 167.01 52.0157H174.57Z" fill="#407BFF"/>
<path opacity="0.5" d="M174.57 52.0157C174.524 53.4756 174.513 55.0332 174.519 56.5506C174.524 58.0737 174.559 59.6026 174.61 61.1257C174.719 64.1719 174.931 67.2009 175.304 70.1609L175.344 70.523C175.35 70.4943 175.327 70.4081 175.333 70.4368C175.338 70.4656 175.333 70.4656 175.338 70.5173L175.367 70.661L175.413 70.8449C175.476 71.0978 175.556 71.3852 175.642 71.684C175.814 72.276 176.02 72.9025 176.238 73.5233C176.668 74.7705 177.15 76.035 177.643 77.2937C178.141 78.5524 178.651 79.8054 179.184 81.0469C179.718 82.2769 180.274 83.5356 180.835 84.6276L176.542 87.1336C175.734 85.8289 175.08 84.6104 174.41 83.3517C173.751 82.1044 173.114 80.8515 172.49 79.5813C171.87 78.311 171.263 77.0351 170.684 75.7189C170.392 75.0579 170.111 74.3912 169.836 73.6785C169.698 73.3221 169.566 72.9543 169.44 72.5404L169.348 72.2243L169.257 71.8622C169.228 71.7473 169.194 71.5748 169.165 71.4311C169.136 71.2875 169.108 71.0288 169.09 70.8277L169.131 71.1897C168.5 67.9883 168.059 64.8042 167.721 61.62C167.554 60.0279 167.411 58.4358 167.291 56.8437C167.17 55.2402 167.073 53.6768 167.01 52.0157H174.57Z" fill="white"/>
<path d="M170.988 78.3915C170.988 78.3915 170.317 117.596 168.724 133.465C166.649 154.133 161.077 171.629 159.765 185.918L155.128 185.239C155.128 185.239 154.83 150.237 159.02 133.505C155.219 115.762 155.128 78.3857 155.128 78.3857H170.988V78.3915Z" fill="#FFB573"/>
<path d="M168.26 197.401C167.721 196.959 166.872 196.597 166.122 196.332C166.122 196.332 162.321 194.211 160.223 187.826L157.306 187.102C156.354 186.866 155.345 187.24 154.933 188.096C154.875 188.217 154.835 188.343 154.818 188.464C154.749 189.056 154.841 189.952 154.864 190.539C154.95 192.694 155.3 197.551 155.3 197.551H155.804C155.804 197.551 155.752 194.568 155.97 193.148C156.188 191.728 157.226 193.413 157.827 195.016C158.424 196.625 160.716 198.338 164.001 198.419C167.841 198.505 169.395 198.332 168.26 197.401Z" fill="#263238"/>
<path d="M155.437 188.153C154.996 186.659 154.795 184.055 154.795 184.055L160.24 184.739C160.24 184.739 160.206 188.056 161.198 190.28C157.942 189.452 155.437 188.153 155.437 188.153Z" fill="#263238"/>
<path d="M166.981 78.3915C166.981 78.3915 160.446 118.004 156.767 133.919C151.969 154.668 151.31 187.343 151.31 187.343L146.976 186.918C146.976 186.918 142.001 157.134 147.355 133.913C146.953 116.084 150.416 78.3857 150.416 78.3857H166.981V78.3915Z" fill="#FFB573"/>
<path d="M156.692 197.401C156.228 196.959 155.437 196.597 154.732 196.332C154.732 196.332 152.6 194.211 151.579 187.826L148.788 187.102C147.877 186.866 146.805 187.24 146.249 188.096C146.168 188.217 146.105 188.343 146.071 188.464C145.905 189.056 145.842 189.952 145.767 190.539C145.492 192.694 145.733 197.551 145.733 197.551H146.237C146.237 197.551 146.369 194.665 146.438 193.148C146.507 191.654 147.653 193.413 147.98 195.016C148.306 196.625 149 198.338 152.267 198.419C156.09 198.505 157.672 198.332 156.692 197.401Z" fill="#263238"/>
<path d="M146.162 188.153C145.973 186.659 145.916 184.055 145.916 184.055L152.112 184.739C152.112 184.739 151.361 187.694 151.98 189.918C148.868 189.085 146.162 188.153 146.162 188.153Z" fill="#263238"/>
<path d="M173.739 50.2282C173.968 54.0331 174.146 64.7869 172.106 81.2308H149.883C149.906 73.2646 150.559 65.6375 146.936 50.6593C146.369 48.3085 147.888 46.0497 150.255 45.7451C151.511 45.5841 152.944 45.4404 154.44 45.3657C158.011 45.1933 160.94 45.0783 164.092 45.3657C166.179 45.5554 168.408 45.8945 170.117 46.1819C172.106 46.5267 173.619 48.2223 173.739 50.2282Z" fill="white"/>
<path d="M156.102 34.8419C156.83 37.9571 157.655 43.6645 155.563 45.7394C155.563 45.7394 157.5 48.8258 163.502 51.4238C166.815 49.4121 165.216 45.7394 165.216 45.7394C161.719 44.9117 161.713 42.331 162.224 39.9113L156.102 34.8419Z" fill="#FFB573"/>
<path opacity="0.2" d="M158.601 36.911L162.224 39.9113C162.103 40.486 162.012 41.0665 161.989 41.6298C160.659 41.4401 158.785 39.9802 158.59 38.5951C158.492 37.8996 158.498 37.2329 158.601 36.911Z" fill="black"/>
<path d="M152.611 29.1287C154.016 34.1923 154.503 36.3649 157.552 38.549C162.144 41.8309 167.795 39.256 167.876 33.9395C167.944 29.1517 165.64 21.6683 160.384 20.4958C155.208 19.3348 151.207 24.0651 152.611 29.1287Z" fill="#FFB573"/>
<path d="M153.643 31.7957C154.875 30.7209 156.102 26.0423 155.454 24.0594C159.868 24.4158 163.536 22.8582 165.319 24.3698C165.508 22.0765 163.468 18.9555 159.834 18.99C156.205 19.0188 147.487 23.4099 153.643 31.7957Z" fill="#263238"/>
<path d="M159.621 29.3012C159.713 29.7207 160 30.0196 160.275 29.9679C160.544 29.9219 160.693 29.5426 160.602 29.123C160.51 28.7034 160.223 28.4045 159.948 28.4563C159.673 28.5022 159.53 28.8816 159.621 29.3012Z" fill="#263238"/>
<path d="M164.603 28.3873C164.694 28.8069 164.981 29.1058 165.256 29.0541C165.525 29.0081 165.674 28.6287 165.583 28.2092C165.491 27.7896 165.204 27.4907 164.929 27.5424C164.66 27.5884 164.517 27.9678 164.603 28.3873Z" fill="#263238"/>
<path d="M164.814 27.5884L165.743 27.1228C165.749 27.1228 165.405 27.9964 164.814 27.5884Z" fill="#263238"/>
<path d="M163.875 29.2839C163.875 29.2839 164.958 30.9507 165.915 31.6807C165.479 32.2899 164.505 32.221 164.505 32.221L163.875 29.2839Z" fill="#ED893E"/>
<path d="M162.831 34.3246C163.055 34.3246 163.29 34.3074 163.536 34.2614C163.605 34.2499 163.645 34.1867 163.634 34.1177C163.616 34.0488 163.553 34.0028 163.484 34.0143C161.673 34.3419 160.55 33.2096 160.538 33.1981C160.492 33.1464 160.412 33.1464 160.361 33.1924C160.315 33.2383 160.315 33.3188 160.361 33.3705C160.412 33.4165 161.312 34.3246 162.831 34.3246Z" fill="#263238"/>
<path d="M151.471 32.6464C152.055 33.5717 153.007 34.158 153.878 34.3649C155.191 34.6753 155.752 33.5085 155.305 32.3187C154.904 31.2439 153.735 29.7898 152.456 30.0082C151.201 30.2209 150.806 31.5888 151.471 32.6464Z" fill="#FFB573"/>
<path d="M158.515 27.1459C158.578 27.1401 158.641 27.1057 158.681 27.0539C159.334 26.186 160.246 26.2608 160.257 26.2608C160.395 26.2723 160.51 26.1745 160.521 26.0366C160.527 25.8987 160.424 25.778 160.286 25.7665C160.24 25.7607 159.094 25.6688 158.28 26.7436C158.2 26.8528 158.222 27.0079 158.331 27.0942C158.389 27.1344 158.458 27.1516 158.515 27.1459Z" fill="#263238"/>
<path d="M166.247 25.6055C166.305 25.5825 166.351 25.5422 166.379 25.479C166.437 25.3583 166.379 25.2089 166.253 25.1457C164.998 24.5364 164.029 25.1112 163.989 25.1399C163.874 25.2089 163.84 25.3641 163.914 25.479C163.989 25.5997 164.144 25.6342 164.258 25.5652C164.299 25.5422 165.055 25.1054 166.053 25.5882C166.116 25.6285 166.184 25.6285 166.247 25.6055Z" fill="#263238"/>
<path d="M159.833 28.5023L160.762 28.0367C160.762 28.0367 160.418 28.9104 159.833 28.5023Z" fill="#263238"/>
<path d="M172.105 81.2308L172.547 142.184C162.235 143.029 152.365 142.713 143.056 140.885C142.442 117.998 137.983 92.818 149.883 81.2308H172.105Z" fill="#263238"/>
<path opacity="0.2" d="M160.613 122.481L158.286 102.422L163.874 96.6401L160.613 122.481Z" fill="black"/>
<path d="M174.742 54.0102C174.461 48.6591 173.596 46.567 170.088 45.8945C166.58 45.2221 163.278 44.883 163.278 44.883C167.875 47.7683 169.601 54.6711 165.313 59.8095C162.952 55.4068 153.992 48.5097 156.153 44.9175C156.153 44.9175 153.362 44.6933 149.9 45.3658C146.443 46.0382 145.446 48.4177 146.3 53.7285C148.484 67.2929 146.81 83.7713 146.81 83.7713C146.81 83.7713 159.61 89.8177 163.869 90.973C170.638 89.3177 172.123 84.5702 172.123 84.5702C172.123 84.5702 175.023 59.3612 174.742 54.0102Z" fill="#407BFF"/>
<path opacity="0.6" d="M174.742 54.0102C174.461 48.6591 173.596 46.567 170.088 45.8945C166.58 45.2221 163.278 44.883 163.278 44.883C167.875 47.7683 169.601 54.6711 165.313 59.8095C162.952 55.4068 153.992 48.5097 156.153 44.9175C156.153 44.9175 153.362 44.6933 149.9 45.3658C146.443 46.0382 145.446 48.4177 146.3 53.7285C148.484 67.2929 146.81 83.7713 146.81 83.7713C146.81 83.7713 159.61 89.8177 163.869 90.973C170.638 89.3177 172.123 84.5702 172.123 84.5702C172.123 84.5702 175.023 59.3612 174.742 54.0102Z" fill="white"/>
<path d="M155.672 64.4017C153.287 60.913 151.499 55.7976 152.886 53.1882C153.402 52.2168 154.313 51.7283 155.569 51.7225C156.549 51.7283 157.374 52.0961 158.028 52.8146C159.575 54.5101 160.114 58.0334 159.673 63.5741L159.094 63.5281C159.518 58.2288 159.014 54.7573 157.598 53.2112C157.053 52.6134 156.388 52.3203 155.563 52.3088C154.531 52.326 153.815 52.6881 153.402 53.4641C152.301 55.5389 153.505 60.2003 156.153 64.0741L155.672 64.4017Z" fill="#263238"/>
<path d="M156.159 65.4249C156.644 65.4249 157.036 64.851 157.036 64.1432C157.036 63.4353 156.644 62.8615 156.159 62.8615C155.675 62.8615 155.282 63.4353 155.282 64.1432C155.282 64.851 155.675 65.4249 156.159 65.4249Z" fill="#263238"/>
<path d="M160.349 63.7983C160.349 64.5053 159.959 65.08 159.472 65.08C158.991 65.08 158.595 64.5053 158.595 63.7983C158.595 63.0914 158.985 62.5166 159.472 62.5166C159.954 62.5223 160.349 63.0971 160.349 63.7983Z" fill="#263238"/>
<path d="M171.67 53.3607C171.744 54.1769 171.165 54.8953 170.374 54.97C169.583 55.0448 168.878 54.447 168.804 53.6308C168.729 52.8147 169.308 52.0962 170.099 52.0215C170.89 51.9468 171.59 52.5503 171.67 53.3607Z" fill="#263238"/>
<path d="M155.282 52.3146C155.168 52.3146 155.053 52.2456 155.013 52.1307C154.967 52.01 153.866 49.1304 154.342 44.8542C154.359 44.6933 154.503 44.5841 154.663 44.5956C154.824 44.6128 154.938 44.7565 154.921 44.9174C154.463 49.0385 155.546 51.8835 155.557 51.9123C155.615 52.0617 155.54 52.2341 155.391 52.2916C155.351 52.3088 155.317 52.3146 155.282 52.3146Z" fill="#263238"/>
<path d="M170.793 53.3434C170.638 53.3434 170.512 53.2227 170.5 53.0676C170.494 53.0043 170.087 46.5728 165.078 45.3888C164.923 45.3543 164.826 45.1933 164.86 45.0382C164.894 44.883 165.055 44.7795 165.21 44.8198C170.649 46.1015 171.079 52.9641 171.079 53.0331C171.091 53.194 170.964 53.332 170.804 53.3434C170.804 53.3434 170.798 53.3434 170.793 53.3434Z" fill="#263238"/>
<path d="M156.28 75.3395L161.318 56.177C161.467 55.6022 162.08 55.1481 162.677 55.1711L176.33 55.6827C176.932 55.7057 177.293 56.1884 177.138 56.769L172.1 75.9315C171.951 76.5062 171.338 76.9603 170.741 76.9373L157.088 76.4258C156.492 76.4028 156.131 75.9142 156.28 75.3395Z" fill="#263238"/>
<path d="M156.423 75.6786L161.461 56.5161C161.61 55.9413 162.224 55.4872 162.82 55.5102L176.473 56.0218C177.075 56.0448 177.436 56.5276 177.282 57.1081L172.243 76.2706C172.094 76.8453 171.481 77.2994 170.885 77.2764L157.231 76.7649C156.629 76.7419 156.268 76.2533 156.423 75.6786Z" fill="#0094B8"/>
<path d="M154.629 69.2125L154.87 67.0744L158.125 63.6948C158.601 63.2005 159.237 62.8902 159.914 62.8097L161.301 62.6545C161.782 62.597 162.224 62.8959 162.344 63.3557L163.021 65.9766C163.147 66.4537 162.877 66.9652 162.401 67.1491L159.381 68.178C159.381 68.1722 156.578 70.1436 154.629 69.2125Z" fill="#FFB573"/>
<path d="M153.03 51.5674C152.823 51.8318 152.56 52.1996 152.325 52.533L151.608 53.5733C151.138 54.2745 150.679 54.9872 150.238 55.7056C149.355 57.1425 148.541 58.6197 147.825 60.1083C147.114 61.5969 146.501 63.1028 146.082 64.5857C145.658 66.0571 145.452 67.5112 145.549 68.7067L144.26 66.5744C143.893 66.3387 143.91 66.4249 143.99 66.4364C144.076 66.4652 144.231 66.5111 144.426 66.5456C144.804 66.6146 145.28 66.6606 145.767 66.6778C146.747 66.7181 147.808 66.6721 148.857 66.5801C149.911 66.4881 150.966 66.3387 151.998 66.1433C153.03 65.9421 154.044 65.6892 154.967 65.3731L156.87 69.9769C155.661 70.5345 154.474 70.9483 153.27 71.3104C152.072 71.661 150.869 71.9541 149.642 72.184C148.415 72.4139 147.177 72.5864 145.859 72.6668C145.194 72.7013 144.518 72.7185 143.755 72.6668C143.377 72.6438 142.964 72.5921 142.494 72.4886C142.018 72.3679 141.48 72.2645 140.637 71.707L139.559 70.9885L139.347 69.5746C138.992 67.1951 139.256 65.0168 139.691 63.0108C140.133 60.9992 140.775 59.1255 141.503 57.3265C142.236 55.5275 143.062 53.7974 143.962 52.1191C144.409 51.28 144.873 50.4523 145.36 49.6304L146.1 48.4062C146.358 47.9866 146.598 47.613 146.914 47.1475L153.03 51.5674Z" fill="#407BFF"/>
<path opacity="0.6" d="M153.03 51.5674C152.823 51.8318 152.56 52.1996 152.325 52.533L151.608 53.5733C151.138 54.2745 150.679 54.9872 150.238 55.7056C149.355 57.1425 148.541 58.6197 147.825 60.1083C147.114 61.5969 146.501 63.1028 146.082 64.5857C145.658 66.0571 145.452 67.5112 145.549 68.7067L144.26 66.5744C143.893 66.3387 143.91 66.4249 143.99 66.4364C144.076 66.4652 144.231 66.5111 144.426 66.5456C144.804 66.6146 145.28 66.6606 145.767 66.6778C146.747 66.7181 147.808 66.6721 148.857 66.5801C149.911 66.4881 150.966 66.3387 151.998 66.1433C153.03 65.9421 154.044 65.6892 154.967 65.3731L156.87 69.9769C155.661 70.5345 154.474 70.9483 153.27 71.3104C152.072 71.661 150.869 71.9541 149.642 72.184C148.415 72.4139 147.177 72.5864 145.859 72.6668C145.194 72.7013 144.518 72.7185 143.755 72.6668C143.377 72.6438 142.964 72.5921 142.494 72.4886C142.018 72.3679 141.48 72.2645 140.637 71.707L139.559 70.9885L139.347 69.5746C138.992 67.1951 139.256 65.0168 139.691 63.0108C140.133 60.9992 140.775 59.1255 141.503 57.3265C142.236 55.5275 143.062 53.7974 143.962 52.1191C144.409 51.28 144.873 50.4523 145.36 49.6304L146.1 48.4062C146.358 47.9866 146.598 47.613 146.914 47.1475L153.03 51.5674Z" fill="white"/>
</g>
<defs>
<clipPath id="clip0_175_653">
<rect width="222.274" height="208" fill="white" transform="translate(0.862793)"/>
</clipPath>
</defs>
</svg>
