<svg width="30" height="30" viewBox="0 0 30 30" fill="none" xmlns="http://www.w3.org/2000/svg">
<path d="M27.0996 0H22.8996C21.0853 0 19.9996 1.08572 19.9996 2.9V7.10001C19.9996 8.91429 21.0853 10 22.8996 10H27.0996C28.9139 10 29.9996 8.91429 29.9996 7.10001V2.9C29.9996 1.08572 28.9139 0 27.0996 0ZM27.4139 4.72858C27.2425 4.9 27.0139 4.98572 26.7853 4.98572C26.5568 4.98572 26.3282 4.9 26.1568 4.72858L25.8996 4.47143V7.67143C25.8996 8.17144 25.4996 8.57144 24.9996 8.57144C24.4996 8.57144 24.0996 8.17144 24.0996 7.67143V4.47143L23.8425 4.72858C23.4996 5.07143 22.9282 5.07143 22.5853 4.72858C22.2425 4.38572 22.2425 3.81429 22.5853 3.47143L24.3711 1.68572C24.4425 1.61429 24.5425 1.55714 24.6425 1.51429C24.6711 1.5 24.6996 1.5 24.7282 1.48572C24.7996 1.45714 24.8711 1.44286 24.9568 1.44286H25.0425C25.1425 1.44286 25.2282 1.45714 25.3282 1.5H25.3568C25.4568 1.54286 25.5425 1.6 25.6139 1.67143C25.6282 1.68572 25.6282 1.68572 25.6425 1.68572L27.4282 3.47143C27.7711 3.81429 27.7711 4.38572 27.4139 4.72858ZM9.99961 13.4C10.9013 13.4 11.7662 13.0418 12.4038 12.4042C13.0414 11.7665 13.3996 10.9017 13.3996 10C13.3996 9.09827 13.0414 8.23347 12.4038 7.59584C11.7662 6.95822 10.9013 6.60001 9.99961 6.60001C9.09788 6.60001 8.23307 6.95822 7.59545 7.59584C6.95782 8.23347 6.59961 9.09827 6.59961 10C6.59961 10.9017 6.95782 11.7665 7.59545 12.4042C8.23307 13.0418 9.09788 13.4 9.99961 13.4Z" fill="#00424E"/>
<path d="M27.1 9.99917H26.4286V16.5849L26.2429 16.4277C25.1286 15.4706 23.3286 15.4706 22.2143 16.4277L16.2714 21.5278C15.1572 22.4849 13.3572 22.4849 12.2429 21.5278L11.7572 21.1278C10.7429 20.242 9.12858 20.1563 7.98572 20.9278L2.64286 24.5135C2.32857 23.7135 2.14286 22.7849 2.14286 21.6992V9.72774C2.14286 5.69917 4.27143 3.57059 8.30001 3.57059H20V2.89916C20 2.32774 20.1 1.84202 20.3286 1.42773H8.30001C3.1 1.42773 0 4.52774 0 9.72774V21.6992C0 23.2563 0.271429 24.6135 0.800001 25.7563C2.02857 28.4706 4.65715 29.9992 8.30001 29.9992H20.2714C25.4715 29.9992 28.5715 26.8992 28.5715 21.6992V9.6706C28.1572 9.89917 27.6715 9.99917 27.1 9.99917Z" fill="#00424E"/>
</svg>
