<svg width="10" height="12" viewBox="0 0 10 12" fill="none" xmlns="http://www.w3.org/2000/svg">
    <path
        d="M6.01944 2.89819C6.00485 2.89831 5.99048 2.90173 5.97741 2.90821C5.96433 2.91468 5.9529 2.92404 5.94396 2.93557C5.93195 2.95 5.9244 2.96762 5.92223 2.98627C5.92006 3.00492 5.92337 3.02381 5.93174 3.04061L6.85756 4.98367C6.86387 4.99721 6.87317 5.00912 6.88477 5.01852C6.89637 5.02792 6.90995 5.03455 6.9245 5.0379C6.9416 5.04132 6.9758 5.04426 7.00853 5.01885L8.69455 3.68016C8.73852 3.64547 8.73363 3.59905 8.72948 3.58097C8.72533 3.5629 8.70994 3.51868 8.65547 3.50598L8.21625 3.40435L6.55979 3.02058L6.04362 2.90088C6.0356 2.89909 6.02741 2.89819 6.0192 2.89819H6.01944ZM4.08816 4.18119C5.31885 2.6732 5.81205 1.19844 5.43097 0.887461L4.9131 0.464844C4.91236 0.499777 4.90894 0.53642 4.90577 0.572819L4.90528 0.581369C4.8983 0.659932 4.88704 0.738057 4.87157 0.815396C4.87059 0.819549 4.86913 0.824191 4.86839 0.828344C4.85349 0.90163 4.83419 0.977359 4.81221 1.05431C4.80806 1.06897 4.8061 1.08118 4.80146 1.09633C4.79902 1.10488 4.79487 1.11416 4.79218 1.12271C4.76286 1.21847 4.72769 1.31692 4.68836 1.41732C4.67614 1.44908 4.66369 1.48035 4.65025 1.51259C4.61214 1.60469 4.57013 1.69825 4.52494 1.79279C4.51321 1.81722 4.50466 1.84043 4.49245 1.8651C4.4602 1.93228 4.42478 2.00043 4.38667 2.07128C4.37373 2.09522 4.35834 2.12014 4.34515 2.14408C4.29922 2.22787 4.25061 2.3119 4.20053 2.39618C4.18123 2.42891 4.16487 2.46067 4.14484 2.49341C3.98715 2.74984 3.81726 2.99856 3.63576 3.23873C3.60693 3.27733 3.57835 3.31568 3.54879 3.35403C3.48772 3.43318 3.42616 3.51209 3.36314 3.58928C3.26592 3.70825 3.16527 3.82551 3.06243 3.94057C3.02335 3.98454 2.98377 4.0268 2.9442 4.07004C2.78636 4.2407 2.62251 4.40569 2.45295 4.56472C2.31722 4.69187 2.17716 4.81433 2.03304 4.93188C2.00446 4.95534 1.97563 4.98172 1.94705 5.00419C1.93233 5.01659 1.917 5.02825 1.90112 5.03913C1.89819 5.04166 1.89517 5.04411 1.89209 5.04645C1.86253 5.06942 1.83395 5.08921 1.80488 5.11095L1.77214 5.13538C1.47217 5.35572 1.19467 5.51891 0.94428 5.62346L0.916676 5.63519C0.872217 5.65302 0.828736 5.66914 0.786231 5.68331C0.772307 5.68795 0.758627 5.69211 0.744703 5.69626C0.706107 5.70847 0.667755 5.71922 0.63038 5.72802L0.614258 5.73241L1.13189 6.15503C1.51248 6.46625 2.85797 5.6882 4.08792 4.18119H4.08816Z"
        fill="#FB1B1B" />
    <path
        d="M9.20726 5.26032C9.21655 5.25201 9.22436 5.24468 9.23169 5.23735C9.24188 5.22715 9.25319 5.21814 9.2654 5.21048L9.26687 5.20902C9.27203 5.20054 9.27791 5.19253 9.28446 5.18508L9.33014 5.13133C9.33624 5.12303 9.34064 5.11594 9.34577 5.10861C9.35945 5.08663 9.37508 5.05829 9.39023 5.02824C9.40489 4.99404 9.41466 4.9508 9.41466 4.90805C9.41466 4.67842 9.11322 4.42388 8.60707 4.21696L7.2369 5.30502C7.18212 5.34875 7.11812 5.37946 7.04974 5.39482C6.98135 5.41019 6.91036 5.4098 6.84214 5.3937C6.77387 5.37808 6.71003 5.34716 6.65545 5.30328C6.60086 5.2594 6.55695 5.20369 6.52702 5.14037L5.8682 3.75722C5.80713 3.75599 5.74801 3.75477 5.68914 3.75477C5.41482 3.75477 5.12974 3.76699 4.84149 3.78824C4.69312 4.002 4.53667 4.21004 4.37247 4.41191C3.97992 4.89291 3.53459 5.34655 3.09 5.71493C3.09562 5.71664 3.10149 5.7186 3.1071 5.71982C3.15962 5.73643 3.20555 5.75011 3.24928 5.76184C3.34625 5.79115 3.44104 5.8168 3.54021 5.83757C3.69191 5.87201 3.84556 5.90304 4.00679 5.93211C4.10743 5.94823 4.21052 5.96289 4.31702 5.9773C4.37174 5.98463 4.4206 5.99147 4.47141 5.99587C4.55813 6.00588 4.64143 6.01541 4.72741 6.02274L4.88497 6.03495C4.94775 6.03935 5.0142 6.04423 5.0826 6.04643C5.15002 6.05132 5.21548 6.05352 5.279 6.05572C5.33127 6.05865 5.36059 6.05816 5.39381 6.05865C5.49445 6.06109 5.599 6.06182 5.69378 6.06353C5.74997 6.06353 5.80664 6.06353 5.86283 6.06109C5.93806 6.06109 6.00573 6.05865 6.07364 6.05669C6.24268 6.04912 6.40024 6.04204 6.55585 6.02982H6.55927L6.59102 6.02665C6.70608 6.01785 6.80062 6.00832 6.8954 5.9966C7.062 5.97925 7.22005 5.95507 7.37345 5.93137C7.52801 5.90383 7.68195 5.87288 7.83514 5.83854C7.93725 5.8168 8.03203 5.7914 8.12217 5.76379C8.17274 5.75011 8.21891 5.73643 8.26214 5.72275C8.30395 5.7116 8.34513 5.69823 8.38551 5.68269C8.57405 5.61952 8.75713 5.54109 8.93294 5.44817C8.94344 5.44207 8.95248 5.43669 8.96127 5.43107C8.99279 5.41471 9.00769 5.4042 9.02283 5.39443C9.08651 5.35274 9.14806 5.30815 9.20726 5.26032ZM4.51245 0.738067C4.50512 0.772267 4.50023 0.806468 4.49046 0.845554C4.47336 0.906626 4.45626 0.97014 4.43428 1.03854C4.40985 1.11183 4.38298 1.18756 4.35366 1.26573C4.32924 1.3268 4.30237 1.39031 4.2755 1.45383C4.26328 1.48559 4.24862 1.51734 4.23397 1.5491C4.17045 1.6859 4.09961 1.83003 4.01656 1.97905C3.97015 2.06455 3.92129 2.15249 3.86755 2.24043C3.70464 2.51032 3.52855 2.77203 3.3399 3.0246L3.29593 3.08323C3.25929 3.13208 3.21776 3.18094 3.18112 3.2298C3.14692 3.27133 3.11517 3.31286 3.07852 3.35683C2.98814 3.4692 2.89531 3.57669 2.80004 3.68417C2.75852 3.73059 2.71699 3.77456 2.67546 3.82097L2.52157 3.9822C2.42141 4.08725 2.31881 4.18741 2.21866 4.28268C2.19423 4.30466 2.1698 4.32909 2.14537 4.35108C2.07942 4.40971 2.01591 4.46589 1.95239 4.51964C1.92552 4.54407 1.89865 4.56605 1.87178 4.58804C1.40521 4.97645 0.977716 5.23296 0.650381 5.34044C0.616182 5.35021 0.581982 5.36243 0.550226 5.36976C0.530684 5.37464 0.511141 5.37709 0.489156 5.38197C0.454957 5.38686 0.420758 5.39174 0.391444 5.39419C0.374344 5.39663 0.359688 5.39663 0.345031 5.39663C0.310832 5.39663 0.279075 5.39174 0.249762 5.38441C0.23999 5.38441 0.230219 5.38197 0.220448 5.37953C0.185205 5.36925 0.152105 5.3527 0.122736 5.33067C-0.0873447 5.15967 -0.0433743 4.55872 0.376787 3.70372C0.48427 3.86495 0.618624 4.01152 0.777406 4.14099C0.875118 4.22161 0.997258 4.26558 1.12428 4.26558C1.29039 4.26558 1.44429 4.19229 1.54933 4.06282C1.74231 3.8283 1.70567 3.48141 1.47116 3.29087C1.27831 3.13156 1.15624 2.9025 1.13153 2.65358C1.10682 2.40466 1.18148 2.15606 1.33925 1.96195C1.52002 1.73965 1.78873 1.61262 2.07453 1.61262C2.29438 1.61262 2.49958 1.6859 2.66813 1.82515C2.76585 1.90332 2.89043 1.94729 3.01501 1.94729C3.18112 1.94729 3.33746 1.874 3.4425 1.74697C3.63304 1.51002 3.59884 1.16557 3.36433 0.972583C3.20555 0.843111 3.02967 0.74051 2.84157 0.664781C3.61594 0.0638338 4.20954 -0.10961 4.42206 0.0638338C4.42695 0.0662767 4.42939 0.0711624 4.43183 0.0760482C4.44893 0.0907054 4.46359 0.105363 4.4758 0.124906C4.48802 0.144449 4.49779 0.166434 4.50756 0.190863C4.50756 0.193306 4.51 0.195749 4.51245 0.200635C4.55642 0.327664 4.55397 0.513323 4.51245 0.738067Z"
        fill="#FB1B1B" />
    <path
        d="M9.22059 5.70303C9.19476 5.72076 9.16784 5.73683 9.13998 5.75115C9.11363 5.76776 9.08621 5.78262 9.0579 5.79562C8.90913 5.87794 8.72202 5.95733 8.51364 6.02622L8.5112 6.0272L8.50876 6.02793C8.46144 6.0464 8.41307 6.06206 8.3639 6.07484C8.31804 6.09174 8.27112 6.10562 8.22344 6.11636C8.12939 6.14519 8.02386 6.17353 7.9132 6.19674C7.76224 6.23094 7.60053 6.26318 7.43417 6.29298C7.2705 6.31863 7.1061 6.34331 6.93706 6.3609C6.83984 6.37311 6.73871 6.38288 6.63293 6.3907L6.60166 6.39388C6.42749 6.4078 6.26456 6.41513 6.09918 6.4227H6.09552C6.01393 6.42563 5.94186 6.42759 5.87005 6.42759C5.81386 6.43003 5.75035 6.43003 5.68684 6.43003H5.67047C5.57665 6.42936 5.48284 6.42773 5.38906 6.42514C5.35134 6.42614 5.31359 6.42524 5.27596 6.42246C5.19803 6.42001 5.12817 6.41733 5.06319 6.41269C4.9965 6.41024 4.9259 6.40536 4.85555 6.40047L4.69482 6.38777C4.60687 6.38044 4.51918 6.37067 4.43441 6.36065C4.38287 6.35626 4.3284 6.34893 4.27392 6.34135C4.15838 6.32572 4.05163 6.31082 3.94512 6.29347H3.94439C3.78169 6.2658 3.6199 6.23305 3.45925 6.19527C3.35494 6.17353 3.24917 6.14519 3.14901 6.11441C3.10058 6.1043 3.05304 6.09033 3.00684 6.07264L3.00562 6.07215C3.00196 6.07142 2.99756 6.06946 2.99389 6.06848C2.9485 6.05657 2.90387 6.04188 2.86027 6.02451C2.82243 6.01438 2.78543 6.00131 2.74961 5.98543C2.74815 5.98543 2.74619 5.98445 2.74473 5.98396C2.58106 6.10268 2.41935 6.20724 2.26252 6.29421L3.1837 10.5863C3.26431 10.9601 4.16913 11.3576 5.68684 11.3576C7.1916 11.3576 8.02875 10.9642 8.19803 10.5702L9.246 5.6874C9.23759 5.69271 9.22912 5.69792 9.22059 5.70303ZM4.36064 10.2443C4.31251 10.2506 4.26387 10.2375 4.2254 10.2079C4.18693 10.1783 4.16177 10.1346 4.15545 10.0865L3.81394 7.50123C3.81044 7.47721 3.81175 7.45274 3.81779 7.42924C3.82383 7.40573 3.83448 7.38366 3.84912 7.3643C3.86376 7.34494 3.8821 7.32869 3.90307 7.31648C3.92405 7.30427 3.94724 7.29635 3.9713 7.29318C3.99536 7.29001 4.01981 7.29165 4.04323 7.29801C4.06665 7.30436 4.08858 7.31531 4.10773 7.33021C4.12689 7.34511 4.14289 7.36367 4.15481 7.38481C4.16674 7.40595 4.17434 7.42925 4.17719 7.45335L4.51796 10.0386C4.52434 10.0868 4.51132 10.1355 4.48177 10.1741C4.45223 10.2127 4.40881 10.238 4.36064 10.2443ZM5.59377 10.2458H5.59206C5.5438 10.2458 5.4975 10.2268 5.46319 10.1928C5.42889 10.1589 5.40936 10.1128 5.40885 10.0645L5.38442 7.47924C5.38416 7.45518 5.38864 7.43131 5.39761 7.40898C5.40658 7.38665 5.41986 7.36631 5.43669 7.34912C5.45353 7.33192 5.47358 7.31821 5.49571 7.30877C5.51784 7.29932 5.54161 7.29433 5.56567 7.29407H5.56738C5.61568 7.29407 5.66202 7.31314 5.69633 7.34713C5.73064 7.38112 5.75014 7.42729 5.75059 7.47558L5.77502 10.0609C5.77548 10.1094 5.75664 10.1562 5.72266 10.1908C5.68867 10.2255 5.64231 10.2453 5.59377 10.2458ZM7.22311 10.0865C7.22084 10.1111 7.21363 10.1349 7.20193 10.1566C7.19022 10.1783 7.17425 10.1974 7.15498 10.2128C7.13571 10.2282 7.11353 10.2395 7.08977 10.2461C7.06602 10.2528 7.04117 10.2545 7.01673 10.2513C6.99228 10.2481 6.96874 10.2399 6.94751 10.2274C6.92627 10.2148 6.90779 10.1981 6.89317 10.1783C6.87855 10.1584 6.86808 10.1358 6.8624 10.1118C6.85672 10.0878 6.85594 10.0629 6.86011 10.0386L7.20113 7.45335C7.2034 7.4288 7.21061 7.40495 7.22231 7.38325C7.23402 7.36155 7.24999 7.34243 7.26926 7.32705C7.28853 7.31167 7.31071 7.30033 7.33447 7.29373C7.35822 7.28712 7.38307 7.28538 7.40752 7.2886C7.43196 7.29182 7.45551 7.29995 7.47674 7.31249C7.49797 7.32503 7.51645 7.34173 7.53107 7.36158C7.54569 7.38144 7.55616 7.40404 7.56184 7.42804C7.56752 7.45203 7.5683 7.47693 7.56413 7.50123L7.22311 10.0865ZM9.68106 1.02053C8.41251 0.727384 7.14641 1.47002 6.7668 2.6917L8.12646 3.00683C8.26047 2.56272 8.50133 2.15825 8.82793 1.82882C9.15453 1.4994 9.55691 1.25508 9.99984 1.11727C9.89651 1.07818 9.79001 1.04594 9.68106 1.02053ZM1.12442 3.89921C1.08219 3.89915 1.04128 3.88447 1.00863 3.85768C0.29338 3.27384 0.187362 2.21534 0.772657 1.49836C1.35771 0.781127 2.41568 0.672908 3.13142 1.25675C3.15006 1.27199 3.16552 1.29075 3.1769 1.31196C3.18829 1.33318 3.19539 1.35642 3.1978 1.38038C3.2002 1.40433 3.19786 1.42852 3.19092 1.45158C3.18397 1.47463 3.17256 1.49608 3.15732 1.51472C3.14208 1.53336 3.12332 1.54882 3.10211 1.5602C3.0809 1.57159 3.05765 1.57869 3.0337 1.5811C3.00975 1.5835 2.98555 1.58116 2.9625 1.57422C2.93945 1.56727 2.918 1.55586 2.89936 1.54062C2.34045 1.08429 1.5138 1.16979 1.05651 1.73018C0.598974 2.29082 0.68154 3.11774 1.24045 3.57382C1.26985 3.59772 1.29112 3.63014 1.30133 3.66662C1.31154 3.7031 1.31019 3.74185 1.29746 3.77754C1.28474 3.81322 1.26127 3.84408 1.23028 3.86587C1.19929 3.88766 1.1623 3.89931 1.12442 3.89921Z"
        fill="#FB1B1B" />
</svg>
