<svg width="10" height="10" viewBox="0 0 10 10" fill="none" xmlns="http://www.w3.org/2000/svg">
<path d="M5 0C2.24304 0 0 2.24304 0 5C0 7.75697 2.24304 10 5 10C7.75697 10 10 7.75697 10 5C10 2.24304 7.75695 0 5 0ZM1.24999 5C1.24999 4.19136 1.50985 3.44372 1.94679 2.83058L7.1694 8.05319C6.55626 8.49012 5.80862 8.74999 4.99998 8.74999C2.93214 8.74999 1.24999 7.06786 1.24999 5ZM8.05319 7.16942L2.83056 1.94679C3.4437 1.50986 4.19134 1.24999 4.99998 1.24999C7.06784 1.24999 8.74997 2.93212 8.74997 4.99998C8.74997 5.80864 8.49012 6.55628 8.05319 7.16942Z" fill="white"/>
</svg>
