<svg width="10" height="10" viewBox="0 0 10 10" fill="none" xmlns="http://www.w3.org/2000/svg">
<path d="M0.21433 7.67221L0.00454721 9.40881C-0.0052761 9.48275 0.000859029 9.55794 0.0225395 9.62931C0.04422 9.70068 0.0809423 9.76657 0.130233 9.82256C0.179524 9.87854 0.24024 9.92331 0.30829 9.95385C0.37634 9.9844 0.450145 10 0.524734 9.99962C0.546953 9.99967 0.569152 9.99828 0.59119 9.99545L2.32779 9.78567C2.69287 9.73941 3.03212 9.57279 3.29191 9.31215L7.79173 4.81233C7.83078 4.77326 7.85272 4.72029 7.85272 4.66505C7.85272 4.60981 7.83078 4.55683 7.79173 4.51776L5.48307 2.20702C5.44401 2.16797 5.39103 2.14603 5.33579 2.14603C5.28055 2.14603 5.22757 2.16797 5.1885 2.20702L0.687853 6.70809C0.427207 6.96788 0.260585 7.30713 0.21433 7.67221ZM9.68353 1.39351L8.60649 0.316473C8.50622 0.216142 8.38716 0.136553 8.25611 0.0822511C8.12507 0.0279494 7.98462 0 7.84277 0C7.70092 0 7.56046 0.0279494 7.42942 0.0822511C7.29838 0.136553 7.17932 0.216142 7.07905 0.316473L6.06784 1.32768C6.02879 1.36675 6.00685 1.41973 6.00685 1.47497C6.00685 1.53021 6.02879 1.58319 6.06784 1.62225L8.37775 3.93216C8.41681 3.97121 8.46979 3.99315 8.52503 3.99315C8.58027 3.99315 8.63325 3.97121 8.67232 3.93216L9.68353 2.92095C9.78386 2.82068 9.86345 2.70162 9.91775 2.57058C9.97205 2.43954 10 2.29908 10 2.15723C10 2.01538 9.97205 1.87493 9.91775 1.74388C9.86345 1.61284 9.78386 1.49378 9.68353 1.39351ZM9.99997 9.58297C9.99997 9.47247 9.95608 9.36649 9.87794 9.28835C9.7998 9.21022 9.69383 9.16632 9.58332 9.16632H4.79185C4.68135 9.16632 4.57537 9.21022 4.49724 9.28835C4.4191 9.36649 4.3752 9.47247 4.3752 9.58297C4.3752 9.69347 4.4191 9.79945 4.49724 9.87759C4.57537 9.95572 4.68135 9.99962 4.79185 9.99962H9.58332C9.69383 9.99962 9.7998 9.95572 9.87794 9.87759C9.95608 9.79945 9.99997 9.69347 9.99997 9.58297Z" fill="white"/>
</svg>
