<svg width="8" height="14" viewBox="0 0 8 14" fill="none" xmlns="http://www.w3.org/2000/svg">
    <path
        d="M6.76428 2.03553C6.76428 0.913153 5.85113 0 4.72872 0C3.60631 0 2.69316 0.913153 2.69316 2.03553V9.05396C2.17639 9.58391 1.8833 10.2978 1.8833 11.0403C1.8833 11.8202 2.19363 12.5483 2.75713 13.0903C3.31916 13.6323 4.06531 13.9145 4.84078 13.8835C6.3373 13.8256 7.53757 12.607 7.57332 11.1092C7.59167 10.3404 7.29868 9.60133 6.76428 9.05388V2.03553ZM4.72869 12.2572C4.05766 12.2572 3.51172 11.7113 3.51172 11.0402C3.51172 10.5119 3.8502 10.0614 4.32158 9.89353V3.28404C4.32158 3.0592 4.50385 2.87693 4.72869 2.87693C4.95352 2.87693 5.1358 3.0592 5.1358 3.28404V9.89353C5.60721 10.0614 5.94566 10.5119 5.94566 11.0402C5.94568 11.7113 5.39975 12.2572 4.72869 12.2572Z"
        fill="#0094B8" />
    <path
        d="M0.407112 7.62168H1.49274C1.71758 7.62168 1.89986 7.80393 1.89986 8.02879C1.89986 8.25362 1.71758 8.4359 1.49274 8.4359H0.407112C0.182278 8.4359 0 8.25362 0 8.02879C0 7.80395 0.182278 7.62168 0.407112 7.62168Z"
        fill="#00424E" />
    <path
        d="M1.49274 6.80745H0.407112C0.182278 6.80745 0 6.62517 0 6.40034C0 6.1755 0.182278 5.99323 0.407112 5.99323H1.49274C1.71758 5.99323 1.89986 6.1755 1.89986 6.40034C1.89986 6.62517 1.71758 6.80745 1.49274 6.80745Z"
        fill="#00424E" />
    <path
        d="M1.49274 5.179H0.407112C0.182278 5.179 0 4.99672 0 4.77189C0 4.54705 0.182278 4.36478 0.407112 4.36478H1.49274C1.71758 4.36478 1.89986 4.54705 1.89986 4.77189C1.89986 4.99672 1.71758 5.179 1.49274 5.179Z"
        fill="#00424E" />
    <path
        d="M1.49274 3.55055H0.407112C0.182278 3.55055 0 3.36827 0 3.14344C0 2.91861 0.182278 2.73633 0.407112 2.73633H1.49274C1.71758 2.73633 1.89986 2.91861 1.89986 3.14344C1.89986 3.36827 1.71758 3.55055 1.49274 3.55055Z"
        fill="#00424E" />
    <path
        d="M3.72843 10.6367C3.50636 10.6367 3.32568 10.8174 3.32568 11.0395C3.32568 11.2616 3.50636 11.4422 3.72843 11.4422C3.95052 11.4422 4.13117 11.2616 4.13117 11.0395C4.1312 10.8174 3.95052 10.6367 3.72843 10.6367Z"
        fill="#0094B8" />
</svg>
