<svg width="16" height="15" viewBox="0 0 16 15" fill="none" xmlns="http://www.w3.org/2000/svg">
<path d="M3.53635 2.64859H4.41677V1.7645H5.30085V0.884086H4.41677V0H3.53635V0.884086H2.65226V1.7645H3.53635V2.64859ZM1.76818 4.42043H2.6486V5.30085H1.76818V4.42043ZM0.884093 2.65226H1.76451V3.53267H0.884093V2.65226ZM6.98726 8.54856L3.60631 5.16761L1.10024 7.67369C-0.366745 9.14067 -0.366745 11.5191 1.10024 12.9861C2.56722 14.4531 4.94566 14.4531 6.41264 12.9861L7.0798 12.3189C6.79313 11.7162 6.63248 11.0418 6.63248 10.3299C6.63248 9.69868 6.75882 9.09703 6.98726 8.54856Z" fill="#0094B8"/>
<path d="M11.269 5.69331C11.8466 5.69331 12.3993 5.79923 12.9094 5.99219C13.3919 4.66343 13.1005 3.11698 12.0349 2.05141C10.5679 0.584427 8.18948 0.584427 6.7225 2.05141L4.22852 4.54539L7.42276 7.73961C8.25587 6.50512 9.66762 5.69331 11.269 5.69331Z" fill="#0094B8"/>
<path d="M15.4603 10.8804C15.2423 12.7476 13.6554 14.1967 11.7297 14.1967C9.804 14.1967 8.21701 12.7476 7.99902 10.8804H15.4603Z" fill="#00424E"/>
<path d="M7.99866 10.3168C8.21665 8.44969 9.80363 7.00061 11.7293 7.00061C13.655 7.00061 15.242 8.44969 15.46 10.3168L7.99866 10.3168Z" fill="#00424E"/>
</svg>
