<svg width="15" height="15" viewBox="0 0 15 15" fill="none" xmlns="http://www.w3.org/2000/svg">
<g clip-path="url(#clip0_540_999)">
<path d="M3.22266 3.28125H7.61719C7.85988 3.28125 8.05664 3.08449 8.05664 2.8418V1.9043C8.05664 1.6616 7.85988 1.46484 7.61719 1.46484H6.88477C6.88477 0.65584 6.22893 0 5.41992 0C4.61092 0 3.95508 0.65584 3.95508 1.46484H3.22266C2.97996 1.46484 2.7832 1.6616 2.7832 1.9043V2.8418C2.7832 3.08449 2.97996 3.28125 3.22266 3.28125Z" fill="#0094B8"/>
<path d="M10.4004 2.40234H8.93555V2.8418C8.93555 3.56874 8.34413 4.16016 7.61719 4.16016H3.22266C2.49571 4.16016 1.9043 3.56874 1.9043 2.8418V2.40234H0.439453C0.196758 2.40234 0 2.5991 0 2.8418V14.5605C0 14.8032 0.196758 15 0.439453 15H10.4004C10.6431 15 10.8398 14.8032 10.8398 14.5605V2.8418C10.8398 2.5991 10.6431 2.40234 10.4004 2.40234ZM2.19727 6.50391H2.92969V5.77148C2.92969 5.52879 3.12645 5.33203 3.36914 5.33203C3.61184 5.33203 3.80859 5.52879 3.80859 5.77148V6.50391H4.54102C4.78371 6.50391 4.98047 6.70066 4.98047 6.94336C4.98047 7.18605 4.78371 7.38281 4.54102 7.38281H3.80859V8.11523C3.80859 8.35793 3.61184 8.55469 3.36914 8.55469C3.12645 8.55469 2.92969 8.35793 2.92969 8.11523V7.38281H2.19727C1.95457 7.38281 1.75781 7.18605 1.75781 6.94336C1.75781 6.70066 1.95457 6.50391 2.19727 6.50391ZM8.64258 12.6562H2.19727C1.95457 12.6562 1.75781 12.4595 1.75781 12.2168C1.75781 11.9741 1.95457 11.7773 2.19727 11.7773H8.64258C8.88527 11.7773 9.08203 11.9741 9.08203 12.2168C9.08203 12.4595 8.88527 12.6562 8.64258 12.6562ZM8.64258 10.6055H2.19727C1.95457 10.6055 1.75781 10.4087 1.75781 10.166C1.75781 9.92332 1.95457 9.72656 2.19727 9.72656H8.64258C8.88527 9.72656 9.08203 9.92332 9.08203 10.166C9.08203 10.4087 8.88527 10.6055 8.64258 10.6055ZM8.64258 8.55469H6.00586C5.76316 8.55469 5.56641 8.35793 5.56641 8.11523C5.56641 7.87254 5.76316 7.67578 6.00586 7.67578H8.64258C8.88527 7.67578 9.08203 7.87254 9.08203 8.11523C9.08203 8.35793 8.88527 8.55469 8.64258 8.55469ZM8.64258 6.50391H6.00586C5.76316 6.50391 5.56641 6.30715 5.56641 6.06445C5.56641 5.82176 5.76316 5.625 6.00586 5.625H8.64258C8.88527 5.625 9.08203 5.82176 9.08203 6.06445C9.08203 6.30715 8.88527 6.50391 8.64258 6.50391Z" fill="#0094B8"/>
<path d="M14.4141 5.03906H14.5605C14.8032 5.03906 15 5.23582 15 5.47852C15 5.72121 14.8032 5.91797 14.5605 5.91797H14.4141V11.9971C14.4141 12.7497 14.1809 13.4963 13.7549 14.1159V14.5605C13.7549 14.8032 13.5581 15 13.3154 15C13.0727 15 12.876 14.8032 12.876 14.5605V14.1159C12.4499 13.4963 12.2168 12.7497 12.2168 11.9971V5.91797H14.4141V5.03906H12.2168V3.42773C12.2168 3.18504 12.4136 2.98828 12.6562 2.98828H13.9746C14.2173 2.98828 14.4141 3.18504 14.4141 3.42773V5.03906Z" fill="#00424E"/>
</g>
<defs>
<clipPath id="clip0_540_999">
<rect width="15" height="15" fill="white"/>
</clipPath>
</defs>
</svg>
