<svg width="15" height="15" viewBox="0 0 15 15" fill="none" xmlns="http://www.w3.org/2000/svg">
<path d="M13.9769 12.2731H11.5906C10.0868 12.2731 8.86338 11.0496 8.86338 9.54582C8.86338 8.04201 10.0868 6.81852 11.5906 6.81852H13.9769C14.0216 6.81855 14.066 6.80975 14.1074 6.79263C14.1487 6.77551 14.1863 6.7504 14.218 6.71873C14.2496 6.68707 14.2748 6.64947 14.2919 6.6081C14.309 6.56672 14.3178 6.52238 14.3178 6.4776V5.45485C14.3178 4.73996 13.7633 4.15856 13.0627 4.10218L11.1049 0.68239C10.9234 0.366108 10.6305 0.14005 10.2799 0.0461811C9.93101 -0.0470482 9.56616 0.00191557 9.25389 0.183676L2.54236 4.09119H1.3636C0.611572 4.09119 0 4.70276 0 5.45485V13.6368C0 14.3889 0.61154 15.0005 1.3636 15.0005H12.9542C13.7062 15.0005 14.3178 14.3889 14.3178 13.6368V12.614C14.3178 12.5693 14.309 12.5249 14.2919 12.4835C14.2748 12.4422 14.2496 12.4046 14.218 12.3729C14.1863 12.3412 14.1487 12.3161 14.1074 12.299C14.066 12.2819 14.0216 12.2731 13.9769 12.2731ZM11.5277 2.79371L12.2705 4.09119H9.29918L11.5277 2.79371ZM3.89743 4.09119L9.5971 0.772935C9.75124 0.68271 9.93133 0.65874 10.1035 0.704699C10.2776 0.751298 10.4227 0.863831 10.513 1.0213L10.5137 1.02255L5.24326 4.09119H3.89743Z" fill="#0094B8"/>
<path d="M13.9776 7.5H11.5913C10.4634 7.5 9.5459 8.41753 9.5459 9.54548C9.5459 10.6734 10.4634 11.591 11.5913 11.591H13.9776C14.5415 11.591 15.0003 11.1322 15.0003 10.5682V8.52274C15.0003 7.95876 14.5415 7.5 13.9776 7.5ZM11.5913 10.2273C11.2154 10.2273 10.9095 9.92134 10.9095 9.54548C10.9095 9.16963 11.2154 8.86367 11.5913 8.86367C11.9671 8.86367 12.2731 9.16963 12.2731 9.54548C12.2731 9.92134 11.9672 10.2273 11.5913 10.2273Z" fill="#00424E"/>
</svg>
