<svg width="12" height="9" viewBox="0 0 12 9" fill="none" xmlns="http://www.w3.org/2000/svg">
<path d="M5.9998 5.39999C6.66254 5.39999 7.19979 4.86273 7.19979 4.19999C7.19979 3.53726 6.66254 3 5.9998 3C5.33706 3 4.7998 3.53726 4.7998 4.19999C4.7998 4.86273 5.33706 5.39999 5.9998 5.39999Z" fill="white"/>
<path d="M11.964 3.99062C11.4918 2.7992 10.6685 1.77952 9.60332 1.0669C8.53814 0.354279 7.28145 -0.0175901 6 0.000639547C4.71855 -0.0175901 3.46186 0.354279 2.39668 1.0669C1.3315 1.77952 0.508201 2.7992 0.0360301 3.99062C-0.01201 4.1265 -0.01201 4.27474 0.0360301 4.41062C0.508201 5.60204 1.3315 6.62172 2.39668 7.33434C3.46186 8.04696 4.71855 8.41883 6 8.4006C7.28145 8.41883 8.53814 8.04696 9.60332 7.33434C10.6685 6.62172 11.4918 5.60204 11.964 4.41062C12.012 4.27474 12.012 4.1265 11.964 3.99062ZM6.0012 6.60061H6C5.36348 6.60092 4.75291 6.34837 4.3026 5.89852C3.85229 5.44866 3.59913 4.83833 3.59881 4.20182C3.59849 3.5653 3.85104 2.95473 4.3009 2.50442C4.75076 2.05411 5.36108 1.80095 5.9976 1.80063C6.63412 1.80015 7.24475 2.05255 7.69518 2.5023C8.1456 2.95205 8.39891 3.5623 8.39939 4.19882C8.39987 4.83533 8.14747 5.44597 7.69772 5.89639C7.24797 6.34682 6.63772 6.60013 6.0012 6.60061Z" fill="white"/>
</svg>
