<svg width="14" height="13" viewBox="0 0 14 13" fill="none" xmlns="http://www.w3.org/2000/svg">
<path fill-rule="evenodd" clip-rule="evenodd" d="M9.29488 0.1349C9.25297 0.0909005 9.20231 0.0561748 9.14615 0.0329641C9.09 0.00975347 9.0296 -0.00142652 8.96886 0.000145516H5.03054C4.96931 -0.000242738 4.90861 0.0114611 4.85192 0.0345855C4.79523 0.05771 4.74366 0.0918003 4.70017 0.1349C4.61458 0.221923 4.56625 0.338861 4.56542 0.46092V4.63397H9.43398V0.46092C9.43154 0.338343 9.38168 0.221484 9.29488 0.1349ZM7.33007 1.87367H6.66498C6.54994 1.86251 6.44318 1.80892 6.36549 1.72333C6.28781 1.63775 6.24478 1.52631 6.24478 1.41072C6.24478 1.29514 6.28781 1.1837 6.36549 1.09812C6.44318 1.01253 6.54994 0.958937 6.66498 0.947776H7.33007C7.44511 0.958937 7.55187 1.01253 7.62956 1.09812C7.70724 1.1837 7.75027 1.29514 7.75027 1.41072C7.75027 1.52631 7.70724 1.63775 7.62956 1.72333C7.55187 1.80892 7.44511 1.86251 7.33007 1.87367ZM2.13114 5.56422C2.07026 5.56364 2.00988 5.57514 1.95347 5.59803C1.89706 5.62093 1.84575 5.65478 1.80251 5.69763C1.75926 5.74047 1.72493 5.79146 1.7015 5.84765C1.67807 5.90384 1.66601 5.96411 1.66602 6.02499V9.73727H6.53458V5.56422H2.13114ZM4.43066 7.41601H3.76993C3.70536 7.42227 3.6402 7.41496 3.57863 7.39454C3.51706 7.37413 3.46044 7.34106 3.41241 7.29746C3.36438 7.25387 3.326 7.2007 3.29973 7.14139C3.27346 7.08208 3.2599 7.01793 3.2599 6.95306C3.2599 6.88819 3.27346 6.82404 3.29973 6.76473C3.326 6.70542 3.36438 6.65225 3.41241 6.60866C3.46044 6.56506 3.51706 6.53199 3.57863 6.51157C3.6402 6.49116 3.70536 6.48385 3.76993 6.49011H4.43066C4.49523 6.48385 4.56039 6.49116 4.62196 6.51157C4.68353 6.53199 4.74015 6.56506 4.78818 6.60866C4.83622 6.65225 4.8746 6.70542 4.90086 6.76473C4.92713 6.82404 4.9407 6.88819 4.9407 6.95306C4.9407 7.01793 4.92713 7.08208 4.90086 7.14139C4.8746 7.2007 4.83622 7.25387 4.78818 7.29746C4.74015 7.34106 4.68353 7.37413 4.62196 7.39454C4.56039 7.41496 4.49523 7.42227 4.43066 7.41601ZM12.216 5.69897C12.1732 5.6562 12.1223 5.62228 12.0664 5.59916C12.0105 5.57604 11.9505 5.56416 11.89 5.56422H7.46482V9.73727H12.3334V6.02499C12.3368 5.9054 12.2949 5.78893 12.216 5.69897ZM10.2469 7.41601H9.56439C9.49982 7.42227 9.43466 7.41496 9.37309 7.39454C9.31152 7.37413 9.2549 7.34106 9.20687 7.29746C9.15883 7.25387 9.12045 7.2007 9.09419 7.14139C9.06792 7.08208 9.05435 7.01793 9.05435 6.95306C9.05435 6.88819 9.06792 6.82404 9.09419 6.76473C9.12045 6.70542 9.15883 6.65225 9.20687 6.60866C9.2549 6.56506 9.31152 6.53199 9.37309 6.51157C9.43466 6.49116 9.49982 6.48385 9.56439 6.49011H10.2251C10.2897 6.48385 10.3548 6.49116 10.4164 6.51157C10.478 6.53199 10.5346 6.56506 10.5826 6.60866C10.6307 6.65225 10.6691 6.70542 10.6953 6.76473C10.7216 6.82404 10.7352 6.88819 10.7352 6.95306C10.7352 7.01793 10.7216 7.08208 10.6953 7.14139C10.6691 7.2007 10.6307 7.25387 10.5826 7.29746C10.5346 7.34106 10.478 7.37413 10.4164 7.39454C10.3548 7.41496 10.2897 7.42227 10.2251 7.41601H10.2469Z" fill="#0094B8"/>
<path d="M13.49 10.6662H0.510034C0.445469 10.66 0.380308 10.6673 0.318737 10.6877C0.257165 10.7081 0.200545 10.7412 0.152513 10.7848C0.104481 10.8284 0.0660994 10.8815 0.039834 10.9409C0.0135685 11.0002 0 11.0643 0 11.1292C0 11.1941 0.0135685 11.2582 0.039834 11.3175C0.0660994 11.3768 0.104481 11.43 0.152513 11.4736C0.200545 11.5172 0.257165 11.5503 0.318737 11.5707C0.380308 11.5911 0.445469 11.5984 0.510034 11.5921H1.90105V12.5224C1.91221 12.6374 1.96581 12.7442 2.05139 12.8219C2.13697 12.8995 2.24842 12.9426 2.364 12.9426C2.47958 12.9426 2.59102 12.8995 2.67661 12.8219C2.76219 12.7442 2.81579 12.6374 2.82695 12.5224V11.5921H11.1731V12.5224C11.1842 12.6374 11.2378 12.7442 11.3234 12.8219C11.409 12.8995 11.5204 12.9426 11.636 12.9426C11.7516 12.9426 11.863 12.8995 11.9486 12.8219C12.0342 12.7442 12.0878 12.6374 12.0989 12.5224V11.5921H13.49C13.5545 11.5984 13.6197 11.5911 13.6813 11.5707C13.7428 11.5503 13.7995 11.5172 13.8475 11.4736C13.8955 11.43 13.9339 11.3768 13.9602 11.3175C13.9864 11.2582 14 11.1941 14 11.1292C14 11.0643 13.9864 11.0002 13.9602 10.9409C13.9339 10.8815 13.8955 10.8284 13.8475 10.7848C13.7995 10.7412 13.7428 10.7081 13.6813 10.6877C13.6197 10.6673 13.5545 10.66 13.49 10.6662Z" fill="#00424E"/>
</svg>
