<svg width="15" height="15" viewBox="0 0 15 15" fill="none" xmlns="http://www.w3.org/2000/svg">
<path d="M8.06613 10.9169L10.2838 8.69919V5.72115C10.2838 5.06141 9.66256 4.4827 8.95426 4.4827H8.40872V3.48654H8.69846C9.16844 3.48654 9.58067 3.08246 9.58067 2.62179V0.920653C9.58067 0.486065 9.20339 0 8.69846 0H7.55464V2.60758H6.67568V0H5.59605V2.60758H4.71709V0H3.56679V2.60758H2.68783V0H1.61468C1.10975 0 0.732467 0.486065 0.732467 0.920653V2.62179C0.732467 3.08246 1.1447 3.48654 1.61468 3.48654H1.84582V4.4827H1.38817C0.702582 4.4827 0 5.04769 0 5.72115V13.7112C0 14.3621 0.687611 15.0009 1.38817 15.0009H8.16422L8.06613 14.9028C6.96723 13.8039 6.96723 12.0158 8.06613 10.9169ZM5.59605 10.1813V11.6498C5.59605 11.8925 5.39928 12.0893 5.15657 12.0893C4.91386 12.0893 4.71709 11.8925 4.71709 11.6498V10.1813H3.24855C3.00584 10.1813 2.80907 9.98452 2.80907 9.74181C2.80907 9.4991 3.00584 9.30233 3.24855 9.30233H4.71709V7.83379C4.71709 7.59108 4.91386 7.39431 5.15657 7.39431C5.39928 7.39431 5.59605 7.59108 5.59605 7.83379V9.30233H7.06459C7.3073 9.30233 7.50407 9.4991 7.50407 9.74181C7.50407 9.98452 7.3073 10.1813 7.06459 10.1813H5.59605Z" fill="#0094B8"/>
<path d="M8.68778 11.5377C7.93155 12.2939 7.93155 13.5244 8.68778 14.2806L8.83931 14.4321C9.59551 15.1883 10.826 15.1883 11.5822 14.4321L12.7292 13.285L9.83482 10.3906L8.68778 11.5377Z" fill="#00424E"/>
<path d="M14.0412 11.4623C14.7975 10.7061 14.7975 9.47565 14.0412 8.71942L13.8897 8.56788C13.1335 7.81169 11.903 7.81166 11.1468 8.56789L9.99977 9.71496L12.8942 12.6094L14.0412 11.4623Z" fill="#00424E"/>
</svg>
