<svg width="16" height="15" viewBox="0 0 16 15" fill="none" xmlns="http://www.w3.org/2000/svg">
<path d="M10.359 1.4505L4.00019 4.26865L6.92311 5.56411L13.2819 2.74589L10.359 1.4505ZM3.05104 3.84801L9.40991 1.02985L7.2348 0.0659744C7.13664 0.0224734 7.03047 0 6.92311 0C6.81575 0 6.70958 0.0224734 6.61143 0.0659744L0.564522 2.746L3.05104 3.84801ZM6.53852 6.23499L0 3.33708V10.9021C2.14892e-05 11.051 0.0432691 11.1967 0.124494 11.3215C0.205718 11.4463 0.321427 11.5449 0.457574 11.6052L6.53848 14.3002L6.53852 6.23499ZM7.30774 11.43V14.3003L8.13184 13.9351C7.59578 13.2099 7.30688 12.3318 7.30774 11.43Z" fill="#0094B8"/>
<path d="M11.5384 7.20008C12.3582 7.19938 13.1603 7.43835 13.8461 7.88758V3.33789L7.30762 6.2358V11.4308C7.30888 10.3091 7.75502 9.23378 8.54817 8.44064C9.34132 7.6475 10.4167 7.20135 11.5384 7.20008Z" fill="#0094B8"/>
<path d="M12 8C10.0921 8 8.54004 9.55208 8.54004 11.46C8.54004 13.3679 10.0921 14.92 12 14.92C13.908 14.92 15.46 13.3679 15.46 11.46C15.46 9.55208 13.908 8 12 8Z" fill="#00424E"/>
<path d="M13.274 12.3267C13.3867 12.4395 13.3867 12.6217 13.274 12.7344C13.2472 12.7612 13.2155 12.7825 13.1805 12.797C13.1455 12.8115 13.108 12.8189 13.0701 12.8189C12.9963 12.8189 12.9225 12.7907 12.8662 12.7344L11.9998 11.868L11.1334 12.7344C11.1067 12.7613 11.0749 12.7825 11.0399 12.797C11.0049 12.8115 10.9674 12.819 10.9296 12.8189C10.8917 12.819 10.8542 12.8115 10.8192 12.797C10.7842 12.7825 10.7524 12.7613 10.7257 12.7344C10.6129 12.6217 10.6129 12.4395 10.7257 12.3267L11.5921 11.4603L10.7257 10.5939C10.6129 10.4811 10.6129 10.2989 10.7257 10.1861C10.8384 10.0734 11.0206 10.0734 11.1334 10.1861L11.9998 11.0526L12.8662 10.1861C12.979 10.0734 13.1612 10.0734 13.274 10.1861C13.3867 10.2989 13.3867 10.4811 13.274 10.5939L12.4075 11.4603L13.274 12.3267Z" fill="#FAFAFA"/>
</svg>
