<svg width="16" height="12" viewBox="0 0 16 12" fill="none" xmlns="http://www.w3.org/2000/svg">
<path d="M7.99989 7.19998C8.88355 7.19998 9.59989 6.48364 9.59989 5.59999C9.59989 4.71634 8.88355 4 7.99989 4C7.11624 4 6.3999 4.71634 6.3999 5.59999C6.3999 6.48364 7.11624 7.19998 7.99989 7.19998Z" fill="#00424E"/>
<path d="M15.952 5.32083C15.3224 3.73226 14.2247 2.37269 12.8044 1.42253C11.3842 0.472372 9.70859 -0.0234535 8 0.000852729C6.29141 -0.0234535 4.61581 0.472372 3.19557 1.42253C1.77534 2.37269 0.677601 3.73226 0.0480402 5.32083C-0.0160134 5.502 -0.0160134 5.69965 0.0480402 5.88082C0.677601 7.46939 1.77534 8.82896 3.19557 9.77912C4.61581 10.7293 6.29141 11.2251 8 11.2008C9.70859 11.2251 11.3842 10.7293 12.8044 9.77912C14.2247 8.82896 15.3224 7.46939 15.952 5.88082C16.016 5.69965 16.016 5.502 15.952 5.32083ZM8.0016 8.80081H8C7.15131 8.80123 6.33721 8.4645 5.7368 7.86469C5.13639 7.26487 4.79884 6.45111 4.79842 5.60242C4.79799 4.75374 5.13473 3.93964 5.73454 3.33923C6.33435 2.73881 7.14811 2.40126 7.9968 2.40084C8.84549 2.4002 9.65967 2.73673 10.2602 3.3364C10.8608 3.93606 11.1985 4.74974 11.1992 5.59842C11.1998 6.44711 10.8633 7.26129 10.2636 7.86186C9.66396 8.46242 8.85029 8.80017 8.0016 8.80081Z" fill="#0094B8"/>
</svg>
