<svg width="10" height="10" viewBox="0 0 10 10" fill="none" xmlns="http://www.w3.org/2000/svg">
<g clip-path="url(#clip0_500_4074)">
<path d="M8.15625 2.625L8.4375 2.35938L8.625 2.54688C8.65625 2.57812 8.6875 2.59375 8.73438 2.59375C8.78125 2.59375 8.8125 2.57812 8.84375 2.54688L9.3125 2.07812C9.34375 2.04688 9.35938 2.01562 9.35938 1.96875C9.35938 1.92188 9.34375 1.89062 9.3125 1.85938L8.60937 1.15625C8.54687 1.09375 8.45312 1.09375 8.39062 1.15625L7.92187 1.625C7.85937 1.6875 7.85937 1.78125 7.92187 1.84375L8.10938 2.03125L7.82812 2.3125C7.1875 1.78125 6.39062 1.40625 5.51562 1.3125V0.921875H6.04688C6.125 0.921875 6.20312 0.859375 6.20312 0.765625V0.15625C6.20312 0.078125 6.14062 0 6.04688 0H3.95312C3.875 0 3.79687 0.0625 3.79687 0.15625V0.765625C3.79687 0.84375 3.85937 0.921875 3.95312 0.921875H4.48437V1.3125C3.625 1.40625 2.82812 1.78125 2.1875 2.3125L1.92188 2.04688L2.10937 1.85938C2.17187 1.79687 2.17187 1.70312 2.10937 1.64062L1.64062 1.17188C1.60937 1.14062 1.5625 1.125 1.53125 1.125C1.48437 1.125 1.45312 1.14062 1.42188 1.17188L0.71875 1.875C0.6875 1.90625 0.671875 1.9375 0.671875 1.98438C0.671875 2.03125 0.6875 2.0625 0.71875 2.09375L1.1875 2.5625C1.21875 2.59375 1.25 2.60938 1.29688 2.60938C1.34375 2.60938 1.375 2.59375 1.40625 2.5625L1.59375 2.375L1.85937 2.625C1.10937 3.40625 0.640625 4.46875 0.640625 5.65625C0.640625 8.04688 2.59375 10 5 10C7.40625 10 9.35938 8.04688 9.35938 5.64062C9.35938 4.46875 8.90625 3.40625 8.15625 2.625ZM7.5625 7.875L7.48438 7.8125L7.07812 7.40625C7.03125 7.35938 6.98437 7.34375 6.92187 7.34375C6.85937 7.34375 6.79687 7.375 6.76562 7.40625C6.67187 7.5 6.67187 7.64062 6.76562 7.73438L7.25 8.21875C6.70312 8.70312 6 9 5.23437 9.04688V8.35938C5.23437 8.23438 5.125 8.125 5 8.125C4.875 8.125 4.76562 8.23438 4.76562 8.35938V9.04688C4 9 3.29687 8.6875 2.75 8.21875L3.23437 7.73438C3.32812 7.64062 3.32812 7.5 3.23437 7.40625C3.1875 7.35938 3.14062 7.34375 3.07812 7.34375C3.01562 7.34375 2.95312 7.375 2.92187 7.40625L2.4375 7.89062C1.95312 7.34375 1.65625 6.64062 1.60937 5.875H2.29687C2.42187 5.875 2.53125 5.76562 2.53125 5.64062C2.53125 5.51562 2.42187 5.40625 2.29687 5.40625H1.60937C1.65625 4.64062 1.96875 3.9375 2.4375 3.39062L2.92187 3.875C2.96875 3.92188 3.01562 3.9375 3.07812 3.9375C3.14062 3.9375 3.20312 3.90625 3.23437 3.875C3.32812 3.78125 3.32812 3.64063 3.23437 3.54688L2.75 3.0625C3.29687 2.57812 4 2.28125 4.76562 2.23438V2.92188C4.76562 3.04688 4.875 3.15625 5 3.15625C5.125 3.15625 5.23437 3.04688 5.23437 2.92188V2.23438C6 2.28125 6.70312 2.59375 7.25 3.0625L6.76562 3.54688C6.67187 3.64063 6.67187 3.78125 6.76562 3.875C6.8125 3.92188 6.85937 3.9375 6.92187 3.9375C6.98437 3.9375 7.04687 3.90625 7.07812 3.875L7.5625 3.39062C8.04687 3.9375 8.34375 4.64062 8.39062 5.40625H7.70312C7.57812 5.40625 7.46875 5.51562 7.46875 5.64062C7.46875 5.76562 7.57812 5.875 7.70312 5.875H8.39062C8.34375 6.64062 8.04687 7.32812 7.5625 7.875Z" fill="#0094B8"/>
<path d="M6.1875 4C6.14062 3.96875 6.10938 3.95312 6.04688 3.95312C5.96875 3.95312 5.90625 3.98438 5.85938 4.04688L5.09375 5.10938C5.0625 5.10938 5.03125 5.09375 5 5.09375C4.70312 5.09375 4.46875 5.32813 4.46875 5.625C4.46875 5.92188 4.70312 6.15625 5 6.15625C5.29687 6.15625 5.53125 5.92188 5.53125 5.625C5.53125 5.53125 5.5 5.4375 5.46875 5.375L6.23438 4.3125C6.3125 4.21875 6.29687 4.07813 6.1875 4Z" fill="#0094B8"/>
</g>
<defs>
<clipPath id="clip0_500_4074">
<rect width="10" height="10" fill="white"/>
</clipPath>
</defs>
</svg>
