<svg width="21" height="22" viewBox="0 0 21 22" fill="none" xmlns="http://www.w3.org/2000/svg">
<path fill-rule="evenodd" clip-rule="evenodd" d="M13.0797 0.678709L13.8132 2.80592C14.4229 3.06724 14.9992 3.40029 15.5301 3.79801L17.7405 3.36904C17.9971 3.31911 18.2616 3.41018 18.4339 3.60705C19.3303 4.63521 20.0184 5.82763 20.4603 7.1181C20.502 7.23984 20.5111 7.37041 20.4865 7.49674C20.4619 7.62307 20.4046 7.74072 20.3202 7.83793L18.8443 9.53617C18.9227 10.1949 18.9227 10.8606 18.8443 11.5194L20.3202 13.2186C20.4046 13.3158 20.4619 13.4335 20.4865 13.5598C20.5111 13.6861 20.502 13.8167 20.4603 13.9384C20.0185 15.2289 19.3303 16.4213 18.4339 17.4495C18.2616 17.6463 17.9971 17.7374 17.7405 17.6875L15.5311 17.2585C14.9998 17.6559 14.4231 17.9886 13.8132 18.2496L13.0797 20.3778C13.0378 20.4994 12.9648 20.6079 12.8678 20.6925C12.7709 20.777 12.6535 20.8347 12.5273 20.8597C11.1885 21.1221 9.81149 21.1221 8.47269 20.8597C8.34652 20.8347 8.2291 20.777 8.13217 20.6925C8.03524 20.6079 7.9622 20.4994 7.92032 20.3778L7.18679 18.2506C6.57711 17.9893 6.00076 17.6562 5.46992 17.2585L3.25948 17.6876C3.00288 17.7375 2.73845 17.6464 2.56608 17.4495C1.66974 16.4214 0.981552 15.2289 0.539729 13.9385C0.497983 13.8167 0.488945 13.6862 0.51352 13.5598C0.538095 13.4335 0.595422 13.3158 0.679761 13.2186L2.1557 11.5204C2.07735 10.8616 2.07735 10.1959 2.1557 9.53713L0.679799 7.83793C0.595464 7.74072 0.538137 7.62306 0.513556 7.49674C0.488974 7.37041 0.498 7.23984 0.539729 7.1181C0.981563 5.82762 1.66973 4.6352 2.56604 3.60701C2.73841 3.41014 3.00285 3.31907 3.25944 3.36904L5.46892 3.79801C6.00016 3.40063 6.57683 3.06791 7.18675 2.80688L7.92028 0.678709C7.96216 0.557091 8.03521 0.448586 8.13213 0.364032C8.22906 0.279478 8.34648 0.221833 8.47265 0.196855C9.81145 -0.0656184 11.1885 -0.0656184 12.5273 0.196855C12.6535 0.22182 12.7709 0.279459 12.8678 0.364015C12.9648 0.44857 13.0378 0.557082 13.0797 0.678709ZM10.5 6.19848C8.11032 6.19848 6.17016 8.13861 6.17016 10.5283C6.17016 12.9181 8.11028 14.8581 10.5 14.8581C12.8897 14.8581 14.8298 12.918 14.8298 10.5283C14.8298 8.13861 12.8897 6.19848 10.5 6.19848ZM10.5 7.66755C12.0788 7.66755 13.3607 8.94958 13.3607 10.5283C13.3607 12.107 12.0788 13.389 10.5 13.389C8.92125 13.389 7.63926 12.1071 7.63926 10.5283C7.63926 8.94954 8.92125 7.66755 10.5 7.66755Z" fill="#F1F1F1"/>
</svg>
