<svg width="20" height="26" viewBox="0 0 20 26" fill="none" xmlns="http://www.w3.org/2000/svg">
<path d="M19.988 20.801L18.8616 6.60682C18.7917 5.69228 18.018 4.97619 17.101 4.97619H14.8759V8.27298C14.8759 8.68125 14.5454 9.01173 14.1371 9.01173C13.7294 9.01173 13.3984 8.68125 13.3984 8.27298V4.97619H6.60198V8.27298C6.60198 8.68125 6.271 9.01173 5.86322 9.01173C5.45495 9.01173 5.12447 8.68125 5.12447 8.27298V4.97619H2.89938C1.98238 4.97619 1.20864 5.69228 1.13873 6.60485L0.0119042 20.803C-0.0752488 21.9402 0.31923 23.0719 1.0939 23.9082C1.86862 24.7444 2.96688 25.2246 4.10701 25.2246H15.8934C17.0335 25.2246 18.1318 24.7444 18.9065 23.9081C19.6812 23.0719 20.0757 21.9401 19.988 20.801ZM13.3285 13.5727L9.50768 17.3934C9.43915 17.4622 9.35771 17.5167 9.26804 17.5539C9.17837 17.5911 9.08223 17.6102 8.98516 17.6101C8.88808 17.6102 8.79195 17.5911 8.70228 17.5539C8.61261 17.5167 8.53117 17.4622 8.46264 17.3934L6.67194 15.6027C6.38333 15.3141 6.38333 14.8467 6.67194 14.5581C6.96054 14.2695 7.42843 14.2695 7.71654 14.5581L8.98521 15.8263L12.2839 12.5276C12.572 12.2395 13.0399 12.2395 13.3285 12.5276C13.6171 12.8162 13.6171 13.284 13.3285 13.5727ZM10.0002 0C7.31167 0 5.12452 2.18764 5.12452 4.87618V4.97614H6.60203V4.87618C6.60203 3.00222 8.12629 1.47746 10.0003 1.47746C11.8742 1.47746 13.3985 3.00222 13.3985 4.87618V4.97614H14.8759V4.87618C14.8759 2.18764 12.6887 0 10.0002 0Z" fill="#00424E"/>
</svg>
