<svg width="6" height="9" viewBox="0 0 6 9" fill="none" xmlns="http://www.w3.org/2000/svg">
<path d="M0.891039 0.347133L0.611823 0.624421C0.524624 0.711689 0.476586 0.827793 0.476586 0.951881C0.476586 1.0759 0.524624 1.19214 0.611823 1.27941L3.77507 4.44252L0.608313 7.60928C0.521114 7.69641 0.473145 7.81265 0.473145 7.93667C0.473145 8.06069 0.521114 8.177 0.608313 8.2642L0.885808 8.54156C1.06626 8.72215 1.36021 8.72215 1.54066 8.54156L5.32462 4.77115C5.41175 4.68402 5.47315 4.56792 5.47315 4.4428V4.44135C5.47315 4.31726 5.41169 4.20116 5.32462 4.11403L1.55091 0.347133C1.46378 0.259865 1.34417 0.211964 1.22015 0.211826C1.09606 0.211826 0.9781 0.259865 0.891039 0.347133Z" fill="#0094B8"/>
</svg>
