<svg width="20" height="21" viewBox="0 0 20 21" fill="none" xmlns="http://www.w3.org/2000/svg">
<path d="M18.6364 16.892H15.4545C13.4495 16.892 11.8182 15.2608 11.8182 13.2557C11.8182 11.2506 13.4495 9.61936 15.4545 9.61936H18.6364C18.6961 9.6194 18.7552 9.60767 18.8104 9.58484C18.8655 9.56201 18.9157 9.52853 18.9579 9.48631C19.0001 9.44409 19.0336 9.39396 19.0564 9.3388C19.0792 9.28363 19.091 9.2245 19.0909 9.1648V7.80116C19.0909 6.84798 18.3516 6.0728 17.4174 5.99763L14.8069 1.43798C14.565 1.01627 14.1744 0.714867 13.707 0.589711C13.2417 0.465407 12.7553 0.530691 12.3389 0.773035L3.38991 5.98297H1.81819C0.815453 5.98297 0 6.79838 0 7.80116V18.7102C0 19.713 0.815411 20.5284 1.81819 20.5284H17.2727C18.2755 20.5284 19.0909 19.713 19.0909 18.7102V17.3466C19.091 17.2869 19.0792 17.2278 19.0564 17.1726C19.0336 17.1174 19.0001 17.0673 18.9579 17.0251C18.9157 16.9829 18.8655 16.9494 18.8104 16.9266C18.7552 16.9037 18.6961 16.892 18.6364 16.892ZM15.3707 4.25303L16.3611 5.98297H12.3993L15.3707 4.25303ZM5.19673 5.98297L12.7965 1.5587C13.002 1.4384 13.2422 1.40644 13.4717 1.46772C13.7038 1.52985 13.8974 1.67989 14.0177 1.88985L14.0186 1.89151L6.99123 5.98297H5.19673Z" fill="#F1F1F1"/>
<path d="M18.6361 10.5284H15.4543C13.9504 10.5284 12.7271 11.7518 12.7271 13.2557C12.7271 14.7596 13.9504 15.983 15.4543 15.983H18.6361C19.3881 15.983 19.9998 15.3713 19.9998 14.6193V11.8921C19.9998 11.1401 19.3881 10.5284 18.6361 10.5284ZM15.4543 14.1648C14.9532 14.1648 14.5452 13.7568 14.5452 13.2557C14.5452 12.7546 14.9532 12.3466 15.4543 12.3466C15.9555 12.3466 16.3634 12.7546 16.3634 13.2557C16.3634 13.7568 15.9555 14.1648 15.4543 14.1648Z" fill="#F1F1F1"/>
</svg>
