<svg width="15" height="18" viewBox="0 0 15 18" fill="none" xmlns="http://www.w3.org/2000/svg">
<path d="M3.69861 3.86294H9.11096C9.18824 3.8621 9.26207 3.83081 9.31643 3.77586C9.37078 3.72091 9.40126 3.64674 9.40126 3.56945C9.40285 3.11805 9.40126 1.56543 9.40126 1.56543C9.40134 1.52728 9.39389 1.48949 9.37933 1.45423C9.36477 1.41898 9.34339 1.38694 9.31642 1.35997C9.28944 1.33299 9.25741 1.31161 9.22215 1.29705C9.18689 1.28249 9.1491 1.27504 9.11096 1.27513H7.96858C7.63649 -0.424883 5.17308 -0.425202 4.84099 1.27513H3.69861C3.62122 1.27479 3.54686 1.30516 3.49184 1.35959C3.43682 1.41401 3.40563 1.48804 3.40512 1.56543C3.40161 1.82159 3.40512 3.56945 3.40512 3.56945C3.40521 3.64727 3.43616 3.72187 3.49118 3.77689C3.5462 3.83191 3.6208 3.86286 3.69861 3.86294ZM11.5316 3.83136V12.8887C11.7325 12.7909 11.9546 12.7448 12.1778 12.7547C12.401 12.7646 12.6182 12.8302 12.8096 12.9455V2.93813C12.8096 2.81505 12.7853 2.69317 12.7382 2.57946C12.6911 2.46575 12.6221 2.36243 12.5351 2.27539C12.448 2.18836 12.3447 2.11932 12.231 2.07222C12.1173 2.02512 11.9954 2.00088 11.8723 2.00088H10.0326V3.20036H10.8971C11.0649 3.2001 11.2259 3.26639 11.3448 3.38468C11.4638 3.50297 11.5309 3.66361 11.5316 3.83136ZM14.7568 15.5333L13.9111 14.6876L12.7084 15.89C12.8935 16.0814 13.3694 16.551 13.5545 16.7325C13.7139 16.8898 13.9291 16.9777 14.1531 16.9771C14.3771 16.9765 14.5918 16.8874 14.7504 16.7292C14.909 16.5711 14.9987 16.3567 15 16.1327C15.0012 15.9087 14.9136 15.6933 14.7568 15.5333ZM12.7183 13.4945C12.5619 13.339 12.3511 13.2502 12.1304 13.2471C11.9098 13.2439 11.6966 13.3266 11.5357 13.4776C11.3749 13.6286 11.2789 13.8362 11.2682 14.0566C11.2574 14.277 11.3326 14.4929 11.478 14.6589L12.3617 15.5426L13.564 14.3405L12.7183 13.4945Z" fill="#0094B8"/>
<path d="M1.93444 15.4894L9.32561 15.4638C9.43914 15.1349 9.62991 14.838 9.88192 14.598C10.1339 14.3581 10.4398 14.182 10.7739 14.0848C10.7745 13.9125 10.8089 13.742 10.875 13.583V3.83142L9.99138 3.84737C9.93196 4.03447 9.81469 4.19789 9.65647 4.31409C9.49824 4.4303 9.30722 4.49329 9.11091 4.49401H3.69857C3.50362 4.49306 3.31386 4.43107 3.15595 4.31675C2.99803 4.20244 2.87988 4.04153 2.8181 3.85662H1.91211L1.93444 15.4894ZM9.60347 14.3218H5.70866C5.6216 14.3218 5.53811 14.2872 5.47654 14.2256C5.41498 14.1641 5.3804 14.0806 5.3804 13.9935C5.3804 13.9065 5.41498 13.823 5.47654 13.7614C5.53811 13.6998 5.6216 13.6653 5.70866 13.6653H9.60283C9.68808 13.6679 9.76894 13.7036 9.8283 13.7649C9.88766 13.8261 9.92086 13.9081 9.92086 13.9934C9.92086 14.0786 9.88766 14.1606 9.8283 14.2218C9.76894 14.2831 9.68808 14.3188 9.60283 14.3215L9.60347 14.3218ZM9.60347 11.0299C9.69053 11.0299 9.77402 11.0645 9.83558 11.1261C9.89714 11.1876 9.93173 11.2711 9.93173 11.3582C9.93173 11.4452 9.89714 11.5287 9.83558 11.5903C9.77402 11.6518 9.69053 11.6864 9.60347 11.6864H5.70866C5.6216 11.6864 5.53811 11.6518 5.47654 11.5903C5.41498 11.5287 5.3804 11.4452 5.3804 11.3582C5.3804 11.2711 5.41498 11.1876 5.47654 11.1261C5.53811 11.0645 5.6216 11.0299 5.70866 11.0299H9.60347ZM4.3988 6.75675C4.39922 6.66982 4.43394 6.58657 4.49541 6.5251C4.55688 6.46363 4.64013 6.42891 4.72706 6.42849H5.45281V5.70274C5.45332 5.61578 5.48811 5.53253 5.54963 5.47107C5.61115 5.4096 5.69443 5.3749 5.78139 5.37448H7.02777C7.07092 5.37444 7.11365 5.38291 7.15352 5.39941C7.19338 5.41591 7.2296 5.44012 7.26009 5.47064C7.29059 5.50117 7.31476 5.53741 7.33122 5.57729C7.34769 5.61717 7.35612 5.65991 7.35603 5.70306V6.42849H8.08178C8.16925 6.42832 8.25322 6.46279 8.31533 6.52437C8.37745 6.58594 8.41265 6.66961 8.41324 6.75707V8.00345C8.4132 8.04681 8.40457 8.08974 8.38786 8.12976C8.37115 8.16978 8.34668 8.20609 8.31587 8.2366C8.28506 8.26712 8.24851 8.29123 8.20833 8.30756C8.16816 8.32388 8.12515 8.33209 8.08178 8.33171H7.35603V9.06065C7.35608 9.1038 7.3476 9.14653 7.3311 9.1864C7.3146 9.22626 7.29039 9.26248 7.25987 9.29297C7.22934 9.32347 7.1931 9.34764 7.15322 9.3641C7.11334 9.38057 7.0706 9.389 7.02745 9.38891H5.78108C5.69417 9.38841 5.61097 9.35366 5.54951 9.29221C5.48806 9.23076 5.45332 9.14756 5.45281 9.06065V8.33171H4.72706C4.68394 8.33175 4.64124 8.32329 4.60139 8.30681C4.56155 8.29033 4.52534 8.26615 4.49485 8.23566C4.46436 8.20517 4.44018 8.16896 4.4237 8.12912C4.40722 8.08927 4.39876 8.04657 4.3988 8.00345V6.75675ZM2.97569 10.7648C3.03766 10.704 3.12098 10.67 3.20777 10.67C3.29456 10.67 3.37789 10.704 3.43985 10.7648L3.83734 11.1626L4.76853 10.2314C4.83009 10.1695 4.91372 10.1345 5.00104 10.1343C5.08835 10.134 5.1722 10.1684 5.23413 10.23C5.29606 10.2915 5.33101 10.3752 5.33128 10.4625C5.33155 10.5498 5.29712 10.6337 5.23557 10.6956L4.06799 11.86C4.00602 11.9207 3.9227 11.9548 3.83591 11.9548C3.74912 11.9548 3.66579 11.9207 3.60383 11.86L2.97569 11.2287C2.94496 11.1983 2.92056 11.1622 2.90391 11.1224C2.88725 11.0826 2.87867 11.0399 2.87867 10.9967C2.87867 10.9536 2.88725 10.9108 2.90391 10.871C2.92056 10.8312 2.94496 10.7951 2.97569 10.7648ZM2.97569 13.3998C3.03766 13.3391 3.12098 13.305 3.20777 13.305C3.29456 13.305 3.37789 13.3391 3.43985 13.3998L3.83734 13.7976L4.76853 12.8668C4.83057 12.8074 4.91335 12.7746 4.99923 12.7754C5.08511 12.7761 5.16729 12.8104 5.22822 12.871C5.28916 12.9315 5.32403 13.0134 5.32541 13.0993C5.32678 13.1852 5.29454 13.2682 5.23557 13.3306L4.06799 14.495C4.0377 14.5258 4.00158 14.5503 3.96174 14.567C3.92189 14.5837 3.87911 14.5923 3.83591 14.5923C3.7927 14.5923 3.74992 14.5837 3.71008 14.567C3.67023 14.5503 3.63411 14.5258 3.60383 14.495L2.97569 13.8643C2.94496 13.834 2.92056 13.7979 2.90391 13.7581C2.88725 13.7183 2.87867 13.6756 2.87867 13.6324C2.87867 13.5892 2.88725 13.5465 2.90391 13.5067C2.92056 13.4669 2.94496 13.4308 2.97569 13.4005V13.3998Z" fill="#0094B8"/>
<path d="M6.10968 8.00333V8.73227H6.69985V8.00333C6.70027 7.9164 6.73499 7.83315 6.79646 7.77168C6.85793 7.71021 6.94118 7.67549 7.02811 7.67507H7.75386V7.08809H7.02811C6.94065 7.0875 6.85698 7.05229 6.79541 6.99018C6.73383 6.92807 6.69936 6.8441 6.69953 6.75663V6.03088H6.10968V6.75663C6.1101 6.80002 6.10192 6.84307 6.08562 6.88328C6.06931 6.9235 6.0452 6.96008 6.01469 6.99093C5.98417 7.02177 5.94784 7.04627 5.9078 7.063C5.86776 7.07973 5.82481 7.08837 5.78141 7.08841H5.05566V7.67539H5.78141C5.82451 7.67534 5.86719 7.6838 5.90701 7.70026C5.94684 7.71672 5.98303 7.74087 6.01351 7.77133C6.044 7.80178 6.06818 7.83795 6.08468 7.87776C6.10118 7.91757 6.10968 7.96024 6.10968 8.00333ZM12.5508 16.4265H9.71067C9.76738 16.7912 9.94136 17.1276 10.2063 17.3846C10.4712 17.6416 10.8126 17.8053 11.1789 17.8509C11.5452 17.8966 11.9164 17.8217 12.2363 17.6375C12.5562 17.4534 12.8073 17.17 12.9518 16.8304C12.9572 16.8256 12.5499 16.4297 12.5508 16.4265ZM10.8623 14.5708C10.5637 14.6699 10.2984 14.8497 10.0957 15.0903C9.89301 15.3309 9.76085 15.6229 9.71386 15.9339H12.0586C11.7929 15.6341 10.9724 14.9626 10.8623 14.5708Z" fill="#0094B8"/>
<path d="M9.2057 16.1204H1.91247C1.74474 16.1205 1.58378 16.0542 1.46485 15.9359C1.34592 15.8177 1.27872 15.6571 1.27796 15.4894V3.83142C1.27855 3.66361 1.34569 3.50289 1.46465 3.38453C1.58361 3.26617 1.74466 3.19984 1.91247 3.20009H2.7738C2.77316 2.90277 2.77444 2.29984 2.7738 2.00061H0.940445C0.691439 2.00053 0.45257 2.09923 0.276258 2.27506C0.0999449 2.4509 0.000591448 2.6895 0 2.9385V16.3823C0.0007601 16.6312 0.100188 16.8696 0.276482 17.0453C0.452777 17.221 0.691549 17.3196 0.940445 17.3195H9.52759C9.33958 17.0188 9.22889 16.6762 9.20538 16.3223C9.20135 16.255 9.20167 16.1876 9.2057 16.1204Z" fill="#0094B8"/>
</svg>
