<svg width="21" height="18" viewBox="0 0 21 18" fill="none" xmlns="http://www.w3.org/2000/svg">
<path d="M17.6129 9.72287H16.0662C16.2239 10.1545 16.31 10.6203 16.31 11.1058V16.9516C16.31 17.154 16.2748 17.3483 16.2107 17.529H18.7677C19.7229 17.529 20.5 16.7519 20.5 15.7967V12.6099C20.5 11.018 19.2049 9.72287 17.6129 9.72287ZM4.69005 11.1059C4.69005 10.6203 4.77618 10.1546 4.93384 9.72291H3.38712C1.79516 9.72291 0.5 11.0181 0.5 12.61V15.7968C0.5 16.7519 1.27707 17.5291 2.23227 17.5291H4.78938C4.72357 17.3436 4.68997 17.1483 4.69005 16.9516V11.1059ZM12.268 8.21877H8.73201C7.14005 8.21877 5.84489 9.51392 5.84489 11.1059V16.9516C5.84489 17.2705 6.10341 17.529 6.42232 17.529H14.5777C14.8966 17.529 15.1551 17.2705 15.1551 16.9516V11.1059C15.1551 9.51392 13.86 8.21877 12.268 8.21877ZM10.5 0.563477C8.58548 0.563477 7.0279 2.12106 7.0279 4.03563C7.0279 5.33427 7.74466 6.46845 8.80318 7.06392C9.30525 7.34634 9.88408 7.50775 10.5 7.50775C11.116 7.50775 11.6948 7.34634 12.1969 7.06392C13.2554 6.46845 13.9721 5.33423 13.9721 4.03563C13.9721 2.1211 12.4146 0.563477 10.5 0.563477ZM4.40305 3.79977C2.97122 3.79977 1.80637 4.96462 1.80637 6.39646C1.80637 7.8283 2.97122 8.99314 4.40305 8.99314C4.75491 8.99344 5.10312 8.92182 5.4263 8.78267C5.9695 8.54881 6.41739 8.13482 6.69454 7.61626C6.89531 7.24105 7.00016 6.82201 6.99974 6.39646C6.99974 4.96466 5.83489 3.79977 4.40305 3.79977ZM16.597 3.79977C15.1651 3.79977 14.0003 4.96462 14.0003 6.39646C13.9999 6.82201 14.1047 7.24106 14.3055 7.61626C14.5826 8.13486 15.0305 8.54884 15.5737 8.78267C15.8969 8.92182 16.2451 8.99344 16.597 8.99314C18.0288 8.99314 19.1937 7.8283 19.1937 6.39646C19.1937 4.96462 18.0288 3.79977 16.597 3.79977Z" fill="#F1F1F1"/>
</svg>
