<svg width="9" height="9" viewBox="0 0 9 9" fill="none" xmlns="http://www.w3.org/2000/svg">
<path d="M4.49976 0.68042C2.32207 0.68042 0.556824 2.44595 0.556824 4.62336C0.556824 5.36419 0.761363 6.05697 1.11683 6.64894C1.39527 7.11263 1.4459 7.71296 1.11359 8.1397C1.04427 8.22865 1.01313 8.34149 1.02701 8.4534C1.0409 8.56531 1.09867 8.66712 1.18762 8.73644C1.27657 8.80575 1.38941 8.83689 1.50132 8.82301C1.52822 8.81967 1.55453 8.8138 1.57995 8.80557C1.73611 8.755 1.75279 8.70289 1.85368 8.57342C2.08852 8.27203 2.59903 8.09784 2.95 8.24886C3.42569 8.45353 3.94931 8.56745 4.50005 8.56745C4.96142 8.56745 5.40385 8.4875 5.81506 8.34123C6.30994 8.16519 7.21603 8.6624 7.21603 8.6624C7.28544 8.75111 7.38719 8.80867 7.49897 8.82246C7.61075 8.83626 7.72344 8.80517 7.81233 8.736C7.85636 8.70172 7.89321 8.65911 7.92076 8.61059C7.94832 8.56207 7.96605 8.50859 7.97294 8.45322C7.97983 8.39784 7.97574 8.34166 7.96091 8.28786C7.94608 8.23407 7.9208 8.18372 7.88651 8.1397C7.55424 7.71302 7.6055 7.11247 7.88355 6.64863C8.24733 6.04178 8.44362 5.34256 8.44269 4.62336C8.44269 2.44595 6.67745 0.68042 4.49976 0.68042ZM1.31649 4.62336C1.31649 2.86821 2.74491 1.44009 4.50005 1.44009C6.25577 1.44009 7.68361 2.86821 7.68361 4.62336C7.68361 6.37936 6.25606 7.80778 4.50005 7.80778C2.74433 7.80778 1.31649 6.37936 1.31649 4.62336Z" fill="#0094B8"/>
<path d="M4.7598 4.08851L4.76182 2.98307C4.7635 2.94882 4.7582 2.91458 4.74625 2.88243C4.73431 2.85028 4.71596 2.82089 4.69232 2.79604C4.66868 2.77119 4.64025 2.75139 4.60874 2.73786C4.57723 2.72432 4.54329 2.71732 4.509 2.71728C4.4747 2.71724 4.44075 2.72416 4.40921 2.73763C4.37767 2.7511 4.34919 2.77082 4.32549 2.79562C4.3018 2.82042 4.28338 2.84976 4.27137 2.88189C4.25935 2.91401 4.25397 2.94823 4.25557 2.98249L4.25355 4.08101C4.11693 4.14283 4.00848 4.25365 3.94962 4.39157L2.11655 4.38811C2.0515 4.3911 1.9901 4.41902 1.94509 4.46607C1.90007 4.51313 1.8749 4.5757 1.87479 4.64082C1.87468 4.70594 1.89964 4.7686 1.94449 4.81581C1.98934 4.86301 2.05065 4.89114 2.11569 4.89436L3.97243 4.89753C4.02218 4.99469 4.09774 5.07627 4.19081 5.13329C4.28389 5.19032 4.39088 5.22059 4.50004 5.2208C4.57845 5.22083 4.65611 5.20541 4.72856 5.17541C4.80102 5.14541 4.86684 5.10142 4.92228 5.04596C4.97772 4.99049 5.02168 4.92464 5.05164 4.85218C5.08161 4.77971 5.09699 4.70205 5.09692 4.62363C5.09676 4.51175 5.06504 4.40219 5.00541 4.30753C4.94578 4.21287 4.86065 4.13696 4.7598 4.08851ZM0.456658 0.621235C0.178768 0.897078 0.0159521 1.26812 0.00111138 1.65939C-0.0137293 2.05066 0.120512 2.43298 0.376708 2.72908L2.56537 0.558314C2.27124 0.299844 1.89 0.162594 1.49862 0.174272C1.10723 0.185951 0.734853 0.345688 0.456658 0.621235ZM8.54399 0.621235C8.26571 0.345708 7.89326 0.186015 7.50183 0.174391C7.1104 0.162766 6.72913 0.300076 6.43499 0.558603L8.62307 2.72937C8.87927 2.43327 9.01359 2.05099 8.99891 1.65972C8.98423 1.26844 8.82165 0.897307 8.54399 0.621235Z" fill="#0094B8"/>
</svg>
