<svg width="9" height="9" viewBox="0 0 9 9" fill="none" xmlns="http://www.w3.org/2000/svg">
<path d="M8.72086 3.33326C8.3931 3.0577 7.89161 3.09052 7.60704 3.42983L7.43604 3.63215L8.64815 4.64919L8.81144 4.4476C9.09229 4.11357 9.05676 3.61469 8.72086 3.33326ZM5.29756 6.16238L5.20735 6.26913C5.12878 6.36332 5.073 6.47436 5.04434 6.59362L4.79918 7.61962C4.78783 7.66725 4.78996 7.7171 4.80533 7.76358C4.8207 7.81007 4.84871 7.85136 4.88622 7.88283C4.96066 7.94538 5.06565 7.96354 5.1605 7.923L6.12855 7.50322C6.24081 7.45431 6.3403 7.3802 6.4193 7.28664L6.50983 7.17954L5.29756 6.16238ZM7.09574 4.03481L5.63789 5.75973L6.85009 6.77689L8.30785 5.05184L7.09574 4.03481ZM6.60988 1.1689L5.60809 0.21706C5.51338 0.127275 5.39687 0.074392 5.27407 0.0400391V1.58198H6.83968C6.80696 1.42534 6.72714 1.28023 6.60988 1.1689Z" fill="#0094B8"/>
<path d="M4.53153 6.47134C4.57866 6.27407 4.67265 6.08736 4.80296 5.93129L6.85652 3.50138V2.1097H5.01053C4.86477 2.1097 4.74682 1.99175 4.74682 1.84599V0H0.791137C0.354886 0 0 0.354886 0 0.791137V8.21024C0 8.64649 0.354886 9.00138 0.791137 9.00138H6.06538C6.50163 9.00138 6.85652 8.64649 6.85652 8.21024V7.58684L6.82227 7.62737C6.69274 7.78164 6.5256 7.90602 6.3394 7.98716L5.37057 8.4072C5.09751 8.52512 4.78142 8.48334 4.54751 8.28744C4.3165 8.09352 4.21632 7.79092 4.28636 7.49734L4.53153 6.47134ZM1.31856 1.58227H3.95568C4.10145 1.58227 4.2194 1.70022 4.2194 1.84599C4.2194 1.99175 4.10145 2.1097 3.95568 2.1097H1.31856C1.1728 2.1097 1.05485 1.99175 1.05485 1.84599C1.05485 1.70022 1.1728 1.58227 1.31856 1.58227ZM1.31856 3.18213H5.53796C5.68372 3.18213 5.80167 3.30008 5.80167 3.44584C5.80167 3.5916 5.68372 3.70955 5.53796 3.70955H1.31856C1.1728 3.70955 1.05485 3.5916 1.05485 3.44584C1.05485 3.30008 1.1728 3.18213 1.31856 3.18213ZM3.42826 6.8741H1.31856C1.1728 6.8741 1.05485 6.75615 1.05485 6.61039C1.05485 6.46463 1.1728 6.34668 1.31856 6.34668H3.42826C3.57402 6.34668 3.69197 6.46463 3.69197 6.61039C3.69197 6.75615 3.57402 6.8741 3.42826 6.8741ZM1.31856 5.29183C1.1728 5.29183 1.05485 5.17388 1.05485 5.02811C1.05485 4.88235 1.1728 4.7644 1.31856 4.7644H4.48311C4.62887 4.7644 4.74682 4.88235 4.74682 5.02811C4.74682 5.17388 4.62887 5.29183 4.48311 5.29183H1.31856Z" fill="#0094B8"/>
</svg>
