<svg width="13" height="13" viewBox="0 0 13 13" fill="none" xmlns="http://www.w3.org/2000/svg">
<path d="M6.5 0C5.21442 0 3.95772 0.381218 2.8888 1.09545C1.81988 1.80968 0.986755 2.82484 0.494786 4.01256C0.00281637 5.20028 -0.125905 6.50721 0.124899 7.76809C0.375702 9.02896 0.994767 10.1872 1.90381 11.0962C2.81285 12.0052 3.97104 12.6243 5.23191 12.8751C6.49279 13.1259 7.79972 12.9972 8.98744 12.5052C10.1752 12.0132 11.1903 11.1801 11.9046 10.1112C12.6188 9.04228 13 7.78558 13 6.5C12.998 4.77672 12.3125 3.1246 11.0939 1.90605C9.8754 0.687505 8.22328 0.00203301 6.5 0ZM8.6905 8.6905C8.57969 8.80128 8.42942 8.86351 8.27273 8.86351C8.11604 8.86351 7.96577 8.80128 7.85496 8.6905L6.08223 6.91777C5.9714 6.80698 5.90913 6.6567 5.90909 6.5V2.95454C5.90909 2.79783 5.97135 2.64753 6.08217 2.53671C6.19298 2.42589 6.34328 2.36364 6.5 2.36364C6.65672 2.36364 6.80702 2.42589 6.91784 2.53671C7.02865 2.64753 7.09091 2.79783 7.09091 2.95454V6.25536L8.6905 7.85495C8.80128 7.96576 8.86351 8.11604 8.86351 8.27273C8.86351 8.42941 8.80128 8.57969 8.6905 8.6905Z" fill="#0094B8"/>
</svg>
