<svg width="13" height="15" viewBox="0 0 13 15" fill="none" xmlns="http://www.w3.org/2000/svg">
<path d="M3.17547 4.01593C3.17547 2.22005 4.63673 0.758789 6.43262 0.758789C8.2285 0.758789 9.68976 2.22005 9.68976 4.01593C9.68976 5.81182 8.2285 7.27307 6.43262 7.27307C4.63673 7.27307 3.17547 5.81182 3.17547 4.01593ZM8.48976 8.30165H4.37547C2.20176 8.30165 0.432617 10.0708 0.432617 12.2445C0.43298 12.7445 0.63177 13.2239 0.985331 13.5775C1.33889 13.9311 1.81832 14.1299 2.31833 14.1302H10.5469C11.0469 14.1299 11.5263 13.9311 11.8799 13.5775C12.2335 13.2239 12.4323 12.7445 12.4326 12.2445C12.4326 10.0708 10.6635 8.30165 8.48976 8.30165Z" fill="#0094B8"/>
</svg>
