<svg width="50" height="50" viewBox="0 0 50 50" fill="none" xmlns="http://www.w3.org/2000/svg">
<path d="M0 0H50V45C50 47.7614 47.7614 50 45 50H5C2.23858 50 0 47.7614 0 45V0Z" fill="#CFDBDD"/>
<path opacity="0.4" d="M30.557 20.7782C30.4869 20.7682 30.4168 20.7682 30.3467 20.7782C28.7945 20.7281 27.5627 19.4563 27.5627 17.8941C27.5627 16.3018 28.8546 15 30.4568 15C32.0491 15 33.3509 16.2918 33.3509 17.8941C33.3409 19.4563 32.1092 20.7281 30.557 20.7782Z" fill="#00424E"/>
<path opacity="0.4" d="M33.822 27.7179C32.7004 28.469 31.1282 28.7494 29.6762 28.5591C30.0567 27.7379 30.257 26.8266 30.267 25.8653C30.267 24.8639 30.0467 23.9125 29.6261 23.0813C31.1082 22.8811 32.6804 23.1615 33.812 23.9125C35.3943 24.954 35.3943 26.6664 33.822 27.7179Z" fill="#00424E"/>
<path opacity="0.4" d="M19.4525 20.7782C19.5226 20.7682 19.5927 20.7682 19.6628 20.7782C21.215 20.7281 22.4468 19.4563 22.4468 17.8941C22.4468 16.3018 21.1549 15 19.5527 15C17.9604 15 16.6586 16.2918 16.6586 17.8941C16.6686 19.4563 17.9003 20.7281 19.4525 20.7782Z" fill="#00424E"/>
<path opacity="0.4" d="M19.5614 25.8655C19.5614 26.8369 19.7717 27.7582 20.1523 28.5893C18.7403 28.7395 17.2682 28.4391 16.1867 27.7281C14.6044 26.6766 14.6044 24.9642 16.1867 23.9127C17.2582 23.1917 18.7703 22.9013 20.1923 23.0615C19.7818 23.9027 19.5614 24.8541 19.5614 25.8655Z" fill="#00424E"/>
<path d="M25.141 28.8896C25.0609 28.8796 24.9708 28.8796 24.8806 28.8896C23.038 28.8295 21.5659 27.3174 21.5659 25.4548C21.5659 23.5521 23.0981 22.0099 25.0108 22.0099C26.9135 22.0099 28.4557 23.5521 28.4557 25.4548C28.4557 27.3174 26.9936 28.8295 25.141 28.8896Z" fill="#00424E"/>
<path d="M21.8864 30.9625C20.3743 31.9739 20.3743 33.6363 21.8864 34.6377C23.6089 35.7893 26.4329 35.7893 28.1553 34.6377C29.6674 33.6262 29.6674 31.9639 28.1553 30.9625C26.4429 29.8108 23.6189 29.8108 21.8864 30.9625Z" fill="#00424E"/>
</svg>
