<svg width="13" height="13" viewBox="0 0 13 13" fill="none" xmlns="http://www.w3.org/2000/svg">
<path d="M12.1179 9.14612L10.4398 7.46796C9.84044 6.86862 8.82156 7.10838 8.58182 7.8875C8.40202 8.42693 7.80268 8.7266 7.26327 8.60671C6.06458 8.30704 4.44636 6.74875 4.14669 5.49013C3.96688 4.9507 4.32649 4.35136 4.8659 4.17158C5.64504 3.93184 5.88478 2.91296 5.28544 2.31361L3.60728 0.635456C3.12781 0.215916 2.40859 0.215916 1.98905 0.635456L0.850303 1.77421C-0.288448 2.97289 0.970172 6.14941 3.78708 8.96632C6.60399 11.7832 9.78051 13.1018 10.9792 11.9031L12.1179 10.7643C12.5375 10.2849 12.5375 9.56566 12.1179 9.14612Z" fill="#0094B8"/>
</svg>
