<svg width="12" height="16" viewBox="0 0 12 16" fill="none" xmlns="http://www.w3.org/2000/svg">
<path d="M3.04544 3.82915H8.95499C9.70312 3.82915 10.3118 3.22049 10.3118 2.47236V1.35678C10.3118 0.608653 9.70312 0 8.95499 0H3.04544C2.29731 0 1.68866 0.608653 1.68866 1.35678V2.47236C1.68866 3.22049 2.29731 3.82915 3.04544 3.82915Z" fill="#00424E"/>
<path d="M11.2161 2.02905V2.47233C11.2161 3.71921 10.2017 4.73364 8.95477 4.73364H3.04523C1.79834 4.73364 0.78392 3.71921 0.78392 2.47233V2.02905C0.303196 2.44549 0 3.05985 0 3.73866V13.1758C0 14.4227 1.01442 15.4372 2.26131 15.4372H9.73869C10.9856 15.4372 12 14.4227 12 13.1758V3.73866C12 3.05985 11.6968 2.44549 11.2161 2.02905ZM3.95596 11.5532C4.10114 11.7564 4.05407 12.0389 3.85082 12.1841C3.77429 12.2389 3.68249 12.2684 3.58833 12.2684C3.44723 12.2684 3.3082 12.2025 3.21992 12.079L2.98492 11.75L2.74993 12.079C2.70808 12.1376 2.6528 12.1854 2.58871 12.2184C2.52462 12.2513 2.45358 12.2685 2.38152 12.2684C2.29052 12.2684 2.19871 12.241 2.11903 12.1841C1.91578 12.0389 1.86871 11.7564 2.01389 11.5532L2.42913 10.9719L2.01389 10.3905C1.86871 10.1873 1.91578 9.90482 2.11903 9.75962C2.32227 9.61444 2.60472 9.6615 2.74993 9.86475L2.98492 10.1937L3.21992 9.86472C3.36513 9.66147 3.64755 9.61441 3.85082 9.75958C4.05407 9.90476 4.10114 10.1872 3.95596 10.3905L3.54072 10.9718L3.95596 11.5532ZM4.41751 7.04364L3.21148 8.48786C3.16335 8.54545 3.10166 8.59017 3.03194 8.61797C2.96223 8.64578 2.8867 8.6558 2.81214 8.64714C2.73759 8.63848 2.66637 8.6114 2.60489 8.56835C2.54341 8.5253 2.49361 8.46763 2.45997 8.40054L1.97756 7.43771C1.86567 7.21441 1.956 6.94266 2.1793 6.83077C2.40262 6.71888 2.67434 6.80921 2.78623 7.03251L2.95951 7.37834L3.7232 6.46381C3.88333 6.27208 4.16852 6.24648 4.36022 6.40655C4.55195 6.56668 4.57758 6.85191 4.41751 7.04364ZM9.61809 11.4621H6.96482C6.71506 11.4621 6.51256 11.2596 6.51256 11.0098C6.51256 10.7601 6.71506 10.5576 6.96482 10.5576H9.61809C9.86786 10.5576 10.0704 10.7601 10.0704 11.0098C10.0704 11.2596 9.86786 11.4621 9.61809 11.4621ZM9.61809 7.92811H6.96482C6.71506 7.92811 6.51256 7.72562 6.51256 7.47585C6.51256 7.22608 6.71506 7.02359 6.96482 7.02359H9.61809C9.86786 7.02359 10.0704 7.22608 10.0704 7.47585C10.0704 7.72562 9.86786 7.92811 9.61809 7.92811Z" fill="#0094B8"/>
</svg>
