<svg width="15" height="13" viewBox="0 0 15 13" fill="none" xmlns="http://www.w3.org/2000/svg">
<path d="M0.439454 12.0313H0.878908C1.36436 12.0313 1.75782 11.6377 1.75782 11.1524V5.87891C1.75782 5.39346 1.36436 5 0.878908 5H0.439454C0.196729 5 0 5.19673 0 5.43945V11.5918C0 11.8345 0.196729 12.0313 0.439454 12.0313ZM2.63672 5.87891V11.1524C2.63672 11.2409 2.62325 11.3259 2.61065 11.4109L5.17481 12.6784C5.48001 12.8304 5.81622 12.9097 6.15716 12.9102H10.1268C10.4532 12.9103 10.7731 12.8195 11.0508 12.648L14.6489 10.1042C15.0364 9.81237 15.1154 9.26042 14.8245 8.87291C14.5606 8.52114 14.0491 8.36871 13.594 8.69748L10.8891 10.2232C10.8261 10.2563 10.756 10.2735 10.6848 10.2734H5.65431C5.41135 10.2734 5.21485 10.077 5.21485 9.83399C5.21485 9.59112 5.41135 9.39454 5.65431 9.39454H9.69729C10.1827 9.39454 10.5762 9.00097 10.5762 8.51563C10.5762 8.03018 10.1827 7.63672 9.69729 7.63672H7.63302L5.54992 6.24799C5.18819 6.00641 4.7667 5.87891 4.33114 5.87891H2.63672Z" fill="#00424E"/>
<path d="M11 5.50993C11 4.68837 11.673 4 12.5 4C13.327 4 14 4.68837 14 5.50993C14 6.3315 13.327 7 12.5 7C11.673 7 11 6.3315 11 5.50993Z" fill="#0094B8"/>
<path d="M7 2.22657C7 1.01508 7.98578 0 9.19727 0C10.4088 0 11.3945 1.01508 11.3945 2.22657C11.3945 3.43805 10.4088 4.42384 9.19727 4.42384C7.98578 4.42384 7 3.43805 7 2.22657Z" fill="#0094B8"/>
</svg>
