<svg width="10" height="11" viewBox="0 0 10 11" fill="none" xmlns="http://www.w3.org/2000/svg">
<path d="M6.14419 1.35315L6.55349 0.943845C7.03721 0.460124 7.87907 0.460124 8.36279 0.943845L8.69302 1.27408C8.81216 1.39221 8.90673 1.53277 8.97126 1.68764C9.0358 1.84251 9.06903 2.00863 9.06903 2.1764C9.06903 2.34418 9.0358 2.5103 8.97126 2.66517C8.90673 2.82004 8.81216 2.9606 8.69302 3.07873L8.28372 3.48803L6.14419 1.3485V1.35315ZM5.65116 1.84617L1.41395 6.08338C1.27907 6.21826 1.19535 6.39501 1.1814 6.58571L1.05581 7.9485C1.04186 8.12059 1.10233 8.28803 1.22326 8.41361C1.33488 8.52524 1.47907 8.5857 1.63256 8.5857H1.68372L3.04651 8.46012C3.23721 8.44152 3.41395 8.3578 3.54884 8.22292L7.78605 3.98571L5.64651 1.84617H5.65116ZM10 10.0694C10 9.87873 9.84186 9.72059 9.65116 9.72059H0.348837C0.15814 9.72059 0 9.87873 0 10.0694C0 10.2601 0.15814 10.4183 0.348837 10.4183H9.65116C9.84186 10.4183 10 10.2601 10 10.0694Z" fill="#0094B8"/>
</svg>
