<svg width="20" height="21" viewBox="0 0 20 21" fill="none" xmlns="http://www.w3.org/2000/svg">
<path d="M5.5 1.00001C5.5 0.447719 5.05228 0 4.5 0C3.94772 0 3.5 0.447719 3.5 1.00001V2.00002C3.5 2.5523 3.94772 3.00002 4.5 3.00002C5.05228 3.00002 5.5 2.5523 5.5 2.00002V1.00001Z" fill="#0094B8"/>
<path d="M16.5 1.00001C16.5 0.447719 16.0523 0 15.5 0C14.9477 0 14.5 0.447719 14.5 1.00001V2.00002C14.5 2.5523 14.9477 3.00002 15.5 3.00002C16.0523 3.00002 16.5 2.5523 16.5 2.00002V1.00001Z" fill="#0094B8"/>
<path d="M0 7.50005V19.0001C0 19.5306 0.210714 20.0393 0.585786 20.4144C0.960859 20.7894 1.46957 21.0002 2 21.0002H18C18.5304 21.0002 19.0391 20.7894 19.4142 20.4144C19.7893 20.0393 20 19.5306 20 19.0001V7.50005H0ZM6 17.5001C6 17.7653 5.89464 18.0197 5.70711 18.2072C5.51957 18.3948 5.26522 18.5001 5 18.5001H4C3.73478 18.5001 3.48043 18.3948 3.29289 18.2072C3.10536 18.0197 3 17.7653 3 17.5001V16.5001C3 16.2349 3.10536 15.9805 3.29289 15.793C3.48043 15.6055 3.73478 15.5001 4 15.5001H5C5.26522 15.5001 5.51957 15.6055 5.70711 15.793C5.89464 15.9805 6 16.2349 6 16.5001V17.5001ZM6 12.0001C6 12.2653 5.89464 12.5197 5.70711 12.7072C5.51957 12.8947 5.26522 13.0001 5 13.0001H4C3.73478 13.0001 3.48043 12.8947 3.29289 12.7072C3.10536 12.5197 3 12.2653 3 12.0001V11.0001C3 10.7349 3.10536 10.4805 3.29289 10.293C3.48043 10.1054 3.73478 10.0001 4 10.0001H5C5.26522 10.0001 5.51957 10.1054 5.70711 10.293C5.89464 10.4805 6 10.7349 6 11.0001V12.0001ZM11.5 17.5001C11.5 17.7653 11.3946 18.0197 11.2071 18.2072C11.0196 18.3948 10.7652 18.5001 10.5 18.5001H9.5C9.23478 18.5001 8.98043 18.3948 8.79289 18.2072C8.60536 18.0197 8.5 17.7653 8.5 17.5001V16.5001C8.5 16.2349 8.60536 15.9805 8.79289 15.793C8.98043 15.6055 9.23478 15.5001 9.5 15.5001H10.5C10.7652 15.5001 11.0196 15.6055 11.2071 15.793C11.3946 15.9805 11.5 16.2349 11.5 16.5001V17.5001ZM11.5 12.0001C11.5 12.2653 11.3946 12.5197 11.2071 12.7072C11.0196 12.8947 10.7652 13.0001 10.5 13.0001H9.5C9.23478 13.0001 8.98043 12.8947 8.79289 12.7072C8.60536 12.5197 8.5 12.2653 8.5 12.0001V11.0001C8.5 10.7349 8.60536 10.4805 8.79289 10.293C8.98043 10.1054 9.23478 10.0001 9.5 10.0001H10.5C10.7652 10.0001 11.0196 10.1054 11.2071 10.293C11.3946 10.4805 11.5 10.7349 11.5 11.0001V12.0001ZM17 17.5001C17 17.7653 16.8946 18.0197 16.7071 18.2072C16.5196 18.3948 16.2652 18.5001 16 18.5001H15C14.7348 18.5001 14.4804 18.3948 14.2929 18.2072C14.1054 18.0197 14 17.7653 14 17.5001V16.5001C14 16.2349 14.1054 15.9805 14.2929 15.793C14.4804 15.6055 14.7348 15.5001 15 15.5001H16C16.2652 15.5001 16.5196 15.6055 16.7071 15.793C16.8946 15.9805 17 16.2349 17 16.5001V17.5001ZM17 12.0001C17 12.2653 16.8946 12.5197 16.7071 12.7072C16.5196 12.8947 16.2652 13.0001 16 13.0001H15C14.7348 13.0001 14.4804 12.8947 14.2929 12.7072C14.1054 12.5197 14 12.2653 14 12.0001V11.0001C14 10.7349 14.1054 10.4805 14.2929 10.293C14.4804 10.1054 14.7348 10.0001 15 10.0001H16C16.2652 10.0001 16.5196 10.1054 16.7071 10.293C16.8946 10.4805 17 10.7349 17 11.0001V12.0001ZM20 6.50004V3.50002C20 2.96958 19.7893 2.46087 19.4142 2.08579C19.0391 1.71072 18.5304 1.5 18 1.5H17.5V2C17.5 3.10301 16.603 4.00002 15.5 4.00002C14.397 4.00002 13.5 3.10301 13.5 2V1.5H6.5V2C6.5 3.10301 5.603 4.00002 4.5 4.00002C3.397 4.00002 2.5 3.10301 2.5 2V1.5H2C1.46957 1.5 0.960859 1.71072 0.585786 2.08579C0.210714 2.46087 0 2.96958 0 3.50002V6.50004H20Z" fill="#0094B8"/>
</svg>
