<svg width="104" height="106" viewBox="0 0 104 106" fill="none" xmlns="http://www.w3.org/2000/svg">
<path d="M52.2009 83.8321C52.2016 78.1548 53.857 72.6008 56.9646 67.8495C60.0722 63.0983 64.4973 59.3559 69.6985 57.08C74.8997 54.8042 80.6514 54.0937 86.2501 55.0354C91.8487 55.9772 97.0515 58.5303 101.222 62.3825C101.36 52.4027 101.277 42.4228 100.974 32.443C100.808 25.5864 96.9366 18.7029 90.4505 15.3015C87.1174 13.5398 83.6643 11.8443 80.1718 10.2378C66.3716 14.7012 50.2093 20.5889 33.9083 27.8781C32.3411 28.5709 30.9984 29.6876 30.0317 31.1024C29.0649 32.5172 28.5125 34.1739 28.4367 35.8857C28.1821 43.7526 28.1034 51.872 28.2069 59.9003C28.2153 60.1357 28.1479 60.3677 28.0147 60.562C27.8815 60.7563 27.6895 60.9028 27.4668 60.98C27.2442 61.0571 27.0027 61.0608 26.7779 60.9906C26.553 60.9203 26.3566 60.7798 26.2174 60.5897C24.4922 58.3815 22.8071 56.1981 21.1619 54.0395C21.0405 53.8708 20.86 53.7539 20.6563 53.7121C20.4527 53.6703 20.2407 53.7066 20.0626 53.8139C18.7832 54.5757 17.5266 55.3272 16.2927 56.0683C15.6013 56.4824 14.7504 55.9296 14.7463 55.0788C14.7049 47.0815 14.9036 39.0635 15.3321 31.2919C15.5123 28.0148 17.568 24.9281 20.6092 23.4251C36.2436 15.7032 52.9234 9.3952 67.1563 4.72685C63.8439 3.43089 60.5501 2.24258 57.3351 1.11638C53 -0.372128 48.2923 -0.372128 43.9572 1.11638C33.2293 4.81794 21.5139 9.64983 10.8397 15.3015C4.35577 18.7029 0.488575 25.5864 0.316746 32.443C-0.105582 46.1478 -0.105582 59.8527 0.316746 73.5575C0.482364 80.4141 4.35577 87.2976 10.8397 90.699C21.5139 96.3507 33.2293 101.183 43.9635 104.882C48.2985 106.371 53.0062 106.371 57.3413 104.882C58.2784 104.559 59.2245 104.226 60.1796 103.882C55.0396 98.4741 52.182 91.293 52.2009 83.8321Z" fill="#0094B8"/>
<path d="M81.4051 61.6683C77.0211 61.6687 72.7356 62.9692 69.0907 65.4051C65.4457 67.8411 62.605 71.3032 60.9277 75.3536C59.2504 79.404 58.8118 83.8609 59.6675 88.1606C60.5232 92.4602 62.6347 96.4096 65.7349 99.5093C68.8352 102.609 72.785 104.72 77.0848 105.575C81.3847 106.429 85.8415 105.99 89.8916 104.312C93.9418 102.634 97.4034 99.7925 99.8386 96.1472C102.274 92.5018 103.574 88.2161 103.573 83.8321C103.573 80.9213 102.999 78.039 101.885 75.3498C100.771 72.6606 99.1379 70.2172 97.0794 68.1591C95.0209 66.101 92.5772 64.4685 89.8878 63.3548C87.1984 62.2411 84.316 61.6681 81.4051 61.6683ZM94.048 80.1637L80.724 94.1542C80.3615 94.5357 79.9255 94.8397 79.4423 95.0482C78.9592 95.2567 78.4388 95.3653 77.9126 95.3674H77.894C77.3709 95.3671 76.8531 95.262 76.3713 95.0583C75.8895 94.8545 75.4534 94.5563 75.0888 94.1812L68.019 86.8981C67.297 86.1541 66.9001 85.1538 66.9156 84.1172C66.9311 83.0806 67.3578 82.0926 68.1018 81.3706C68.8458 80.6486 69.8461 80.2517 70.8827 80.2673C71.9193 80.2828 72.9073 80.7095 73.6293 81.4534L77.8712 85.8195L88.3901 74.7728C89.1133 74.0642 90.0834 73.6638 91.096 73.6562C92.1086 73.6485 93.0846 74.0342 93.8185 74.7318C94.5524 75.4295 94.9869 76.3848 95.0305 77.3964C95.0741 78.4081 94.7233 79.3972 94.0521 80.1554L94.048 80.1637Z" fill="#00424E"/>
</svg>
