<svg width="13" height="9" viewBox="0 0 13 9" fill="none" xmlns="http://www.w3.org/2000/svg">
<path d="M7.43548 5.71062C7.13694 5.89698 6.79016 5.99549 6.43262 5.99549C6.0751 5.99549 5.72832 5.89698 5.42977 5.71062L0.512516 2.64108C0.48537 2.62408 0.458728 2.6064 0.432617 2.58803L0.432617 7.61781C0.432617 8.19449 0.932422 8.65216 1.5373 8.65216H11.3279C11.9438 8.65216 12.4326 8.18418 12.4326 7.61781V2.58801C12.4064 2.60642 12.3797 2.62415 12.3525 2.64116L7.43548 5.71062Z" fill="#0094B8"/>
<path d="M0.90254 2.09321L5.8198 5.16277C6.00594 5.27897 6.21927 5.33706 6.43259 5.33706C6.64595 5.33706 6.8593 5.27895 7.04544 5.16277L11.9627 2.09321C12.257 1.90963 12.4326 1.6024 12.4326 1.27081C12.4326 0.700651 11.9372 0.236816 11.3283 0.236816H1.53692C0.928016 0.236838 0.432618 0.700673 0.432618 1.27136C0.432435 1.43402 0.475251 1.59419 0.557245 1.73759C0.63924 1.88099 0.757865 2.00316 0.90254 2.09321Z" fill="#0094B8"/>
</svg>
