<svg width="23" height="21" viewBox="0 0 23 21" fill="none" xmlns="http://www.w3.org/2000/svg">
<path fill-rule="evenodd" clip-rule="evenodd" d="M3.48738 18.2118H2.94181C2.16177 18.2112 1.41384 17.9011 0.862262 17.3495C0.310688 16.798 0.000566686 16.05 0 15.27V5.64225C0 5.44007 0.0203253 5.24002 0.0609757 5.04533C0.159393 5.42188 0.375482 5.77169 0.702825 6.03378L3.3772 8.17327C3.76203 8.48104 4.25268 8.62467 4.74273 8.573C5.23278 8.52133 5.68269 8.27853 5.99487 7.89728L10.2471 2.70044H12.5695C13.3498 2.70044 14.098 3.01038 14.6497 3.56208C15.2014 4.11377 15.5114 4.86203 15.5114 5.64225V15.3705C14.867 15.538 14.2905 15.9012 13.8613 16.4101C13.4322 16.919 13.1714 17.5485 13.1151 18.2118H9.88448C9.81284 17.4129 9.44486 16.6698 8.85293 16.1286C8.26101 15.5874 7.48798 15.2873 6.68593 15.2873C5.88388 15.2873 5.11085 15.5874 4.51893 16.1286C3.927 16.6698 3.55902 17.4129 3.48738 18.2118Z" fill="#00424E"/>
<path fill-rule="evenodd" clip-rule="evenodd" d="M1.36995 5.19829C1.20383 5.06522 1.09738 4.87162 1.07401 4.66007C1.05064 4.44852 1.11226 4.23635 1.24532 4.07024C1.37839 3.90412 1.57199 3.79767 1.78354 3.7743C1.99509 3.75093 2.20726 3.81255 2.37337 3.94561L4.42729 5.58875L8.73945 0.320232C8.80442 0.233793 8.8862 0.161381 8.97987 0.107346C9.07354 0.0533113 9.17716 0.0187693 9.28452 0.00579544C9.39187 -0.00717845 9.50074 0.0016834 9.60459 0.0318488C9.70843 0.0620143 9.80511 0.112861 9.8888 0.181333C9.9725 0.249805 10.0415 0.33449 10.0916 0.430299C10.1418 0.526109 10.172 0.631065 10.1806 0.738863C10.1891 0.846661 10.1758 0.955075 10.1414 1.05759C10.107 1.16011 10.0522 1.25461 9.98036 1.33542L5.16649 7.21904C5.03291 7.38284 4.84003 7.48722 4.62985 7.50946C4.41967 7.5317 4.20922 7.47 4.04432 7.33778L1.36995 5.19829Z" fill="#00424E"/>
<path d="M6.68552 20.6187C7.86713 20.6187 8.82502 19.6608 8.82502 18.4792C8.82502 17.2976 7.86713 16.3397 6.68552 16.3397C5.50391 16.3397 4.54602 17.2976 4.54602 18.4792C4.54602 19.6608 5.50391 20.6187 6.68552 20.6187Z" fill="#00424E"/>
<path d="M16.3132 20.6187C17.4948 20.6187 18.4527 19.6608 18.4527 18.4792C18.4527 17.2976 17.4948 16.3397 16.3132 16.3397C15.1316 16.3397 14.1737 17.2976 14.1737 18.4792C14.1737 19.6608 15.1316 20.6187 16.3132 20.6187Z" fill="#00424E"/>
<path fill-rule="evenodd" clip-rule="evenodd" d="M16.5815 15.2807V10.838H21.1279L19.1532 7.87587C19.0557 7.72907 18.9234 7.60867 18.7681 7.52543C18.6128 7.44218 18.4393 7.39866 18.2631 7.39876H16.5815V5.90967H18.4161C18.7243 5.90965 19.0276 5.9857 19.2993 6.13107C19.5711 6.27644 19.8027 6.48664 19.9737 6.743L22.326 10.2721C22.7657 10.9311 23 11.7056 23 12.4972V16.3397C23 16.8362 22.8027 17.3124 22.4517 17.6635C22.1006 18.0145 21.6244 18.2118 21.1279 18.2118H19.5126C19.449 17.4557 19.1198 16.7465 18.5833 16.21C18.0468 15.6734 17.3376 15.3442 16.5815 15.2807Z" fill="#00424E"/>
</svg>
