<svg width="15" height="15" viewBox="0 0 15 15" fill="none" xmlns="http://www.w3.org/2000/svg">
<path d="M7.5 0C3.35476 0 0 3.35438 0 7.5C0 11.6452 3.35438 15 7.5 15C11.6452 15 15 11.6456 15 7.5C15 3.35476 11.6456 0 7.5 0ZM7.5 13.9535C3.94154 13.9535 1.04651 11.0585 1.04651 7.5C1.04651 3.94151 3.94154 1.04651 7.5 1.04651C11.0585 1.04651 13.9535 3.94151 13.9535 7.5C13.9535 11.0585 11.0585 13.9535 7.5 13.9535Z" fill="black"/>
<path d="M7.27795 9.48996C6.86331 9.48996 6.52766 9.83549 6.52766 10.2501C6.52766 10.6549 6.85344 11.0103 7.27795 11.0103C7.70246 11.0103 8.03809 10.6549 8.03809 10.2501C8.03809 9.83549 7.69256 9.48996 7.27795 9.48996ZM7.40627 3.73444C6.0735 3.73444 5.46143 4.52426 5.46143 5.05734C5.46143 5.44236 5.78721 5.62008 6.05375 5.62008C6.58687 5.62008 6.36969 4.85988 7.37665 4.85988C7.87024 4.85988 8.26517 5.07709 8.26517 5.53122C8.26517 6.06431 7.7123 6.37034 7.38652 6.64676C7.1002 6.89353 6.72509 7.29832 6.72509 8.14734C6.72509 8.66068 6.86331 8.80878 7.26805 8.80878C7.75177 8.80878 7.8505 8.5916 7.8505 8.40398C7.8505 7.89064 7.86037 7.59448 8.40336 7.16997C8.6699 6.96267 9.50902 6.29133 9.50902 5.36335C9.50902 4.43537 8.6699 3.73444 7.40627 3.73444Z" fill="black"/>
</svg>
