<svg width="16" height="19" viewBox="0 0 16 19" fill="none" xmlns="http://www.w3.org/2000/svg">
<path d="M5.61733 14.6831C5.04581 14.6831 3.26522 14.6831 1.946 14.6831C1.24311 14.6831 0.786808 13.9259 1.10115 13.2824L1.90872 11.6291C2.1713 11.0916 2.308 10.4994 2.308 9.89839C2.308 9.15343 2.308 8.04687 2.308 6.94022C2.308 5.0045 3.25353 1.13306 7.98114 1.13306C12.7088 1.13306 13.6543 5.0045 13.6543 6.94022C13.6543 8.04687 13.6543 9.15343 13.6543 9.89839C13.6543 10.4994 13.791 11.0916 14.0536 11.6291L14.8611 13.2824C15.1754 13.9259 14.7183 14.6831 14.0155 14.6831H10.3449M5.61733 14.6831C5.61733 16.6188 6.56286 17.5867 7.98114 17.5867C9.39942 17.5867 10.3449 16.6188 10.3449 14.6831M5.61733 14.6831C7.09433 14.6831 10.3449 14.6831 10.3449 14.6831" stroke="black" stroke-width="1.5" stroke-linejoin="round"/>
</svg>
