<svg width="24" height="24" viewBox="0 0 24 24" fill="none" xmlns="http://www.w3.org/2000/svg">
<path fill-rule="evenodd" clip-rule="evenodd" d="M5.66375 11.9996C5.66375 11.2375 5.79033 10.5068 6.01625 9.82149L2.06184 6.80176C1.29115 8.36656 0.856934 10.1298 0.856934 11.9996C0.856934 13.8679 1.29062 15.63 2.06024 17.1938L6.01251 14.1682C5.78873 13.486 5.66375 12.758 5.66375 11.9996Z" fill="#FBBC05"/>
<path fill-rule="evenodd" clip-rule="evenodd" d="M12.6071 5.0666C14.2628 5.0666 15.7582 5.65327 16.9332 6.61327L20.3514 3.19993C18.2685 1.3866 15.598 0.266602 12.6071 0.266602C7.96372 0.266602 3.97299 2.92207 2.06201 6.80207L6.01642 9.8218C6.92758 7.05594 9.52487 5.0666 12.6071 5.0666Z" fill="#EB4335"/>
<path fill-rule="evenodd" clip-rule="evenodd" d="M12.6071 18.9329C9.52486 18.9329 6.92758 16.9436 6.01642 14.1777L2.06201 17.1969C3.97299 21.0775 7.96372 23.7329 12.6071 23.7329C15.473 23.7329 18.2092 22.7153 20.2628 20.8087L16.5092 17.9068C15.4501 18.574 14.1164 18.9329 12.6071 18.9329Z" fill="#34A853"/>
<path fill-rule="evenodd" clip-rule="evenodd" d="M23.8228 11.9995C23.8228 11.3062 23.716 10.5595 23.5558 9.86621H12.6069V14.3995H18.9092C18.5941 15.9451 17.7363 17.1334 16.509 17.9067L20.2626 20.8086C22.4198 18.8065 23.8228 15.8241 23.8228 11.9995Z" fill="#4285F4"/>
</svg>
