<svg width="50" height="50" viewBox="0 0 50 50" fill="none" xmlns="http://www.w3.org/2000/svg">
<path d="M0 0H50V45C50 47.7614 47.7614 50 45 50H5C2.23858 50 0 47.7614 0 45V0Z" fill="#FFC107" fill-opacity="0.1"/>
<path d="M24.1737 16.0304C24.4355 15.4431 24.5664 15.1494 24.7487 15.0589C24.9071 14.9804 25.093 14.9804 25.2513 15.0589C25.4336 15.1494 25.5646 15.4431 25.8264 16.0304L27.9117 20.7088C27.9892 20.8825 28.0279 20.9693 28.0878 21.0358C28.1407 21.0946 28.2055 21.1417 28.2778 21.1739C28.3596 21.2103 28.4541 21.2203 28.6432 21.2402L33.7371 21.7779C34.3766 21.8453 34.6963 21.8791 34.8387 22.0245C34.9623 22.1508 35.0197 22.3277 34.9939 22.5026C34.9643 22.7039 34.7255 22.9191 34.2478 23.3496L30.4427 26.7787C30.3015 26.9059 30.2308 26.9696 30.1862 27.0471C30.1466 27.1157 30.1218 27.1918 30.1136 27.2705C30.1042 27.3595 30.1239 27.4525 30.1633 27.6385L31.2261 32.6492C31.3596 33.2783 31.4263 33.5928 31.332 33.7731C31.25 33.9298 31.0996 34.039 30.9253 34.0686C30.7247 34.1025 30.4462 33.9419 29.8891 33.6206L25.452 31.0614C25.2874 30.9664 25.205 30.919 25.1175 30.9004C25.04 30.884 24.96 30.884 24.8825 30.9004C24.795 30.919 24.7127 30.9664 24.548 31.0614L20.111 33.6206C19.5539 33.9419 19.2754 34.1025 19.0747 34.0686C18.9005 34.039 18.75 33.9298 18.6681 33.7731C18.5738 33.5928 18.6405 33.2783 18.7739 32.6492L19.8367 27.6385C19.8761 27.4525 19.8959 27.3595 19.8865 27.2705C19.8782 27.1918 19.8535 27.1157 19.8139 27.0471C19.7692 26.9696 19.6986 26.9059 19.5573 26.7787L15.7523 23.3496C15.2746 22.9191 15.0358 22.7039 15.0061 22.5026C14.9803 22.3277 15.0377 22.1508 15.1614 22.0245C15.3037 21.8791 15.6235 21.8453 16.263 21.7779L21.3569 21.2402C21.546 21.2203 21.6405 21.2103 21.7222 21.1739C21.7945 21.1417 21.8593 21.0946 21.9123 21.0358C21.9722 20.9693 22.0109 20.8825 22.0883 20.7088L24.1737 16.0304Z" fill="#FFC107"/>
</svg>
