<svg width="21" height="21" viewBox="0 0 21 21" fill="none" xmlns="http://www.w3.org/2000/svg">
<path d="M20.5 4.5282V5.86153H0.5V4.5282C0.499843 3.75976 0.765189 3.01487 1.25113 2.4196C1.73707 1.82432 2.41376 1.41522 3.16667 1.26153V1.86153C3.16667 2.2282 3.46667 2.5282 3.83333 2.5282C4.2 2.5282 4.5 2.2282 4.5 1.86153V1.19486H6.5V1.86153C6.5 2.2282 6.8 2.5282 7.16667 2.5282C7.53333 2.5282 7.83333 2.2282 7.83333 1.86153V1.19486H9.83333V1.86153C9.83333 2.2282 10.1333 2.5282 10.5 2.5282C10.8667 2.5282 11.1667 2.2282 11.1667 1.86153V1.19486H13.1667V1.86153C13.1667 2.2282 13.4667 2.5282 13.8333 2.5282C14.2 2.5282 14.5 2.2282 14.5 1.86153V1.19486H16.5V1.86153C16.5 2.2282 16.8 2.5282 17.1667 2.5282C17.5333 2.5282 17.8333 2.2282 17.8333 1.86153V1.26153C18.5862 1.41522 19.2629 1.82432 19.7489 2.4196C20.2348 3.01487 20.5002 3.75976 20.5 4.5282ZM10.5 0.528198C10.1333 0.528198 9.83333 0.828198 9.83333 1.19486H11.1667C11.1667 0.828198 10.8667 0.528198 10.5 0.528198ZM3.83333 0.528198C3.46667 0.528198 3.16667 0.828198 3.16667 1.19486V1.26153C3.38 1.21486 3.60667 1.19486 3.83333 1.19486H4.5C4.5 0.828198 4.2 0.528198 3.83333 0.528198ZM7.16667 0.528198C6.8 0.528198 6.5 0.828198 6.5 1.19486H7.83333C7.83333 0.828198 7.53333 0.528198 7.16667 0.528198ZM13.8333 0.528198C13.4667 0.528198 13.1667 0.828198 13.1667 1.19486H14.5C14.5 0.828198 14.2 0.528198 13.8333 0.528198ZM17.1667 0.528198C16.8 0.528198 16.5 0.828198 16.5 1.19486H17.1667C17.3933 1.19486 17.62 1.21486 17.8333 1.26153V1.19486C17.8333 0.828198 17.5333 0.528198 17.1667 0.528198ZM20.5 15.8615C20.5 18.4415 18.4133 20.5282 15.8333 20.5282C13.2533 20.5282 11.1667 18.4415 11.1667 15.8615C11.1667 13.2815 13.2533 11.1949 15.8333 11.1949C18.4133 11.1949 20.5 13.2815 20.5 15.8615ZM17.8333 15.8615C17.8333 15.4949 17.5333 15.1949 17.1667 15.1949H16.5V13.8615C16.5 13.4949 16.2 13.1949 15.8333 13.1949C15.4667 13.1949 15.1667 13.4949 15.1667 13.8615V15.8615C15.1667 16.2282 15.4667 16.5282 15.8333 16.5282H17.1667C17.5333 16.5282 17.8333 16.2282 17.8333 15.8615ZM20.5 7.19487V12.1015C19.94 11.402 19.2297 10.8375 18.4219 10.4498C17.6141 10.062 16.7294 9.86097 15.8333 9.86153C12.5267 9.86153 9.83333 12.5549 9.83333 15.8615C9.83277 16.7576 10.0338 17.6423 10.4216 18.4501C10.8093 19.2579 11.3738 19.9682 12.0733 20.5282H3.83333C1.99333 20.5282 0.5 19.0349 0.5 17.1949V7.19487H20.5ZM5.16667 17.1949C5.16667 16.8282 4.86667 16.5282 4.5 16.5282C4.13333 16.5282 3.83333 16.8282 3.83333 17.1949C3.83333 17.5615 4.13333 17.8615 4.5 17.8615C4.86667 17.8615 5.16667 17.5615 5.16667 17.1949ZM5.16667 13.8615C5.16667 13.4949 4.86667 13.1949 4.5 13.1949C4.13333 13.1949 3.83333 13.4949 3.83333 13.8615C3.83333 14.2282 4.13333 14.5282 4.5 14.5282C4.86667 14.5282 5.16667 14.2282 5.16667 13.8615ZM5.16667 10.5282C5.16667 10.1615 4.86667 9.86153 4.5 9.86153C4.13333 9.86153 3.83333 10.1615 3.83333 10.5282C3.83333 10.8949 4.13333 11.1949 4.5 11.1949C4.86667 11.1949 5.16667 10.8949 5.16667 10.5282ZM9.16667 17.1949C9.16667 16.8282 8.86667 16.5282 8.5 16.5282C8.13333 16.5282 7.83333 16.8282 7.83333 17.1949C7.83333 17.5615 8.13333 17.8615 8.5 17.8615C8.86667 17.8615 9.16667 17.5615 9.16667 17.1949ZM9.16667 13.8615C9.16667 13.4949 8.86667 13.1949 8.5 13.1949C8.13333 13.1949 7.83333 13.4949 7.83333 13.8615C7.83333 14.2282 8.13333 14.5282 8.5 14.5282C8.86667 14.5282 9.16667 14.2282 9.16667 13.8615ZM9.16667 10.5282C9.16667 10.1615 8.86667 9.86153 8.5 9.86153C8.13333 9.86153 7.83333 10.1615 7.83333 10.5282C7.83333 10.8949 8.13333 11.1949 8.5 11.1949C8.86667 11.1949 9.16667 10.8949 9.16667 10.5282Z" fill="#F1F1F1"/>
</svg>
