<svg width="10" height="11" viewBox="0 0 10 11" fill="none" xmlns="http://www.w3.org/2000/svg">
<path d="M9.97391 4.32971C9.94194 4.23062 9.8815 4.14312 9.80014 4.07814C9.71878 4.01316 9.62009 3.97356 9.51638 3.96427L6.6301 3.70218L5.4888 1.03082C5.40462 0.835057 5.21298 0.708374 5.00004 0.708374C4.78711 0.708374 4.59544 0.835076 4.5113 1.03131L3.36998 3.7022L0.48325 3.96427C0.379656 3.97376 0.281126 4.01345 0.199875 4.07841C0.118624 4.14337 0.0582255 4.23075 0.026168 4.32971C-0.0396735 4.53222 0.0211288 4.75431 0.181582 4.89432L2.36328 6.80765L1.71994 9.6415C1.67287 9.84987 1.75373 10.0653 1.92662 10.1902C2.01954 10.2574 2.12827 10.2916 2.2379 10.2916C2.33244 10.2916 2.42619 10.2661 2.51037 10.2157L5.00004 8.72771L7.48881 10.2157C7.67093 10.3253 7.9005 10.3153 8.07301 10.1902C8.15746 10.1291 8.22208 10.0445 8.25882 9.94693C8.29557 9.84937 8.30283 9.74316 8.27969 9.6415L7.63637 6.80765L9.81805 4.89471C9.89653 4.82616 9.95314 4.73607 9.98085 4.63562C10.0086 4.53518 10.0061 4.4288 9.97391 4.32971Z" fill="#FFC107"/>
</svg>
