<svg width="20" height="13" viewBox="0 0 20 13" fill="none" xmlns="http://www.w3.org/2000/svg">
<path d="M6.2497 8.74349C5.27907 8.74349 4.49246 9.52981 4.49246 10.5005C4.49246 11.4713 5.27907 12.2577 6.2497 12.2577C7.22068 12.2577 8.00708 11.4713 8.00708 10.5005C8.00708 9.52981 7.22068 8.74349 6.2497 8.74349ZM6.2497 11.2644C5.82776 11.2644 5.48586 10.9225 5.48586 10.5005C5.48586 10.0784 5.82776 9.73665 6.2497 9.73665C6.67169 9.73665 7.01383 10.0784 7.01383 10.5005C7.01383 10.9225 6.67169 11.2644 6.2497 11.2644ZM15.5159 8.74349C14.5453 8.74349 13.7587 9.52981 13.7587 10.5005C13.7587 11.4713 14.5453 12.2577 15.5159 12.2577C16.4869 12.2577 17.2733 11.4713 17.2733 10.5005C17.2733 9.52981 16.4869 8.74349 15.5159 8.74349ZM15.5159 11.2644C15.094 11.2644 14.7521 10.9225 14.7521 10.5005C14.7521 10.0784 15.094 9.73665 15.5159 9.73665C15.9379 9.73665 16.2801 10.0784 16.2801 10.5005C16.2801 10.9225 15.9379 11.2644 15.5159 11.2644ZM8.22661 3.34438C8.22661 3.59061 8.02513 3.79204 7.77895 3.79204H1.60151C1.35528 3.79204 1.1539 3.59061 1.1539 3.34438V3.07578C1.1539 2.82961 1.35533 2.62817 1.60151 2.62817H7.77895C8.02518 2.62817 8.22661 2.82961 8.22661 3.07578V3.34438Z" fill="#00424E"/>
<path d="M18.9597 5.96536C18.3154 5.79785 17.9467 5.69253 17.6937 5.20392L16.8477 3.49101C16.5946 3.0024 15.9372 2.60257 15.3871 2.60257H14.23C14.23 2.60257 14.0743 2.60582 14.0743 2.44918V1.01258C14.0743 0.455674 13.7592 0 13.0888 0H3.65839C2.69862 0 2.24295 0.455723 2.24295 1.01258V1.91287C2.24295 1.91287 2.24295 2.18063 2.5021 2.18063H7.77942C8.2731 2.18063 8.67473 2.58222 8.67473 3.0759V3.34449C8.67473 3.83817 8.2731 4.23977 7.77942 4.23977H2.5021C2.5021 4.23977 2.24295 4.21823 2.24295 4.49799V4.80759C2.24295 5.05381 2.58042 5.05367 2.58042 5.05367H6.13286C6.62653 5.05367 7.02817 5.45531 7.02817 5.94894V6.21753C7.02817 6.71121 6.62653 7.1128 6.13286 7.1128H2.63647C2.63647 7.1128 2.24295 7.10553 2.24295 7.41887V9.59428C2.24295 10.1511 2.69862 10.6069 3.25552 10.6069H3.81483C3.94168 10.6069 3.96036 10.5362 3.96036 10.5007C3.96036 9.23817 4.98764 8.21113 6.25022 8.21113C7.51289 8.21113 8.54012 9.23827 8.54012 10.5007C8.54012 10.5364 8.52999 10.6069 8.62699 10.6069H13.1407C13.2302 10.6069 13.2266 10.5314 13.2266 10.5007C13.2266 9.23817 14.2538 8.21113 15.5164 8.21113C16.779 8.21113 17.8063 9.23827 17.8063 10.5007C17.8063 10.5364 17.8054 10.6069 17.8614 10.6069H18.9994C19.5498 10.6069 20 10.1566 20 9.60628V7.70531C20 6.1044 19.4946 6.1044 18.9597 5.96536ZM17.0556 5.87632H14.2076C14.0899 5.87632 14.0743 5.76176 14.0743 5.76176V3.38924C14.0743 3.38924 14.0676 3.29813 14.2187 3.29813H15.0314C15.521 3.29813 16.1059 3.6539 16.331 4.08868L17.0839 5.61284C17.1133 5.67039 17.1474 5.72546 17.1857 5.77749C17.2125 5.81329 17.1676 5.87632 17.0556 5.87632Z" fill="#0094B8"/>
<path d="M6.58026 6.21755C6.58026 6.46378 6.37883 6.66521 6.13266 6.66521H0.447606C0.201383 6.66521 0 6.46378 0 6.21755V5.94895C0 5.70278 0.201433 5.50134 0.447606 5.50134H6.13266C6.37888 5.50134 6.58026 5.70278 6.58026 5.94895V6.21755Z" fill="#00424E"/>
</svg>
