<svg width="16" height="16" viewBox="0 0 16 16" fill="none" xmlns="http://www.w3.org/2000/svg">
<path d="M14.9278 3.99995L13.0713 2.92807L11.9997 1.07188H9.85629L7.99981 0L6.14334 1.07188H3.99991L2.92803 2.92835L1.07188 3.99995V6.14339L0 7.99986L1.07188 9.85633V11.9998L2.92835 13.0716L4.00023 14.9281H6.14367L7.99986 15.9997L9.85633 14.9278H11.9998L13.0716 13.0714L14.9281 11.9995V9.85606L16 7.99958L14.9281 6.14311V3.99995H14.9278ZM7.27779 11.2741C7.12863 11.4233 6.93211 11.4958 6.73647 11.493C6.54079 11.4958 6.34431 11.4233 6.19515 11.2741L3.85547 8.93445C3.56239 8.64137 3.56239 8.16591 3.85547 7.87282L4.47485 7.25344C4.76794 6.96036 5.2434 6.96036 5.53648 7.25344L6.73647 8.45343L10.463 4.72666C10.756 4.43358 11.2315 4.43358 11.5246 4.72666L12.144 5.34604C12.4371 5.63913 12.4371 6.11459 12.144 6.40767L7.27779 11.2741Z" fill="#0094B8"/>
</svg>
