<svg width="20" height="20" viewBox="0 0 20 20" fill="none" xmlns="http://www.w3.org/2000/svg">
<path fill-rule="evenodd" clip-rule="evenodd" d="M10 20H5C3.67392 20 2.40215 19.4732 1.46447 18.5355C0.526784 17.5979 0 16.3261 0 15V5C0 3.67392 0.526784 2.40215 1.46447 1.46447C2.40215 0.526784 3.67392 0 5 0L15 0C16.3261 0 17.5979 0.526784 18.5355 1.46447C19.4732 2.40215 20 3.67392 20 5V15C20 16.3261 19.4732 17.5979 18.5355 18.5355C17.5979 19.4732 16.3261 20 15 20H13.125C13.125 19.5856 12.9604 19.1882 12.6674 18.8951C12.3743 18.6021 11.9769 18.4375 11.5625 18.4375C11.1481 18.4375 10.7507 18.6021 10.4576 18.8951C10.1646 19.1882 10 19.5856 10 20Z" fill="#507DD2"/>
<path fill-rule="evenodd" clip-rule="evenodd" d="M9.375 5.625H15C15.7216 5.62591 16.416 5.34941 16.9394 4.85271C17.4629 4.356 17.7754 3.6771 17.8123 2.95643C17.8493 2.23576 17.6078 1.52847 17.1378 0.980864C16.6679 0.433257 16.0054 0.0872349 15.2875 0.014375C15.1919 0.0090625 15.0972 0 15 0H5C3.67392 0 2.40215 0.526784 1.46447 1.46447C0.526784 2.40215 0 3.67392 0 5L0 15C0 12.5136 0.98772 10.129 2.74587 8.37087C4.50403 6.61272 6.8886 5.625 9.375 5.625Z" fill="#507DD2"/>
<path fill-rule="evenodd" clip-rule="evenodd" d="M15 10C14.0111 10 13.0444 10.2932 12.2222 10.8427C11.3999 11.3921 10.759 12.173 10.3806 13.0866C10.0022 14.0002 9.90315 15.0055 10.0961 15.9755C10.289 16.9454 10.7652 17.8363 11.4645 18.5355C12.1637 19.2348 13.0546 19.711 14.0246 19.9039C14.9945 20.0969 15.9998 19.9978 16.9134 19.6194C17.8271 19.241 18.6079 18.6001 19.1574 17.7779C19.7068 16.9556 20 15.9889 20 15V5C20 6.32608 19.4732 7.59785 18.5355 8.53553C17.5979 9.47322 16.3261 10 15 10Z" fill="#507DD2"/>
<path fill-rule="evenodd" clip-rule="evenodd" d="M16.25 5.625C16.25 5.79076 16.1842 5.94973 16.0669 6.06694C15.9497 6.18415 15.7908 6.25 15.625 6.25H13.75C13.5842 6.25 13.4253 6.31585 13.3081 6.43306C13.1908 6.55027 13.125 6.70924 13.125 6.875V9.375H15.4875C15.58 9.37501 15.6713 9.39553 15.7548 9.43509C15.8384 9.47465 15.9122 9.53225 15.9708 9.60375C16.0294 9.67526 16.0714 9.75887 16.0938 9.84858C16.1162 9.93828 16.1184 10.0318 16.1003 10.1225L15.7253 11.9975C15.697 12.1392 15.6205 12.2667 15.5087 12.3583C15.397 12.4499 15.257 12.5 15.1125 12.5H13.125V20H10V12.5H8.125C7.95924 12.5 7.80027 12.4342 7.68306 12.3169C7.56585 12.1997 7.5 12.0408 7.5 11.875V10C7.5 9.83424 7.56585 9.67527 7.68306 9.55806C7.80027 9.44085 7.95924 9.375 8.125 9.375H10V6.875C10 5.88044 10.3951 4.92661 11.0983 4.22335C11.8016 3.52009 12.7554 3.125 13.75 3.125H15.625C15.7908 3.125 15.9497 3.19085 16.0669 3.30806C16.1842 3.42527 16.25 3.58424 16.25 3.75V5.625Z" fill="white"/>
</svg>
