<svg width="20" height="20" viewBox="0 0 20 20" fill="none" xmlns="http://www.w3.org/2000/svg">
<path d="M20 4.00041V5.33388H6.94855e-08V4.00041C-0.000156767 3.23189 0.265189 2.48693 0.751129 1.89159C1.23707 1.29625 1.91376 0.887111 2.66667 0.733408V1.33347C2.66667 1.70017 2.96667 2.0002 3.33333 2.0002C3.7 2.0002 4 1.70017 4 1.33347V0.666735H6V1.33347C6 1.70017 6.3 2.0002 6.66667 2.0002C7.03333 2.0002 7.33333 1.70017 7.33333 1.33347V0.666735H9.33333V1.33347C9.33333 1.70017 9.63333 2.0002 10 2.0002C10.3667 2.0002 10.6667 1.70017 10.6667 1.33347V0.666735H12.6667V1.33347C12.6667 1.70017 12.9667 2.0002 13.3333 2.0002C13.7 2.0002 14 1.70017 14 1.33347V0.666735H16V1.33347C16 1.70017 16.3 2.0002 16.6667 2.0002C17.0333 2.0002 17.3333 1.70017 17.3333 1.33347V0.733408C18.0862 0.887111 18.7629 1.29625 19.2489 1.89159C19.7348 2.48693 20.0002 3.23189 20 4.00041ZM10 0C9.63333 0 9.33333 0.300031 9.33333 0.666735H10.6667C10.6667 0.300031 10.3667 0 10 0ZM3.33333 0C2.96667 0 2.66667 0.300031 2.66667 0.666735V0.733408C2.88 0.686737 3.10667 0.666735 3.33333 0.666735H4C4 0.300031 3.7 0 3.33333 0ZM6.66667 0C6.3 0 6 0.300031 6 0.666735H7.33333C7.33333 0.300031 7.03333 0 6.66667 0ZM13.3333 0C12.9667 0 12.6667 0.300031 12.6667 0.666735H14C14 0.300031 13.7 0 13.3333 0ZM16.6667 0C16.3 0 16 0.300031 16 0.666735H16.6667C16.8933 0.666735 17.12 0.686737 17.3333 0.733408V0.666735C17.3333 0.300031 17.0333 0 16.6667 0ZM20 15.3349C20 17.9152 17.9133 20.002 15.3333 20.002C12.7533 20.002 10.6667 17.9152 10.6667 15.3349C10.6667 12.7546 12.7533 10.6678 15.3333 10.6678C17.9133 10.6678 20 12.7546 20 15.3349ZM17.3333 15.3349C17.3333 14.9682 17.0333 14.6682 16.6667 14.6682H16V13.3347C16 12.968 15.7 12.668 15.3333 12.668C14.9667 12.668 14.6667 12.968 14.6667 13.3347V15.3349C14.6667 15.7016 14.9667 16.0016 15.3333 16.0016H16.6667C17.0333 16.0016 17.3333 15.7016 17.3333 15.3349ZM20 6.66735V11.5745C19.44 10.875 18.7297 10.3104 17.9219 9.92258C17.1141 9.53479 16.2294 9.33372 15.3333 9.33429C12.0267 9.33429 9.33333 12.0279 9.33333 15.3349C9.33277 16.231 9.53382 17.1158 9.92157 17.9237C10.3093 18.7316 10.8738 19.4419 11.5733 20.002H3.33333C1.49333 20.002 6.94855e-08 18.5086 6.94855e-08 16.6684V6.66735H20ZM4.66667 16.6684C4.66667 16.3017 4.36667 16.0016 4 16.0016C3.63333 16.0016 3.33333 16.3017 3.33333 16.6684C3.33333 17.0351 3.63333 17.3351 4 17.3351C4.36667 17.3351 4.66667 17.0351 4.66667 16.6684ZM4.66667 13.3347C4.66667 12.968 4.36667 12.668 4 12.668C3.63333 12.668 3.33333 12.968 3.33333 13.3347C3.33333 13.7014 3.63333 14.0014 4 14.0014C4.36667 14.0014 4.66667 13.7014 4.66667 13.3347ZM4.66667 10.001C4.66667 9.63432 4.36667 9.33429 4 9.33429C3.63333 9.33429 3.33333 9.63432 3.33333 10.001C3.33333 10.3677 3.63333 10.6678 4 10.6678C4.36667 10.6678 4.66667 10.3677 4.66667 10.001ZM8.66667 16.6684C8.66667 16.3017 8.36667 16.0016 8 16.0016C7.63333 16.0016 7.33333 16.3017 7.33333 16.6684C7.33333 17.0351 7.63333 17.3351 8 17.3351C8.36667 17.3351 8.66667 17.0351 8.66667 16.6684ZM8.66667 13.3347C8.66667 12.968 8.36667 12.668 8 12.668C7.63333 12.668 7.33333 12.968 7.33333 13.3347C7.33333 13.7014 7.63333 14.0014 8 14.0014C8.36667 14.0014 8.66667 13.7014 8.66667 13.3347ZM8.66667 10.001C8.66667 9.63432 8.36667 9.33429 8 9.33429C7.63333 9.33429 7.33333 9.63432 7.33333 10.001C7.33333 10.3677 7.63333 10.6678 8 10.6678C8.36667 10.6678 8.66667 10.3677 8.66667 10.001Z" fill="white"/>
</svg>
