<svg width="23" height="22" viewBox="0 0 23 22" fill="none" xmlns="http://www.w3.org/2000/svg">
<path d="M22.9735 10.2955V17.3561C23.0426 17.9523 22.976 18.5565 22.7787 19.1233C22.5814 19.6902 22.2584 20.2051 21.834 20.6295C21.4096 21.0539 20.8947 21.3768 20.3278 21.5742C19.761 21.7715 19.1569 21.8381 18.5606 21.769H4.43937C3.84315 21.8381 3.23902 21.7715 2.67217 21.5742C2.10532 21.3768 1.59043 21.0539 1.16601 20.6295C0.741599 20.2051 0.418644 19.6902 0.22131 19.1233C0.0239755 18.5565 -0.0426305 17.9523 0.0264743 17.3561V5.5884C-0.0426305 4.99218 0.0239755 4.38805 0.22131 3.8212C0.418644 3.25435 0.741599 2.73946 1.16601 2.31505C1.59043 1.89063 2.10532 1.56768 2.67217 1.37035C3.23902 1.17301 3.84315 1.10641 4.43937 1.17551H13.8535C14.0876 1.17551 14.3121 1.2685 14.4776 1.43401C14.6431 1.59953 14.7361 1.82401 14.7361 2.05809C14.7361 2.29216 14.6431 2.51665 14.4776 2.68217C14.3121 2.84768 14.0876 2.94067 13.8535 2.94067H4.43937C2.5836 2.94067 1.79163 3.73263 1.79163 5.5884V16.4735L4.78063 13.4845C5.00282 13.2641 5.30313 13.1404 5.61614 13.1404C5.92915 13.1404 6.22947 13.2641 6.45165 13.4845L7.55781 14.5907C7.6678 14.6985 7.81567 14.7589 7.96968 14.7589C8.1237 14.7589 8.27157 14.6985 8.38155 14.5907L14.1948 8.77746C14.417 8.55698 14.7173 8.43327 15.0303 8.43327C15.3433 8.43327 15.6436 8.55698 15.8658 8.77746L21.2084 14.12V10.2955C21.2084 10.0614 21.3014 9.83693 21.4669 9.67141C21.6324 9.5059 21.8569 9.41291 22.0909 9.41291C22.325 9.41291 22.5495 9.5059 22.715 9.67141C22.8805 9.83693 22.9735 10.0614 22.9735 10.2955ZM6.78468 6.47098C6.39397 6.47207 6.01968 6.62819 5.74399 6.90503C5.4683 7.18188 5.31375 7.55683 5.3143 7.94753C5.31485 8.33823 5.47043 8.71275 5.7469 8.98883C6.02336 9.2649 6.39809 9.41997 6.78879 9.41997C7.1795 9.41997 7.55423 9.2649 7.83069 8.98883C8.10715 8.71275 8.26274 8.33823 8.26329 7.94753C8.26383 7.55683 8.10929 7.18188 7.8336 6.90503C7.55791 6.62819 7.18361 6.47207 6.79291 6.47098H6.78468ZM19.1843 3.27016L19.4432 3.01245V5.5884C19.4432 5.82248 19.5362 6.04697 19.7017 6.21248C19.8672 6.378 20.0917 6.47098 20.3258 6.47098C20.5599 6.47098 20.7844 6.378 20.9499 6.21248C21.1154 6.04697 21.2084 5.82248 21.2084 5.5884V3.01245L21.4673 3.27016C21.6346 3.42606 21.8559 3.51093 22.0845 3.5069C22.3131 3.50287 22.5313 3.41024 22.693 3.24854C22.8547 3.08683 22.9473 2.86868 22.9514 2.64003C22.9554 2.41138 22.8705 2.19009 22.7146 2.02279L20.9495 0.257628C20.7838 0.0926369 20.5596 0 20.3258 0C20.092 0 19.8677 0.0926369 19.7021 0.257628L17.9369 2.02279C17.781 2.19009 17.6962 2.41138 17.7002 2.64003C17.7042 2.86868 17.7969 3.08683 17.9586 3.24854C18.1203 3.41024 18.3384 3.50287 18.5671 3.5069C18.7957 3.51093 19.017 3.42606 19.1843 3.27016Z" fill="#0094B8"/>
</svg>
