<svg width="22" height="22" viewBox="0 0 22 22" fill="none" xmlns="http://www.w3.org/2000/svg">
<path d="M22 11C22 11.9387 20.8468 12.7123 20.6158 13.5777C20.3775 14.4723 20.9807 15.719 20.5278 16.5018C20.0677 17.2975 18.6835 17.3928 18.0382 18.0382C17.3928 18.6835 17.2975 20.0677 16.5018 20.5278C15.719 20.9807 14.4723 20.3775 13.5777 20.6158C12.7123 20.8468 11.9387 22 11 22C10.0613 22 9.28767 20.8468 8.42233 20.6158C7.52767 20.3775 6.281 20.9807 5.49817 20.5278C4.7025 20.0677 4.60717 18.6835 3.96183 18.0382C3.3165 17.3928 1.93233 17.2975 1.47217 16.5018C1.01933 15.719 1.6225 14.4723 1.38417 13.5777C1.15317 12.7123 0 11.9387 0 11C0 10.0613 1.15317 9.28767 1.38417 8.42233C1.6225 7.52767 1.01933 6.281 1.47217 5.49817C1.93233 4.7025 3.3165 4.60717 3.96183 3.96183C4.60717 3.3165 4.7025 1.93233 5.49817 1.47217C6.281 1.01933 7.52767 1.6225 8.42233 1.38417C9.28767 1.15317 10.0613 0 11 0C11.9387 0 12.7123 1.15317 13.5777 1.38417C14.4723 1.6225 15.719 1.01933 16.5018 1.47217C17.2975 1.93233 17.3928 3.3165 18.0382 3.96183C18.6835 4.60717 20.0677 4.7025 20.5278 5.49817C20.9807 6.281 20.3775 7.52767 20.6158 8.42233C20.8468 9.28767 22 10.0613 22 11Z" fill="#00424E"/>
<path d="M14.1792 7.722L9.9919 11.9093L7.82124 9.7405C7.59485 9.51425 7.28789 9.38715 6.96782 9.38715C6.64776 9.38715 6.34079 9.51425 6.1144 9.7405C5.88815 9.96689 5.76105 10.2739 5.76105 10.5939C5.76105 10.914 5.88815 11.221 6.1144 11.4473L9.15957 14.4925C9.37992 14.7126 9.67863 14.8362 9.99007 14.8362C10.3015 14.8362 10.6002 14.7126 10.8206 14.4925L15.8842 9.42884C16.1105 9.20245 16.2376 8.89549 16.2376 8.57542C16.2376 8.25536 16.1105 7.94839 15.8842 7.722C15.7723 7.60999 15.6394 7.52112 15.4932 7.46049C15.3469 7.39986 15.1901 7.36865 15.0317 7.36865C14.8734 7.36865 14.7166 7.39986 14.5703 7.46049C14.424 7.52112 14.2912 7.60999 14.1792 7.722Z" fill="#FFFCEE"/>
</svg>
