<svg width="25" height="24" viewBox="0 0 25 24" fill="none" xmlns="http://www.w3.org/2000/svg">
<path d="M16 12C16 13.933 14.433 15.5 12.5 15.5C10.567 15.5 9 13.933 9 12C9 10.067 10.567 8.5 12.5 8.5C14.433 8.5 16 10.067 16 12Z" stroke="#757575" stroke-width="1.5"/>
<path d="M21.511 14.0968C22.0329 13.9561 22.2939 13.8857 22.3969 13.7511C22.5 13.6166 22.5 13.4001 22.5 12.9672V11.0335C22.5 10.6006 22.5 10.3841 22.3969 10.2496C22.2938 10.115 22.0329 10.0446 21.511 9.90389C19.5606 9.3779 18.3399 7.33882 18.8433 5.40118C18.9817 4.8683 19.0509 4.60187 18.9848 4.4456C18.9187 4.28933 18.7291 4.18165 18.3497 3.96627L16.625 2.98704C16.2528 2.7757 16.0667 2.67003 15.8997 2.69253C15.7326 2.71503 15.5442 2.90304 15.1672 3.27904C13.708 4.73479 11.2936 4.73473 9.83434 3.27895C9.45743 2.90294 9.26898 2.71494 9.10193 2.69243C8.93489 2.66993 8.74877 2.7756 8.37653 2.98694L6.65184 3.96618C6.27253 4.18154 6.08287 4.28922 6.01678 4.44546C5.95068 4.60171 6.01987 4.86818 6.15825 5.40111C6.66137 7.33881 5.43972 9.37794 3.48902 9.90391C2.96712 10.0446 2.70617 10.115 2.60308 10.2495C2.5 10.3841 2.5 10.6006 2.5 11.0335V12.9672C2.5 13.4001 2.5 13.6166 2.60308 13.7511C2.70615 13.8857 2.96711 13.9561 3.48902 14.0968C5.4394 14.6228 6.66008 16.6619 6.15672 18.5995C6.01829 19.1324 5.94907 19.3988 6.01516 19.5551C6.08126 19.7114 6.27092 19.8191 6.65025 20.0344L8.37495 21.0137C8.74721 21.225 8.93334 21.3307 9.1004 21.3082C9.26746 21.2857 9.45588 21.0976 9.83271 20.7216C11.2927 19.2647 13.7088 19.2646 15.1689 20.7215C15.5457 21.0976 15.7341 21.2856 15.9012 21.3081C16.0682 21.3306 16.2544 21.2249 16.6266 21.0136L18.3513 20.0343C18.7307 19.819 18.9204 19.7113 18.9864 19.555C19.0525 19.3987 18.9833 19.1323 18.8448 18.5994C18.3412 16.6619 19.5609 14.6229 21.511 14.0968Z" stroke="#757575" stroke-width="1.5" stroke-linecap="round"/>
</svg>
