<svg width="20" height="23" viewBox="0 0 20 23" fill="none" xmlns="http://www.w3.org/2000/svg">
<path d="M13.3333 5.71429H20L15.9691 0H12.3081L13.2606 5.71429H13.3333ZM6.77105 5.71429L8.19962 0H4.03086L0 5.71429H6.66667H6.77105ZM7.61905 9.58643L8.57152 8.95152L10.0001 9.90386L11.4286 8.95148L12.381 9.58638V6.66667H7.61905V9.58643ZM8.09524 14.7619H3.33333V19.5238H8.09524V14.7619ZM5.2381 18.5714H4.28571V15.7143H5.2381V18.5714ZM7.14286 18.5714H6.19048V15.7143H7.14286V18.5714ZM12.295 5.71429L11.3426 0H9.18133L7.75276 5.71429H12.295Z" fill="#00424E"/>
<path d="M13.3333 11.366L11.4286 10.0961L10.0002 11.0485L8.57152 10.0961L6.66667 11.3659V6.66663H0V22.8571H20V6.66663H13.3333V11.366ZM9.04762 20.4762H2.38095V13.8095H9.04762V20.4762ZM17.619 20.4762H10.4762V19.5238H17.619V20.4762ZM17.619 18.5714H10.4762V17.619H17.619V18.5714Z" fill="#00424E"/>
</svg>
