<svg width="12" height="12" viewBox="0 0 12 12" fill="none" xmlns="http://www.w3.org/2000/svg">
<path d="M0 6C0 3.17157 -7.15256e-08 1.75736 0.878682 0.878682C1.75736 -7.15256e-08 3.17157 0 6 0C8.8284 0 10.2427 -7.15256e-08 11.1213 0.878682C12 1.75736 12 3.17157 12 6C12 8.8284 12 10.2427 11.1213 11.1213C10.2427 12 8.8284 12 6 12C3.17157 12 1.75736 12 0.878682 11.1213C-7.15256e-08 10.2427 0 8.8284 0 6Z" fill="white"/>
<path fill-rule="evenodd" clip-rule="evenodd" d="M5.9998 3.15C6.24832 3.15 6.4498 3.35148 6.4498 3.6V5.81358L7.81798 7.18182C7.99372 7.35756 7.99372 7.64244 7.81798 7.81818C7.64224 7.99392 7.35736 7.99392 7.18162 7.81818L5.68162 6.31818C5.5972 6.23382 5.5498 6.11934 5.5498 6V3.6C5.5498 3.35148 5.75128 3.15 5.9998 3.15Z" fill="#141D3E"/>
</svg>
