<svg width="159" height="141" viewBox="0 0 159 141" fill="none" xmlns="http://www.w3.org/2000/svg">
<path d="M17.6417 12.7806C11.3372 13.8138 10.2164 15.1262 9.3758 22.7764C9.34766 23.0278 8.98327 23.0278 8.95537 22.7764C8.11476 15.1262 6.99395 13.8418 0.689229 12.7806C0.436924 12.7528 0.436924 12.39 0.689229 12.3619C6.99395 11.329 8.11476 10.0446 8.95537 2.39416C8.98327 2.14275 9.34766 2.14275 9.3758 2.39416C10.2162 10.0446 11.337 11.3012 17.6417 12.3619C17.8659 12.39 17.8659 12.7248 17.6417 12.7806ZM20.3319 3.95771C18.37 4.34884 17.8096 4.99089 17.4736 7.28038C17.4457 7.53179 17.0813 7.53179 17.0534 7.28038C16.7172 4.99089 16.1567 4.3486 14.1953 3.92991C14.1476 3.91924 14.1049 3.89269 14.0743 3.85461C14.0437 3.81654 14.027 3.76922 14.027 3.72045C14.027 3.67167 14.0437 3.62435 14.0743 3.58628C14.1049 3.54821 14.1476 3.52165 14.1953 3.51098C16.1288 3.12009 16.7172 2.47804 17.0532 0.188555C17.0813 -0.0628515 17.4457 -0.0628515 17.4736 0.188555C17.8098 2.4778 18.3702 3.12009 20.3319 3.53902C20.5561 3.59462 20.5561 3.92991 20.3319 3.95771Z" fill="#8A2384"/>
<path d="M141.358 130.816C147.663 131.849 148.784 133.161 149.624 140.811C149.652 141.063 150.017 141.063 150.045 140.811C150.885 133.161 152.006 131.877 158.311 130.816C158.563 130.788 158.563 130.425 158.311 130.397C152.006 129.364 150.885 128.08 150.045 120.429C150.017 120.178 149.652 120.178 149.624 120.429C148.784 128.08 147.663 129.336 141.358 130.397C141.134 130.425 141.134 130.76 141.358 130.816ZM138.668 121.993C140.63 122.384 141.19 123.026 141.526 125.315C141.554 125.567 141.919 125.567 141.947 125.315C142.283 123.026 142.843 122.384 144.805 121.965C144.852 121.954 144.895 121.928 144.926 121.89C144.956 121.852 144.973 121.804 144.973 121.755C144.973 121.707 144.956 121.659 144.926 121.621C144.895 121.583 144.852 121.557 144.805 121.546C142.871 121.155 142.283 120.513 141.947 118.224C141.919 117.972 141.554 117.972 141.526 118.224C141.19 120.513 140.63 121.155 138.668 121.574C138.444 121.63 138.444 121.965 138.668 121.993Z" fill="#5F7EFF"/>
<ellipse opacity="0.1" cx="73.5" cy="77.1811" rx="64" ry="63.772" fill="#00424E"/>
<ellipse opacity="0.3" cx="73.5" cy="77.1812" rx="47" ry="46.8325" fill="#00424E"/>
<circle cx="73.5" cy="77.1811" r="29.9465" fill="#00424E"/>
<path d="M84.211 69.7113C83.5239 69.0233 82.4082 69.0237 81.7202 69.7113L70.5095 80.9224L65.5268 75.9398C64.8388 75.2517 63.7236 75.2517 63.0355 75.9398C62.3475 76.6278 62.3475 77.743 63.0355 78.4311L69.2636 84.6591C69.6074 85.0029 70.0582 85.1752 70.509 85.1752C70.9599 85.1752 71.4111 85.0033 71.7549 84.6591L84.211 72.2025C84.899 71.515 84.899 70.3993 84.211 69.7113Z" fill="white"/>
<ellipse cx="4" cy="3.98575" rx="4" ry="3.98575" transform="matrix(1 0 0 -1 7.5 140.953)" fill="#F43A54"/>
<ellipse cx="4" cy="3.98575" rx="4" ry="3.98575" transform="matrix(1 0 0 -1 150.5 32.3414)" fill="#F43A54"/>
</svg>
