<svg width="18" height="15" viewBox="0 0 18 15" fill="none" xmlns="http://www.w3.org/2000/svg">
<path fill-rule="evenodd" clip-rule="evenodd" d="M8.17089 12.5026C8.31421 12.5027 8.45611 12.531 8.58848 12.5859C8.72087 12.6408 8.84113 12.7213 8.94242 12.8226C9.04371 12.924 9.12404 13.0444 9.17882 13.1768C9.2336 13.3093 9.26176 13.4512 9.26168 13.5945C9.26161 13.7378 9.23332 13.8797 9.17841 14.0121C9.1235 14.1445 9.04305 14.2647 8.94166 14.366C8.84027 14.4673 8.71992 14.5477 8.58748 14.6024C8.45505 14.6572 8.31312 14.6854 8.1698 14.6853C7.88036 14.6852 7.60283 14.57 7.39827 14.3653C7.19371 14.1605 7.07886 13.8829 7.07901 13.5934C7.07915 13.304 7.19427 13.0264 7.39904 12.8219C7.6038 12.6173 7.88145 12.5025 8.17089 12.5026ZM12.9154 12.5026C13.0587 12.5027 13.2006 12.531 13.333 12.5859C13.4654 12.6408 13.5856 12.7213 13.6869 12.8226C13.7882 12.924 13.8685 13.0444 13.9233 13.1768C13.9781 13.3093 14.0063 13.4512 14.0062 13.5945C14.0061 13.7378 13.9778 13.8797 13.9229 14.0121C13.868 14.1445 13.7876 14.2647 13.6862 14.366C13.5848 14.4673 13.4644 14.5477 13.332 14.6024C13.1996 14.6572 13.0576 14.6854 12.9143 14.6853C12.6249 14.6852 12.3473 14.57 12.1428 14.3653C11.9382 14.1605 11.8234 13.8829 11.8235 13.5934C11.8237 13.304 11.9388 13.0264 12.1435 12.8219C12.3483 12.6173 12.626 12.5025 12.9154 12.5026ZM0.928019 1.60604H2.46902C2.61529 1.60598 2.75754 1.65392 2.87394 1.7425C2.99034 1.83107 3.07447 1.95539 3.11341 2.09638L5.27548 9.87841C5.39451 10.3072 5.65075 10.6851 6.00497 10.9544C6.35919 11.2237 6.79189 11.3695 7.23685 11.3695H13.8229C14.2771 11.3696 14.7183 11.2177 15.0763 10.9381C15.4343 10.6584 15.6884 10.2671 15.7983 9.82634L17.1685 4.34686C17.1935 4.24689 17.1953 4.14255 17.1739 4.04175C17.1525 3.94095 17.1084 3.84636 17.045 3.76515C16.9816 3.68395 16.9005 3.61826 16.8079 3.5731C16.7153 3.52793 16.6136 3.50447 16.5105 3.50449H7.08009C6.90027 3.50449 6.72781 3.57593 6.60066 3.70308C6.47351 3.83023 6.40207 4.00269 6.40207 4.18251C6.40207 4.36233 6.47351 4.53479 6.60066 4.66194C6.72781 4.78909 6.90027 4.86053 7.08009 4.86053H15.6421L14.4824 9.49872C14.4456 9.64579 14.3608 9.77635 14.2412 9.86962C14.1217 9.96289 13.9745 10.0135 13.8229 10.0135H7.23685C7.08825 10.0134 6.94378 9.96464 6.82547 9.87473C6.70716 9.78483 6.62151 9.65867 6.58161 9.51554L4.41955 1.73296C4.30129 1.30651 4.04651 0.930581 3.69422 0.662741C3.34193 0.394902 2.91156 0.24992 2.46902 0.25H0.928019C0.748197 0.25 0.57574 0.321434 0.448587 0.448587C0.321434 0.57574 0.25 0.748197 0.25 0.928019C0.25 1.10784 0.321434 1.2803 0.448587 1.40745C0.57574 1.5346 0.748197 1.60604 0.928019 1.60604Z" fill="black" stroke="black" stroke-width="0.5"/>
</svg>
