<svg width="20" height="21" viewBox="0 0 20 21" fill="none" xmlns="http://www.w3.org/2000/svg">
<path d="M19.4627 9.19893L19.4614 9.19757L11.3021 1.03865C10.9543 0.690645 10.4919 0.499023 10.0001 0.499023C9.50829 0.499023 9.04589 0.690527 8.69797 1.03849L0.542957 9.19327C0.540223 9.196 0.537488 9.19889 0.534753 9.20167C-0.17946 9.91994 -0.17821 11.0854 0.538269 11.8019C0.865568 12.1293 1.29792 12.319 1.76015 12.3389C1.7789 12.3407 1.79785 12.3416 1.81692 12.3416H2.1421V18.3461C2.1421 19.5343 3.10884 20.5011 4.29732 20.5011H7.48945C7.813 20.5011 8.07544 20.2387 8.07544 19.9151V15.2076C8.07544 14.6654 8.5165 14.2243 9.05871 14.2243H10.9415C11.4838 14.2243 11.9247 14.6654 11.9247 15.2076V19.9151C11.9247 20.2387 12.1871 20.5011 12.5107 20.5011H15.7029C16.8914 20.5011 17.8581 19.5343 17.8581 18.3462V12.3416H18.1597C18.6514 12.3416 19.1138 12.1501 19.4618 11.8022C20.1791 11.0845 20.1794 9.91709 19.4627 9.19893Z" fill="#F1F1F1"/>
</svg>
