<svg width="11" height="14" viewBox="0 0 11 14" fill="none" xmlns="http://www.w3.org/2000/svg">
<path d="M9.80763 1.15572H8.34656V0.618319C8.34656 0.332823 8.12824 0.114502 7.84275 0.114502C7.55725 0.114502 7.33893 0.332823 7.33893 0.618319V1.15572H5.99542V0.618319C5.99542 0.332823 5.7771 0.114502 5.4916 0.114502C5.20611 0.114502 4.98779 0.332823 4.98779 0.618319V1.15572H3.64427V0.618319C3.64427 0.332823 3.42595 0.114502 3.14046 0.114502C2.85496 0.114502 2.63664 0.332823 2.63664 0.618319V1.15572H1.17557C0.520611 1.15572 0 1.67633 0 2.3313V12.7099C0 13.3649 0.520611 13.8855 1.17557 13.8855H9.82443C10.4794 13.8855 11 13.3649 11 12.7099V2.3313C10.9832 1.67633 10.4626 1.15572 9.80763 1.15572ZM3.69466 6.05954H7.28855C7.57405 6.05954 7.79237 6.27786 7.79237 6.56336C7.79237 6.84885 7.57405 7.06717 7.28855 7.06717H3.69466C3.40916 7.06717 3.19084 6.84885 3.19084 6.56336C3.19084 6.27786 3.40916 6.05954 3.69466 6.05954ZM8.21221 9.35114H2.77099C2.4855 9.35114 2.26718 9.13282 2.26718 8.84733C2.26718 8.56183 2.4855 8.34351 2.77099 8.34351H8.22901C8.5145 8.34351 8.73282 8.56183 8.73282 8.84733C8.73282 9.13282 8.49771 9.35114 8.21221 9.35114Z" fill="#0094B8"/>
</svg>
