<svg width="20" height="20" viewBox="0 0 20 20" fill="none" xmlns="http://www.w3.org/2000/svg">
<path d="M1.30459 1.38881C-0.262557 3.01662 0.0581852 4.74581 0.0581852 9.999C0.0581852 14.3614 -0.702955 18.7347 3.28057 19.7642C4.52448 20.0841 15.5461 20.0841 16.7883 19.7625C18.4469 19.3346 19.7963 17.9893 19.9808 15.6436C20.0065 15.3162 20.0065 4.68764 19.98 4.3536C19.7838 1.85497 18.2458 0.414952 16.2191 0.123292C15.7546 0.0559858 15.6616 0.0360432 13.2784 0.0318885C4.82528 0.0360432 2.97229 -0.340372 1.30459 1.38881Z" fill="url(#paint0_linear_468_413)"/>
<path d="M10.0274 2.64016C7.01027 2.64016 4.14519 2.37177 3.05084 5.18034C2.59881 6.34034 2.66446 7.84683 2.66446 10.0039C2.66446 11.8968 2.6038 13.6759 3.05084 14.8267C4.1427 17.637 7.03104 17.3677 10.0257 17.3677C12.9149 17.3677 15.8938 17.6685 17.0015 14.8267C17.4543 13.6551 17.3879 12.171 17.3879 10.0039C17.3879 7.12724 17.5466 5.27009 16.1514 3.87577C14.7388 2.46317 12.8285 2.64016 10.0241 2.64016H10.0274ZM9.36764 3.96717C15.6612 3.9572 16.4622 3.25755 16.0201 12.977C15.8631 16.4146 13.2456 16.0374 10.0282 16.0374C4.16181 16.0374 3.99313 15.8695 3.99313 10.0006C3.99313 4.06356 4.45846 3.9705 9.36764 3.96551V3.96717ZM13.9578 5.18948C13.7235 5.18948 13.4988 5.28254 13.3332 5.44819C13.1675 5.61384 13.0745 5.83851 13.0745 6.07277C13.0745 6.30704 13.1675 6.5317 13.3332 6.69735C13.4988 6.863 13.7235 6.95606 13.9578 6.95606C14.192 6.95606 14.4167 6.863 14.5823 6.69735C14.748 6.5317 14.841 6.30704 14.841 6.07277C14.841 5.83851 14.748 5.61384 14.5823 5.44819C14.4167 5.28254 14.192 5.18948 13.9578 5.18948ZM10.0274 6.22234C9.53086 6.2224 9.03918 6.32025 8.58044 6.51033C8.12171 6.7004 7.70491 6.97897 7.35383 7.33012C6.6448 8.03931 6.24653 9.00111 6.24664 10.0039C6.24675 11.0068 6.64523 11.9685 7.35441 12.6775C8.0636 13.3866 9.02541 13.7848 10.0282 13.7847C11.0311 13.7846 11.9928 13.3861 12.7018 12.6769C13.4109 11.9678 13.8091 11.0059 13.809 10.0031C13.8089 9.00028 13.4104 8.03857 12.7012 7.32953C11.992 6.6205 11.0302 6.22223 10.0274 6.22234ZM10.0274 7.54935C13.2722 7.54935 13.2764 12.4585 10.0274 12.4585C6.78342 12.4585 6.77844 7.54935 10.0274 7.54935Z" fill="white"/>
<defs>
<linearGradient id="paint0_linear_468_413" x1="1.34283" y1="18.7007" x2="19.8773" y2="2.6593" gradientUnits="userSpaceOnUse">
<stop stop-color="#FFDD55"/>
<stop offset="0.5" stop-color="#FF543E"/>
<stop offset="1" stop-color="#C837AB"/>
</linearGradient>
</defs>
</svg>
