<svg width="50" height="50" viewBox="0 0 50 50" fill="none" xmlns="http://www.w3.org/2000/svg">
<path d="M0 0H50V45C50 47.7614 47.7614 50 45 50H5C2.23858 50 0 47.7614 0 45V0Z" fill="#F43A54" fill-opacity="0.1"/>
<path d="M22.4821 13.0002C22.3201 12.9978 22.1414 13.0201 21.9223 13.0912C21.4843 13.233 21.2888 13.4461 21.0682 13.6548C20.8475 13.8633 20.6449 14.0886 20.4484 14.3134C20.0554 14.763 19.5808 15.2546 19.6368 15.214C19.6929 15.1737 19.0839 15.47 18.5348 15.704C18.2602 15.8209 17.9745 15.9487 17.7077 16.0933C17.441 16.2384 17.1847 16.3541 16.9136 16.7267C16.6426 17.0991 16.6074 17.383 16.5514 17.6816C16.4955 17.9801 16.4679 18.2848 16.441 18.5822C16.3872 19.1769 16.2859 19.843 16.3074 19.7772C16.3288 19.7114 16.008 20.3129 15.7011 20.8251C15.5477 21.0813 15.3921 21.3547 15.2615 21.6289C15.1308 21.903 15.0005 22.1463 15 22.607C14.9995 23.0677 15.1333 23.3126 15.2634 23.587C15.3935 23.8616 15.5502 24.1247 15.7031 24.3811C16.0089 24.8939 16.3267 25.4968 16.3054 25.4309C16.2841 25.3652 16.3786 26.0428 16.4313 26.6376C16.4577 26.9348 16.4864 27.2396 16.5417 27.5382C16.5971 27.8371 16.6278 28.122 16.8981 28.495C17.1684 28.8681 17.4277 28.9847 17.6942 29.1303C17.9607 29.2757 18.2449 29.3965 18.5193 29.5138C19.0679 29.7489 19.6811 30.0543 19.6252 30.0135C19.5693 29.9734 20.037 30.4543 20.429 30.9045C20.625 31.1297 20.8266 31.3598 21.0469 31.5688C21.2671 31.778 21.4632 31.9879 21.901 32.1305C22.3388 32.2735 22.6149 32.2195 22.9159 32.1809C23.217 32.1418 23.5178 32.0827 23.8088 32.0162C24.3908 31.8837 25.0614 31.7606 24.9922 31.7606C24.9231 31.7605 25.5901 31.8786 26.1718 32.0124C26.4626 32.0793 26.7598 32.1473 27.0608 32.1867C27.3617 32.2275 27.6396 32.2781 28.0777 32.1363C28.5157 31.9946 28.7112 31.7889 28.9318 31.5805C29.1525 31.372 29.3648 31.1387 29.5613 30.9142C29.9543 30.4645 30.4192 29.9826 30.3632 30.0232C30.3071 30.0635 30.9238 29.7672 31.473 29.5332C31.7475 29.4164 32.0255 29.2865 32.2923 29.1419C32.559 28.9969 32.8153 28.883 33.0864 28.5105C33.3574 28.1381 33.3926 27.8542 33.4486 27.5557C33.5045 27.2571 33.5321 26.9524 33.559 26.655C33.6128 26.0603 33.714 25.3845 33.6926 25.4503C33.6712 25.5161 33.992 24.9147 34.2989 24.4025C34.4523 24.1463 34.6079 23.8825 34.7385 23.6083C34.8692 23.3342 34.9995 23.091 35 22.6302C35.0005 22.1695 34.8667 21.9246 34.7366 21.6502C34.6065 21.3756 34.4518 21.1028 34.2989 20.8464C33.993 20.3336 33.6733 19.7385 33.6946 19.8044C33.7159 19.87 33.6214 19.1925 33.5687 18.5977C33.5424 18.3 33.5136 17.9957 33.4583 17.6971C33.4029 17.3982 33.3722 17.1132 33.1019 16.7402C32.8316 16.3672 32.5723 16.2525 32.3058 16.1069C32.0393 15.9615 31.7551 15.8315 31.4807 15.7137C30.9321 15.4786 30.3189 15.1832 30.3748 15.2237C30.4307 15.2638 29.965 14.7715 29.5729 14.3211C29.3769 14.0959 29.1734 13.8678 28.9531 13.6587C28.7329 13.4495 28.5368 13.2397 28.099 13.097C27.6612 12.954 27.3851 13.0153 27.0841 13.0544C26.783 13.0935 26.4822 13.1545 26.1912 13.221C25.6092 13.3535 24.9386 13.4761 25.0078 13.4766C25.0769 13.4767 24.4099 13.349 23.8282 13.2152C23.5373 13.1483 23.2402 13.088 22.9392 13.0486C22.7887 13.0282 22.6441 13.0026 22.4821 13.0002ZM25.0349 18.2161C25.1879 18.2174 25.3386 18.2542 25.475 18.3238C25.6115 18.3933 25.73 18.4937 25.8212 18.6171L26.9698 20.1724L28.9066 20.9045C29.0488 20.9584 29.1767 21.0444 29.2804 21.1559C29.3841 21.2674 29.4609 21.4014 29.5047 21.5474C29.5485 21.6935 29.5583 21.8478 29.5331 21.9983C29.508 22.1488 29.4487 22.2914 29.3599 22.4152L28.2404 23.9957L28.1455 26.072C28.1383 26.2236 28.0967 26.3716 28.0238 26.5046C27.9509 26.6375 27.8486 26.752 27.7248 26.8391C27.6011 26.9263 27.459 26.9838 27.3097 27.0073C27.1603 27.0308 27.0076 27.0196 26.8633 26.9746L25.0155 26.3916L23.0205 26.9378C22.8736 26.9795 22.719 26.9866 22.5689 26.9583C22.4189 26.9301 22.2773 26.8674 22.1554 26.7751C22.0335 26.6829 21.9345 26.5635 21.8662 26.4264C21.7978 26.2893 21.762 26.1382 21.7616 25.9849L21.7461 24.0422L20.615 22.3068C20.5314 22.18 20.478 22.0356 20.4587 21.8848C20.4395 21.734 20.455 21.5807 20.504 21.4369C20.553 21.293 20.6343 21.1623 20.7415 21.0549C20.8487 20.9475 20.979 20.8662 21.1224 20.8173L22.9663 20.2072L24.2621 18.5861C24.3473 18.4799 24.4533 18.3924 24.5736 18.3291C24.6939 18.2658 24.8258 18.228 24.9613 18.2181C24.9858 18.2165 25.0103 18.2159 25.0349 18.2161Z" fill="#F43A54"/>
<path d="M18.0621 30.6294V33.7981C18.0621 34.6485 18.3837 35.4299 18.9318 36.0468C19.2058 36.3552 19.5466 36.6306 19.9932 36.7789C20.4398 36.9273 21.0092 36.9043 21.4807 36.6685L25.0019 34.9118L28.5231 36.6685C28.6616 36.737 28.8141 36.7721 28.9686 36.7712C30.5996 36.7712 31.9417 35.4291 31.9417 33.7981V30.643C31.5431 30.8227 31.0422 31.0517 31.0856 31.0206C31.1491 30.9745 30.6211 31.5215 30.1752 32.0317C29.9523 32.2864 29.7109 32.5506 29.4605 32.7871C29.2102 33.0236 28.9891 33.2577 28.4921 33.4185C27.995 33.5793 27.6792 33.5211 27.3377 33.4746C26.9962 33.4297 26.6608 33.3532 26.3306 33.2771C25.6706 33.1253 24.9139 32.9923 24.9922 32.9924C25.0707 32.9924 24.3083 33.1307 23.648 33.281C23.3179 33.3563 22.9765 33.4246 22.6351 33.4688C22.2935 33.5127 21.9812 33.573 21.4846 33.4107C20.9878 33.2489 20.7642 33.0107 20.5142 32.7735C20.2643 32.5364 20.0353 32.2757 19.8131 32.0201C19.3682 31.5092 18.8394 30.9633 18.9027 31.009C18.9453 31.04 18.4509 30.8089 18.0621 30.6294Z" fill="#F43A54"/>
</svg>
