<svg width="15" height="12" viewBox="0 0 15 12" fill="none" xmlns="http://www.w3.org/2000/svg">
<path d="M0.239756 5.43957L5.65679 0.230318C5.81142 0.0816199 6.01751 0 6.23727 0C6.45727 0 6.66324 0.0817371 6.81787 0.230318L7.3097 0.703385C7.46421 0.851849 7.54933 1.05015 7.54933 1.26159C7.54933 1.47291 7.46421 1.6779 7.3097 1.82636L4.14948 4.87198H14.1896C14.6423 4.87198 15 5.21277 15 5.64819V6.31698C15 6.7524 14.6423 7.12755 14.1896 7.12755H4.11363L7.30958 10.1902C7.46409 10.3389 7.54921 10.5318 7.54921 10.7432C7.54921 10.9544 7.46409 11.1501 7.30958 11.2987L6.81775 11.7703C6.66312 11.919 6.45714 12 6.23715 12C6.01739 12 5.8113 11.9179 5.65666 11.7692L0.239635 6.56008C0.0846357 6.41091 -0.000607491 6.21179 2.86102e-06 6.00012C-0.00048542 5.78774 0.0846357 5.5885 0.239756 5.43957Z" fill="#00424E"/>
</svg>
