<svg width="22" height="25" viewBox="0 0 22 25" fill="none" xmlns="http://www.w3.org/2000/svg">
<path d="M17.9436 14.1902C18.1766 14.7281 18.3121 15.3864 18.3421 16.1475C19.1286 16.3278 19.7171 17.0312 19.7171 17.8713C19.7171 18.847 18.9233 19.6408 17.9476 19.6408C16.972 19.6408 16.1782 18.847 16.1782 17.8713C16.1782 17.0407 16.7539 16.3446 17.5265 16.1544C17.4925 15.3984 17.3117 14.2482 16.5718 13.6803C16.19 13.5806 15.8007 13.5121 15.4078 13.4753C15.3784 14.7997 11.001 18.0681 11.001 18.0681C11.001 18.0681 6.62219 14.8003 6.59251 13.4759C6.15669 13.5157 5.72541 13.5952 5.30407 13.7135C4.76424 14.1409 4.48493 14.9372 4.47051 16.0947C4.63167 16.1887 4.75948 16.3306 4.83611 16.5006C5.41758 16.7753 5.93128 17.353 6.32464 18.1754C6.39052 18.3137 6.39923 18.4699 6.35078 18.6126C6.58653 19.2194 6.72128 19.8825 6.72128 20.4395C6.72128 21.22 6.72128 21.958 5.87057 22.1475C5.77833 22.2243 5.66204 22.2663 5.54199 22.2662H4.97358C4.83659 22.266 4.70527 22.2115 4.60837 22.1146C4.51148 22.0178 4.45691 21.8865 4.45662 21.7495L4.45717 21.7293C4.4631 21.5961 4.52001 21.4702 4.61612 21.3778C4.71224 21.2853 4.84021 21.2333 4.97358 21.2325H5.54199C5.59992 21.2325 5.65744 21.2423 5.71213 21.2614C5.72814 21.2579 5.74349 21.252 5.7576 21.2437C5.82075 21.1315 5.82075 20.6644 5.82075 20.4401C5.82075 19.9876 5.70751 19.4412 5.50905 18.9335C5.40589 18.875 5.32306 18.7864 5.27167 18.6795C4.92703 17.9579 4.45826 17.4918 4.07768 17.4918C3.6884 17.4918 3.19621 17.996 2.85294 18.7452C2.7961 18.8676 2.69895 18.9669 2.57771 19.0264C2.39832 19.512 2.29977 20.0121 2.29977 20.4398C2.29977 20.6282 2.29977 21.128 2.37164 21.2456C2.37246 21.2456 2.38852 21.2554 2.43371 21.2665C2.49251 21.2439 2.55566 21.2322 2.61882 21.2322H3.18832C3.3163 21.2324 3.43968 21.28 3.53461 21.3658C3.62954 21.4516 3.68928 21.5696 3.70228 21.6969L3.70501 21.7288C3.70501 22.034 3.47307 22.2664 3.18832 22.2664H2.61882C2.50585 22.2664 2.39668 22.2286 2.30685 22.16C1.98154 22.0987 1.75232 21.9553 1.60723 21.7217C1.43137 21.4394 1.39925 21.0686 1.39925 20.4398C1.39925 19.8882 1.52665 19.2529 1.75804 18.6461C1.7237 18.5168 1.73574 18.3797 1.79207 18.2584C2.03299 17.7314 2.33952 17.28 2.67817 16.9536C2.85406 16.7815 3.05486 16.6369 3.2738 16.5246C3.35082 16.344 3.4845 16.1934 3.65464 16.0955C3.66335 15.3701 3.77497 14.7437 3.98132 14.2272C1.61893 15.4256 0 17.8765 0 20.7068C0 24.3237 2.6425 24.5006 6.10169 24.5006C6.47927 24.5006 6.86583 24.4984 7.26083 24.4984H14.7381C15.1325 24.4984 15.5191 24.5006 15.8967 24.5006C19.3564 24.5006 22 24.3237 22 20.7068C21.9997 17.8465 20.3462 15.3741 17.9436 14.1902Z" fill="white"/>
<path d="M11.0018 14.426C14.3458 14.426 17.0564 9.39762 17.0564 6.05383C17.0564 2.71059 14.3458 0 11.0018 0C7.65832 0 4.94775 2.71059 4.94775 6.05383C4.94775 9.39762 7.65832 14.426 11.0018 14.426Z" fill="white"/>
<path d="M17.9475 18.6879C18.3986 18.6879 18.7642 18.3223 18.7642 17.8713C18.7642 17.4202 18.3986 17.0546 17.9475 17.0546C17.4965 17.0546 17.1309 17.4202 17.1309 17.8713C17.1309 18.3223 17.4965 18.6879 17.9475 18.6879Z" fill="white"/>
</svg>
