<svg width="14" height="11" viewBox="0 0 14 11" fill="none" xmlns="http://www.w3.org/2000/svg">
<path d="M11.0897 9.26348L2.77512 0.949173L2.77335 0.947142C2.72833 0.902494 2.67497 0.86715 2.61629 0.843127C2.55762 0.819105 2.49479 0.806874 2.43139 0.807133C2.36799 0.807392 2.30526 0.820137 2.24678 0.844639C2.18831 0.869141 2.13523 0.904921 2.09058 0.949935C2.04593 0.99495 2.01059 1.04832 1.98657 1.10699C1.96254 1.16566 1.95031 1.2285 1.95057 1.2919C1.9511 1.41994 2.00246 1.54253 2.09337 1.6327L2.82134 2.36066C1.93852 2.96529 1.17863 3.73216 0.582097 4.62047C0.484684 4.76429 0.432617 4.93401 0.432617 5.10772C0.432617 5.28143 0.484684 5.45115 0.582097 5.59498C2.1048 7.84869 4.51873 9.16903 6.93266 9.15252C7.71457 9.15535 8.49127 9.02519 9.22954 8.76759L10.4079 9.94599C10.4987 10.0339 10.6204 10.0826 10.7467 10.0817C10.873 10.0809 10.994 10.0305 11.0836 9.94139C11.1732 9.8523 11.2243 9.73162 11.2258 9.60529C11.2274 9.47896 11.1793 9.35705 11.092 9.26577L11.0897 9.26348ZM6.93266 7.84209C6.47531 7.84192 6.0253 7.72713 5.62375 7.50822C5.2222 7.28931 4.88192 6.97325 4.634 6.58894C4.38608 6.20462 4.23843 5.7643 4.20454 5.30821C4.17066 4.85212 4.25161 4.39481 4.44002 3.97807L5.20048 4.73854C5.13923 5.02718 5.15106 5.32656 5.23491 5.60946C5.31877 5.89237 5.47197 6.14984 5.68062 6.35849C5.88927 6.56714 6.14674 6.72035 6.42965 6.8042C6.71256 6.88805 7.01193 6.89989 7.30058 6.83863L8.06104 7.5991C7.7066 7.75981 7.32183 7.84267 6.93266 7.84209ZM13.2832 4.6192C11.7605 2.36422 9.34659 1.04388 6.93266 1.06039C6.15075 1.05755 5.37405 1.18772 4.63578 1.44531L5.80377 2.6133C6.3106 2.38394 6.87529 2.31449 7.42259 2.4142C7.96989 2.51392 8.47381 2.77806 8.86718 3.17143C9.26055 3.5648 9.52469 4.06871 9.6244 4.61601C9.72412 5.16332 9.65466 5.72801 9.4253 6.23483L11.0437 7.85326C11.9267 7.24873 12.6867 6.48185 13.2832 5.59346C13.3806 5.44966 13.4326 5.27998 13.4326 5.10633C13.4326 4.93267 13.3806 4.763 13.2832 4.6192Z" fill="#0094B8"/>
<path d="M6.93286 3.33569C6.80921 3.33571 6.6859 3.34864 6.56494 3.37429L8.66504 5.47413C8.7198 5.21613 8.71624 4.94916 8.65461 4.69272C8.59298 4.43627 8.47485 4.19683 8.30884 3.99189C8.14283 3.78694 7.93314 3.62167 7.69508 3.50814C7.45702 3.39461 7.1966 3.33569 6.93286 3.33569Z" fill="#0094B8"/>
</svg>
