<svg width="26" height="26" viewBox="0 0 26 26" fill="none" xmlns="http://www.w3.org/2000/svg">
<circle cx="13" cy="13" r="12" fill="#00424E" stroke="#F4F6F8" stroke-width="2"/>
<path d="M10.1596 9.46175C10.1596 8.97487 10.304 8.49891 10.5745 8.09408C10.845 7.68924 11.2294 7.37372 11.6793 7.18739C12.1291 7.00107 12.6241 6.95232 13.1016 7.0473C13.5791 7.14229 14.0178 7.37675 14.362 7.72103C14.7063 8.06531 14.9408 8.50396 15.0358 8.98149C15.1308 9.45902 15.082 9.954 14.8957 10.4038C14.7094 10.8537 14.3938 11.2381 13.989 11.5086C13.5842 11.7791 13.1082 11.9235 12.6213 11.9235C11.9684 11.9235 11.3423 11.6641 10.8806 11.2025C10.4189 10.7408 10.1596 10.1147 10.1596 9.46175ZM16.3435 14.1883C16.3355 14.1315 16.3078 14.0792 16.2653 14.0406C15.9423 13.7381 15.5617 13.5037 15.1462 13.3515C14.7306 13.1992 14.2887 13.1322 13.8467 13.1544H11.3849C8.88623 13.1544 8 14.9822 8 16.5516C8 17.9548 8.74468 18.6933 10.154 18.6933H13.3543C13.3786 18.694 13.4027 18.6894 13.425 18.6799C13.4474 18.6703 13.4673 18.656 13.4836 18.6379C13.5178 18.6022 13.5375 18.5551 13.5389 18.5056V17.4625C13.5392 17.2177 13.6366 16.983 13.8097 16.8101L16.29 14.3176C16.3236 14.2829 16.3427 14.2366 16.3435 14.1883ZM14.4621 17.4625V19.001H16.0007L18.7942 16.2199L17.2439 14.6696L14.4621 17.4625ZM19.8213 14.3305L19.132 13.6412C19.0167 13.5266 18.8608 13.4622 18.6982 13.4622C18.5356 13.4622 18.3796 13.5266 18.2643 13.6412L17.6741 14.2382L19.2244 15.7885L19.8213 15.1983C19.9358 15.083 20 14.9271 20 14.7647C20 14.6022 19.9358 14.4458 19.8213 14.3305Z" fill="white"/>
</svg>
