<svg width="15" height="15" viewBox="0 0 15 15" fill="none" xmlns="http://www.w3.org/2000/svg">
<path d="M15 12.7507C15 12.9496 14.921 13.1404 14.7803 13.281C14.6397 13.4217 14.4489 13.5007 14.25 13.5007H7.362C7.20926 13.9391 6.92388 14.3191 6.54544 14.588C6.167 14.8569 5.71425 15.0014 5.25 15.0014C4.78575 15.0014 4.333 14.8569 3.95456 14.588C3.57612 14.3191 3.29074 13.9391 3.138 13.5007H0.75C0.551088 13.5007 0.360322 13.4217 0.21967 13.281C0.0790176 13.1404 0 12.9496 0 12.7507C0 12.5518 0.0790176 12.361 0.21967 12.2204C0.360322 12.0797 0.551088 12.0007 0.75 12.0007H3.138C3.29074 11.5623 3.57612 11.1823 3.95456 10.9134C4.333 10.6445 4.78575 10.5 5.25 10.5C5.71425 10.5 6.167 10.6445 6.54544 10.9134C6.92388 11.1823 7.20926 11.5623 7.362 12.0007H14.25C14.4489 12.0007 14.6397 12.0797 14.7803 12.2204C14.921 12.361 15 12.5518 15 12.7507ZM14.25 6.75071H12.612C12.4593 6.3123 12.1739 5.93229 11.7954 5.66338C11.417 5.39447 10.9643 5.25 10.5 5.25C10.0357 5.25 9.583 5.39447 9.20456 5.66338C8.82612 5.93229 8.54074 6.3123 8.388 6.75071H0.75C0.551088 6.75071 0.360322 6.82973 0.21967 6.97038C0.0790176 7.11103 0 7.3018 0 7.50071C0 7.69962 0.0790176 7.89039 0.21967 8.03104C0.360322 8.17169 0.551088 8.25071 0.75 8.25071H8.388C8.54074 8.68912 8.82612 9.06913 9.20456 9.33804C9.583 9.60694 10.0357 9.75142 10.5 9.75142C10.9643 9.75142 11.417 9.60694 11.7954 9.33804C12.1739 9.06913 12.4593 8.68912 12.612 8.25071H14.25C14.4489 8.25071 14.6397 8.17169 14.7803 8.03104C14.921 7.89039 15 7.69962 15 7.50071C15 7.3018 14.921 7.11103 14.7803 6.97038C14.6397 6.82973 14.4489 6.75071 14.25 6.75071ZM0.75 3.00071H4.638C4.79074 3.43912 5.07612 3.81913 5.45456 4.08804C5.833 4.35694 6.28575 4.50142 6.75 4.50142C7.21425 4.50142 7.667 4.35694 8.04544 4.08804C8.42388 3.81913 8.70926 3.43912 8.862 3.00071H14.25C14.4489 3.00071 14.6397 2.92169 14.7803 2.78104C14.921 2.64039 15 2.44962 15 2.25071C15 2.0518 14.921 1.86103 14.7803 1.72038C14.6397 1.57973 14.4489 1.50071 14.25 1.50071H8.862C8.70926 1.0623 8.42388 0.682288 8.04544 0.41338C7.667 0.144473 7.21425 0 6.75 0C6.28575 0 5.833 0.144473 5.45456 0.41338C5.07612 0.682288 4.79074 1.0623 4.638 1.50071H0.75C0.551088 1.50071 0.360322 1.57973 0.21967 1.72038C0.0790176 1.86103 0 2.0518 0 2.25071C0 2.44962 0.0790176 2.64039 0.21967 2.78104C0.360322 2.92169 0.551088 3.00071 0.75 3.00071Z" fill="black"/>
</svg>
